<?xml version="1.0" encoding="UTF-8"?>
<svg xmlns="http://www.w3.org/2000/svg" xmlns:xlink="http://www.w3.org/1999/xlink" width="172" height="172" viewBox="0 0 172 172">
  <defs>
    <clipPath id="a">
      <rect width="172" height="172" fill="none"></rect>
    </clipPath>
  </defs>
  <g clip-path="url(#a)">
    <path d="M86.031,0a86.031,86.031,0,1,0,86.031,86.031A86.033,86.033,0,0,0,86.031,0m2.592,170.12c-.923.031-1.848.045-2.768.045a84.337,84.337,0,1,1,2.768-.048Z" fill="#fff"></path>
    <path d="M74.934,149.176a59.671,59.671,0,0,0,18.724,3c.657,0,1.314-.012,1.973-.031A60.077,60.077,0,0,0,104.3,32.984l-1.831-2.111L98.81,26.658l-2.5,3.654-1.2,1.755q-.688-.016-1.381-.017-.993,0-1.99.034A60.031,60.031,0,0,0,51.08,134.413a18.14,18.14,0,0,0-.444,2.077,13.444,13.444,0,0,0,13.6,15.89A19.417,19.417,0,0,0,72.7,150.3c.274-.134.548-.271.82-.417l1.414-.7ZM114.985,48.421,100.809,62.054l-2.7,2.6-43.99,42.31-.875.841-.059-.109a11.7,11.7,0,0,1-.746-1.741l-.017-.053.039-.042.886-.936,57.679-61.07.774-.822,4,4.613-.81.78ZM51.866,101.474v-.031l.02-.025,1.151-1.426,51.4-63.731.716-.889,4,4.613-.055.061-.7.785L53.006,103.179l-.976,1.1-.031-.2a12.7,12.7,0,0,1-.131-2.609ZM98.9,28.176l3.612,4.149-.048.061-.648.856-47.531,62.5L52.6,97.96l-.164-.084a19.518,19.518,0,0,1,2.787-5.806Zm-34.655,123.3a12.8,12.8,0,0,1-9.9-4.358c-4.224-4.867-3.95-12.267.7-18.85l12.044-17.349L65.245,112l-1.518.892-1.642.962-.033-.005a12.635,12.635,0,0,1-2.44-.6l-.179-.065.159-.1,1.068-.7,7.89-5.146,1.993-1.3,2.958-4.26-2.111,1.47-12.359,8.608-1.079.752-.051-.028a11.841,11.841,0,0,1-1.537-1.015l-.1-.075.1-.073.85-.654L76.488,95.81,78.831,94l4.7-6.779L81,89.3,56.112,109.72l-.894.733-.061-.061c-.2-.2-.356-.378-.5-.548-.226-.26-.419-.5-.592-.74l-.051-.067.062-.056.8-.721L89.792,76.636l2.936-2.659,7.659-11.033,1.991,2.294.665-.6,14.565-13.187.833-.754,4,4.613-.076.061-.793.651L106.38,68.484l-.693.567L107.9,71.6l.711-.548,15.585-12.009.889-.685.059.067,3.944,4.546-.926.646L111.949,74.908l-.738.515,2.208,2.546.757-.495,16.606-10.835.947-.618,4,4.613-.1.059-.886.52L117.515,81.327l-.786.461,2.217,2.556.8-.442,17.617-9.67,1.007-.554,3.544,4.1-.109.053-19.185,9.376-.833.409,22.562,26.006L73.106,149.095a18.873,18.873,0,0,1-8.865,2.39Z" transform="translate(-7.795 -6.181)" fill="#00ff1a"></path>
    <path d="M84.287,154.45a4.845,4.845,0,0,1,1.2-6.749l51.034-29.892-10.251-11.816L84.855,148.171A4.846,4.846,0,1,1,78.5,140.85l47.6-35.041L115.843,93.978l-36.8,46.3a4.842,4.842,0,0,1-8.288-4.255l-6.737,9.706c-4.577,6.485-3.346,12.07-.9,14.886,3.308,3.813,9.128,4.294,14.825,1.227l.045-.022,10.687-5.32a4.834,4.834,0,0,1-4.386-2.049Z" transform="translate(-14.129 -21.79)" fill="#00ff1a"></path>
    <path d="M146.058,125.244,101.4,162.08l53.506-26.635Z" transform="translate(-23.512 -29.04)" fill="#00ff1a"></path>
    <path d="M110.691,80.72,76.826,129.51l42.539-38.79Z" transform="translate(-17.813 -18.716)" fill="#00ff1a"></path>
    <path d="M14.16,76.922l-1.04,2.863,8.837-.484,4.964,1.809.929-2.541L22.884,76.76,16.426,70.7l-1,2.757L19.653,77l-.011.036Z" transform="translate(-3.042 -16.394)" fill="#fff"></path>
    <path d="M33.207,68.621c1.935-3.57-.369-5.4-3.955-7.338s-6.374-2.877-8.308.7.369,5.4,3.958,7.339,6.374,2.876,8.308-.7ZM22.694,62.927c.76-1.406,2.111-.976,5.266.735,3.173,1.719,4.255,2.6,3.5,4.009s-2.094.984-5.267-.735c-3.156-1.711-4.255-2.6-3.494-4.009" transform="translate(-4.693 -13.81)" fill="#fff"></path>
    <path d="M31.795,45.244l7.19,5.731-.025.031-9.228-3.173-1.946,2.44,10.5,8.367,1.545-1.94L32.48,50.841l.022-.031,9.415,3.274,1.92-2.413L33.341,43.3Z" transform="translate(-6.443 -10.041)" fill="#fff"></path>
    <path d="M54.263,41.942l-1.485-1.649-3.7,3.332-2.412-2.684,3.354-3.019-1.485-1.65-3.354,3.016-2.111-2.348,3.565-3.2-1.485-1.65L39.571,37.1l8.976,9.98Z" transform="translate(-9.175 -7.44)" fill="#fff"></path>
    <path d="M51.009,27.253l6.192,3.9.873,7.514,2.5-1.613-.86-4.862,4.1,2.771,2.558-1.655-6.494-3.883-.984-7.268-2.477,1.6.92,4.577-3.811-2.709Z" transform="translate(-11.827 -5.138)" fill="#fff"></path>
    <path d="M77.944,14.471l.774,13.863,2.681-.872-.288-2.89,3.4-1.1,1.47,2.508,2.681-.873L81.125,13.436Zm2.927,7.844-.634-6.139.036-.012,3.1,5.337Z" transform="translate(-18.073 -3.115)" fill="#fff"></path>
    <path d="M101.126,22.962l-.339-2.195L96.05,21.5,94.338,10.426l-2.675.414,2.049,13.267Z" transform="translate(-21.253 -2.418)" fill="#fff"></path>
    <path d="M106.827,22.525l7.5-.042-.012-2.217-4.794.025-.065-11.2-2.706.017Z" transform="translate(-24.752 -2.107)" fill="#fff"></path>
    <path d="M126.867,23.821l7.486,1.761.505-2.162-4.847-1.14.824-3.514,4.392,1.035.508-2.162-4.391-1.031.721-3.076,4.668,1.1.506-2.161-7.3-1.716Z" transform="translate(-29.416 -2.494)" fill="#fff"></path>
    <path d="M144.646,14.819,139.466,27.2l2.292.956,3.626-8.671.034.014-.573,9.949,2.846,1.191,5.177-12.387-2.29-.956-3.547,8.482L147,25.767l.528-9.745Z" transform="translate(-32.337 -3.436)" fill="#fff"></path>
    <path d="M166.062,30.8c1.476-2.292,1.289-4.224-1.207-5.832-2.907-1.873-5.046-.5-7.489,3.294-2.516,3.905-3.307,6.346-.509,8.148a3.013,3.013,0,0,0,3.184.263l.033.02-.674,1.042,1.678,1.079L165,32.733l-3.682-2.374-1.078,1.675,1.5.967-.744,1.155a1.976,1.976,0,0,1-2.569.895c-1.311-.844-.464-2.715,1.286-5.431,1.812-2.815,2.989-3.666,4.1-2.953.917.59.615,1.893.075,2.731Z" transform="translate(-35.96 -5.597)" fill="#fff"></path>
    <path d="M174.584,32.477,165.6,42.446l5.571,5.024,1.485-1.647-3.562-3.212,7.506-8.32Z" transform="translate(-38.396 -7.53)" fill="#fff"></path>
    <path d="M175.791,53.569l2.6-1.294,2.24,2.784-1.823,2.261,1.767,2.2,8.233-11.183-2.1-2.608-12.689,5.644,1.767,2.2Zm10.139-5.09.025.028L182.066,53.3l-1.649-2.052,5.515-2.774Z" transform="translate(-40.349 -10.603)" fill="#fff"></path>
    <path d="M195.022,56.376l-11.688,6.6,1.219,2.161,8.185-4.621.019.034-6.561,7.5,1.518,2.684,11.688-6.6-1.219-2.161-8.006,4.52-.019-.031,6.4-7.369Z" transform="translate(-42.509 -13.072)" fill="#fff"></path>
    <path d="M200.016,83.3c3.729-1.3,5.938-2.784,4.7-6.334l-1.459-4.191L190.584,77.19l1.4,4.031c1.179,3.391,3.536,3.646,8.031,2.082Zm2.253-7.313.377,1.082c.68,1.954-.713,2.7-3.592,3.7-3.444,1.2-4.686,1.233-5.306-.542l-.394-1.135Z" transform="translate(-44.19 -16.875)" fill="#fff"></path>
    <path d="M16.7,141.037c2.049-.6,3.433-1.28,2.848-3.268s-2.113-1.812-4.163-1.208-3.433,1.278-2.846,3.268,2.114,1.811,4.163,1.211Zm-.926-3.15c1.8-.532,2.541-.607,2.771.176s-.431,1.118-2.234,1.646-2.541.607-2.773-.176.422-1.112,2.236-1.646" transform="translate(-2.875 -31.569)" fill="#fff"></path>
    <path d="M15.578,148.435l2.6-1.051.277.687a1.939,1.939,0,0,0,2.779,1.227,1.849,1.849,0,0,0,1.25-2.533l-.906-2.244-6.521,2.631.517,1.283ZM21.13,146.2l.215.534c.26.64-.005,1.04-.643,1.294a.9.9,0,0,1-1.322-.459l-.23-.57,1.983-.8Z" transform="translate(-3.491 -33.509)" fill="#fff"></path>
    <path d="M23.331,157.842l1.032-.531-1.057-2.049,1.473-.757,1.121,2.178,1.031-.534-1.752-3.4-6.251,3.215,1.8,3.491,1.032-.531-1.163-2.264,1.68-.861Z" transform="translate(-4.389 -35.417)" fill="#fff"></path>
    <path d="M25.819,167.826l5.918-3.794-.682-1.065L27,165.565l-.008-.017,3.153-4-.861-1.342L23.365,164l.682,1.065,4.146-2.656.011.017L24.969,166.5Z" transform="translate(-5.417 -37.146)" fill="#fff"></path>
    <path d="M37.545,179.189a1.481,1.481,0,0,0,.388-2.019l.015-.014a1.465,1.465,0,0,0,1.837-.249,1.65,1.65,0,0,0,.028-2.642l-1.54-1.722-5.242,4.685,1.555,1.739a1.885,1.885,0,0,0,2.96.224Zm.866-4.923.333.372c.452.509.481.909-.017,1.356s-.923.358-1.429-.207l-.263-.294,1.373-1.227Zm-3.327,3.7-.358-.4,1.577-1.412.4.442a.925.925,0,0,1-.081,1.49.95.95,0,0,1-1.535-.121Z" transform="translate(-7.659 -40.007)" fill="#fff"></path>
    <path d="M43.532,188.133l3.407-6.412-1.261-1.152L39.6,184.532l1.062.97,1.235-.883,1.345,1.23-.769,1.311,1.062.97Zm-.677-4.207,2.622-1.887.014.014-1.644,2.778-.992-.908Z" transform="translate(-9.181 -41.867)" fill="#fff"></path>
    <path d="M53.884,186.984l-1.817-1.35-4.2,5.641,1.748,1.3c1.47,1.093,2.558.5,4.042-1.5,1.233-1.661,1.761-2.947.221-4.093Zm-1.353,3.3c-1.138,1.532-1.663,1.918-2.432,1.345l-.495-.366,2.949-3.967.469.35c.85.628.462,1.361-.492,2.642Z" transform="translate(-11.1 -43.042)" fill="#fff"></path>
    <path d="M59.984,191.184l-3.531,6.077,1.1.638,2.818-4.853.016.008-1.764,5.468.931.54,3.871-4.241.017.008-2.821,4.855,1.1.634,3.533-6.077-1.77-1.029-3.349,3.794L60.115,197l1.647-4.783Z" transform="translate(-13.089 -44.329)" fill="#fff"></path>
    <path d="M71.719,197.385l-1.255-.578-2.957,6.376,1.255.585Z" transform="translate(-15.652 -45.633)" fill="#fff"></path>
    <path d="M75.758,199.107l-2.43,6.6,1.188.439,1.7-4.618.017,0-.114,5.2,1.476.545,2.429-6.6-1.188-.439-1.663,4.52-.019-.008.1-5.1Z" transform="translate(-17.002 -46.166)" fill="#fff"></path>
    <path d="M86.011,209.648l1.5-5.672,1.448.38.293-1.124-4.232-1.115-.3,1.124,1.448.383-1.5,5.672Z" transform="translate(-19.633 -46.864)" fill="#fff"></path>
    <path d="M97.4,208.5c.346-2.108.338-3.645-1.708-3.984s-2.549,1.116-2.9,3.226-.341,3.649,1.708,3.984,2.549-1.115,2.9-3.226m-3.24-.536c.307-1.854.556-2.553,1.361-2.418s.82.875.515,2.728-.556,2.552-1.361,2.418-.82-.861-.512-2.728Z" transform="translate(-21.477 -47.408)" fill="#fff"></path>
    <path d="M105.9,210.6l-.019,0-1.364-4.911-1.591-.1-.442,7.017,1.264.078.307-4.915.023,0,1.375,5.021,1.571.1.442-7.016L106.2,205.8Z" transform="translate(-23.762 -47.67)" fill="#fff"></path>
    <path d="M121.111,212.607c1.806-.174,2.043-1.512,1.9-3.022l-1.375.131c.145,1.509-.19,1.809-.688,1.859-.592.056-.914-.3-1.121-2.415-.19-1.982-.1-2.712.6-2.779.621-.058.864.361.962,1.381l1.376-.131c-.1-1.02-.386-2.485-2.354-2.3-2.063.2-2.175,1.734-1.971,3.858s.609,3.615,2.672,3.414" transform="translate(-27.445 -47.606)" fill="#fff"></path>
    <path d="M132.1,210.693l1.356-.28-1.4-6.889-1.357.274.54,2.633-1.582.322-.534-2.633-1.356.273,1.4,6.891,1.356-.274-.623-3.058,1.579-.324Z" transform="translate(-29.624 -47.19)" fill="#fff"></path>
    <path d="M143.135,207.879l1.373-.433-3.849-6.159-1.63.515.389,7.251,1.373-.436-.145-1.512,1.738-.551Zm-2.611-1.954-.321-3.212.019-.005,1.585,2.815-1.28.4Z" transform="translate(-32.236 -46.672)" fill="#fff"></path>
    <path d="M154,203.02l1.154-.523-2.885-6.407-1.865.836,1.135,4.931-.017.008-2.933-4.123-1.873.844L149.6,205l1.158-.52-2.3-5.119.017-.008,3.416,4.618.981-.442-1.191-5.616.014-.012Z" transform="translate(-34.019 -45.466)" fill="#fff"></path>
    <path d="M162.408,193.234a1.849,1.849,0,0,0-2.695-.853l-2.08,1.233,3.589,6.046,1.188-.7-1.431-2.412.634-.378a1.938,1.938,0,0,0,.793-2.932m-1.434,2.1-.528.313-1.091-1.837.495-.293c.6-.352,1.026-.151,1.379.442a.9.9,0,0,1-.257,1.378Z" transform="translate(-36.55 -44.537)" fill="#fff"></path>
    <rect width="1.384" height="7.031" transform="matrix(0.815, -0.58, 0.58, 0.815, 127.29, 145.186)" fill="#fff"></rect>
    <path d="M177.155,188.778c1.579-1.342.8-2.667-.585-4.3s-2.563-2.617-4.143-1.275-.8,2.664.585,4.294,2.56,2.616,4.143,1.277M173.1,184c.624-.528,1.2-.059,2.413,1.375s1.585,2.077.964,2.6-1.191.068-2.412-1.375-1.585-2.075-.965-2.6" transform="translate(-39.777 -42.334)" fill="#fff"></path>
    <path d="M185.145,180.541l1.088-1.141-5.1-4.847-.872.916,3.489,3.321-.014.014-4.638-2.111-1.1,1.155L183.1,182.7l.872-.917-3.567-3.394.014-.017Z" transform="translate(-41.273 -40.473)" fill="#fff"></path>
    <path d="M191.781,173.456c.911-1.185.923-2.3-.257-3.2a1.791,1.791,0,0,0-2.27-.1l-1.023.556a.916.916,0,0,1-1.191-.019.72.72,0,0,1-.167-1.124c.321-.419.76-.361,1.283.045l.808-1.052-.157-.117c-1.071-.825-2.043-.448-2.792.525a1.9,1.9,0,0,0,.346,2.94c.928.716,1.688.588,2.781-.125.813-.523,1.194-.629,1.7-.24a.8.8,0,0,1,.184,1.182c-.445.578-.892.464-1.415.065l-.162-.126-.844,1.1.227.173c1.032.794,2,.764,2.952-.478Z" transform="translate(-43.005 -38.951)" fill="#fff"></path>
    <path d="M197.9,163.839l.727-1.174-5.982-3.7-.727,1.177,2.287,1.412-.847,1.373-2.287-1.412-.727,1.174,5.982,3.692.724-1.174-2.652-1.641.846-1.373Z" transform="translate(-44.134 -36.859)" fill="#fff"></path>
    <rect width="1.384" height="7.031" transform="matrix(0.451, -0.893, 0.893, 0.451, 150.07, 119.191)" fill="#fff"></rect>
    <path d="M205.065,149.988l-2.6-1.054.277-.684a1.94,1.94,0,0,0-1.146-2.815,1.85,1.85,0,0,0-2.659.953l-.909,2.242,6.516,2.639.52-1.28Zm-3.338-2.016-.23.571-1.982-.8.215-.534c.257-.64.724-.74,1.364-.483.665.268.836.74.629,1.249Z" transform="translate(-45.915 -33.671)" fill="#fff"></path>
    <path d="M206.753,139.661l-.2-.055-.383,1.327.273.078c1.25.361,2.138-.025,2.569-1.529.413-1.44.014-2.472-1.415-2.883a1.794,1.794,0,0,0-2.149.738l-.75.895c-.408.489-.7.537-1.115.419a.719.719,0,0,1-.568-.984c.146-.506.576-.615,1.211-.431l.366-1.274-.19-.054c-1.3-.372-2.063.336-2.4,1.519a1.9,1.9,0,0,0,1.4,2.611c1.127.324,1.784-.076,2.541-1.138.565-.786.878-1.026,1.5-.847a.8.8,0,0,1,.607,1.032c-.2.7-.66.76-1.294.578Z" transform="translate(-46.809 -31.49)" fill="#fff"></path>
  </g>
</svg>
