<?xml version="1.0" encoding="UTF-8"?>
<svg xmlns="http://www.w3.org/2000/svg" xmlns:xlink="http://www.w3.org/1999/xlink" width="263.451" height="164.545" viewBox="0 0 263.451 164.545">
  <defs>
    <clipPath id="a">
      <rect width="263.451" height="164.545" fill="#fff"></rect>
    </clipPath>
  </defs>
  <g transform="translate(0 0)">
    <g transform="translate(0 0)" clip-path="url(#a)">
      <path d="M7.219,111.651H0V89.4H6.206c2.968,0,6.247,1.914,6.247,5.829a4.252,4.252,0,0,1-2.058,3.9,6.131,6.131,0,0,1,4.11,5.757c0,4.606-3.83,6.762-7.287,6.762M5.654,92.262H3.347v5.862H5.654c1.817,0,3.384-.836,3.384-2.894,0-2.093-1.566-2.968-3.384-2.968m.868,8.725H3.347v7.807H6.522c2.336,0,4.537-1.187,4.537-3.906,0-2.651-2.2-3.9-4.537-3.9" transform="translate(0 28.679)" fill="#fff"></path>
      <path d="M29.743,111.73l-2.4-5.756H18.688l-2.4,5.756H12.968s8.164-19.459,8.707-20.738a2.935,2.935,0,0,1,2-1.828l9.483,22.566M23.991,97.855c-.316-.732-.956-2.466-.956-2.466s-.688,1.734-1,2.466l-2.2,5.436h6.354Z" transform="translate(4.16 28.603)" fill="#fff"></path>
      <path d="M38,111.652H31.164V89.4H38c6.209,0,12.036,3.939,12.036,11.121S44.208,111.652,38,111.652m-.59-19.389h-2.9v16.53h2.9c5.019,0,9.168-2.614,9.168-8.268s-4.149-8.262-9.168-8.262" transform="translate(9.997 28.679)" fill="#fff"></path>
      <path d="M70.478,111.651l-.906-10.042c-.136-1.5-.272-3.422-.347-5.06h-.066c-.7,1.574-1.78,3.731-2.523,5.167L61.48,111.834H60.224L54.99,101.716c-.77-1.467-1.7-3.453-2.478-5.1h-.063c-.073,1.712-.252,3.663-.35,4.991l-.878,10.042h-3s1.572-18.433,1.7-19.664A2.692,2.692,0,0,1,52.24,89.4l5.932,11.443c.906,1.745,2.053,4.018,2.784,5.726h.07c.7-1.708,1.78-3.882,2.725-5.726,0,0,4.2-8.243,4.876-9.54A3.288,3.288,0,0,1,71.7,89.4l1.992,22.249" transform="translate(15.47 28.679)" fill="#fff"></path>
      <path d="M97.457,112.147,87.024,100.736c-1.677-1.809-3.593-4.047-5.118-5.856l-.073.029c.073,2.029.073,3.913.073,5.594v11.15H78.522V92.528c0-2.273,1.21-3.126,2.336-3.126l9.559,10.459c1.281,1.433,3.309,3.668,4.666,5.344l.069-.041c-.069-1.71-.069-3.624-.069-5.224V89.4h3.384v22.745" transform="translate(25.189 28.679)" fill="#fff"></path>
      <path d="M150.143,112.147l-10.428-11.412c-1.676-1.809-3.591-4.047-5.129-5.856l-.067.029c.067,2.029.067,3.913.067,5.594v11.15H131.2V92.528c0-2.273,1.216-3.126,2.343-3.126L143.1,99.861c1.288,1.433,3.309,3.668,4.678,5.344l.063-.041c-.063-1.71-.063-3.624-.063-5.224V89.4h3.385v22.745" transform="translate(42.088 28.679)" fill="#fff"></path>
      <path d="M110.817,92.3h-4.149v19.351h-3.387V92.3H96.131V89.4h18.146c0,1.411-1.087,2.9-3.46,2.9" transform="translate(30.838 28.679)" fill="#fff"></path>
      <path d="M121.83,112.184c-5.932,0-11.788-4.353-11.788-11.573a11.793,11.793,0,0,1,23.581,0c0,7.219-5.855,11.573-11.793,11.573m0-20.2a8.638,8.638,0,1,0,8.372,8.625,8.339,8.339,0,0,0-8.372-8.625" transform="translate(35.3 28.567)" fill="#fff"></path>
      <path d="M7.219,111.651H0V89.4H6.206c2.968,0,6.247,1.914,6.247,5.829a4.252,4.252,0,0,1-2.058,3.9,6.131,6.131,0,0,1,4.11,5.757c0,4.606-3.83,6.762-7.287,6.762M5.654,92.262H3.347v5.862H5.654c1.817,0,3.384-.836,3.384-2.894,0-2.093-1.566-2.968-3.384-2.968m.868,8.725H3.347v7.807H6.522c2.336,0,4.537-1.187,4.537-3.906,0-2.651-2.2-3.9-4.537-3.9" transform="translate(0 28.679)" fill="#fff"></path>
      <path d="M29.743,111.73l-2.4-5.756H18.688l-2.4,5.756H12.968s8.164-19.459,8.707-20.738a2.935,2.935,0,0,1,2-1.828l9.483,22.566M23.991,97.855c-.316-.732-.956-2.466-.956-2.466s-.688,1.734-1,2.466l-2.2,5.436h6.354Z" transform="translate(4.16 28.603)" fill="#fff"></path>
      <path d="M38,111.652H31.164V89.4H38c6.209,0,12.036,3.939,12.036,11.121S44.208,111.652,38,111.652m-.59-19.389h-2.9v16.53h2.9c5.019,0,9.168-2.614,9.168-8.268s-4.149-8.262-9.168-8.262" transform="translate(9.997 28.679)" fill="#fff"></path>
      <path d="M70.478,111.651l-.906-10.042c-.136-1.5-.272-3.422-.347-5.06h-.066c-.7,1.574-1.78,3.731-2.523,5.167L61.48,111.834H60.224L54.99,101.716c-.77-1.467-1.7-3.453-2.478-5.1h-.063c-.073,1.712-.252,3.663-.35,4.991l-.878,10.042h-3s1.572-18.433,1.7-19.664A2.692,2.692,0,0,1,52.24,89.4l5.932,11.443c.906,1.745,2.053,4.018,2.784,5.726h.07c.7-1.708,1.78-3.882,2.725-5.726,0,0,4.2-8.243,4.876-9.54A3.288,3.288,0,0,1,71.7,89.4l1.992,22.249" transform="translate(15.47 28.679)" fill="#fff"></path>
      <path d="M97.457,112.147,87.024,100.736c-1.677-1.809-3.593-4.047-5.118-5.856l-.073.029c.073,2.029.073,3.913.073,5.594v11.15H78.522V92.528c0-2.273,1.21-3.126,2.336-3.126l9.559,10.459c1.281,1.433,3.309,3.668,4.666,5.344l.069-.041c-.069-1.71-.069-3.624-.069-5.224V89.4h3.384v22.745" transform="translate(25.189 28.679)" fill="#fff"></path>
      <path d="M150.143,112.147l-10.428-11.412c-1.676-1.809-3.591-4.047-5.129-5.856l-.067.029c.067,2.029.067,3.913.067,5.594v11.15H131.2V92.528c0-2.273,1.216-3.126,2.343-3.126L143.1,99.861c1.288,1.433,3.309,3.668,4.678,5.344l.063-.041c-.063-1.71-.063-3.624-.063-5.224V89.4h3.385v22.745" transform="translate(42.088 28.679)" fill="#fff"></path>
      <path d="M110.817,92.3h-4.149v19.351h-3.387V92.3H96.131V89.4h18.146c0,1.411-1.087,2.9-3.46,2.9" transform="translate(30.838 28.679)" fill="#fff"></path>
      <path d="M121.83,112.184c-5.932,0-11.788-4.353-11.788-11.573a11.793,11.793,0,0,1,23.581,0c0,7.219-5.855,11.573-11.793,11.573m0-20.2a8.638,8.638,0,1,0,8.372,8.625,8.339,8.339,0,0,0-8.372-8.625" transform="translate(35.3 28.567)" fill="#fff"></path>
      <path d="M71.473,111.651V92.527A3.086,3.086,0,0,1,74.845,89.4v22.249" transform="translate(22.928 28.679)" fill="#fff"></path>
      <path d="M115.642,127.733V116.021a1.852,1.852,0,0,1,2.071-1.922v11.857h6.008v1.776m40.268,0H159.8V114.1h4.19c3.8,0,7.367,2.421,7.367,6.818s-3.57,6.815-7.367,6.815m-.367-11.875h-1.774v10.124h1.774c3.079,0,5.627-1.594,5.627-5.064s-2.548-5.06-5.627-5.06m-70.1,12.175-6.386-6.988c-1.029-1.105-2.2-2.475-3.143-3.59l-.038.029c.038,1.238.038,2.387.038,3.412v6.838H81.912V116.021c0-1.4.745-1.922,1.437-1.922l5.855,6.418c.8.877,2.03,2.247,2.866,3.266l.045-.016c-.045-1.054-.045-2.231-.045-3.21V114.1h2.075v13.933Zm60.488,0-6.4-6.988c-1.022-1.105-2.2-2.475-3.138-3.59l-.044.029c.044,1.238.044,2.387.044,3.412v6.838H142.4V116.021c0-1.4.745-1.922,1.43-1.922l5.856,6.418c.789.877,2.03,2.247,2.863,3.266l.041-.016c-.041-1.054-.041-2.231-.041-3.21V114.1h2.07v13.933ZM69.42,114.1v13.633h8.1v-1.776H71.5v-4.18h4.419V120H71.5v-4.13l3.8.007a1.887,1.887,0,0,0,2.134-1.776Zm35.976,6.881v1.651h3.3v2.854a5.065,5.065,0,0,1-2.886.7c-2.782,0-5.512-1.724-5.512-5.253a5.224,5.224,0,0,1,5.493-5.316,7.67,7.67,0,0,1,1.831.236,1.983,1.983,0,0,0,2.33-.94,8.215,8.215,0,0,0-4.394-1.1,7.107,7.107,0,0,0-7.349,7.1c0,4.612,3.8,7.071,7.478,7.071a7.652,7.652,0,0,0,4.975-1.474v-5.534Zm31.142,6.752-1.461-3.516h-5.288l-1.474,3.516h-2.035s4.994-11.894,5.328-12.677a1.808,1.808,0,0,1,1.228-1.124l5.793,13.8Zm-3.507-8.491c-.2-.452-.59-1.506-.59-1.506s-.42,1.054-.606,1.506l-1.351,3.331h3.886Z" transform="translate(22.269 36.512)" fill="#fff"></path>
      <path d="M140.649,72.174a7.55,7.55,0,0,1,1.079,1.124,7.461,7.461,0,0,1,.849.991,3.184,3.184,0,0,1-1.6-.675,4.122,4.122,0,0,0-2.244-1.152,4.081,4.081,0,0,1-2.311-.7c-.814-.647-1.708-1.16-2.557-1.746-.334-.234-.7-.461-1.026-.7a3.494,3.494,0,0,0-.682-.527,4.174,4.174,0,0,1-.8-.522,12.023,12.023,0,0,0-1.285-.915,16.358,16.358,0,0,1-1.483-1.247,9.684,9.684,0,0,0-1.3-1.111,22.2,22.2,0,0,1-2.339-1.91c-.407-.345-.829-.7-1.263-1.017a39.557,39.557,0,0,1-3.138-2.683c-1.615-1.449-2.941-3.24-4.617-4.639a16.85,16.85,0,0,1-2.577-2.576,20.291,20.291,0,0,1-1.833-2.78,5.035,5.035,0,0,1-.708-1.3,1.957,1.957,0,0,1,1.061-2.33,1.64,1.64,0,0,1,1.646.048,8.613,8.613,0,0,1,.859.843c1.481,1.56,3.163,2.9,4.69,4.417,1.062,1.057,2.3,1.985,3.356,2.98,1.1,1.047,2.266,2.1,3.39,3.068,2.589,2.248,4.755,4.429,7.169,6.856,1.326,1.339,2.607,2.2,4.009,3.47a7.169,7.169,0,0,1,1.8,1.919c.473,1.1-.413,1.144,1.862,2.823" transform="translate(35.527 14.613)" fill="#fff"></path>
      <path d="M184.047,122.527a35.732,35.732,0,0,1-4.1-2.121,6.7,6.7,0,0,1-1.7-1.187,22.939,22.939,0,0,0-3.182-2.957c-.408-.329-.765-.726-1.19-1.067a30.146,30.146,0,0,1-2.879-2.886,14.828,14.828,0,0,1-1.535-2.355c-.988-1.492-2.14-3.845-1.862-5.7a5.769,5.769,0,0,1,1.294-2.516c.111-.157.091-.347.18-.5a3.592,3.592,0,0,1,1.333-1.117,2.112,2.112,0,0,1,1.165-.158c.584.009.622-.082.679-.659a5.285,5.285,0,0,0,.053-1.317c-.207-.95-1.367-1.24-1.54-2.285a4.743,4.743,0,0,1,.464-2.981,7.123,7.123,0,0,1,.658-1.193c1.215-1.551,3.529-2.185,5.217-3.079.572-.3,1.121-.641,1.7-.931,1.345-.666,2.7-1.329,4.12-1.869,1-.391,1.982-1.006,3.007-1.325a9.032,9.032,0,0,0,1.825-.638,10.3,10.3,0,0,1,2.039-.638,25.181,25.181,0,0,1,2.478-.588c.263-.059.631-.218.91-.289.559-.156,1.158-.174,1.71-.316.691-.188,1.351-.506,2.017-.742.549-.193,1.112-.3,1.655-.479.6-.2,1.3-.619,1.922-.383a1.217,1.217,0,0,1,.679,1.592,7.959,7.959,0,0,1-1.849,2.9c-.351.265-.815.407-1.055.782-.368.581.1.919.427,1.339a3.848,3.848,0,0,1,.824,2.414,10.6,10.6,0,0,1-.547,2.412,14.181,14.181,0,0,0-.3,2.334,2.054,2.054,0,0,1-.291,1.31c-.3.33-.8.573-1.121.934-.53.584-2.832,2.725-3.386,3.3-2.194,2.241-2.084,1.976-2.084,1.976s-4.236,3.454-6,4.183a49.1,49.1,0,0,1-6.793,1.828c-1.026.184-1.3.724-.672,1.405a24.292,24.292,0,0,0,4.431,2.718c1.573.833,3.287,1.669,3.287,1.669s2.821.629,5.691,1.2a6.469,6.469,0,0,0,3.293-1.253c1.249-1.095,2.977-2.774,3.495-4.227a8.219,8.219,0,0,0,.634-2.45c0-.372-.42-.789-.783-.372a37.464,37.464,0,0,1-3.034,3.4c-1.249,1.142-2.033,1.66-2.614,2.187s-.684.4-1.767.572c-2.037.309-2.2.057-2.716-.783s-.312-3.817.472-4.956,1.436-1.63,3.229-3.713c1-1.146,3.913-3.915,5.432-5.323a28.881,28.881,0,0,0,4.388-4.808,7.934,7.934,0,0,0,.367-2.923c0-1.667.782-2.3,1.72-1.042a16.513,16.513,0,0,0,1.308,1.673,9.173,9.173,0,0,1,2.92,4.122,20.707,20.707,0,0,1,1.615,6.481,25.109,25.109,0,0,1-.881,8.034c-.369,1.047-.678.732-.886,1.821s-.42,1.619-1.835,3.4a25.037,25.037,0,0,1-6.683,6.106c-3.182,1.938-5.006,2.721-8.816,2.926s-5.067-.262-6.529-.884" transform="translate(53.749 25.72)" fill="#fff"></path>
      <path d="M217.678,99.51c-.3-2.289-.148-.765-.413-2.788-3.656-27.206-7.628-51.087-8.65-59.544-.654-5.341-.906-8.16-.969-9.856a15.441,15.441,0,0,0-.615-4.312c-1-3.7-1.8-4.05-2.516-1.808-.568,1.808-.777,5.461-1.17,8.946s0,10.857.116,13.963.277,5.543.445,6.545a10.816,10.816,0,0,1,.048,4.043c-1.1-1.942-.376-2-1.374-5.321-.729-2.381-.773-4.584-1.617-8.316-.936-4.151-.543-6.758-1.881-6.758-.277,0-.277,1.061-.442,3.552-.23,3.416-.032,6.9-.012,10.326.012,2.288.021,4.583.034,6.865.007.792.07,1.6.018,2.4-.073,1.43-1.113,1.923-2.2,2.639-.259.168-.9.729-1.215.553-.239-.133-.214-.733-.227-.973-.025-.429-.069-.859-.1-1.281-.1-1.253-.173-2.5-.243-3.76a200.158,200.158,0,0,1-.1-21.806c.777-14.3,1.326-28.039.66-31.25s-1.992-1.111-2.323,2.993c0,0-1.216,0-.667,3.986s.118,6.093-1.215,12.079c-1.219,5.493-1.392,11.98-2.33,15.964-1.222,5.2-1.992,12.513-2.212,13.839s-.995,1.778-2.214,2.333c0,0-.722-1.588,0-5.534.436-2.446.7-4,.222-5.767a4.578,4.578,0,0,0-4.773-3.663c-2.879.338-5.086,1.774-5.2,4.546a22.338,22.338,0,0,0,.886,7.422,33.665,33.665,0,0,1,.894,3.545s-1.449-.218-3.217-3.211-6.745-13.587-8.763-18.063c-2.428-5.43-5.312-9.969-5.973-14.287-.445-2.883-.672-5.209-.886-6-.225-.767-.575-.215-.786.441-.777-2.329-4.328-4.74-3.353-.738s2.5,9.635,4.5,18.127,5.543,18.808,12.157,32.856a1.491,1.491,0,0,1-.609,2.21c-.556.354-1.294.862-2.023,1.289a1.769,1.769,0,0,1-2.157-.549c-.736-.862-7.226-8.016-8.614-9.824-1.7-2.216-1.5-2.62-3.47-4.5-3.552-3.4-6.352-7.612-8.275-9.533s-7.985-8.35-9.236-9.828-1.408-2.73-3.324-4.656-3.323-2.292-4.138-1.841.89,6.428,2.807,9.969a158.663,158.663,0,0,0,15.3,23.118c8.8,11.132,16.659,20.779,20.236,25.557.445.594.073,1.26-.594.594-4.867-4.878-8.144-8.757-10.035-10.564-3.182-3.03-10.2-9.457-14.114-14.332-3.6-4.483-9.309-10.408-11.153-12.845-2.51-3.33-4.587-4.363-6.652-6.731s-5.168-5.83-7.239-6.2-3.175-.515-2.437,2.067,4.36,9.533,11.888,18.767,8.429,9.967,9.537,11.668a88.648,88.648,0,0,0,7.233,8.786c2.442,2.434,5.982,4.217,7.313,5.759,1.923,2.226,2,2.837-.148,2.671a6.932,6.932,0,0,1-1.695-.158,14.715,14.715,0,0,1-2.443-1.771c-2.731-1.919-4.73-3.17-6.276-4.36s-3.027-1.1-2.73.894c.182,1.24,1.767,2.509,4.5,5.237s4.871,4.584,7.167,6.872,4.256,4.569,5.339,5.759,3.157,2.737,5.3,5.18,5.24,5.907,8.119,9.086c2.825,3.1,3.921,4.281,3.842,5.016-.221,2.144-.59,3.627,1.035,5.174,1.881,1.8,3.533-.186,5.407-.865.79-.291,1.01-.777,1.376-1.5.461-.925.461-2.611,1.444-3.2.75-.449,1.429.357,2.121.72,1.022.555,2.63,1.123,3.759.491,1.753-.959.345-3.791.209-5.312-.164-1.771.951-1.131,1.939-2.03a4.45,4.45,0,0,0,.861-1.749c.395-1.095.588-2.358,2-2.364.938-.009,1.547.65,2.317,1.07a3.921,3.921,0,0,0,1.319.332,6.458,6.458,0,0,1,1.419.738,4.839,4.839,0,0,0,2.714.433c2.5-.465.843-3.744.395-5.086a18.284,18.284,0,0,1-.543-3.523,33.763,33.763,0,0,0-.736-3.431c-.429-2.039-.77-3.983-1.108-6.061a21.727,21.727,0,0,1-.575-2.573,16.994,16.994,0,0,0-.284-2.693c-.268-1.3-1.121-4.306.859-4.691.783-.155,1.172,1.285,1.183,1.33,2,5.691,5.907,16.693,7.246,18.908s1.622,2.589,2.945,2.734,1.849.888,3.109.742,1.7-.354,3.1-.52c1.844-.222,3.252-.518,2.955-2.807M171.052,82.476c-.906.129-1.36-.919-1.676-1.585-.486-1.017-1.363-1.755-1.916-2.737-.328-.584-1.209-1.444-.341-2.018.543-.35.808-.044,1.158.32.388.425.906.711,1.292,1.149.783.9,1.606,1.849,2.3,2.793.232.325.7.54.763.985.089.65-1.079,1.016-1.585,1.092m2.109-7.918c-.8-1.013,1.506-2.537,2.418-1.319a5.319,5.319,0,0,1,.438.913c.312.666.663,1.294.991,1.948.161.321.316.663.452,1.006.184.474.325.992-.359,1.076-.481.079-.9-.511-1.19-.824-.468-.489-.869-1.032-1.308-1.543-.407-.486-1.067-.777-1.442-1.257m9.372,21.151c-.079.293-.057.96-.464.969-.461.022-1.083-1.026-1.367-1.31-.581-.6-1.294-1-1.857-1.617a26.78,26.78,0,0,1-1.78-2.023c-.372-.518-.827-.934-1.168-1.462-.37-.571-.221-.668.322-1,.72-.441,1.967-1.035,2.825-.621a11.007,11.007,0,0,1,2.569,2.686,6.819,6.819,0,0,1,.408,1.24,6.77,6.77,0,0,1,.609,2.632,2.12,2.12,0,0,1-.1.508" transform="translate(36.58 0)" fill="#fff"></path>
    </g>
  </g>
</svg>
