<?xml version="1.0" encoding="UTF-8"?>
<svg xmlns="http://www.w3.org/2000/svg" xmlns:xlink="http://www.w3.org/1999/xlink" width="1920" height="20.78" viewBox="0 0 1920 20.78">
  <defs>
    <clipPath id="a">
      <path d="M0,0H1920V20.78H0Z" fill="#00ff19"></path>
    </clipPath>
  </defs>
  <g transform="translate(0 0)">
    <path d="M1015.787.34l-5.1,11.158h-.056L1009.707.34h-7.391l-3.851,19.943h5.05l2.425-12.5H1006l.893,12.5h4.212l5.635-12.5h.056l-2.427,12.5h5.188L1023.4.34Z" transform="translate(63.951 0.022)" fill="#00ff19"></path>
    <g transform="translate(0 0)">
      <g clip-path="url(#a)">
        <path d="M1033.2,17.329h-6.666l-1.478,2.956h-5.8L1030.109.341h5.829l3.683,19.943h-6Zm-4.657-3.961h4.1l-.559-3.989c-.139-.976-.28-2.566-.28-2.566h-.054s-.726,1.591-1.2,2.566Z" transform="translate(65.283 0.022)" fill="#00ff19"></path>
        <path d="M1048.074,12.39l-1.813,1.7-1.2,6.192h-5.746l3.85-19.943h5.745l-1.31,6.778,7.057-6.778h6.666l-8.814,8.2,5.412,11.743h-6.331Z" transform="translate(66.568 0.022)" fill="#00ff19"></path>
        <path d="M1061.572.341h5.745l-3.849,19.943h-5.746Z" transform="translate(67.747 0.022)" fill="#00ff19"></path>
        <path d="M1069.175.341h5.773l3.933,11.436h.056L1081.169.341h5.55l-3.849,19.943H1076.9l-3.738-11.519h-.055l-2.231,11.519h-5.551Z" transform="translate(68.234 0.022)" fill="#00ff19"></path>
        <path d="M1098.468,18.326h-.056a6.772,6.772,0,0,1-5.3,2.455,7.76,7.76,0,0,1-6.723-3.263,9.258,9.258,0,0,1-1.478-5.467c0-6.136,4.184-12.05,11.241-12.05,4.407,0,8.2,2.064,8.285,7.141H1098.8a2.548,2.548,0,0,0-2.789-2.371c-3.515,0-5.188,3.542-5.188,7.084,0,2.482,1,4.24,3.71,4.24a3.389,3.389,0,0,0,3.6-2.483h-2.622l.808-4.127h8.117l-2.092,10.822h-3.821Z" transform="translate(69.488 0)" fill="#00ff19"></path>
        <path d="M1115.187,7.677h5.886L1122.5.34h5.746l-3.85,19.945h-5.746l1.507-7.839h-5.885l-1.507,7.839h-5.747L1110.865.34h5.745Z" transform="translate(70.904 0.021)" fill="#00ff19"></path>
        <path d="M1129.4.341h5.745L1131.3,20.284h-5.746Z" transform="translate(72.091 0.022)" fill="#00ff19"></path>
        <path d="M1133.155,13.946h5.885c.029,1.562,1.312,2.371,3.153,2.371,1.311,0,2.594-.335,2.594-1.7-.029-.977-1.451-1.395-3.542-2.12-3.6-1.256-6.026-2.6-6.026-5.942,0-4.407,3.515-6.555,7.978-6.555,3.709,0,8.144,1.283,7.948,6.08h-5.662c-.055-1.172-1-1.813-2.455-1.813-1.06,0-2.231.418-2.231,1.423,0,1.089,1.283,1.256,4.463,2.343,2.818.976,5.468,2.288,5.468,5.718,0,4.827-4.24,7.029-8.7,7.029-4.128,0-8.954-1.395-8.871-6.833" transform="translate(72.578 0)" fill="#00ff19"></path>
        <path d="M1151.907.341h16.736l-.949,4.908h-5.55l-2.9,15.035h-5.718l2.9-15.035h-5.468Z" transform="translate(73.718 0.022)" fill="#00ff19"></path>
        <path d="M1166.3,11.966C1166.352,5.467,1170.7,0,1177.288,0c5.495,0,9.092,3.18,9.092,9.037,0,6.387-4.323,11.715-10.795,11.744-5.187,0-9.344-2.874-9.289-8.815m9.373,4.184c3.432,0,4.937-3.849,4.937-7.141,0-2.455-.922-4.379-3.515-4.379-3.486.028-5.021,4.1-5.021,7.336,0,2.259,1.032,4.184,3.6,4.184" transform="translate(74.701 0)" fill="#00ff19"></path>
        <path d="M1191.814,13.312l-1.34,6.973h-5.746l3.85-19.943h8.452c3.877,0,7.085,1.673,7.085,5.355,0,2.985-1.4,4.547-4.018,5.439v.084c1.479.613,2.26,1.924,2.26,4.072,0,.893-.055,2.287-.028,3.319,0,.753.167,1.2.389,1.367v.306h-5.8A2.718,2.718,0,0,1,1196.7,19c0-.78.084-2.009.084-3.069,0-1.645-.557-2.621-2.455-2.621Zm.809-4.1h3.069a2.366,2.366,0,0,0,2.677-2.426c0-1.2-.725-1.926-2.231-1.926h-2.678Z" transform="translate(75.882 0.022)" fill="#00ff19"></path>
        <path d="M1207.531,13.228,1203.318.341h6.138l1.17,4.435a28.036,28.036,0,0,1,.7,3.236h.055s.977-1.7,1.981-3.236l2.873-4.435h6.192l-9.176,13.109-1.311,6.834h-5.747Z" transform="translate(77.072 0.022)" fill="#00ff19"></path>
        <path d="M1222.538,13.946h5.885c.029,1.562,1.312,2.371,3.153,2.371,1.311,0,2.594-.335,2.594-1.7-.029-.977-1.451-1.395-3.542-2.12-3.6-1.256-6.026-2.6-6.026-5.942,0-4.407,3.515-6.555,7.978-6.555,3.709,0,8.144,1.283,7.949,6.08h-5.662c-.055-1.172-1-1.813-2.455-1.813-1.06,0-2.231.418-2.231,1.423,0,1.089,1.283,1.256,4.463,2.343,2.818.976,5.468,2.288,5.468,5.718,0,4.827-4.24,7.029-8.7,7.029-4.128,0-8.954-1.395-8.871-6.833" transform="translate(78.303 0)" fill="#00ff19"></path>
        <path d="M1243.221.341h5.746l-3.85,19.943h-5.746Z" transform="translate(79.381 0.022)" fill="#00ff19"></path>
        <path d="M1250.824.341h5.773l3.933,11.436h.056l2.23-11.436h5.551l-3.848,19.943h-5.969l-3.738-11.519h-.055l-2.231,11.519h-5.551Z" transform="translate(79.868 0.022)" fill="#00ff19"></path>
        <path d="M1266.613,11.91c0-6.415,4.268-11.91,10.85-11.91a9.254,9.254,0,0,1,5.775,1.533,7.719,7.719,0,0,1,2.872,6.22h-5.774a2.72,2.72,0,0,0-2.957-2.985c-3.458,0-4.908,3.682-4.908,7,0,2.259.893,4.268,3.4,4.268a3.673,3.673,0,0,0,3.738-3.152h5.858c-1,5.438-5.133,7.893-9.623,7.893-5.495,0-9.233-3.012-9.233-8.87" transform="translate(81.126 0)" fill="#00ff19"></path>
        <path d="M1288.03.341h15.062l-.92,4.685h-9.316l-.5,2.79h7.811l-.837,4.324h-7.838l-.613,3.208h9.706l-.948,4.936H1284.18Z" transform="translate(82.251 0.022)" fill="#00ff19"></path>
        <path d="M1309.606,9.142h-3.822l.726-3.821a6.267,6.267,0,0,0,6.109-4.352h4.072l-3.737,19.275h-5.5Z" transform="translate(83.635 0.062)" fill="#00ff19"></path>
        <path d="M1315.329,15.209c0-2.706,1.617-4.212,3.933-5.049v-.084a3.9,3.9,0,0,1-1.7-3.346c0-3.738,3.654-5.97,7.615-5.97,3.458,0,7.2,1.618,7.2,5.188,0,2.259-1.089,3.459-3.013,4.435v.084a4.163,4.163,0,0,1,2.315,3.905c0,4.352-4.239,6.36-8.479,6.36-3.682,0-7.865-1.506-7.865-5.522m8.088,1.645a2.8,2.8,0,0,0,2.958-2.76c-.029-1.34-1.116-2.176-2.623-2.176a2.794,2.794,0,0,0-3.012,2.706c0,1.394,1.144,2.23,2.677,2.23m1.4-8.228c1.31,0,2.622-.642,2.594-2.259a2.112,2.112,0,0,0-2.344-2.009,2.471,2.471,0,0,0-2.622,2.372c0,1.31,1,1.9,2.372,1.9" transform="translate(84.246 0.048)" fill="#00ff19"></path>
        <path d="M1348.907,8.235c0,4.129-1.088,7.727-3.849,10.294a9.269,9.269,0,0,1-6.5,2.175c-3.432,0-6.666-1.282-7-5.355h5.244c.139,1.087.949,1.563,2.065,1.563,1.924,0,3.319-1.228,4.043-4.129h-.055a6.072,6.072,0,0,1-4.24,1.7,5.735,5.735,0,0,1-5.969-5.857c0-4.854,3.738-7.839,8.424-7.867,4.547,0,7.838,2.455,7.838,7.475m-7.838-3.486A3.169,3.169,0,0,0,1337.89,8.1a2.462,2.462,0,0,0,2.622,2.51,3.238,3.238,0,0,0,3.236-3.319,2.5,2.5,0,0,0-2.678-2.539" transform="translate(85.286 0.048)" fill="#00ff19"></path>
        <path d="M1365.321,8.235c0,4.129-1.087,7.727-3.849,10.294a9.27,9.27,0,0,1-6.5,2.175c-3.432,0-6.666-1.282-7-5.355h5.244c.139,1.087.949,1.563,2.065,1.563,1.924,0,3.319-1.228,4.043-4.129h-.055a6.071,6.071,0,0,1-4.24,1.7,5.735,5.735,0,0,1-5.969-5.857c0-4.854,3.738-7.839,8.424-7.867,4.547,0,7.838,2.455,7.838,7.475m-7.838-3.486A3.169,3.169,0,0,0,1354.3,8.1a2.462,2.462,0,0,0,2.622,2.51,3.238,3.238,0,0,0,3.236-3.319,2.5,2.5,0,0,0-2.678-2.539" transform="translate(86.337 0.048)" fill="#00ff19"></path>
        <path d="M190.35.537l-17.333,9.738,6.76-9.738H139.472L147.2,9.448l-17.6,10.306H181.26L196.535.537Z" transform="translate(8.301 0.034)" fill="#00ff19"></path>
        <path d="M21.076.537,0,19.755H11.987L27.261.537Z" transform="translate(0 0.034)" fill="#00ff19"></path>
        <path d="M106.907.537,90.425,9.049,96.334.537H56.028L63.76,9.448,46.166,19.755H97.818L113.091.537Z" transform="translate(2.957 0.034)" fill="#00ff19"></path>
        <path d="M129.594.537l-26.1,19.218h9.6L131.955.537Z" transform="translate(6.628 0.034)" fill="#00ff19"></path>
        <path d="M46.15.537l-26.1,19.218h9.6L48.512.537Z" transform="translate(1.284 0.034)" fill="#00ff19"></path>
        <path d="M664.258.537l-17.333,9.738,6.76-9.738H613.379l7.731,8.911-17.6,10.306h51.653L670.442.537Z" transform="translate(38.655 0.034)" fill="#00ff19"></path>
        <path d="M494.984.537,473.907,19.755h11.988L501.168.537Z" transform="translate(30.354 0.034)" fill="#00ff19"></path>
        <path d="M580.814.537,564.332,9.049,570.241.537H529.936l7.731,8.911L520.073,19.755h51.652L587,.537Z" transform="translate(33.31 0.034)" fill="#00ff19"></path>
        <path d="M603.5.537,577.4,19.755h9.6L605.862.537Z" transform="translate(36.982 0.034)" fill="#00ff19"></path>
        <path d="M520.058.537l-26.1,19.218h9.6L522.419.537Z" transform="translate(31.638 0.034)" fill="#00ff19"></path>
        <path d="M215.4.537h-2.36L186.932,19.755H489.451L502.791.537Z" transform="translate(11.973 0.034)" fill="#00ff19"></path>
        <path d="M907.358.537l-17.333,9.738,6.76-9.738H818.57L802.087,9.049,808,.537H767.692l7.731,8.911-17.6,10.306H898.269L913.542.537Z" transform="translate(48.539 0.034)" fill="#00ff19"></path>
        <path d="M732.74.537,711.663,19.755H723.65L738.924.537Z" transform="translate(45.582 0.034)" fill="#00ff19"></path>
        <path d="M757.814.537l-26.1,19.218h9.6L760.175.537Z" transform="translate(46.866 0.034)" fill="#00ff19"></path>
        <path d="M689.3.537h-2.36L660.839,19.755h51.242L725.422.537Z" transform="translate(42.327 0.034)" fill="#00ff19"></path>
        <path d="M921.334.537,900.257,19.755h11.988L927.518.537Z" transform="translate(57.661 0.034)" fill="#00ff19"></path>
        <path d="M1564.515.537l-17.333,9.738,6.76-9.738h-40.305l7.731,8.911-17.6,10.306h51.653L1570.7.537Z" transform="translate(96.316 0.034)" fill="#00ff19"></path>
        <path d="M1395.241.537l-21.077,19.218h11.988L1401.425.537Z" transform="translate(88.015 0.034)" fill="#00ff19"></path>
        <path d="M1481.072.537,1464.59,9.049,1470.5.537h-40.305l7.731,8.911-17.594,10.306h51.652L1487.256.537Z" transform="translate(90.972 0.034)" fill="#00ff19"></path>
        <path d="M1503.759.537l-26.1,19.218h9.6L1506.12.537Z" transform="translate(94.643 0.034)" fill="#00ff19"></path>
        <path d="M1420.315.537l-26.1,19.218h9.6L1422.677.537Z" transform="translate(89.299 0.034)" fill="#00ff19"></path>
        <path d="M1807.616.537l-17.333,9.738,6.76-9.738h-78.214l-16.483,8.512,5.91-8.512H1667.95l7.731,8.911-17.595,10.306h140.441L1813.8.537Z" transform="translate(106.2 0.034)" fill="#00ff19"></path>
        <path d="M1633,.537,1611.92,19.755h11.988L1639.181.537Z" transform="translate(103.243 0.034)" fill="#00ff19"></path>
        <path d="M1658.071.537l-26.1,19.218h9.6L1660.432.537Z" transform="translate(104.527 0.034)" fill="#00ff19"></path>
        <path d="M1589.562.537h-2.36L1561.1,19.755h51.242L1625.679.537Z" transform="translate(99.988 0.034)" fill="#00ff19"></path>
        <path d="M983.342.349l-17.333,9.738,6.76-9.738H932.463l7.731,8.911L922.6,19.567h51.653L989.526.349Z" transform="translate(59.092 0.022)" fill="#00ff19"></path>
      </g>
    </g>
  </g>
</svg>
