<?xml version="1.0" encoding="UTF-8"?>
<svg xmlns="http://www.w3.org/2000/svg" width="170.965" height="47.566" viewBox="0 0 170.965 47.566">
  <g transform="translate(0.702 0.672)">
    <g transform="translate(0 0)">
      <path d="M51.48,45.9l-10.437,0H41l-9.615,0-7.952,0H23.4a1.218,1.218,0,0,1-1.1-.442c-2.518-2.543-5.087-5.12-7.571-7.613C9.883,32.973,4.867,27.941,0,22.934,6.9,16.016,14.106,8.75,22.027.722a3.285,3.285,0,0,1,.676-.5L22.877.11,22.989,0c4.137,0,8.553,0,14.321,0H54.267C59.65,0,64.058,0,68.14.008l.1.108a4.655,4.655,0,0,1,1.29,1.075l.041.043c1.938,1.954,3.9,3.937,5.8,5.855,4.849,4.9,9.862,9.962,14.821,14.913a13.212,13.212,0,0,1,.917,1c-4.732,4.785-9.561,9.632-14.231,14.32l-.026.026c-2.509,2.518-5.1,5.122-7.651,7.686-.252.248-.522.5-.827.772-.025-.755-.023-1.523-.022-2.265,0-.35,0-.712,0-1.068q0-4.774,0-9.547c0-10.145,0-20.635,0-31,0-.136,0-.278,0-.416A5.218,5.218,0,0,0,68.282.3a3.3,3.3,0,0,0-1.135.909c-.14.149-.271.29-.408.416C63,5.37,59.216,9.2,55.559,12.895c-3.049,3.084-6.2,6.273-9.312,9.4-.255.242-.52.469-.746.658.956.911,1.9,1.868,2.811,2.793.532.54,1.082,1.1,1.629,1.641,2.308,2.325,4.659,4.687,6.932,6.97l.01.01.006.006c3.185,3.2,6.479,6.509,9.709,9.771A24.09,24.09,0,0,0,68.4,45.884C63.264,45.892,57.886,45.9,51.48,45.9ZM22.759.2c-.012.293-.019.6-.02.913V43.7c0,.159,0,.326,0,.486a7.37,7.37,0,0,0,.081,1.529,4.148,4.148,0,0,0,.566-.442c7.169-7.238,14.261-14.353,22.123-22.237a10.986,10.986,0,0,0-1.235-1.357c-.143-.14-.29-.285-.434-.431l-3.611-3.643-.218-.22C34.982,12.315,29.786,7.072,24.658,1.932c-.175-.17-.342-.343-.5-.511A7.083,7.083,0,0,0,22.759.2Z" transform="translate(0)" fill="#fff"></path>
      <path d="M67.907,46.894l-.017-.51c-4.823.007-10.056.011-16.411.011l-10.437,0H41l-9.615,0-7.952,0H23.4a2.534,2.534,0,0,1-.618-.06l-.314.208-.073-.368a2.193,2.193,0,0,1-.452-.373c-2.52-2.545-5.086-5.119-7.567-7.609-4.853-4.869-9.869-9.9-14.737-14.91L-.7,22.929l.348-.349C6.565,15.644,13.769,8.38,21.669.373a3.171,3.171,0,0,1,.6-.473l.023-.572.41.252L22.785-.5h.2c4.2,0,8.621,0,14.321,0H54.267c5.386,0,9.794,0,13.873.005h.219l.156.169.129-.049.036.159A5.713,5.713,0,0,1,69.893.849l.037.039c1.939,1.955,3.9,3.936,5.8,5.851,4.847,4.9,9.859,9.959,14.819,14.911a13.693,13.693,0,0,1,.949,1.04l.288.349-.318.321c-4.731,4.784-9.56,9.631-14.23,14.318l-.039.039c-2.505,2.515-5.1,5.115-7.641,7.675l0,0c-.141.139-.289.28-.444.425l.671.562-1.3,0Zm-36.522-1.5,9.616,0h.042l10.437,0c6.018,0,11.03,0,15.64-.01-.311-.3-.6-.609-.88-.895-3.236-3.268-6.525-6.573-9.706-9.768l-.02-.02c-2.272-2.282-4.62-4.642-6.928-6.966-.547-.543-1.1-1.1-1.63-1.642-.782-.794-1.587-1.61-2.4-2.4C37.9,31.374,30.963,38.33,23.966,45.394ZM23.238,1.207V43.7c0,.162,0,.331,0,.494s-.005.348,0,.522c7-7.069,13.939-14.029,21.6-21.712l-.08-.077.016-.013c-.267-.307-.561-.6-.848-.877-.145-.142-.294-.288-.44-.437l-3.44-3.471-.387-.391C34.629,12.669,29.436,7.428,24.307,2.288c-.181-.175-.35-.351-.513-.521C23.6,1.567,23.423,1.38,23.238,1.207ZM46.245,22.971c.824.8,1.635,1.621,2.423,2.421.531.539,1.08,1.1,1.626,1.638C52.6,29.355,54.951,31.715,57.223,34l.02.021c3.181,3.2,6.471,6.5,9.709,9.772l0,0c.28.29.58.6.894.908,0-.39,0-.777,0-1.158,0-.35,0-.71,0-1.064V32.811c0-10.106,0-20.555,0-30.881,0-.141,0-.284,0-.423,0-.1,0-.21,0-.315-.117.113-.232.236-.346.357-.144.153-.279.3-.426.434-3.737,3.74-7.513,7.56-11.164,11.254l-.007.008c-3.048,3.083-6.2,6.272-9.314,9.4l-.01.01C46.476,22.764,46.359,22.87,46.245,22.971ZM68.858,1.214c0,.1,0,.2,0,.306,0,.136,0,.274,0,.4v.006c0,10.326,0,20.776,0,30.883v9.667c0,.355,0,.717,0,1.068,0,.374,0,.753,0,1.134,2.543-2.558,5.132-5.156,7.635-7.669l.036-.037c4.565-4.583,9.28-9.315,13.907-13.992-.192-.217-.387-.423-.59-.624C84.875,17.4,79.862,12.339,75.014,7.442c-1.9-1.916-3.859-3.9-5.8-5.855l-.05-.053C69.06,1.423,68.959,1.316,68.858,1.214ZM.7,22.938c4.756,4.888,9.648,9.8,14.383,14.546,2.344,2.352,4.762,4.777,7.145,7.183,0-.164,0-.327,0-.489s0-.321,0-.476V1.22C14.525,9.037,7.474,16.147.7,22.938ZM23.947.5c.194.184.379.376.568.573.158.165.321.335.491.5l.006.006c5.131,5.143,10.326,10.385,15.35,15.455l.387.391L44.191,20.9c.141.144.287.287.428.425.306.3.619.608.912.945.121-.106.245-.218.367-.333,3.111-3.124,6.26-6.31,9.306-9.391l.007-.008c3.655-3.7,7.434-7.521,11.175-11.265l.015-.014c.123-.113.249-.248.382-.39.11-.118.225-.24.346-.359-3.8,0-7.917,0-12.861,0H37.31C32.041.5,27.869.5,23.947.5Z" transform="translate(0)" fill="rgba(0,0,0,0)"></path>
      <path d="M26.586,19.827a14.241,14.241,0,0,1-1.957-.138,6.849,6.849,0,0,1-4.365-2.175,6.376,6.376,0,0,1-1.322-3.906c.4,0,.768,0,1.207,0h1.421c.42,0,.972,0,1.522,0a3.551,3.551,0,0,0,1.192,2.559,3.928,3.928,0,0,0,2.347.7,5.25,5.25,0,0,0,1.83-.328,3.138,3.138,0,0,0,1.358-.989,2.193,2.193,0,0,0,.45-1.591c-.015-.772-.536-1.363-1.593-1.805-.822-.317-1.717-.568-2.584-.81a20.748,20.748,0,0,1-3.668-1.278,4.982,4.982,0,0,1-2.788-2.875,5.629,5.629,0,0,1-.1-2.749,4.633,4.633,0,0,1,1.31-2.4,8.476,8.476,0,0,1,5.2-1.995c.353-.02.7-.031,1.028-.031a9.145,9.145,0,0,1,4.588,1.006,4.632,4.632,0,0,1,1.6,1.532,4.691,4.691,0,0,1,.7,2.1l.081.136c.007.27.015.534.023.756-.691.01-1.366.011-1.876.011H29.9a3.023,3.023,0,0,0-1.421-2.361,3.759,3.759,0,0,0-1.709-.375,3.836,3.836,0,0,0-1.985.506,2.262,2.262,0,0,0-1.031,2.59c.237.7,1.041,1.059,1.573,1.294.89.359,1.845.658,2.77.947A28.956,28.956,0,0,1,31.61,9.415a5.486,5.486,0,0,1,2.431,2.046,5.421,5.421,0,0,1,.32,4.03,5.516,5.516,0,0,1-3.03,3.34A11.052,11.052,0,0,1,26.586,19.827Zm36.268-.009c-.431,0-.882-.019-1.341-.058a8.394,8.394,0,0,1-4.717-1.9,8.225,8.225,0,0,1-2.51-4.34A14.777,14.777,0,0,1,54.471,6.1a9.81,9.81,0,0,1,1.22-2.548,7.639,7.639,0,0,1,1.979-2A8.385,8.385,0,0,1,60.242.36,10.627,10.627,0,0,1,63.047,0a13.006,13.006,0,0,1,1.516.091,9.79,9.79,0,0,1,2.364.616,6.375,6.375,0,0,1,2.049,1.31,5.361,5.361,0,0,1,1.636,4.047l-1.429,0c-.7,0-1.339,0-1.965.006a1.046,1.046,0,0,0-.138-.007l-.118,0-.121,0c-.193,0-.384-.025-.468-.207-.038-.107-.073-.214-.108-.317a3.127,3.127,0,0,0-1.08-1.768,3.73,3.73,0,0,0-2.154-.641,4.039,4.039,0,0,0-3.07,1.336,5.954,5.954,0,0,0-1.278,2.348,11.962,11.962,0,0,0-.466,2.661,11.748,11.748,0,0,0,.2,2.954,6.857,6.857,0,0,0,1.13,2.711,3.627,3.627,0,0,0,1.469,1.214,4.513,4.513,0,0,0,1.89.409,4.2,4.2,0,0,0,1.972-.472,3.479,3.479,0,0,0,1.6-2.447c.313,0,.653,0,1.1,0H69.12c.46,0,1.067,0,1.677.008l-.03.147a8.38,8.38,0,0,1-.618,2.093,6.087,6.087,0,0,1-3.556,3.114A10.628,10.628,0,0,1,62.854,19.818ZM41.36,19.48l-1.914,0-1.786,0h-.941c.006-2.519,0-5.089,0-7.574v-.01c0-3.782-.009-7.693.02-11.521C37.891.355,39.108.347,40.461.347c1.542,0,3.071.01,4.5.021a10.275,10.275,0,0,1,2.558.3A5.684,5.684,0,0,1,49.8,1.833,4.219,4.219,0,0,1,51.19,4.31a4.665,4.665,0,0,1-.354,2.831,4.89,4.89,0,0,1-3.372,2.345,8.5,8.5,0,0,1,2.248.777,4.213,4.213,0,0,1,1.713,1.6,4.9,4.9,0,0,1,.493,3.189,4.41,4.41,0,0,1-1.61,2.779C48.67,19.17,46.4,19.41,44.4,19.469,43.509,19.476,42.544,19.48,41.36,19.48Zm-.59-8.459h0a18.669,18.669,0,0,0-.077,2.325c0,.334.006.68,0,1.023v.1a12.251,12.251,0,0,0,.1,2.2c.531-.01,1.072-.014,1.608-.014.459,0,.936,0,1.416.01l.141-.092a4.39,4.39,0,0,0,2.786-.668,2.384,2.384,0,0,0,.9-1.617,3.366,3.366,0,0,0-.288-1.861,2.9,2.9,0,0,0-2.539-1.355c-.607-.04-1.208-.045-1.664-.045-.25,0-.505,0-.731,0-.244,0-.494,0-.74,0-.35,0-.64,0-.911-.011Zm.667-2.7c.253,0,.511,0,.739.007.244,0,.5.007.745.007A9.543,9.543,0,0,0,45.3,8.1,2.3,2.3,0,0,0,46.92,6.786a2.642,2.642,0,0,0-.22-2.451,3.084,3.084,0,0,0-2.3-1.068c-.458-.028-.946-.04-1.581-.04-.286,0-.575,0-.855,0h-.02c-.289,0-.6.005-.9.005h-.273c.005.7,0,1.422,0,2.115v0c0,.977,0,1.985.012,2.977C40.987,8.323,41.2,8.32,41.436,8.32ZM13.764,19.48H12.513c0-1.352,0-2.726,0-4.056s0-2.7,0-4.054l-1.7,0c-.981,0-2,0-3,0-1.4,0-2.559,0-3.646.014.007,2.8,0,5.552,0,8.1H1.488L0,19.477q0-3,0-5.993v-.416C0,8.957,0,4.706,0,.527H4.177c0,.888,0,1.791,0,2.664,0,1.68,0,3.418.007,5.128H9.014c1.356,0,2.464,0,3.489,0,.017-1.661.015-3.35.012-4.983V3.322c0-.917,0-1.866,0-2.8l1.807,0,2.371,0q0,3.158,0,6.317c0,4.141,0,8.424,0,12.635h-.36Z" transform="translate(98.856 13.03)" fill="#fff"></path>
      <path d="M26.586,20.327h0a14.743,14.743,0,0,1-2.026-.143l-.01,0a7.326,7.326,0,0,1-4.671-2.35,6.845,6.845,0,0,1-1.436-4.2l-.028-.524.525,0c.4,0,.77,0,1.21,0h1.421c.419,0,.971,0,1.519,0l.43,0,.067.425a3.117,3.117,0,0,0,1,2.239,3.438,3.438,0,0,0,2.045.6,4.745,4.745,0,0,0,1.652-.3,2.632,2.632,0,0,0,1.138-.824,1.7,1.7,0,0,0,.351-1.234l0-.045c-.007-.352-.147-.875-1.28-1.351-.8-.307-1.68-.554-2.532-.793A21.119,21.119,0,0,1,22.2,10.506a5.45,5.45,0,0,1-3.04-3.171l0-.01a6.137,6.137,0,0,1-.1-3A5.131,5.131,0,0,1,20.5,1.67,8.961,8.961,0,0,1,26.015-.463h.012c.362-.021.718-.031,1.057-.031A9.627,9.627,0,0,1,31.922.579a5.132,5.132,0,0,1,1.771,1.7,5.188,5.188,0,0,1,.763,2.211l.091.152,0,.131c.007.269.015.531.023.752l.017.509-.509.007c-.689.01-1.369.011-1.883.011h-.861c-.479,0-.958,0-1.436,0l-.422,0-.072-.416a2.549,2.549,0,0,0-1.164-2.006,3.26,3.26,0,0,0-1.473-.316,3.328,3.328,0,0,0-1.719.429l-.017.01a1.758,1.758,0,0,0-.8,2c.17.488.842.787,1.291.985.869.351,1.812.645,2.724.93a29.331,29.331,0,0,1,3.576,1.289A5.986,5.986,0,0,1,34.47,11.2l.01.017a5.929,5.929,0,0,1,.362,4.41,6.006,6.006,0,0,1-3.29,3.65l-.007,0A11.547,11.547,0,0,1,26.586,20.327ZM24.7,19.194a13.74,13.74,0,0,0,1.882.133,10.559,10.559,0,0,0,4.528-.947,5.024,5.024,0,0,0,2.766-3.027,4.92,4.92,0,0,0-.272-3.643A4.992,4.992,0,0,0,31.4,9.869a28.587,28.587,0,0,0-3.455-1.243c-.934-.292-1.9-.593-2.808-.96l-.015-.006a3.049,3.049,0,0,1-1.845-1.592l0-.016A2.766,2.766,0,0,1,24.527,2.89a4.352,4.352,0,0,1,2.242-.577,4.264,4.264,0,0,1,1.941.432l.008,0a3.281,3.281,0,0,1,1.591,2.3H32.2c.384,0,.859,0,1.36-.005l0-.118L33.482,4.8l-.01-.115a4.189,4.189,0,0,0-.624-1.879,4.13,4.13,0,0,0-1.426-1.366A8.665,8.665,0,0,0,27.084.505c-.318,0-.652.01-.994.029A7.993,7.993,0,0,0,21.2,2.387l-.007.007A4.136,4.136,0,0,0,20.03,4.541a5.121,5.121,0,0,0,.085,2.5,4.519,4.519,0,0,0,2.532,2.574,20.382,20.382,0,0,0,3.58,1.244c.877.246,1.784.5,2.628.825l.013.005c1.232.516,1.871,1.268,1.9,2.234a2.684,2.684,0,0,1-.551,1.926A3.643,3.643,0,0,1,28.643,17l0,0a5.755,5.755,0,0,1-2.006.36,4.421,4.421,0,0,1-2.647-.8l0,0a3.629,3.629,0,0,1-1.31-2.454c-.4,0-.788,0-1.1,0H19.483A5.548,5.548,0,0,0,20.65,17.2,6.371,6.371,0,0,0,24.7,19.194Zm38.15,1.124h0c-.444,0-.91-.02-1.382-.059h-.013a8.89,8.89,0,0,1-4.995-2.022A8.715,8.715,0,0,1,53.8,13.644l0-.013a15.284,15.284,0,0,1,.195-7.679l0-.007a10.309,10.309,0,0,1,1.284-2.678,8.137,8.137,0,0,1,2.108-2.134A8.881,8.881,0,0,1,60.11-.122,11.127,11.127,0,0,1,63.047-.5a13.508,13.508,0,0,1,1.575.094h.01a10.289,10.289,0,0,1,2.485.648,6.871,6.871,0,0,1,2.208,1.414,5.859,5.859,0,0,1,1.787,4.421l-.016.486-.486,0-1.428,0c-.694,0-1.336,0-1.962.006h-.035l-.034,0a1.5,1.5,0,0,0-.175,0l-.137,0a.917.917,0,0,1-.922-.5L65.9,6.023c-.038-.108-.074-.216-.109-.32a2.684,2.684,0,0,0-.9-1.523,3.234,3.234,0,0,0-1.865-.549,3.534,3.534,0,0,0-2.689,1.159l-.016.018a5.464,5.464,0,0,0-1.165,2.153,11.46,11.46,0,0,0-.445,2.545A11.239,11.239,0,0,0,58.9,12.33a6.366,6.366,0,0,0,1.043,2.515l.009.012A3.127,3.127,0,0,0,61.222,15.9a4.01,4.01,0,0,0,1.679.363,3.7,3.7,0,0,0,1.737-.413,2.993,2.993,0,0,0,1.353-2.124l.094-.384.4,0c.331,0,.669,0,1.1,0H69.12c.462,0,1.07,0,1.683.008l.6.007-.15.739A8.776,8.776,0,0,1,70.6,16.31a6.589,6.589,0,0,1-3.838,3.369A11.129,11.129,0,0,1,62.854,20.318Zm-1.293-1.055c.443.037.878.055,1.293.055a10.133,10.133,0,0,0,3.563-.578l.013,0A5.585,5.585,0,0,0,69.7,15.883l0-.009a6.532,6.532,0,0,0,.485-1.525c-.391,0-.76,0-1.064,0h-2.26a3.736,3.736,0,0,1-1.748,2.384,4.7,4.7,0,0,1-2.211.533,5.017,5.017,0,0,1-2.1-.456,4.128,4.128,0,0,1-1.666-1.377,7.355,7.355,0,0,1-1.213-2.9,12.255,12.255,0,0,1-.206-3.082V9.441A12.459,12.459,0,0,1,58.2,6.668a6.454,6.454,0,0,1,1.383-2.533,4.546,4.546,0,0,1,3.443-1.5,4.226,4.226,0,0,1,2.441.732l.006,0a3.611,3.611,0,0,1,1.262,2.014l.061.182h.041l.108,0,.132,0c.061,0,.115,0,.164.007.619,0,1.253-.006,1.939-.006h.922a4.847,4.847,0,0,0-1.474-3.184,5.884,5.884,0,0,0-1.893-1.208A9.288,9.288,0,0,0,64.5.587,12.5,12.5,0,0,0,63.047.5a10.128,10.128,0,0,0-2.673.342,7.886,7.886,0,0,0-2.419,1.114A7.144,7.144,0,0,0,56.1,3.831a9.31,9.31,0,0,0-1.156,2.415,14.269,14.269,0,0,0-.177,7.158,7.734,7.734,0,0,0,2.35,4.078l.011.01A7.9,7.9,0,0,0,61.561,19.263Zm-20.2.717-1.915,0h-.006c-.909,0-1.814,0-2.719,0h-.5v-.5c.006-2.517,0-5.085,0-7.568v-.015c0-3.784-.009-7.7.02-11.524l0-.489.489-.007c1.142-.017,2.362-.025,3.73-.025,1.542,0,3.073.01,4.508.021a10.764,10.764,0,0,1,2.683.321,6.173,6.173,0,0,1,2.472,1.264,4.718,4.718,0,0,1,1.557,2.767,5.168,5.168,0,0,1-.395,3.137l-.01.019a4.732,4.732,0,0,1-2.192,2.058,7.13,7.13,0,0,1,.863.39,4.7,4.7,0,0,1,1.91,1.795,5.413,5.413,0,0,1,.551,3.524,4.909,4.909,0,0,1-1.792,3.085c-1.753,1.426-4.12,1.681-6.2,1.742H44.4C43.512,19.976,42.545,19.98,41.36,19.98Zm-3.7-1,1.78,0h.006l1.913,0c1.18,0,2.143,0,3.029-.011,1.918-.056,4.082-.281,5.6-1.522l.013-.01a3.913,3.913,0,0,0,1.421-2.468,4.4,4.4,0,0,0-.437-2.859A3.72,3.72,0,0,0,49.475,10.7a8.016,8.016,0,0,0-2.116-.729l-2.078-.448L47.34,9a4.428,4.428,0,0,0,3.049-2.085A4.163,4.163,0,0,0,50.7,4.4a3.718,3.718,0,0,0-1.22-2.185,5.2,5.2,0,0,0-2.084-1.061A9.788,9.788,0,0,0,44.961.868C43.529.857,42,.847,40.461.847c-1.169,0-2.23.006-3.226.019-.024,3.668-.02,7.405-.016,11.025v.017c0,2.32.005,4.713,0,7.07Zm-23.9,1H12.012v-.5c0-1.352,0-2.726,0-4.055,0-1.166,0-2.366,0-3.555l-1.161,0h-.041c-.981,0-2,0-3,0-1.188,0-2.2,0-3.145.01.005,2.619,0,5.2,0,7.608v.5H1.488l-1.49,0-.5,0v-.5q0-2.766,0-5.532v-.877c0-4.111,0-8.361,0-12.541v-.5H0q1.392,0,2.786,0H4.677v.5c0,.888,0,1.791,0,2.665,0,1.517,0,3.08,0,4.628H9.014l2.994,0c.012-1.5.01-3.011.008-4.481V3.323c0-.916,0-1.863,0-2.8v-.5h.5l1.805,0,2.37,0h.5v.5q0,3.158,0,6.317c0,4.142,0,8.424,0,12.635v.5h-.859Zm-.75-1h.75l2.428,0c0-4.05,0-8.158,0-12.136q0-2.908,0-5.816l-1.871,0H13.014c0,.771,0,1.544,0,2.3v.015c0,1.635,0,3.326-.012,4.989l-.005.5h-.5c-1.026,0-2.135,0-3.488,0H3.686l0-.5c-.009-1.712-.008-3.45-.007-5.131,0-.71,0-1.439,0-2.163H.5c0,4.018,0,8.094,0,12.041v.877q0,2.517,0,5.033H3.674c0-2.417.006-4.995,0-7.6v-.5l.5,0c1.088-.009,2.247-.014,3.65-.014,1,0,2.017,0,3,0h.041l1.66,0h.5v.5c0,1.351,0,2.725,0,4.053C13.015,16.589,13.015,17.79,13.014,18.979Zm27.358-1.8-.071-.426a12.628,12.628,0,0,1-.108-2.291v-.1c.005-.338,0-.68,0-1.011a19.054,19.054,0,0,1,.08-2.388l.053-.455.458.012c.266.007.551.011.9.011.245,0,.494,0,.736,0s.485,0,.734,0c.463,0,1.075.005,1.7.046l.02,0A3.353,3.353,0,0,1,47.8,12.208a3.88,3.88,0,0,1,.332,2.146A2.873,2.873,0,0,1,47.044,16.3a4.656,4.656,0,0,1-2.934.766l-.147.1-.153,0c-.478-.007-.952-.01-1.409-.01-.541,0-1.079,0-1.6.014ZM42.4,16.153c.413,0,.839,0,1.27.008l.134-.088.145,0a3.956,3.956,0,0,0,2.494-.569,1.9,1.9,0,0,0,.7-1.284A2.853,2.853,0,0,0,46.9,12.64c-.284-.591-1-.952-2.13-1.072-.59-.038-1.176-.043-1.621-.043-.247,0-.5,0-.723,0-.249,0-.5,0-.748,0l-.456,0c-.043.606-.037,1.217-.032,1.812,0,.338.006.686,0,1.035v.1a15.085,15.085,0,0,0,.039,1.689C41.617,16.155,42.009,16.153,42.4,16.153ZM40.3,8.85l-.008-.511c-.016-1-.014-2.008-.012-2.985l.5,0h-.5c0-.691,0-1.406,0-2.108l0-.507.507,0h.27c.3,0,.606,0,.894-.005h.02c.28,0,.57,0,.859,0,.646,0,1.142.013,1.611.041h.011a3.573,3.573,0,0,1,2.669,1.282l0,.006a3.154,3.154,0,0,1,.267,2.92,2.786,2.786,0,0,1-1.948,1.6,9.994,9.994,0,0,1-2.514.253c-.254,0-.507,0-.752-.007-.226,0-.482-.007-.732-.007s-.441,0-.629.011Zm1.14-1.03c.257,0,.517,0,.746.007s.49.007.738.007a9.1,9.1,0,0,0,2.257-.219A1.811,1.811,0,0,0,46.456,6.6l0-.01a2.131,2.131,0,0,0-.174-1.973,2.641,2.641,0,0,0-1.921-.851c-.446-.027-.923-.039-1.545-.039-.285,0-.573,0-.851,0h-.02l-.673,0c0,.541,0,1.084,0,1.613v.006c0,.808,0,1.64.005,2.465Z" transform="translate(98.856 13.03)" fill="rgba(0,0,0,0)"></path>
    </g>
  </g>
</svg>
