<?xml version="1.0" encoding="UTF-8"?>
<svg xmlns="http://www.w3.org/2000/svg" xmlns:xlink="http://www.w3.org/1999/xlink" width="1124.885" height="1127.172" viewBox="0 0 1124.885 1127.172">
  <defs>
    <clipPath id="a">
      <rect width="1124.885" height="1127.172" fill="none"></rect>
    </clipPath>
  </defs>
  <g clip-path="url(#a)">
    <path d="M562.441,0C251.827,0,0,252.337,0,563.586s251.828,563.586,562.442,563.586,562.442-252.336,562.442-563.586S873.079,0,562.441,0m16.945,1114.445c-6.034.2-12.083.291-18.1.291-295.448,0-540.473-235.851-550.14-533.881C6.378,433.781,59.214,293.487,159.9,185.822,260.6,78.159,396.881,16.226,543.654,11.464c303.493-9.854,558.367,229.5,568.235,533.57,4.766,147.074-48.047,287.373-148.745,395.033s-236.987,169.6-383.759,174.36Z" transform="translate(-0.001)" fill="#fff"></path>
    <path d="M342.152,859.856A389.368,389.368,0,0,0,464.564,879.5c4.3,0,8.591-.075,12.9-.2,216.408-7.035,386.74-189.2,379.721-406.04-3.4-104.878-47.463-202.249-124.094-274.2C676.862,146.262,608.1,111.89,534.14,98.687L522.167,84.859,498.248,57.244,481.873,81.179l-7.86,11.5c-3-.073-6.013-.11-9.029-.11q-6.5,0-13.01.22C347.306,96.2,250.132,140.348,178.326,217.134S68.854,393.947,72.252,498.828A392.371,392.371,0,0,0,186.2,763.14a118.887,118.887,0,0,0-2.906,13.608c-4.113,27.34,2.43,53.418,19.792,73.491,17.526,20.233,42.052,30.6,69.1,30.6,17.782,0,36.66-4.5,55.339-13.62,1.79-.881,3.583-1.776,5.355-2.732l9.247-4.616ZM603.991,199.811l-92.677,89.311-17.674,17.032L206.053,583.326l-5.723,5.509-.382-.71a77.162,77.162,0,0,1-4.881-11.41l-.11-.354.258-.269,5.793-6.135L578.1,169.886l5.057-5.383,26.159,30.216-5.3,5.111ZM191.339,547.358v-.2l.129-.166L199,537.651l336.019-417.5,4.682-5.823,26.171,30.218-.366.4-4.572,5.146L198.8,558.529l-6.379,7.2-.2-1.284a83.472,83.472,0,0,1-.86-17.083ZM498.832,67.187l23.617,27.176-.316.4-4.239,5.6L207.147,509.833l-11,14.506-1.078-.551a128.055,128.055,0,0,1,18.222-38.036ZM272.265,874.943c-25.4,0-48.358-9.671-64.715-28.552-27.615-31.882-25.824-80.355,4.551-123.485l78.733-113.648-12.026,7.065-9.924,5.842-10.728,6.3-.218-.033a82.576,82.576,0,0,1-15.956-3.942l-1.169-.422,1.04-.675,6.983-4.558,51.573-33.714,13.032-8.521,19.335-27.907-13.8,9.634-80.8,56.384-7.054,4.931-.33-.19a77.138,77.138,0,0,1-10.051-6.643l-.623-.5.623-.473,5.556-4.286,126.011-97.3,15.316-11.83,30.757-44.41-16.556,13.606L219.1,601.38l-5.849,4.8-.4-.4c-1.28-1.336-2.322-2.475-3.29-3.59-1.481-1.7-2.742-3.281-3.874-4.856l-.33-.433.4-.373,5.207-4.722L439.288,384.644l19.19-17.414,50.076-72.282,13.01,15.033,4.354-3.937,95.214-86.382,5.448-4.945,26.171,30.216-.494.4-5.193,4.267-99.33,81.641-4.53,3.717,14.454,16.7,4.645-3.59L664.2,269.4,670,264.913l.389.441,25.787,29.778-6.051,4.23L584.145,373.328l-4.827,3.37L593.76,393.38l4.949-3.241,108.56-70.981,6.2-4.047,26.152,30.216-.64.384-5.793,3.407L620.531,415.375l-5.137,3.021,14.494,16.739,5.249-2.894L750.306,368.9l6.58-3.628,23.179,26.886-.717.347L653.92,453.924l-5.444,2.674L795.983,626.965,330.2,859.32c-19.52,10.5-39.385,15.661-57.954,15.661Z" transform="translate(96.779 76.901)" fill="#00ff19"></path>
    <path d="M283.25,597.952a31.779,31.779,0,0,1,7.822-44.211L624.717,357.92,557.7,280.511,286.959,556.82a31.72,31.72,0,1,1-41.523-47.965L556.642,279.3,489.55,201.8,248.982,505.12a31.666,31.666,0,0,1-54.189-27.87L150.75,540.831c-29.918,42.486-21.875,79.078-5.9,97.516,21.62,24.981,59.67,28.13,96.916,8.043l.293-.145,69.868-34.856a31.584,31.584,0,0,1-28.674-13.418Z" transform="translate(175.42 271.098)" fill="#00ff19"></path>
    <path d="M509.239,268.938,217.3,510.247,567.1,335.762Z" transform="translate(291.921 361.29)" fill="#00ff19"></path>
    <path d="M386.03,173.332,164.636,492.952,442.743,238.837Z" transform="translate(221.171 232.853)" fill="#00ff19"></path>
    <path d="M34.913,192.554l-6.8,18.752,57.769-3.168,32.458,11.848,6.067-16.645L91.952,191.492,49.735,151.826l-6.562,18.056,27.652,23.2-.073.237Z" transform="translate(37.77 203.962)" fill="#fff"></path>
    <path d="M128.144,187.247c12.647-23.387-2.414-35.345-25.862-48.072-23.464-12.727-41.668-18.843-54.315,4.56-12.647,23.385,2.411,35.343,25.878,48.072s41.67,18.843,54.317-4.56Zm-68.736-37.3c4.97-9.212,13.8-6.39,34.432,4.816,20.744,11.265,27.816,17.051,22.846,26.262S103,187.467,82.254,176.2C61.62,165,54.438,159.154,59.408,149.943" transform="translate(58.27 171.819)" fill="#fff"></path>
    <path d="M85.753,105.7l47.006,37.541-.164.2L72.264,122.656l-12.72,15.987,68.626,54.81,10.107-12.708L90.231,142.359l.145-.2L151.93,163.6,164.486,147.8,95.86,92.989Z" transform="translate(79.991 124.92)" fill="#fff"></path>
    <path d="M180.855,133.457l-9.7-10.805L146.935,144.48,131.164,126.9,153.1,107.122l-9.706-10.805L121.46,116.078l-13.8-15.384,23.3-20.985-9.7-10.805L84.8,101.758l58.683,65.376Z" transform="translate(113.916 92.564)" fill="#fff"></path>
    <path d="M109.31,80.95l40.482,25.566,5.7,49.225,16.319-10.569-5.629-31.847,26.794,18.15,16.722-10.84L167.246,95.2l-6.433-47.613L144.62,58.095l6.011,29.979L125.721,70.33Z" transform="translate(146.847 63.925)" fill="#fff"></path>
    <path d="M167.029,35.629l5.062,90.814,17.526-5.713-1.882-18.937,22.2-7.232,9.615,16.427,17.526-5.716-49.253-76.42Zm19.134,51.386L182.015,46.8l.237-.073L202.52,81.686Z" transform="translate(224.386 38.76)" fill="#fff"></path>
    <path d="M258.295,104.5l-2.212-14.377-30.977,4.8L213.92,22.39,196.432,25.1l13.395,86.914Z" transform="translate(263.885 30.078)" fill="#fff"></path>
    <path d="M229.261,107.545l49.033-.274-.073-14.522-31.343.164-.42-73.4-17.693.11Z" transform="translate(307.323 26.214)" fill="#fff"></path>
    <path d="M271.87,108.688l48.949,11.537,3.306-14.156L292.433,98.6l5.387-23.019,28.714,6.775L329.859,68.2,301.148,61.44,305.865,41.3l30.518,7.2,3.309-14.156L291.96,23.093Z" transform="translate(365.228 31.023)" fill="#fff"></path>
    <path d="M332.739,31.822,298.87,112.95l14.988,6.262,23.7-56.806.218.091-3.745,65.177,18.607,7.8,33.843-81.147L371.52,48.066l-23.2,55.562-.218-.091L351.559,39.7Z" transform="translate(401.5 42.749)" fill="#fff"></path>
    <path d="M404.084,95.481c9.65-15.016,8.427-27.671-7.892-38.2C377.184,45.009,363.206,54,347.231,78.853c-16.446,25.583-21.622,41.572-3.325,53.382,6.925,4.469,13.578,5.256,20.814,1.722l.218.129-4.4,6.829,10.962,7.07,25.623-39.849L373.055,92.587,366,103.557l9.814,6.337-4.865,7.564c-5.132,7.965-13.266,8.132-16.793,5.861-8.574-5.533-3.035-17.784,8.408-35.584C374.405,69.294,382.1,63.726,389.34,68.4c5.995,3.864,4.019,12.4.492,17.892Z" transform="translate(446.473 69.629)" fill="#fff"></path>
    <path d="M413.623,69.739l-58.756,65.306,36.423,32.908,9.7-10.787-23.282-21.041,49.068-54.5Z" transform="translate(476.726 93.687)" fill="#fff"></path>
    <path d="M384.493,149.563l16.994-8.481,14.642,18.241-11.916,14.815,11.546,14.4,53.823-73.252-13.7-17.088-82.956,36.974,11.553,14.4Zm66.283-33.349.164.183L425.523,147.8l-10.787-13.444,36.058-18.166Z" transform="translate(500.979 131.912)" fill="#fff"></path>
    <path d="M469.287,121.059,392.88,164.278l7.965,14.156,53.514-30.272.126.22-42.9,49.153,9.922,17.58,76.413-43.238-7.965-14.157-52.347,29.614-.127-.2,41.832-48.274Z" transform="translate(527.792 162.63)" fill="#fff"></path>
    <path d="M470.077,225.23c24.383-8.5,38.818-18.241,30.762-41.5L491.3,156.28l-82.883,28.9,9.175,26.408c7.71,22.215,23.117,23.881,52.506,13.646Zm14.733-47.908,2.463,7.087c4.446,12.8-4.659,17.674-23.483,24.228-22.515,7.857-30.628,8.075-34.689-3.552l-2.571-7.436Z" transform="translate(548.662 209.945)" fill="#fff"></path>
    <path d="M54.656,324.362c13.4-3.956,22.445-8.387,18.625-21.4-3.82-13.041-13.817-11.869-27.214-7.916s-22.443,8.371-18.6,21.412c3.82,13.022,13.817,11.869,27.211,7.928Zm-6.048-20.636c11.787-3.482,16.612-3.975,18.112,1.153,1.516,5.125-2.814,7.323-14.6,10.786-11.86,3.494-16.612,3.972-18.128-1.153-1.5-5.132,2.758-7.293,14.62-10.786" transform="translate(35.701 392.759)" fill="#fff"></path>
    <path d="M35.681,335.969l17-6.883,1.811,4.5c3.18,7.914,9.32,11.63,18.166,8.04,6.376-2.582,11.6-8.078,8.169-16.594l-5.922-14.7L32.264,327.563l3.382,8.406Zm36.3-14.665,1.408,3.494c1.7,4.195-.037,6.815-4.2,8.483-4.368,1.776-7.311.309-8.645-3l-1.5-3.74L72,321.3Z" transform="translate(43.343 416.901)" fill="#fff"></path>
    <path d="M69.347,361.38l6.744-3.482L69.183,344.48l9.631-4.963,7.328,14.264,6.744-3.5L81.427,327.994,40.563,349.057l11.75,22.871,6.744-3.482-7.6-14.829,10.983-5.643Z" transform="translate(54.492 440.625)" fill="#fff"></path>
    <path d="M66.115,393.948,104.8,369.094l-4.46-6.979L73.827,379.131l-.054-.108L94.388,352.8l-5.629-8.79L50.069,368.86l4.457,6.978,27.1-17.4.073.108L60.558,385.264Z" transform="translate(67.263 462.135)" fill="#fff"></path>
    <path d="M100.3,414.04c4.551-4.087,5.3-9.069,2.54-13.226l.091-.094c3.93,2.494,8.317,1.669,12.008-1.624,6.58-5.9,5.134-11.776.183-17.311l-10.07-11.279L70.784,401.2,80.945,412.59c7.018,7.878,13.981,6.28,19.354,1.469Zm5.666-32.254,2.175,2.437c2.96,3.33,3.143,5.95-.11,8.884-3.217,2.873-6.032,2.344-9.338-1.359l-1.72-1.922,8.975-8.04ZM84.216,406l-2.339-2.639,10.306-9.245,2.6,2.892c2.632,2.946,3.454,6.189-.53,9.76s-7.147,2.437-10.034-.788Z" transform="translate(95.091 497.736)" fill="#fff"></path>
    <path d="M110.582,437.291l22.279-42.008-8.242-7.543L84.852,413.7l6.943,6.353,8.078-5.781,8.792,8.054-5.027,8.589,6.943,6.355Zm-4.422-27.563L123.3,397.367l.091.094-10.744,18.206-6.489-5.957Z" transform="translate(113.99 520.887)" fill="#fff"></path>
    <path d="M141.9,407.46l-11.881-8.842-27.432,36.95,11.424,8.518c9.613,7.159,16.722,3.295,26.426-9.814,8.059-10.885,11.513-19.3,1.444-26.813Zm-8.846,21.627c-7.438,10.039-10.873,12.563-15.9,8.811l-3.234-2.4L133.2,409.512l3.072,2.29c5.554,4.12,3.014,8.917-3.217,17.306Z" transform="translate(137.813 535.501)" fill="#fff"></path>
    <path d="M144.059,410.535l-23.083,39.81,7.164,4.176,18.424-31.788.108.052L135.14,458.607l6.086,3.531,25.313-27.781.108.056-18.44,31.812,7.164,4.157,23.1-39.816L166.9,423.829,145.01,448.683l-.091-.056,10.763-31.336Z" transform="translate(162.519 551.51)" fill="#fff"></path>
    <path d="M172.2,426.4,164,422.608l-19.335,41.776,8.207,3.822Z" transform="translate(194.338 567.729)" fill="#fff"></path>
    <path d="M173.022,427.547l-15.881,43.217,7.766,2.878,11.131-30.258.108.019-.748,34.1,9.65,3.576,15.881-43.221-7.768-2.871-10.873,29.609-.129-.059.64-33.379Z" transform="translate(211.102 574.364)" fill="#fff"></path>
    <path d="M190.2,483.347l9.777-37.159,9.467,2.489,1.919-7.363-27.668-7.3-1.938,7.361,9.467,2.507-9.779,37.159Z" transform="translate(243.757 583.045)" fill="#fff"></path>
    <path d="M229.722,465.468c2.266-13.8,2.212-23.877-11.166-26.094s-16.668,7.3-18.934,21.133c-2.285,13.81-2.229,23.9,11.166,26.1,13.378,2.214,16.669-7.307,18.935-21.135m-21.182-3.513c2.011-12.141,3.637-16.718,8.9-15.844s5.355,5.737,3.363,17.878c-2.011,12.228-3.637,16.718-8.9,15.837-5.263-.855-5.355-5.636-3.344-17.87Z" transform="translate(266.653 589.822)" fill="#fff"></path>
    <path d="M241.951,474.312l-.129-.019-8.917-32.177-10.4-.644-2.887,45.97,8.26.509,2.011-32.189.145.019,8.992,32.89,10.271.642,2.887-45.968-8.26-.53Z" transform="translate(295.033 593.07)" fill="#fff"></path>
    <path d="M271.6,488.629c11.8-1.134,13.36-9.906,12.411-19.8l-8.994.862c.949,9.887-1.247,11.844-4.5,12.179-3.871.365-5.973-1.948-7.325-15.825-1.244-12.985-.621-17.765,3.93-18.206,4.059-.384,5.645,2.362,6.285,9.05l8.992-.862c-.637-6.681-2.524-16.28-15.387-15.033-13.489,1.3-14.22,11.354-12.884,25.271,1.352,13.955,3.984,23.678,17.472,22.361" transform="translate(340.759 592.284)" fill="#fff"></path>
    <path d="M302.113,483.99l8.865-1.833-9.158-45.124-8.858,1.8,3.527,17.254-10.348,2.1-3.492-17.247-8.858,1.795,9.151,45.143,8.865-1.8-4.075-20.036,10.325-2.123Z" transform="translate(367.808 587.107)" fill="#fff"></path>
    <path d="M324.785,475.406l8.968-2.833-25.161-40.344L297.934,435.6l2.54,47.505,8.975-2.859-.949-9.906,11.366-3.609Zm-17.074-12.795-2.1-21.044.127-.04L316.1,459.972l-8.373,2.657Z" transform="translate(400.242 580.653)" fill="#fff"></path>
    <path d="M362.023,466.464l7.546-3.419-18.855-41.977-12.193,5.479,7.419,32.3-.11.051-19.171-27.008-12.247,5.528,18.862,41.989,7.571-3.4L325.783,442.48l.11-.058,22.335,30.253,6.414-2.892-7.789-36.794.091-.068Z" transform="translate(422.38 565.66)" fill="#fff"></path>
    <path d="M369.018,420.017c-3.508-5.95-9.723-10.25-17.615-5.584l-13.6,8.078,23.469,39.61,7.766-4.616-9.357-15.8,4.153-2.475c7.344-4.359,10.051-10.988,5.186-19.213m-9.376,13.753-3.454,2.053-7.126-12.033,3.236-1.922c3.89-2.3,6.707-.989,9.01,2.892,2.4,4.049,1.4,7.2-1.685,9.029Z" transform="translate(453.801 554.091)" fill="#fff"></path>
    <path d="M362.489,403.624l-7.37,5.251,26.633,37.537,7.37-5.252Z" transform="translate(477.064 542.225)" fill="#fff"></path>
    <path d="M404.262,432.667c10.33-8.79,5.209-17.468-3.82-28.147s-16.758-17.142-27.083-8.352c-10.341,8.774-5.228,17.456,3.82,28.13,9.029,10.679,16.739,17.139,27.083,8.368m-26.5-31.3c4.073-3.464,7.824-.384,15.773,9.01,7.989,9.435,10.36,13.608,6.3,17.046s-7.782.443-15.771-9c-7.949-9.394-10.362-13.589-6.306-17.053" transform="translate(493.869 526.683)" fill="#fff"></path>
    <path d="M428.15,414.051l7.107-7.475L401.944,374.82l-5.7,6.009,22.808,21.756-.091.094L388.633,388.85l-7.18,7.562,33.3,31.758,5.7-6.009-23.319-22.234.091-.108Z" transform="translate(512.441 503.53)" fill="#fff"></path>
    <path d="M438.7,396.529c5.959-7.764,6.032-15.03-1.685-20.969-4.438-3.419-8.312-4.195-14.836-.656l-6.7,3.642c-3.654,2.032-5.533,1.61-7.783-.127-2.14-1.669-3.581-4.1-1.094-7.363,2.1-2.744,4.968-2.36,8.385.291l5.284-6.883-1.022-.769c-7-5.4-13.364-2.927-18.26,3.445-5.193,6.775-4.827,13.8,2.268,19.263,6.067,4.691,11.035,3.848,18.18-.825,5.322-3.426,7.808-4.117,11.115-1.575,3.072,2.362,2.889,5.568,1.2,7.745-2.906,3.792-5.83,3.042-9.247.422l-1.059-.825-5.521,7.18,1.483,1.139c6.744,5.2,13.067,5,19.3-3.136Z" transform="translate(533.951 484.605)" fill="#fff"></path>
    <path d="M457.3,373.258l4.748-7.689-39.109-24.212-4.748,7.714,14.946,9.242-5.535,8.994-14.951-9.245-4.75,7.689,39.111,24.193,4.729-7.7L434.4,371.5l5.54-8.991Z" transform="translate(547.97 458.576)" fill="#fff"></path>
    <path d="M463.779,350.513l-41.03-20.767-4.08,8.092L459.7,358.6Z" transform="translate(562.437 442.978)" fill="#fff"></path>
    <path d="M470.384,343.077l-17.018-6.9,1.811-4.483c3.2-7.935,1.35-14.873-7.492-18.445-6.376-2.583-13.948-2.255-17.383,6.247l-5.941,14.684,42.605,17.287,3.4-8.389Zm-21.822-13.2-1.5,3.733L434.1,328.356l1.411-3.5c1.678-4.192,4.729-4.853,8.919-3.166,4.347,1.755,5.46,4.849,4.11,8.185Z" transform="translate(570.085 418.91)" fill="#fff"></path>
    <path d="M464.473,316.856l-1.3-.366-2.505,8.7,1.8.516c8.164,2.362,13.978-.169,16.793-10.018,2.707-9.432.091-16.188-9.247-18.885-5.394-1.554-9.268-.837-14.053,4.837l-4.9,5.863c-2.669,3.206-4.567,3.513-7.29,2.744-2.6-.748-4.846-2.5-3.709-6.447.949-3.314,3.763-4.024,7.911-2.814l2.4-8.357-1.247-.347c-8.476-2.437-13.486,2.2-15.71,9.943-2.36,8.223.565,14.616,9.151,17.109,7.368,2.123,11.661-.5,16.617-7.457,3.691-5.144,5.734-6.719,9.776-5.547,3.71,1.059,4.713,4.1,3.965,6.756-1.319,4.6-4.312,4.982-8.464,3.792Z" transform="translate(581.182 391.769)" fill="#fff"></path>
  </g>
</svg>
