<?xml version="1.0" encoding="UTF-8"?>
<svg xmlns="http://www.w3.org/2000/svg" width="164.744" height="43.986" viewBox="0 0 164.744 43.986">
  <g transform="translate(0.5 0.503)">
    <path d="M-382.159-571.412c1.568-.027,3.136,0,4.7-.012a2.632,2.632,0,0,1,2.341,1.231,4.662,4.662,0,0,1,.35,2.338q-.008,12.035,0,24.069c-3.071,0-6.142,0-9.211,0,0-6.342-.01-12.685.007-19.026a10.433,10.433,0,0,1-5.044,1.285c-.012-1.835,0-3.669,0-5.5a10.76,10.76,0,0,0,4.237-1.645,11.962,11.962,0,0,0,2.623-2.738Z" transform="translate(389.02 571.647)" fill="#fff"></path>
    <path d="M-380.312-571.925c.69,0,1.38,0,2.07,0l.785,0h.03a3.1,3.1,0,0,1,2.748,1.482,4.452,4.452,0,0,1,.417,2.328c0,.087,0,.173,0,.257-.005,8.038,0,16.189,0,24.071v.5h-.5q-2.3,0-4.606,0t-4.606,0h-.5v-.5q0-3.392,0-6.784c0-3.742,0-7.6.005-11.414a11.59,11.59,0,0,1-4.532.958l-.507.01,0-.507c-.008-1.225-.007-2.47-.006-3.674q0-.916,0-1.831v-.41l.4-.08a10.061,10.061,0,0,0,4.046-1.562l0,0a11.413,11.413,0,0,0,2.51-2.63l.147-.192.242,0C-381.626-571.921-381.054-571.925-380.312-571.925Zm2.07,1c-.69,0-1.38,0-2.07,0-.627,0-1.131,0-1.6.009a11.782,11.782,0,0,1-2.586,2.651,10.906,10.906,0,0,1-4.024,1.641q0,.713,0,1.426c0,1.033,0,2.1,0,3.149a9.652,9.652,0,0,0,4.292-1.195l.757-.449,0,.88c-.011,4.078-.009,8.227-.007,12.239q0,3.143,0,6.286h8.211c0-7.727,0-15.7,0-23.569,0-.084,0-.173,0-.263a3.668,3.668,0,0,0-.28-1.819l-.007-.012a2.129,2.129,0,0,0-1.877-.974h-.022Z" transform="translate(389.02 571.647)" fill="rgba(0,0,0,0)"></path>
    <path d="M-281.2-571.437q11.21.01,22.42,0a12.13,12.13,0,0,1,2.663.14,5.62,5.62,0,0,1,4.267,5.255c.005,1.835,0,3.671,0,5.505a5.661,5.661,0,0,1-2.911,5.016,5.679,5.679,0,0,1-2.856.678c-4.056-.008-8.111,0-12.166-.007a2.646,2.646,0,0,0-1.251.213,1.825,1.825,0,0,0-.976,1.59c-.017,1.238,0,2.478,0,3.718q10.078-.008,20.157-.005.005,2.767,0,5.535-14.674,0-29.35,0,0-5.039,0-10.076a10.053,10.053,0,0,1,.1-2,5.623,5.623,0,0,1,3.7-4.242,11.057,11.057,0,0,1,3.458-.283c3.721-.007,7.453.012,11.172-.008a1.769,1.769,0,0,0,1.72-1.62c.023-.72.022-1.466,0-2.188a1.809,1.809,0,0,0-1.89-1.68q-9.125-.005-18.261,0,0-2.772,0-5.544Z" transform="translate(299.172 571.658)" fill="#fff"></path>
    <path d="M-257.716-571.939a7.484,7.484,0,0,1,1.707.158,6.117,6.117,0,0,1,4.656,5.734v.007c0,.919,0,1.854,0,2.758s0,1.828,0,2.741a6.177,6.177,0,0,1-3.168,5.46,6.165,6.165,0,0,1-3.073.741h-.028c-1.54,0-3.07,0-4.231,0h-3.682c-1.166,0-2.7,0-4.247,0h-.071a2.1,2.1,0,0,0-.944.15l-.01.005a1.318,1.318,0,0,0-.707,1.148c-.011.789-.007,1.589,0,2.363,0,.28,0,.565,0,.851l6.179,0h5.429c2.386,0,5.208,0,8.049,0h.5v.5c0,1.867,0,3.732,0,5.537v.5h-4.677l-11.868,0c-5.082,0-9.309,0-13.3,0h-.5v-.5q0-2.168,0-4.336,0-2.87,0-5.739c0-.134,0-.263,0-.391a8.142,8.142,0,0,1,.112-1.707,6.112,6.112,0,0,1,4.034-4.622,7.551,7.551,0,0,1,2.471-.313l.471,0c.223,0,.445,0,.667,0,1.478,0,2.943,0,4.414,0h2.52c1.669,0,3.017,0,4.242-.01a1.268,1.268,0,0,0,1.223-1.146c.022-.673.022-1.394,0-2.143a1.311,1.311,0,0,0-1.371-1.2h-.019q-6.084,0-12.174,0H-281.7v-.5q0-1.848,0-3.7,0-.924,0-1.848v-.5h.5c3.558,0,7.054,0,9.7,0h12.722c.211,0,.419,0,.624,0C-258.007-571.937-257.861-571.939-257.716-571.939Zm5.363,5.906a5.094,5.094,0,0,0-3.877-4.773,6.582,6.582,0,0,0-1.485-.133c-.142,0-.284,0-.427,0-.211,0-.425,0-.643,0H-271.5c-2.524,0-5.819,0-9.2,0q0,.674,0,1.348,0,1.6,0,3.2h17.83a2.316,2.316,0,0,1,2.32,2.159v.008c.021.774.021,1.52,0,2.218v.019a2.267,2.267,0,0,1-2.218,2.085c-1.224.007-2.574.01-4.244.01l-5.039,0-1.888,0h-.211l-.471,0-.462,0a6.674,6.674,0,0,0-2.156.262,5.1,5.1,0,0,0-3.366,3.86v.007a7.252,7.252,0,0,0-.093,1.506c0,.132,0,.265,0,.4q0,2.865,0,5.738,0,1.918,0,3.836c3.848,0,7.934,0,12.8,0l11.869,0h3.678c0-1.485,0-3.008,0-4.535-2.671,0-5.3,0-7.55,0h-5.429l-6.678,0h-.5v-.5c0-.448,0-.9,0-1.347,0-.779-.007-1.584,0-2.377a2.327,2.327,0,0,1,1.241-2.024,2.915,2.915,0,0,1,1.4-.271h.086c1.547,0,3.084,0,4.25,0h3.682c1.161,0,2.692,0,4.233,0h.026a5.181,5.181,0,0,0,2.583-.613l.007,0a5.154,5.154,0,0,0,2.651-4.562v-.013c0-.917,0-1.849,0-2.751S-252.351-565.116-252.353-566.033Z" transform="translate(299.172 571.658)" fill="rgba(0,0,0,0)"></path>
    <path d="M540.266-377.325a11.668,11.668,0,0,0-1.946-.07c.012-.253.022-.507.04-.762.528.007,1.056.008,1.586.008a40.442,40.442,0,0,0-.107-4.451,13.488,13.488,0,0,0-3.063-.152c0-.247.005-.493.007-.74,1.355-.01,2.713.018,4.067-.013-.177-.272-.243-.627-.6-.7a10.861,10.861,0,0,0-1.436-.045q.27-.237.54-.472c-.312-.365-.618-.735-.923-1.1l-.348.31q-.3.27-.608.535c.2.248.4.493.6.738l-1.291,0c0-.407,0-.813,0-1.221-.61,0-1.221,0-1.833-.005-.018.41-.037.818-.052,1.226-.936,0-1.873,0-2.809-.005a1.545,1.545,0,0,0-.9.172,4.017,4.017,0,0,0-.34.573c1.355.028,2.709,0,4.064.013,0,.247,0,.493,0,.74-.833.013-1.67-.03-2.5.015-.345.045-.6.158-.618.545-.045,1.345-.007,2.7-.01,4.041.525,0,1.051,0,1.578,0q0-.5.005-1.006c.527,0,1.053,0,1.578,0,0,.247,0,.492,0,.738q.917,0,1.833,0l-.007.258c-.01.255-.023.51-.037.765-1.491-.005-2.984,0-4.476-.005a2.33,2.33,0,0,0-1.058.163,5.454,5.454,0,0,0-.363.58c.653.023,1.306.013,1.96.03l-.487.4c.515.583,1.01,1.183,1.525,1.766q.472-.435.95-.865c-.383-.43-.751-.873-1.125-1.313,1.045,0,2.091-.007,3.136.005a6.642,6.642,0,0,1-.168,1.12,4.712,4.712,0,0,1-.823.285c.005.39.008.778.015,1.168.656-.045,1.588.02,2.109-.453.5-.5.39-1.475.415-2.128.838,0,1.68.015,2.516-.018C540.692-376.89,540.594-377.281,540.266-377.325Zm-6.923-2.479c.013-.265.02-.533.053-.8.5-.048,1-.023,1.5-.028.02.273.04.548.057.823C534.417-379.8,533.879-379.8,533.342-379.8Zm.007-1.461c.01-.257.02-.512.037-.768.5-.027,1-.012,1.5-.018.028.262.052.523.072.785C534.42-381.262,533.884-381.262,533.349-381.265Zm3.484-.76c.49-.047.991-.018,1.485-.023,0,.262,0,.523,0,.785q-.79,0-1.576-.005C536.77-381.52,536.785-381.777,536.833-382.025Zm-.07,2.224c.012-.27.017-.542.048-.808.5-.037,1.006-.015,1.508-.015v.818Z" transform="translate(-377.563 416.974)" fill="#fff"></path>
    <path d="M535.329-373.521l-.009-.526c0-.261-.007-.522-.01-.782q0-.144,0-.287l-.186.168c-.313.282-.631.572-.946.861l-.376.346-.338-.383c-.26-.295-.518-.6-.768-.89s-.5-.588-.757-.877l-.217-.246c-.3,0-.6-.006-.9-.017l-.808-.029.387-.71a5.906,5.906,0,0,1,.4-.633l.07-.1.107-.055a1.738,1.738,0,0,1,.309-.122v-.349c0-.446,0-.9-.006-1.342-.007-.889-.014-1.808.016-2.714a.976.976,0,0,1,.388-.785c-.306,0-.579-.006-.843-.011l-.834-.017.408-.727c.026-.047.051-.095.077-.143a2.994,2.994,0,0,1,.311-.5l.044-.054.057-.04a1.678,1.678,0,0,1,1.014-.258l.152,0h.023q1.163,0,2.327,0c.01-.251.022-.5.033-.746l.022-.48h.481c.611,0,1.222,0,1.831.005h.5l0,.487c.168-.146.323-.283.47-.415l.171-.152.179-.159.388-.343.33.4c.292.354.6.732.918,1.1l.265.31c.107.008.218.019.328.037l.026,0a1.189,1.189,0,0,1,.818.742,1.959,1.959,0,0,0,.1.176l.489.751-.9.021c-.185,0-.377.008-.581.01l.008,0,.045.323a19.59,19.59,0,0,1,.112,2.991c-.007.5-.014,1.017,0,1.515l.01.367a1.227,1.227,0,0,1,.718.689,1.711,1.711,0,0,0,.093.161l.54.754-.926.037c-.491.02-.976.022-1.343.022l-.7,0a2.734,2.734,0,0,1-.554,1.978l-.02.019a3.138,3.138,0,0,1-2.054.565c-.128,0-.248.009-.357.016Zm.98-1.33s0,.006,0,.01q0,.132,0,.263a2.226,2.226,0,0,0,1.27-.292,2.329,2.329,0,0,0,.256-1.39c0-.139,0-.27.005-.4l.01-.253-.058,0,.029-.639c.009-.209.019-.425.035-.642l.034-.47.471.006c.373,0,.742.007,1.072.008,0-.35,0-.7.008-1.043a21.647,21.647,0,0,0-.061-2.5,4.818,4.818,0,0,0-.567-.061v.2c0,.26,0,.521,0,.782l0,.5h-.005v1.458l-2.578.008.023-.523c0-.053,0-.106.006-.159.008-.223.017-.453.045-.686l.012-.1h-.134l.054-.544c.006-.057.011-.115.016-.173a6.086,6.086,0,0,1,.079-.63l.028-.146-.1,0,0-.483q0-.182,0-.365t0-.375l0-.444v-.3q0-.311,0-.623,0-.051,0-.1l-.856,0c-.011.248-.021.5-.03.743l-.009.239h.027l0,.5c0,.246,0,.491,0,.737v.492h-.046l.016.15c.027.253.051.515.073.8l.041.533h-.1l.008.106c.022.294.041.559.057.829l.032.527h-.043v.159q0,.12,0,.239c.406,0,.842,0,1.332,0l.516,0-.02.781c-.01.254-.023.511-.036.76l-.013.253.139,0-.067.554c-.011.089-.02.179-.029.269a4.832,4.832,0,0,1-.157.935l-.061.2-.187.1A3.245,3.245,0,0,1,536.31-374.85Zm-3.284-1.313c.145.168.288.335.428.5s.28.328.422.493l.209-.191c-.186-.216-.37-.433-.549-.645l-.257-.3-.031-.037Zm1.712.027c.139.163.28.325.421.483l.143.16v-.1l.362-.108.161-.047c.133-.038.262-.075.379-.118.016-.086.029-.174.04-.266-.337,0-.7,0-1.1,0Zm-.878-1.756h2.4v-.02l-.822,0h-.99l0-.5q0-.123,0-.246h-.581Zm-1.413-.757h.417l0-.655h-.05l.027-.525q0-.08.008-.161c.01-.218.02-.444.049-.673l.013-.1h-.083l.02-.516c.009-.24.02-.513.037-.781l.012-.185c-.158,0-.3.008-.441.015a.689.689,0,0,0-.163.038.261.261,0,0,0,0,.028c-.03.883-.022,1.792-.016,2.67,0,.279,0,.564.005.849Zm5.721-6.271.274.335.044-.039.17-.149-.278-.333Z" transform="translate(-377.563 416.974)" fill="rgba(0,0,0,0)"></path>
    <path d="M516.332-571.366c0,.287,0,.573.008.862-1.358.025-2.723-.033-4.077.025-.457.032-.483.388-.708.71q5.516.04,11.034,0c-.187-.292-.228-.668-.632-.707-1.293-.073-2.6-.005-3.9-.028,0-.288.005-.575.007-.863,1.9-.007,3.811.01,5.715-.008l-.115-.55a2.874,2.874,0,0,0-1.05-.172c-1.516,0-3.034,0-4.552,0v-.665c-.577,0-1.153,0-1.73,0,0,.223,0,.445,0,.667-1.516-.008-3.033,0-4.549-.007a3.007,3.007,0,0,0-.856.082,4.649,4.649,0,0,0-.458.62C512.421-571.331,514.377-571.38,516.332-571.366Z" transform="translate(-360.588 572.756)" fill="#fff"></path>
    <path d="M515.839-573.259l.5,0c.568,0,1.137,0,1.705,0h.522v.666q2.025,0,4.048,0a3.363,3.363,0,0,1,1.219.2l.267.093.3,1.423-.609.006c-.435,0-.888.007-1.408.008a1.276,1.276,0,0,1,.536.645,1.767,1.767,0,0,0,.1.184l.49.765-.908,0c-1.958.011-3.762.016-5.516.016-1.909,0-3.768-.006-5.524-.019l-.951-.007.545-.78a1.838,1.838,0,0,0,.115-.2,1.28,1.28,0,0,1,.54-.609c-.49-.005-.927-.015-1.349-.028l-.908-.029.511-.751.074-.11a4.064,4.064,0,0,1,.438-.575l.086-.089.117-.039a2.807,2.807,0,0,1,.867-.1l.135,0h.015c.453,0,.938,0,1.572,0h2.477q0-.084,0-.168Zm1.726,1.668v-.664h-.732q0,.084,0,.168l0,.313,0,.4c0,.284,0,.568.008.854l0,.265h.715l0-.253q0-.217,0-.433t0-.43v-.223Z" transform="translate(-360.588 572.756)" fill="rgba(0,0,0,0)"></path>
    <path d="M-53.885-547.294a8.963,8.963,0,0,0,.422-3.626,10.435,10.435,0,0,0-.427-4.134,6.977,6.977,0,0,0-2.138-2.656,5.894,5.894,0,0,0,2.135-2.586,8.682,8.682,0,0,0,.43-3.621,14.212,14.212,0,0,0-.213-3.506,5.617,5.617,0,0,0-3.553-3.769,6.094,6.094,0,0,0-2.12-.307q-11.727.01-23.456,0c-.04.471-.077.943-.078,1.416q.01,11.327,0,22.661c.007,1.2-.045,2.384.073,3.581q11.145-.015,22.292-.005a9.578,9.578,0,0,0,3.159-.265A5.628,5.628,0,0,0-53.885-547.294ZM-71.9-554.96a30.647,30.647,0,0,0,3.389.082q1.75.005,3.5,0a2.523,2.523,0,0,1,1.625.348,2.549,2.549,0,0,1,.771,2.116,3.727,3.727,0,0,1-.487,2.409,2.477,2.477,0,0,1-1.908.65q-4.3-.005-8.6,0c-.037-5.527-.01-11.057-.015-16.584,2.814-.022,5.629.007,8.443-.017a2.941,2.941,0,0,1,1.818.4,2.233,2.233,0,0,1,.741,1.808,6.419,6.419,0,0,1-.157,2.091,1.716,1.716,0,0,1-1.561,1.178c-2.4.045-4.8-.027-7.2.027-.395-.038-.337.445-.363.7C-71.9-558.156-71.889-556.558-71.9-554.96Z" transform="translate(133.897 571.708)" fill="#fff"></path>
    <path d="M-59.39-543.338c-.156,0-.312,0-.47,0-.214,0-.43-.005-.649,0H-72.676c-2.767,0-6.418,0-10.13.006h-.454l-.045-.451a25.7,25.7,0,0,1-.078-2.716c0-.3,0-.608,0-.912q0-4.857,0-9.712c0-4.246,0-8.636,0-12.952,0-.5.039-.973.08-1.459l.039-.458h.46c4.62,0,8.723,0,12.546,0,3.868,0,7.436,0,10.909,0h.092a6.4,6.4,0,0,1,2.2.336,6.082,6.082,0,0,1,3.868,4.111,10.062,10.062,0,0,1,.231,2.788c0,.277-.006.563,0,.838v.006q0,.186,0,.369a8.15,8.15,0,0,1-.469,3.441,5.927,5.927,0,0,1-1.823,2.425,6.426,6.426,0,0,1,1.827,2.444,8.121,8.121,0,0,1,.465,3.431c0,.287-.007.583,0,.88v.007c0,.132,0,.263,0,.393a8.322,8.322,0,0,1-.461,3.424,6.135,6.135,0,0,1-3.777,3.469A6.588,6.588,0,0,1-59.39-543.338Zm-.942-1.008c.163,0,.324,0,.484,0s.306,0,.458,0a5.554,5.554,0,0,0,1.872-.244l.011,0a5.124,5.124,0,0,0,3.16-2.9,7.447,7.447,0,0,0,.387-3.036c0-.131,0-.262,0-.4,0-.311,0-.613,0-.906a7.233,7.233,0,0,0-.391-3.041l0-.012a6.523,6.523,0,0,0-2-2.463l-.458-.41.494-.365a5.363,5.363,0,0,0,1.965-2.364l.006-.014a7.266,7.266,0,0,0,.394-3.05q0-.184,0-.371c0-.288,0-.581,0-.864a9.168,9.168,0,0,0-.2-2.516l0-.007A5.14,5.14,0,0,0-57.4-570.72,5.442,5.442,0,0,0-59.257-571h-.087c-3.477,0-7.046,0-10.914,0-3.7,0-7.653,0-12.085,0-.022.308-.039.612-.04.918,0,4.314,0,8.7,0,12.951q0,4.855,0,9.708c0,.307,0,.62,0,.922-.005.741-.01,1.449.037,2.159,3.553,0,7.018-.005,9.67-.005h12.344Zm-4.675-4.514h-.006c-1.879,0-4.009,0-6.088,0h-3l0-.5c-.024-3.686-.021-7.434-.017-11.059,0-1.812,0-3.686,0-5.529v-.5l.5,0c.79-.006,1.631-.009,2.728-.009l2.86,0c1.152,0,2.033,0,2.855-.01h.088a3.242,3.242,0,0,1,2.036.5,2.651,2.651,0,0,1,.939,2.192v.01c0,.108,0,.218.005.329a5.578,5.578,0,0,1-.189,1.929,2.2,2.2,0,0,1-2.028,1.515c-.57.011-1.182.016-1.923.016-.521,0-1.05,0-1.561,0s-1.038,0-1.556,0c-.776,0-1.422.006-2.017.018,0,.03,0,.06,0,.085,0,.048,0,.1-.008.146,0,.583,0,1.176,0,1.75,0,.84,0,1.705,0,2.564.509.038,1,.044,1.438.044.22,0,.441,0,.662,0s.448,0,.673,0h1.093c.915,0,1.826,0,2.517-.006H-65l.222,0a2.622,2.622,0,0,1,1.692.446,3.04,3.04,0,0,1,.969,2.5v.129a3.9,3.9,0,0,1-.6,2.619l0,0A2.921,2.921,0,0,1-65-548.86Zm-6.094-1c2.077,0,4.2,0,6.083,0a2.045,2.045,0,0,0,1.533-.473,3.219,3.219,0,0,0,.369-1.964v-.111a2.124,2.124,0,0,0-.572-1.728,1.686,1.686,0,0,0-1.1-.244l-.227,0c-.692,0-1.6.006-2.514.006h-1.093c-.222,0-.444,0-.665,0s-.447,0-.67,0a17.744,17.744,0,0,1-2-.092l-.447-.051,0-.45c.008-1,.005-2.025,0-3.012,0-.582,0-1.184,0-1.776v-.025l0-.025c0-.028,0-.07.007-.114a1.7,1.7,0,0,1,.083-.528.757.757,0,0,1,.785-.512c.634-.014,1.319-.02,2.153-.02.521,0,1.05,0,1.561,0s1.038,0,1.556,0c.734,0,1.34,0,1.907-.016a1.219,1.219,0,0,0,1.1-.841,4.778,4.778,0,0,0,.135-1.582c0-.114,0-.227-.006-.337a1.733,1.733,0,0,0-.544-1.418,2.423,2.423,0,0,0-1.446-.3h-.071c-.824.007-1.705.01-2.858.01l-2.86,0c-.868,0-1.575,0-2.223.005,0,1.682,0,3.383,0,5.033,0,3.46-.007,7.032.014,10.554Z" transform="translate(133.897 571.708)" fill="rgba(0,0,0,0)"></path>
    <path d="M115.359-547.777a5.505,5.505,0,0,0,3.611,3.667,10.949,10.949,0,0,0,3.316.255q11.067,0,22.135,0c.127-1.831.055-3.681.045-5.517q-8.923-.01-17.848,0a2.308,2.308,0,0,1-1.878-.682,1.879,1.879,0,0,1-.408-1.375q.015-6.251,0-12.5a1.906,1.906,0,0,1,.395-1.393,2.152,2.152,0,0,1,1.723-.646q8,.012,16,0a17.554,17.554,0,0,0,1.986-.042,11.83,11.83,0,0,0,.055-1.753c-.02-1.256.047-2.493-.077-3.747q-11.145,0-22.293,0a12.187,12.187,0,0,0-2.8.162,5.494,5.494,0,0,0-3.841,3.436,7.368,7.368,0,0,0-.4,2.649c.008,4.611,0,9.219,0,13.83A12.511,12.511,0,0,0,115.359-547.777Z" transform="translate(-31.076 571.718)" fill="#fff"></path>
    <path d="M121.11-543.349a7.349,7.349,0,0,1-2.292-.285,6.008,6.008,0,0,1-3.939-4,10.568,10.568,0,0,1-.3-3.188c0-.2,0-.4,0-.6q0-2.472,0-4.942c0-2.913,0-5.926,0-8.889a7.9,7.9,0,0,1,.433-2.825,5.99,5.99,0,0,1,4.194-3.748,7.933,7.933,0,0,1,1.9-.179l.425,0c.2,0,.391,0,.586,0q11.161,0,22.3,0h.453l.044.451a25.217,25.217,0,0,1,.077,2.623c0,.382,0,.777,0,1.166v.008c0,.12,0,.24,0,.361a9.072,9.072,0,0,1-.063,1.466l-.057.376-.378.045a9.023,9.023,0,0,1-1.062.052c-.153,0-.306,0-.458,0s-.3,0-.442,0h-9.147c-2.038,0-4.455,0-6.93,0a1.65,1.65,0,0,0-1.348.473l-.01.011a1.459,1.459,0,0,0-.263,1.058c.01,4.148.01,8.354,0,12.5a1.411,1.411,0,0,0,.275,1.033l.012.014a1.789,1.789,0,0,0,1.5.508c2.957,0,5.959-.005,8.92-.005s5.964,0,8.924.005h.5l0,.5c0,.433.008.876.014,1.3.019,1.393.038,2.833-.06,4.25l-.032.466h-.467q-7.9-.005-15.794,0h-6.346c-.225,0-.45,0-.675,0C121.441-543.35,121.275-543.349,121.11-543.349Zm-.006-27.662a7.056,7.056,0,0,0-1.668.151,4.981,4.981,0,0,0-3.49,3.121l0,.007a6.979,6.979,0,0,0-.369,2.473c.005,2.961,0,5.974,0,8.888q0,2.47,0,4.94c0,.206,0,.413,0,.613a9.658,9.658,0,0,0,.264,2.9,5,5,0,0,0,3.281,3.333l.005,0a6.457,6.457,0,0,0,1.986.237c.161,0,.323,0,.485,0,.231,0,.462,0,.693,0h12.679q4.492,0,8.983,0c.063-1.229.046-2.484.03-3.7,0-.268-.007-.541-.01-.815-2.8,0-5.632,0-8.428,0-2.961,0-5.963,0-8.923.005a2.787,2.787,0,0,1-2.251-.848,2.363,2.363,0,0,1-.535-1.7c.01-4.152.01-8.358,0-12.506v-.008a2.378,2.378,0,0,1,.521-1.719,2.658,2.658,0,0,1,2.088-.814h.01c2.476,0,4.894,0,6.933,0h9.147c.151,0,.3,0,.455,0s.3,0,.446,0,.349,0,.548-.012c.019-.3.015-.612.012-.917,0-.124,0-.246,0-.368-.006-.4,0-.8,0-1.183,0-.71.008-1.387-.036-2.068q-10.915,0-21.832,0h-.176l-.423,0Z" transform="translate(-31.076 571.718)" fill="rgba(0,0,0,0)"></path>
    <path d="M342.385-571.5q-14.652.013-29.3,0c-.1,1.836-.023,3.679-.05,5.517,2.071.05,4.146.013,6.219.023,1.325.018,2.589-.067,3.886.077q-.005,9.73,0,19.462a2.5,2.5,0,0,0,2.444,2.563c2.251.03,4.506,0,6.758.01q.028-11.025.005-22.05c.582-.05,1.158-.07,1.74-.065,2.388.013,4.777,0,7.165.01a9.188,9.188,0,0,0,1.153-.047,13.179,13.179,0,0,0,.057-1.919C342.437-569.118,342.5-570.295,342.385-571.5Z" transform="translate(-196.047 571.706)" fill="#fff"></path>
    <path d="M342.839-572l.044.452a24.122,24.122,0,0,1,.072,2.5c0,.367,0,.746,0,1.12v.01c0,.153,0,.306,0,.468a9.2,9.2,0,0,1-.066,1.525l-.057.372-.374.048a9.124,9.124,0,0,1-1.143.051h-.073c-.7,0-1.437-.006-2.4-.006h-2.552c-.884,0-1.568,0-2.215-.005h-.168c-.366,0-.719.01-1.068.031q0,1.862,0,3.724c0,5.854.007,11.908-.007,17.862v.5l-.5,0c-.928,0-1.857,0-2.786,0l-1.645,0c-.905,0-1.646,0-2.332-.013a2.993,2.993,0,0,1-2.117-.939,2.927,2.927,0,0,1-.82-2.134c0-3.531,0-7.122,0-10.594q0-4.2,0-8.4c-.5-.036-.984-.042-1.37-.042-.259,0-.525,0-.783.006-.4,0-.821.009-1.24,0l-.811,0-1.356,0-1.359,0c-1.087,0-1.919-.008-2.7-.027l-.5-.012.007-.5c.01-.673.005-1.36,0-2.025-.007-1.149-.015-2.338.049-3.512l.026-.473h6.373l10.905,0c4.781,0,8.753,0,12.5,0Zm-.884,4.086c-.006-.383,0-.766,0-1.136,0-.668.009-1.306-.031-1.948-3.611,0-7.451,0-12.037,0l-10.905,0h-5.422c-.038.992-.032,2-.026,2.978,0,.508.006,1.029,0,1.549.634.011,1.327.016,2.18.016l1.356,0c.727,0,1.453,0,2.18,0,.144,0,.283,0,.421,0,.267,0,.537,0,.8-.006s.529-.006.793-.006a17.678,17.678,0,0,1,1.925.088l.445.049v.448q0,4.428,0,8.858c0,3.476,0,7.07,0,10.6v.02a1.935,1.935,0,0,0,.546,1.416,1.988,1.988,0,0,0,1.4.627c.682.009,1.418.013,2.319.013l1.642,0c.764,0,1.529,0,2.292,0,.013-5.791.01-11.669.006-17.359q0-2.095,0-4.189v-.459l.457-.039c.529-.045,1.056-.068,1.611-.068h.175c.644,0,1.326.005,2.208.005h2.552c.965,0,1.706,0,2.4.006h.07c.2,0,.413,0,.628-.01.021-.312.017-.636.012-.972C341.956-567.587,341.954-567.75,341.955-567.911Z" transform="translate(-196.047 571.706)" fill="rgba(0,0,0,0)"></path>
    <path d="M522.564-548.525q.855-.005,1.706,0a17.8,17.8,0,0,0-.015-1.84c0-.255-.247-.415-.473-.46a12.115,12.115,0,0,0-1.476-.038q-5.084.005-10.171,0c-.357.025-.78-.03-.938.377a8.384,8.384,0,0,0-.092,1.91c.587.05,1.171.057,1.76.053,0-.533,0-1.066,0-1.6q4.846.007,9.691,0C522.562-549.59,522.56-549.057,522.564-548.525Z" transform="translate(-361.111 554.514)" fill="#fff"></path>
    <path d="M524.767-548.022l-.5,0q-.849,0-1.7,0l-.5,0,0-.5c0-.325,0-.65,0-.975q0-.062,0-.125h-5.043l-3.65,0c0,.018,0,.036,0,.054q0,.524,0,1.048l0,.494-.494,0h-.245c-.627,0-1.108-.017-1.56-.056l-.478-.041.021-.479c.008-.182,0-.376,0-.582a4.731,4.731,0,0,1,.113-1.444l.015-.044a1.192,1.192,0,0,1,1.224-.687c.049,0,.1,0,.145-.007h.133q5.034,0,10.073,0h.006c.131,0,.262,0,.394,0l.3,0a6.365,6.365,0,0,1,.847.046l.031.005a1.018,1.018,0,0,1,.875.921,11.714,11.714,0,0,1,.024,1.379c0,.162-.007.33-.008.492Zm-13.161-1.022c.231.011.48.018.76.02q0-.273,0-.547t0-.554v-.238h-.219l-.161.007a1.22,1.22,0,0,0-.321.036,4.1,4.1,0,0,0-.066,1.114Q511.6-549.126,511.606-549.044Zm11.811.017h.361s0-.007,0-.01a10.723,10.723,0,0,0-.02-1.27.257.257,0,0,0-.062-.024,5.275,5.275,0,0,0-.637-.035v.243q0,.312,0,.626,0,.235,0,.47Z" transform="translate(-361.111 554.514)" fill="rgba(0,0,0,0)"></path>
    <path d="M528.168-542.3a4.465,4.465,0,0,0-.818.05c-.33.062-.445.455-.622.7,2.728.037,5.465.032,8.195,0a5.707,5.707,0,0,0-.387-.6,1.77,1.77,0,0,0-.868-.148C531.835-542.291,530-542.286,528.168-542.3Z" transform="translate(-374.138 547.372)" fill="#fff"></path>
    <path d="M528.163-542.8h.008c.727,0,1.522.006,2.43.006q1.236,0,2.472,0h.616l.126,0a1.884,1.884,0,0,1,.981.217l.078.047.056.072a4.834,4.834,0,0,1,.355.542l.067.112.449.748-.872.009c-1.474.015-2.832.023-4.153.023-1.4,0-2.765-.009-4.053-.026l-.961-.013.562-.779c.031-.042.066-.1.1-.171a1.253,1.253,0,0,1,.825-.727,3.644,3.644,0,0,1,.731-.057l.173,0Z" transform="translate(-374.138 547.372)" fill="rgba(0,0,0,0)"></path>
    <path d="M522.992-530.245c-.853,0-1.706.008-2.559,0,.15-.32.3-.638.458-.955.441-.042,1.176.118,1.486-.277a5.84,5.84,0,0,0,.062-1.836c-.017-.4-.442-.492-.771-.49-2.728-.008-5.46,0-8.188,0-.36.013-.716.042-.79.468a4.11,4.11,0,0,0,.08,1.9c.328.337,1.031.2,1.46.235.152.318.3.637.457.953a19.718,19.718,0,0,0-3.568.147l-.2.8q6.649.027,13.294,0a4.772,4.772,0,0,0-.21-.715A1.446,1.446,0,0,0,522.992-530.245Zm-8.611-1.695q0-.57,0-1.143c2.121,0,4.242,0,6.364,0q0,.57,0,1.143C518.62-531.941,516.5-531.945,514.38-531.94Zm4.481,1.7c-.873,0-1.745,0-2.618,0q-.21-.48-.418-.963c1.158,0,2.315,0,3.471,0C519.153-530.883,519.006-530.562,518.861-530.24Z" transform="translate(-360.963 540.295)" fill="#fff"></path>
    <path d="M517.368-528.79c-2.339,0-4.449,0-6.452-.012l-.639,0,.164-.65.192-.765.073-.293.293-.071a7.318,7.318,0,0,1,1.717-.169c.113,0,.226,0,.339,0a1.223,1.223,0,0,1-.644-.334l-.078-.08-.036-.106a4.5,4.5,0,0,1-.1-2.139v-.007a1.135,1.135,0,0,1,1.264-.883h1.675l3.056,0c1.33,0,2.435,0,3.477,0h.007c.9,0,1.24.5,1.262.964q0,.079.01.16a5.641,5.641,0,0,1-.089,1.835l-.027.1-.062.079a1.214,1.214,0,0,1-.734.422l.954,0h.023c.059,0,.117,0,.174,0a1.617,1.617,0,0,1,1.14.348l.085.073.045.1a3.609,3.609,0,0,1,.193.618c.014.058.028.115.043.171l.167.627h-.649C521.471-528.793,519.36-528.79,517.368-528.79Zm-1.9-1h.43l-.11-.251c-.157-.359-.294-.675-.419-.966l-.187-.434h-.512l.111.234c.116.244.236.5.356.742Zm4.484-1.651-.2.44q-.144.323-.291.646l-.255.565h.462l.311-.663c.176-.376.323-.682.463-.964l.011-.023Zm1.292-.261h.058c.067,0,.136,0,.2,0a1.246,1.246,0,0,0,.425-.049,5.583,5.583,0,0,0,.022-1.366q0-.075-.009-.148a.737.737,0,0,0-.265-.038h-.433v.218q0,.569,0,1.141Zm-8.043-.042a1.47,1.47,0,0,0,.429.043l.194,0h.06v-.233q0-.571,0-1.145v-.218h-.39a1.428,1.428,0,0,0-.3.033s0,.01,0,.017A3.866,3.866,0,0,0,513.2-531.745Zm1.681-.839v.143q2.021,0,4.044,0h1.318v-.142h-5.362Z" transform="translate(-360.963 540.295)" fill="rgba(0,0,0,0)"></path>
    <path d="M181-499.912c.187.193.437.143.687.17q8.808-.01,17.624,0c.13-1.186.067-2.358.083-3.547a17.679,17.679,0,0,0-.087-2.058c-6.079.007-12.167-.008-18.244.008a19.767,19.767,0,0,0-.1,3.049C180.978-501.5,180.916-500.7,181-499.912Z" transform="translate(-85.982 516.578)" fill="#fff"></path>
    <path d="M199.762-499.24h-.449c-2.488-.006-5.142-.008-8.113-.008-2.99,0-5.964,0-9.509.007h-.027l-.027,0c-.041,0-.09-.006-.141-.008a1.135,1.135,0,0,1-.852-.312l-.119-.123-.019-.17a13.133,13.133,0,0,1-.043-1.666c0-.25.009-.509.005-.758v-.014c0-.277,0-.555,0-.85a12.28,12.28,0,0,1,.11-2.278l.072-.413h.419c2.068-.006,4.28-.008,7.169-.008l7.294,0,3.782,0h.452l.046.45a18.118,18.118,0,0,1,.089,2.116c0,.343,0,.693,0,1.031a22.255,22.255,0,0,1-.085,2.563Zm-8.562-1.009c2.791,0,5.3,0,7.657.007.047-.658.043-1.315.039-2,0-.343,0-.7,0-1.051.008-.533-.007-1.044-.045-1.55q-3.484,0-6.971,0h-3.647c-2.687,0-4.787,0-6.732.007a14.949,14.949,0,0,0-.039,1.679c0,.286.008.583,0,.871,0,.262,0,.526-.006.781-.007.433-.014.847.012,1.253l.054,0c.056,0,.118,0,.185.01C185.249-500.246,188.216-500.249,191.2-500.249Z" transform="translate(-85.982 516.578)" fill="rgba(0,0,0,0)"></path>
    <path d="M523.95-480.9a3.872,3.872,0,0,0-.433-.616c-.235-.055-.473-.1-.713-.132.17-.15.337-.3.5-.45-.308-.358-.612-.728-.937-1.068-.333.258-.655.535-.975.81.208.252.417.5.623.753l-1.131,0c0-.435,0-.87,0-1.3q-.785,0-1.568,0c0,.433,0,.866,0,1.3-2.488,0-4.977.005-7.465-.005a3.327,3.327,0,0,0-.863.078,5,5,0,0,0-.438.63c2.919.065,5.844.013,8.765.027a28.677,28.677,0,0,0,.961,7.15,4.267,4.267,0,0,0,1.018,1.8,1.425,1.425,0,0,0,1.53.232,3.411,3.411,0,0,0,1.166-1.131c-.338-.323-.687-.632-1.036-.941l-.382.515-.437.152a8.089,8.089,0,0,1-.86-2.868,36.254,36.254,0,0,1-.375-4.9C521.915-480.88,522.935-480.843,523.95-480.9Z" transform="translate(-360.654 498.094)" fill="#fff"></path>
    <path d="M522.422-483.837l.311.326c.257.269.5.554.734.83l.22.257.321.373-.168.149.041.044a3.561,3.561,0,0,1,.429.591l.063.1.453.719-.848.047c-.53.03-1.055.033-1.454.033l-.61,0-.5,0a34.454,34.454,0,0,0,.358,4.323l.019.107a9.047,9.047,0,0,0,.557,2.157l.009-.012.2-.267.325-.44.42.372c.343.3.7.618,1.04.945l.328.313-.28.357-.111.143a3.378,3.378,0,0,1-1.244,1.136,1.919,1.919,0,0,1-.789.17,1.9,1.9,0,0,1-1.28-.486,4.667,4.667,0,0,1-1.156-2l0-.013a25.771,25.771,0,0,1-.94-6.521l-.016-.281h-.616c-.682,0-1.377,0-2.048,0s-1.368,0-2.052,0c-1.433,0-2.54-.01-3.588-.034l-.891-.02.481-.75.07-.11a4.387,4.387,0,0,1,.414-.581l.094-.107.137-.041a3.122,3.122,0,0,1,.866-.1l.129,0h.014c.881,0,1.826.005,3.064.005h3.9c0-.268,0-.537,0-.8v-.5l.5,0c.5,0,1.041-.005,1.576,0l.5,0,0,.395c.221-.188.448-.376.68-.556Zm.189,1.692c-.1-.113-.193-.226-.292-.337l-.223.186.289.35.087-.077Zm-2.226-.259h-.567c0,.268,0,.539,0,.807l0,.5H519.8l.012.2q.023.378.044.752a25.032,25.032,0,0,0,.893,6.271,3.87,3.87,0,0,0,.875,1.579.921.921,0,0,0,.613.231.911.911,0,0,0,.376-.081l.006,0a2.037,2.037,0,0,0,.693-.621q-.142-.13-.285-.258l-.056.075-.093.126-.148.05-.246.085-.189.066-.386.133-.208-.351a8.16,8.16,0,0,1-.9-2.924l-.021-.122a36.633,36.633,0,0,1-.381-4.97l-.008-.5h0l0-.228C520.386-481.842,520.385-482.1,520.385-482.4Z" transform="translate(-360.654 498.094)" fill="rgba(0,0,0,0)"></path>
    <path d="M521.5-464.066a2.223,2.223,0,0,0-.455-.626,3,3,0,0,0-.863-.083c-1.67.01-3.339,0-5.009,0a1.614,1.614,0,0,0-.838.2c-.065.173-.128.348-.19.523C516.6-464.033,519.055-464,521.5-464.066Z" transform="translate(-363.654 482.768)" fill="#fff"></path>
    <path d="M518.168-463.525c-.9,0-1.817-.007-2.7-.013l-1.321-.009-.7,0,.234-.662c.067-.19.13-.365.193-.532l.068-.18.171-.088a2.105,2.105,0,0,1,1.042-.259h.026q1,0,2.008,0H518.4c.692,0,1.256,0,1.777,0h.015l.134,0a2.811,2.811,0,0,1,.877.107l.066.022.058.039a1.692,1.692,0,0,1,.487.594c.035.061.068.118.1.162l.519.756-.917.026C520.521-463.538,519.457-463.525,518.168-463.525Z" transform="translate(-363.654 482.768)" fill="rgba(0,0,0,0)"></path>
    <path d="M518.261-456.541c-1.99-.03-3.986,0-5.977-.015a3.97,3.97,0,0,0-1.16.092c-.225.137-.328.465-.457.68,2.818.012,5.635.007,8.451,0C518.916-456.2,518.8-456.546,518.261-456.541Z" transform="translate(-360.754 475.918)" fill="#fff"></path>
    <path d="M512.281-457.056h.008c.444,0,.918.007,1.49.007l1.243,0,1.246,0c.782,0,1.416,0,2,.013h.009a1.309,1.309,0,0,1,1.252.949l.044.093.345.716-1.554,0q-1.848,0-3.7,0c-1.523,0-2.794,0-4-.007l-.877,0,.449-.753c.025-.042.053-.1.083-.16a1.554,1.554,0,0,1,.543-.691l.047-.028.052-.018a2.893,2.893,0,0,1,.938-.118h.379Z" transform="translate(-360.754 475.918)" fill="rgba(0,0,0,0)"></path>
    <path d="M521.08-446.9c-.055-.471-.413-.618-.85-.608-1.95,0-3.9-.01-5.85,0-.363.005-.763.15-.763.573-.047.935,0,1.873-.015,2.809l1.41,0q0-1.275,0-2.549c1.555.007,3.108,0,4.662,0q0,1.275,0,2.546c.475,0,.948,0,1.423-.007C521.077-445.053,521.125-445.98,521.08-446.9Z" transform="translate(-363.193 468.383)" fill="#fff"></path>
    <path d="M517.03-448.014q1.177,0,2.353,0l.843,0h.046a1.18,1.18,0,0,1,1.306,1.051l0,.034c.027.547.021,1.1.016,1.629,0,.38-.007.773,0,1.156l.011.5-.5.007c-.478.007-.962.007-1.43.007h-.5v-.5c0-.744,0-1.418,0-2.045l-2.292,0-1.371,0q0,1.024,0,2.048v.5h-.5l-1.41,0H513.1l.006-.506c0-.35,0-.709,0-1.056-.006-.575-.012-1.17.018-1.761a1.126,1.126,0,0,1,1.256-1.059C515.173-448.011,516.016-448.014,517.03-448.014Zm3.552,1.155c-.011-.082-.035-.151-.31-.151h-.1v.338c0,.63,0,1.3,0,2.048l.417,0c0-.229,0-.457,0-.681C520.6-445.818,520.606-446.347,520.582-446.859Zm-6.07,2.237q0-1.024,0-2.048v-.337h-.126a.511.511,0,0,0-.266.06s0,.007,0,.013v.025c-.028.565-.022,1.148-.017,1.712,0,.188,0,.38,0,.573Z" transform="translate(-363.193 468.383)" fill="rgba(0,0,0,0)"></path>
    <path d="M513.691-434.409a5.248,5.248,0,0,0,3.281-1.525,5.461,5.461,0,0,0,3.274,1.538c.192-.452.372-.908.563-1.361a3.5,3.5,0,0,1-2.593-.96,2.677,2.677,0,0,1-.423-1.93c-.533.01-1.071-.018-1.6.025a3.144,3.144,0,0,1-.33,1.731,3.239,3.239,0,0,1-2.694,1.13C513.345-435.31,513.521-434.86,513.691-434.409Z" transform="translate(-362.838 460.993)" fill="#fff"></path>
    <path d="M520.556-433.846l-.381-.055a6.136,6.136,0,0,1-3.2-1.346,5.846,5.846,0,0,1-3.223,1.334l-.39.048-.139-.368c-.168-.445-.345-.9-.517-1.336l-.251-.639.674-.052a2.8,2.8,0,0,0,2.319-.912,1.708,1.708,0,0,0,.224-1.017c0-.151.008-.308.022-.476l.036-.422.422-.034c.288-.023.568-.027.8-.027l.56,0,.269,0,.524-.01-.016.554a2.19,2.19,0,0,0,.314,1.573,3.084,3.084,0,0,0,2.242.774l.691.055-.27.638c-.092.218-.184.442-.272.659s-.192.469-.291.7Zm-3.588-2.808.362.37a4.74,4.74,0,0,0,2.608,1.328l.134-.327.018-.043a3.338,3.338,0,0,1-2.261-1.077,2.638,2.638,0,0,1-.543-1.743h-.331c-.089,0-.184,0-.283,0a2.607,2.607,0,0,1-.4,1.537,3.209,3.209,0,0,1-2.4,1.282l.14.362a4.564,4.564,0,0,0,2.6-1.316Z" transform="translate(-362.838 460.993)" fill="rgba(0,0,0,0)"></path>
    <path d="M122.116-375.354a2.821,2.821,0,0,1-1.745-.422,19.682,19.682,0,0,1-.11-3.626,1.134,1.134,0,0,1,.6-1.043,5.368,5.368,0,0,1,1.085-.068c1.666.013,3.333.005,5,.007a25.6,25.6,0,0,0,3.391-.1c-.008-1.01-.007-2.021,0-3.031-3.739-.053-7.482-.005-11.221-.027a10.045,10.045,0,0,0-1.535.058,3.044,3.044,0,0,0-2.106,1.58,4.339,4.339,0,0,0-.408,2.138c.008,1.221.012,2.444,0,3.666a4.845,4.845,0,0,0,.35,2.2A3.1,3.1,0,0,0,117.3-372.4a5.252,5.252,0,0,0,1.481.127c3.851-.025,7.7.017,11.551-.023,0-1.013,0-2.026.007-3.039C127.582-375.314,124.866-375.539,122.116-375.354Z" transform="translate(-31.073 415.173)" fill="#fff"></path>
    <path d="M118.784-371.775H118.6a4.9,4.9,0,0,1-1.446-.149,3.589,3.589,0,0,1-2.188-1.887,5.312,5.312,0,0,1-.4-2.411c.01-1.058.01-2.186,0-3.662a4.861,4.861,0,0,1,.464-2.371,3.549,3.549,0,0,1,2.449-1.839l.021,0a6.514,6.514,0,0,1,1.049-.066l.466,0h.1c.7,0,1.439.006,2.321.006l2.247,0,2.249,0c1.775,0,3.135.008,4.408.026l.5.007,0,.5c-.006,1.221-.006,2.154,0,3.024l0,.439-.434.061a14.288,14.288,0,0,1-1.977.112c-.211,0-.423,0-.634,0-.281,0-.562-.005-.845,0H124.29c-.638,0-1.481,0-2.338-.008h-.191a4.133,4.133,0,0,0-.739.045c-.122.065-.214.206-.262.611a18.9,18.9,0,0,0,.08,3.262,2.2,2.2,0,0,0,1.24.24c.75-.051,1.558-.075,2.471-.075s1.81.023,2.691.046,1.788.046,2.683.046l.413,0,.508,0,0,.508c-.007,1.011-.007,2.041-.007,3.036v.495l-.495.005c-1.225.013-2.537.018-4.254.018-1.409,0-2.817,0-4.226,0-1.2,0-2.172,0-3.073.009Zm-1.11-11.339a2.54,2.54,0,0,0-1.75,1.312l-.006.012a3.852,3.852,0,0,0-.349,1.9c.01,1.479.01,2.612,0,3.671a4.448,4.448,0,0,0,.3,1.975l0,.008a2.585,2.585,0,0,0,1.581,1.356,4.116,4.116,0,0,0,1.148.1h.182c.9-.006,1.88-.009,3.076-.009,1.409,0,2.817,0,4.226,0,1.484,0,2.665,0,3.749-.014,0-.674,0-1.36,0-2.042-.88,0-1.766-.024-2.623-.046-.874-.022-1.779-.046-2.665-.046s-1.676.024-2.4.072c-.1.007-.194.011-.288.011a3.331,3.331,0,0,1-1.737-.5l-.22-.125-.029-.252a20.16,20.16,0,0,1-.112-3.719l0-.023a1.638,1.638,0,0,1,.91-1.448l.039-.016.041-.009a4.654,4.654,0,0,1,1-.079h.2c.856.007,1.7.008,2.336.008h2.877c.214,0,.427,0,.64,0s.417,0,.625,0c.425,0,.909-.007,1.4-.052,0-.624,0-1.3,0-2.092-1.129-.014-2.356-.02-3.9-.02l-2.248,0-2.249,0c-.882,0-1.621,0-2.324-.006h-.566A5.688,5.688,0,0,0,117.673-383.114Z" transform="translate(-31.073 415.173)" fill="rgba(0,0,0,0)"></path>
    <path d="M235.466-381.538a3.06,3.06,0,0,0-2.824-2.118c-3.388-.015-6.782.005-10.171-.01a4.206,4.206,0,0,0-1.58.193,3.173,3.173,0,0,0-2,2.914c0,1.723,0,3.448,0,5.17a3.1,3.1,0,0,0,2.671,3.076,15.456,15.456,0,0,0,1.571.035c3.166-.017,6.335,0,9.5-.008a3.044,3.044,0,0,0,2.934-2.614,35.635,35.635,0,0,0,.1-3.656A10.881,10.881,0,0,0,235.466-381.538Zm-5.3,5.845c-.253.293-.675.24-1.025.272a37.08,37.08,0,0,1-4.172.018.964.964,0,0,1-.9-.981c-.052-.833,0-1.671-.022-2.5a2.064,2.064,0,0,1,.262-1.333c.238-.317.638-.26.991-.288,1.53.005,3.061,0,4.591.018.172.168.343.338.513.508.01,1.031.042,2.063.047,3.093A1.681,1.681,0,0,1,230.162-375.693Z" transform="translate(-117.597 415.174)" fill="#fff"></path>
    <path d="M222.467-384.166h.006c.916,0,1.92.006,3.16.006l3.849,0c1.241,0,2.246,0,3.162.006a3.551,3.551,0,0,1,3.3,2.463l0,.006a8.108,8.108,0,0,1,.229,2.487c0,.222,0,.432,0,.637v.01c0,.25,0,.5,0,.757a26.6,26.6,0,0,1-.1,2.951,3.449,3.449,0,0,1-1.142,2.153,3.4,3.4,0,0,1-2.265.907h-.023c-.743,0-1.535,0-2.493,0l-4.075,0c-1.139,0-2.07,0-2.93.007-.2,0-.407,0-.611,0-.3,0-.651,0-1.013-.041a3.59,3.59,0,0,1-3.122-3.578v-.858c0-1.412,0-2.873,0-4.309a3.651,3.651,0,0,1,2.311-3.378,4,4,0,0,1,1.543-.226l.213,0Zm3.166,1.006c-1.24,0-2.244,0-3.159-.006l-.216,0a3.131,3.131,0,0,0-1.178.153l-.01,0a2.679,2.679,0,0,0-1.676,2.449c0,1.434,0,2.894,0,4.305v.875a2.6,2.6,0,0,0,2.217,2.567c.321.032.644.036.917.036.2,0,.405,0,.606,0,.86,0,1.793-.007,2.934-.007l4.075,0c.957,0,1.748,0,2.49,0h.026a2.534,2.534,0,0,0,2.414-2.172,25.862,25.862,0,0,0,.1-2.837c0-.255,0-.508,0-.759,0-.215,0-.44,0-.657a7.409,7.409,0,0,0-.183-2.177,2.573,2.573,0,0,0-2.35-1.769c-.915,0-1.918-.006-3.158-.006Zm-.354,2.15h.021l1.425,0c1.039,0,2.114,0,3.172.017l.2,0,.143.14c.174.171.348.343.517.512l.144.144,0,.2c0,.46.013.929.022,1.382.011.561.022,1.141.025,1.713v.021c0,.054,0,.109,0,.164a1.869,1.869,0,0,1-.415,1.355,1.5,1.5,0,0,1-1.156.419c-.069,0-.134.005-.191.011l-.038,0c-.409.005-.832.022-1.242.038-.517.02-1.051.041-1.58.041s-.973-.02-1.392-.062a1.448,1.448,0,0,1-1.361-1.443v-.006c-.032-.518-.027-1.037-.022-1.539,0-.324.007-.66,0-.985v-.031c0-.076,0-.156,0-.241a2.026,2.026,0,0,1,.368-1.384A1.4,1.4,0,0,1,225.08-381c.064,0,.124,0,.178-.009Zm4.4,1.016c-.986-.013-1.987-.013-2.957-.014l-1.408,0c-.069.005-.136.007-.2.01-.253.009-.365.022-.409.079l-.019.023a1.211,1.211,0,0,0-.138.75c0,.086,0,.174,0,.263.007.336,0,.674,0,1,0,.483-.01.983.02,1.464.01.122.068.5.417.516l.032,0a13.037,13.037,0,0,0,1.307.058c.51,0,1.034-.021,1.541-.04.41-.016.833-.033,1.249-.038.075-.006.149-.009.22-.012.192-.008.39-.016.451-.087l.023-.025c.12-.121.132-.348.138-.681,0-.058,0-.116,0-.173,0-.561-.014-1.135-.024-1.689-.007-.389-.015-.789-.02-1.186Z" transform="translate(-117.597 415.174)" fill="rgba(0,0,0,0)"></path>
    <path d="M355.651-383.581a5.785,5.785,0,0,0-1.326-.095c-2.39.02-4.784-.005-7.172.008a3.794,3.794,0,0,0-2.306,1.053,3.61,3.61,0,0,0-2.178-1.045c-2.39-.03-4.784,0-7.173-.015a5.2,5.2,0,0,0-1.633.153,3.173,3.173,0,0,0-2.14,2.953q0,4.134.005,8.275c1.721,0,3.444.017,5.167-.01.008-2.576,0-5.152.005-7.73a1.63,1.63,0,0,1,1.086-.48c1.113,0,2.233-.022,3.344.01a1.79,1.79,0,0,1,.928.465c.025,2.578,0,5.155.013,7.735,1.716.027,3.434.008,5.152.01.008-2.314,0-4.627,0-6.938a2.033,2.033,0,0,1,.462-1.268c1.513-.018,3.028-.027,4.541.007a3.116,3.116,0,0,1,.458,1.93c-.013,2.089-.008,4.179,0,6.268q2.564.01,5.132,0c.043-2.366,0-4.734.023-7.1a7.847,7.847,0,0,0-.133-1.936A3.244,3.244,0,0,0,355.651-383.581Z" transform="translate(-211.626 415.182)" fill="#fff"></path>
    <path d="M354.325-384.176h.164a5.4,5.4,0,0,1,1.283.109l.012,0a3.755,3.755,0,0,1,2.6,2.6v.006a7.153,7.153,0,0,1,.149,1.815c0,.081,0,.161,0,.242-.01,1.031-.008,2.075-.005,3.085,0,1.318.006,2.681-.018,4.024l-.009.488-.488,0c-.817,0-1.657.007-2.569.007-.794,0-1.634,0-2.568-.005l-.5,0v-.5c0-2.055-.01-4.18,0-6.273v-.016a2.7,2.7,0,0,0-.253-1.416c-.606-.011-1.244-.017-1.94-.017-.6,0-1.25,0-2.028.013a1.219,1.219,0,0,0-.241.74v.031q0,1.155,0,2.311c0,1.517,0,3.085,0,4.63l0,.5h-.735l-1.351,0-1.353,0c-.87,0-1.575,0-2.219-.015l-.49-.008,0-.49c0-1.085,0-2.186,0-3.252,0-1.385,0-2.815-.009-4.225a.908.908,0,0,0-.433-.225h-.012c-.433-.012-.9-.018-1.476-.018-.36,0-.72,0-1.08,0l-.772,0h-.029a.824.824,0,0,0-.56.234c0,1.144,0,2.3,0,3.423,0,1.329,0,2.7,0,4.055l0,.491-.491.008c-.695.011-1.451.016-2.38.016l-1.542,0-1.253,0h-.5v-.5c-.007-2.9-.007-5.808-.005-8.273a3.671,3.671,0,0,1,2.473-3.427,4.543,4.543,0,0,1,1.527-.18l.265,0h.012c.534,0,1.1.007,1.789.007l1.493,0,1.5,0c.939,0,1.7,0,2.4.013h.008a3.62,3.62,0,0,1,2.171.914,3.768,3.768,0,0,1,2.3-.923c.5,0,1.045,0,1.67,0,1.086,0,2.174,0,3.261,0,.868,0,1.58,0,2.239-.008Zm1.2,1.079a4.625,4.625,0,0,0-1.038-.078h-.161c-.661.006-1.374.008-2.243.008-1.087,0-2.174,0-3.261,0-.624,0-1.168,0-1.665,0a3.181,3.181,0,0,0-1.92.887l-.4.3-.311-.247a3.152,3.152,0,0,0-1.869-.93c-.691-.009-1.448-.013-2.381-.013l-1.493,0-1.5,0c-.687,0-1.257,0-1.791-.007l-.272,0a3.766,3.766,0,0,0-1.193.122,2.66,2.66,0,0,0-1.809,2.475v.008c0,2.324,0,5.044,0,7.775l.756,0,1.54,0c.71,0,1.318,0,1.874-.009,0-1.19,0-2.392,0-3.559,0-1.205,0-2.452,0-3.678v-.255l.207-.149.114-.084a1.886,1.886,0,0,1,1.276-.491l.756,0c.362,0,.724,0,1.086,0,.581,0,1.058.006,1.5.018a1.73,1.73,0,0,1,1.024.427c.06.044.116.085.17.121l.222.146,0,.266c.015,1.5.013,3.02.011,4.492,0,.9,0,1.833,0,2.755.507.005,1.064.008,1.713.008l1.351,0,1.092,0c0-1.38,0-2.774,0-4.127q0-1.149,0-2.3a2.479,2.479,0,0,1,.525-1.527l.161-.252.27,0c.9-.011,1.64-.016,2.312-.016.813,0,1.548.007,2.245.023l.27.006.143.229a3.573,3.573,0,0,1,.534,2.206c-.012,1.918-.009,3.865,0,5.759.738,0,1.418,0,2.067,0,.729,0,1.412,0,2.074,0,.016-1.174.013-2.362.01-3.515,0-1.013,0-2.061.005-3.093,0-.078,0-.16,0-.243a6.315,6.315,0,0,0-.118-1.564A2.738,2.738,0,0,0,355.524-383.1Z" transform="translate(-211.626 415.182)" fill="rgba(0,0,0,0)"></path>
    <path d="M508.819-383.656q-.85,0-1.7,0c0,.892,0,1.783,0,2.674a2.848,2.848,0,0,0-.966.18,2,2,0,0,0-.337.6c.435.01.868.013,1.3.017q0,3.959,0,7.918c.567,0,1.131,0,1.7,0q0-3.962,0-7.922l.82-.01q0-.375.005-.75c-.275,0-.55,0-.825,0C508.819-381.845,508.814-382.751,508.819-383.656Z" transform="translate(-356.712 415.165)" fill="#fff"></path>
    <path d="M508.819-384.156h.5l0,.5c0,.492,0,.993,0,1.478q0,.367,0,.734h.827l-.012,1.744-.816.01q0,2.015,0,4.029,0,1.7,0,3.4v.5h-.5l-.85,0c-.319,0-.6,0-.854,0l-.5,0v-2.5c0-1.775,0-3.6,0-5.414-.27,0-.543-.006-.814-.013l-.813-.019.383-.717c.021-.04.045-.1.07-.153a1.511,1.511,0,0,1,.382-.593l.04-.034.046-.025a1.852,1.852,0,0,1,.7-.2c0-.487,0-.975,0-1.451q0-.385,0-.769v-.5h.5Q507.968-384.157,508.819-384.156Zm-.505,3.719,0-.5q0-.616,0-1.233c0-.322,0-.652,0-.981h-.7v.271c0,.623,0,1.268,0,1.9l0,.439h0v.363c0,1.969,0,3.972,0,5.909v1.512h.7q0-1.45,0-2.9,0-2.261,0-4.522Z" transform="translate(-356.712 415.165)" fill="rgba(0,0,0,0)"></path>
    <path d="M77.245-339.762c-.025-.425.058-.888-.332-1.17a2.427,2.427,0,0,0-1.153-.182c-.946.018-1.9-.028-2.843.025a.816.816,0,0,0-.826.67,11.09,11.09,0,0,0-.045,1.49,5.791,5.791,0,0,0,.12,1.751c.235.457.643.432,1.093.447,1.058-.015,2.12.02,3.178-.015a.77.77,0,0,0,.783-.691C77.277-338.209,77.232-338.989,77.245-339.762Z" transform="translate(4.786 379.713)" fill="#fff"></path>
    <path d="M74.044-341.615c.2,0,.4,0,.6,0s.4,0,.593,0,.359,0,.513,0h.035c.062,0,.133,0,.207.006a2.2,2.2,0,0,1,1.194.257l.019.013a1.5,1.5,0,0,1,.532,1.33c0,.077,0,.149.006.216v.038c0,.275,0,.559,0,.834.005.5.01,1.008-.027,1.519v.009a1.267,1.267,0,0,1-1.273,1.146c-.337.011-.706.016-1.161.016l-.7,0-.7,0c-.229,0-.431,0-.616,0h-.024l-.1,0a1.437,1.437,0,0,1-1.425-.715l-.012-.024L71.7-337a3.665,3.665,0,0,1-.154-1.413c0-.176.008-.342,0-.493v-.032c0-.137,0-.275,0-.421A6.917,6.917,0,0,1,71.6-340.5l0-.017a1.314,1.314,0,0,1,1.3-1.076C73.235-341.607,73.588-341.615,74.044-341.615Zm1.194,1.006c-.2,0-.4,0-.6,0s-.4,0-.593,0c-.443,0-.782.008-1.1.026h-.032a.316.316,0,0,0-.33.256,6.155,6.155,0,0,0-.038.964c0,.141,0,.287,0,.432.008.182,0,.369,0,.549a3.05,3.05,0,0,0,.078,1c.064.113.135.138.55.149l.09,0c.187,0,.39,0,.619,0l.7,0,.7,0c.447,0,.808-.005,1.136-.016h.019a.271.271,0,0,0,.283-.234c.034-.468.029-.935.024-1.43,0-.276-.006-.56,0-.843,0-.084-.005-.165-.006-.244,0-.331-.02-.452-.109-.523a1.706,1.706,0,0,0-.654-.088c-.073,0-.149,0-.222-.006C75.6-340.611,75.428-340.609,75.237-340.609Z" transform="translate(4.786 379.713)" fill="rgba(0,0,0,0)"></path>
  </g>
</svg>
