<?xml version="1.0" encoding="UTF-8"?>
<svg xmlns="http://www.w3.org/2000/svg" xmlns:xlink="http://www.w3.org/1999/xlink" width="195.239" height="44.376" viewBox="0 0 195.239 44.376">
  <defs>
    <clipPath id="a">
      <rect width="195.239" height="44.376" fill="none"></rect>
    </clipPath>
  </defs>
  <g transform="translate(0 0)">
    <g transform="translate(0 0)" clip-path="url(#a)">
      <path d="M81.51,6.324h3.51V17.719H81.51ZM76.124,9.041V9a3.737,3.737,0,0,0,2.887-3.655c0-3.607-3.162-4.221-6.065-4.221H66.735V17.719h6.793c2.952,0,6.227-1.148,6.227-4.618a3.971,3.971,0,0,0-3.631-4.052ZM70.39,4.189h2.475c1.148,0,2.426.348,2.426,1.731s-1.173,1.8-2.3,1.8H70.382v-3.5ZM73.665,14.6H70.382v-3.72h2.766c1.2,0,2.952.259,2.952,1.828s-1.286,1.917-2.434,1.917ZM83.265.7a2.038,2.038,0,1,1-2.038,2.038A2.038,2.038,0,0,1,83.265.7m4.286,5.661h3.51V8.192h.081a3.477,3.477,0,0,1,3.235-2.167,4.613,4.613,0,0,1,1.173.121V9.381a5.4,5.4,0,0,0-1.5-.235c-2.669,0-3,1.545-3,3.817v4.755h-3.51V6.324Zm9.535,0h3.372V7.909h.049a3.687,3.687,0,0,1,3.324-1.884,3.567,3.567,0,0,1,3.486,2.062,3.7,3.7,0,0,1,3.631-2.062c3.089,0,4.044,2.175,4.044,4.941v6.728h-3.51V11.063c0-1.051-.4-1.941-1.545-1.941-1.617,0-2.135,1.148-2.135,2.556V17.7h-3.51V11.686c0-.809.049-2.556-1.569-2.556-1.828,0-2.111,1.431-2.111,2.9v5.661H97.1V6.324Zm20.42,0h3.51V17.719h-3.51V6.365ZM119.26.7a2.038,2.038,0,1,1-2.038,2.038A2.038,2.038,0,0,1,119.26.7m4.286,5.661h3.372V7.909h.049A3.688,3.688,0,0,1,130.3,6.025c3.558,0,4.213,2.345,4.213,5.386v6.284H131v-5.58c0-1.31,0-3-1.828-3s-2.111,1.431-2.111,2.9v5.661h-3.51V6.324Zm21.69,0v1.5h-.049a4.65,4.65,0,0,0-3.906-1.836c-3.235,0-5.2,2.9-5.2,5.928,0,3.445,2.224,5.879,5.6,5.879a3.979,3.979,0,0,0,3.235-1.5h.049v1.1c0,1.617-1.011,2.79-3.138,2.79a5.588,5.588,0,0,1-3.7-1.48l-1.941,2.9a8.894,8.894,0,0,0,5.718,1.666c4.4,0,6.583-2.3,6.583-6.583V6.324h-3.235ZM142.422,14.8a3.84,3.84,0,1,0,.008-.032ZM154.8,0V7.877h.049a3.292,3.292,0,0,1,3.178-1.852c3.558,0,4.213,2.345,4.213,5.386v6.284h-3.51v-5.58c0-1.31,0-3-1.828-3s-2.111,1.431-2.111,2.9v5.661h-3.51V0H154.8ZM169.9,6.025a7.343,7.343,0,0,0-5.014,1.828l1.876,1.925a3.751,3.751,0,0,1,2.822-1.326,2.1,2.1,0,0,1,2.243,1.934c0,.035,0,.069,0,.1-2.928,0-7.707.073-7.707,4.044,0,2.3,1.917,3.518,4.044,3.518a4.1,4.1,0,0,0,3.607-1.714h.049v1.431h3.235V11.928c.04-3.793-1.059-5.9-5.16-5.9m1.965,7.432c0,1.407-1.286,2.135-2.669,2.135-.809,0-1.666-.4-1.666-1.245,0-1.545,2.426-1.617,3.469-1.617h.865v.728Zm5.467-7.149h3.372V7.853h.049a3.688,3.688,0,0,1,3.324-1.828,3.566,3.566,0,0,1,3.51,2.038A3.7,3.7,0,0,1,191.2,6.025c3.089,0,4.044,2.175,4.044,4.941v6.728h-3.51V11.063c0-1.051-.4-1.941-1.545-1.941-1.617,0-2.135,1.148-2.135,2.556V17.7h-3.51V11.686c0-.809.049-2.556-1.569-2.556-1.828,0-2.111,1.431-2.111,2.9v5.661h-3.51V6.324ZM81.575,36.149a7.278,7.278,0,0,1-6.138,3.033,8.443,8.443,0,0,1-8.647-8.234c0-.156,0-.311,0-.467a8.442,8.442,0,0,1,8.161-8.715c.162-.006.323-.006.484,0a7.213,7.213,0,0,1,5.734,2.628l-1.472,1.1a5.476,5.476,0,0,0-4.262-2.175c-4.262,0-6.817,3.348-6.817,7.173s2.556,7.173,6.817,7.173a5.314,5.314,0,0,0,4.755-2.523Zm3.68,2.628H83.7V27.8h1.545V38.77Zm-.809-14.063A1.124,1.124,0,1,1,85.57,23.59a1.141,1.141,0,0,1-1.124,1.124m9.2,4.5H90.487v6.47c0,1.617.631,1.965,1.617,1.965a3.439,3.439,0,0,0,1.617-.421l.073,1.431a5.171,5.171,0,0,1-2.086.4c-1.173,0-2.717-.518-2.717-2.928V29.211H86.669V27.8H88.99V24.714h1.545V27.8H93.7v1.407Zm6.631,7.667,3.348-9.066H105.5l-5.467,13.8c-.655,1.69-1.545,2.766-3.445,2.766a4.966,4.966,0,0,1-1.431-.162l.162-1.5a2.425,2.425,0,0,0,1.173.259c1.076,0,1.617-.728,2.111-1.965l.809-2.111-4.5-11.1h1.941Zm25.555-.728a7.279,7.279,0,0,1-6.114,3.033,8.444,8.444,0,0,1-8.648-8.233c0-.162,0-.323,0-.484a8.442,8.442,0,0,1,8.161-8.715c.162-.006.323-.006.484,0a7.214,7.214,0,0,1,5.742,2.628l-1.472,1.1a5.476,5.476,0,0,0-4.262-2.175c-4.262,0-6.817,3.348-6.817,7.173s2.556,7.173,6.817,7.173a5.312,5.312,0,0,0,4.747-2.507Zm7.5-8.621a5.766,5.766,0,1,0,5.831,5.766,5.6,5.6,0,0,0-5.42-5.768c-.129,0-.258,0-.387,0Zm0,10.125a4.064,4.064,0,0,1-4.124-4.359,4.142,4.142,0,1,1,8.273,0,4.043,4.043,0,0,1-4.124,4.351ZM149.4,38.778a14.79,14.79,0,0,1-.073-1.755h-.049a4.414,4.414,0,0,1-3.68,2.038c-2.79,0-4.124-1.569-4.124-4.286V27.8h1.545v6.073c0,2.426.679,3.777,2.976,3.777.332,0,3.324-.21,3.324-4.221V27.771h1.545V36.36c0,.582.073,1.617.113,2.426h-1.617Zm6.559-10.966a14.79,14.79,0,0,1,.073,1.755h.049a4.414,4.414,0,0,1,3.68-2.038c2.79,0,4.124,1.569,4.124,4.286v6.963H162.34V32.712c0-2.426-.679-3.777-2.976-3.777-.332,0-3.324.21-3.324,4.221v5.661H154.5v-8.6c0-.582-.073-1.617-.121-2.426h1.617Zm19.506,2.58a3.29,3.29,0,0,0-2.742-1.456c-2.556-.049-4.124,1.852-4.124,4.359s1.569,4.407,4.124,4.359a3.283,3.283,0,0,0,2.742-1.456l1.262.962a5.305,5.305,0,0,1-4.044,1.9,5.475,5.475,0,0,1-5.8-5.125,5.3,5.3,0,0,1,0-.641,5.475,5.475,0,0,1,5.165-5.769,5.655,5.655,0,0,1,.641,0,5.305,5.305,0,0,1,4.044,1.9Zm5.176,8.386H179.1V27.8h1.545V38.778Zm-.809-14.063a1.124,1.124,0,1,1,1.124-1.124,1.141,1.141,0,0,1-1.124,1.124M186,38.778h-1.545V21.059H186V38.778Zm-127.064.057H57.443V1.108h1.545V38.834ZM49.9,5.612a4.521,4.521,0,0,0-4.173-4.5H37.249a4.481,4.481,0,0,0-3.3,1.456L10.327,26.178,21.762,37.621a4.488,4.488,0,0,0,6.308.049l20.46-20.452.089-.089A4.491,4.491,0,0,0,49.9,13.991ZM22.4,8.993l-6.47-6.429a4.481,4.481,0,0,0-3.3-1.456H4.173A4.521,4.521,0,0,0,0,5.612v8.378a4.487,4.487,0,0,0,1.27,3.13l6.47,6.47Z" transform="translate(0 0)" fill="#fff"></path>
    </g>
  </g>
</svg>
