<?xml version="1.0" encoding="UTF-8"?>
<svg xmlns="http://www.w3.org/2000/svg" xmlns:xlink="http://www.w3.org/1999/xlink" width="140.96" height="88.04" viewBox="0 0 140.96 88.04">
  <defs>
    <clipPath id="a">
      <rect width="140.96" height="88.04" fill="#fff"></rect>
    </clipPath>
  </defs>
  <g transform="translate(0 -22)">
    <g transform="translate(0 22)" clip-path="url(#a)">
      <path d="M3.863,101.306H0V89.4H3.321A3.151,3.151,0,0,1,6.663,92.52a2.275,2.275,0,0,1-1.1,2.088,3.28,3.28,0,0,1,2.2,3.08,3.648,3.648,0,0,1-3.9,3.618M3.025,90.932H1.791v3.136H3.025c.972,0,1.811-.447,1.811-1.548,0-1.12-.838-1.588-1.811-1.588M3.49,95.6h-1.7v4.177h1.7a2.112,2.112,0,1,0,0-4.177" transform="translate(0 -26.222)" fill="#fff"></path>
      <path d="M21.944,101.238l-1.285-3.08h-4.63l-1.285,3.08H12.968s4.368-10.412,4.658-11.1a1.571,1.571,0,0,1,1.071-.978l5.074,12.074m-4.905-7.424c-.169-.391-.512-1.319-.512-1.319s-.368.928-.534,1.319l-1.177,2.909h3.4Z" transform="translate(-3.804 -26.153)" fill="#fff"></path>
      <path d="M34.821,101.307H31.164V89.4h3.657c3.322,0,6.44,2.107,6.44,5.95s-3.118,5.954-6.44,5.954m-.316-10.374h-1.55v8.844h1.55c2.685,0,4.905-1.4,4.905-4.424s-2.22-4.42-4.905-4.42" transform="translate(-9.141 -26.223)" fill="#fff"></path>
      <path d="M60.131,101.306l-.485-5.373c-.073-.8-.146-1.831-.186-2.707h-.035c-.377.842-.953,2-1.35,2.765L55.317,101.4h-.672l-2.8-5.414c-.412-.785-.91-1.847-1.326-2.728h-.034c-.039.916-.135,1.96-.187,2.671l-.47,5.373h-1.6s.841-9.863.907-10.521A1.44,1.44,0,0,1,50.373,89.4l3.174,6.123c.485.934,1.1,2.15,1.49,3.063h.037c.373-.914.953-2.077,1.458-3.063,0,0,2.246-4.41,2.609-5.1A1.759,1.759,0,0,1,60.785,89.4l1.066,11.9" transform="translate(-14.145 -26.223)" fill="#fff"></path>
      <path d="M88.653,101.572l-5.582-6.106c-.9-.968-1.922-2.165-2.738-3.133l-.039.016c.039,1.085.039,2.094.039,2.993v5.966H78.522V91.075c0-1.216.647-1.673,1.25-1.673L84.886,95c.685.767,1.77,1.962,2.5,2.859l.037-.022c-.037-.915-.037-1.939-.037-2.795V89.4h1.811v12.17" transform="translate(-23.031 -26.223)" fill="#fff"></path>
      <path d="M141.337,101.572l-5.579-6.106c-.9-.968-1.921-2.165-2.744-3.133l-.036.016c.036,1.085.036,2.094.036,2.993v5.966H131.2V91.075c0-1.216.651-1.673,1.254-1.673l5.111,5.6c.689.767,1.77,1.962,2.5,2.859l.034-.022c-.034-.915-.034-1.939-.034-2.795V89.4h1.811v12.17" transform="translate(-38.483 -26.223)" fill="#fff"></path>
      <path d="M103.989,90.952h-2.22v10.354H99.957V90.952H96.131V89.4h9.709a1.634,1.634,0,0,1-1.852,1.55" transform="translate(-28.196 -26.223)" fill="#fff"></path>
      <path d="M116.349,101.43a6.189,6.189,0,1,1,6.31-6.192,6.158,6.158,0,0,1-6.31,6.192m0-10.807a4.622,4.622,0,1,0,4.48,4.615,4.462,4.462,0,0,0-4.48-4.615" transform="translate(-32.277 -26.121)" fill="#fff"></path>
      <path d="M3.863,101.306H0V89.4H3.321A3.151,3.151,0,0,1,6.663,92.52a2.275,2.275,0,0,1-1.1,2.088,3.28,3.28,0,0,1,2.2,3.08,3.648,3.648,0,0,1-3.9,3.618M3.025,90.932H1.791v3.136H3.025c.972,0,1.811-.447,1.811-1.548,0-1.12-.838-1.588-1.811-1.588M3.49,95.6h-1.7v4.177h1.7a2.112,2.112,0,1,0,0-4.177" transform="translate(0 -26.222)" fill="#fff"></path>
      <path d="M21.944,101.238l-1.285-3.08h-4.63l-1.285,3.08H12.968s4.368-10.412,4.658-11.1a1.571,1.571,0,0,1,1.071-.978l5.074,12.074m-4.905-7.424c-.169-.391-.512-1.319-.512-1.319s-.368.928-.534,1.319l-1.177,2.909h3.4Z" transform="translate(-3.804 -26.153)" fill="#fff"></path>
      <path d="M34.821,101.307H31.164V89.4h3.657c3.322,0,6.44,2.107,6.44,5.95s-3.118,5.954-6.44,5.954m-.316-10.374h-1.55v8.844h1.55c2.685,0,4.905-1.4,4.905-4.424s-2.22-4.42-4.905-4.42" transform="translate(-9.141 -26.223)" fill="#fff"></path>
      <path d="M60.131,101.306l-.485-5.373c-.073-.8-.146-1.831-.186-2.707h-.035c-.377.842-.953,2-1.35,2.765L55.317,101.4h-.672l-2.8-5.414c-.412-.785-.91-1.847-1.326-2.728h-.034c-.039.916-.135,1.96-.187,2.671l-.47,5.373h-1.6s.841-9.863.907-10.521A1.44,1.44,0,0,1,50.373,89.4l3.174,6.123c.485.934,1.1,2.15,1.49,3.063h.037c.373-.914.953-2.077,1.458-3.063,0,0,2.246-4.41,2.609-5.1A1.759,1.759,0,0,1,60.785,89.4l1.066,11.9" transform="translate(-14.145 -26.223)" fill="#fff"></path>
      <path d="M88.653,101.572l-5.582-6.106c-.9-.968-1.922-2.165-2.738-3.133l-.039.016c.039,1.085.039,2.094.039,2.993v5.966H78.522V91.075c0-1.216.647-1.673,1.25-1.673L84.886,95c.685.767,1.77,1.962,2.5,2.859l.037-.022c-.037-.915-.037-1.939-.037-2.795V89.4h1.811v12.17" transform="translate(-23.031 -26.223)" fill="#fff"></path>
      <path d="M141.337,101.572l-5.579-6.106c-.9-.968-1.921-2.165-2.744-3.133l-.036.016c.036,1.085.036,2.094.036,2.993v5.966H131.2V91.075c0-1.216.651-1.673,1.254-1.673l5.111,5.6c.689.767,1.77,1.962,2.5,2.859l.034-.022c-.034-.915-.034-1.939-.034-2.795V89.4h1.811v12.17" transform="translate(-38.483 -26.223)" fill="#fff"></path>
      <path d="M103.989,90.952h-2.22v10.354H99.957V90.952H96.131V89.4h9.709a1.634,1.634,0,0,1-1.852,1.55" transform="translate(-28.196 -26.223)" fill="#fff"></path>
      <path d="M116.349,101.43a6.189,6.189,0,1,1,6.31-6.192,6.158,6.158,0,0,1-6.31,6.192m0-10.807a4.622,4.622,0,1,0,4.48,4.615,4.462,4.462,0,0,0-4.48-4.615" transform="translate(-32.277 -26.121)" fill="#fff"></path>
      <path d="M71.473,101.306V91.074a1.651,1.651,0,0,1,1.8-1.672v11.9" transform="translate(-20.964 -26.223)" fill="#fff"></path>
      <path d="M94.151,121.265V115a.991.991,0,0,1,1.108-1.028v6.344h3.215v.951m21.546,0h-2.242V113.97h2.242a3.658,3.658,0,1,1,0,7.294m-.2-6.354h-.949v5.417h.949c1.647,0,3.01-.853,3.01-2.709s-1.363-2.707-3.01-2.707m-37.509,6.514L78.9,117.686c-.551-.591-1.177-1.324-1.682-1.921l-.021.016c.021.662.021,1.277.021,1.825v3.659H76.1V115c0-.751.4-1.028.769-1.028l3.133,3.434c.425.469,1.086,1.2,1.534,1.748l.024-.008c-.024-.564-.024-1.194-.024-1.717V113.97h1.11v7.455Zm32.364,0-3.425-3.739c-.547-.591-1.177-1.324-1.679-1.921l-.023.016c.023.662.023,1.277.023,1.825v3.659h-1.108V115c0-.751.4-1.028.765-1.028l3.133,3.434c.422.469,1.086,1.2,1.532,1.748l.022-.008c-.022-.564-.022-1.194-.022-1.717V113.97H115v7.455ZM69.42,113.97v7.294h4.334v-.951H70.532v-2.237H72.9v-.951H70.532v-2.21l2.032,0a1.009,1.009,0,0,0,1.142-.95Zm19.249,3.682v.883h1.765v1.527a2.71,2.71,0,0,1-1.544.377,2.757,2.757,0,0,1-2.949-2.811,2.8,2.8,0,0,1,2.939-2.844,4.1,4.1,0,0,1,.979.126,1.061,1.061,0,0,0,1.247-.5,4.4,4.4,0,0,0-2.351-.587,3.794,3.794,0,1,0,.069,7.581,4.094,4.094,0,0,0,2.662-.789v-2.961Zm16.662,3.613-.782-1.881h-2.83l-.789,1.881H99.842s2.672-6.364,2.851-6.783a.967.967,0,0,1,.657-.6l3.1,7.384Zm-1.876-4.543c-.1-.242-.316-.806-.316-.806s-.225.564-.324.806l-.723,1.782h2.079Z" transform="translate(-20.362 -33.385)" fill="#fff"></path>
      <path d="M126.747,59.8a4.04,4.04,0,0,1,.577.6,3.992,3.992,0,0,1,.454.53,1.7,1.7,0,0,1-.858-.361,2.205,2.205,0,0,0-1.2-.616,2.183,2.183,0,0,1-1.237-.377c-.435-.346-.914-.62-1.368-.934-.179-.125-.373-.247-.549-.377a1.869,1.869,0,0,0-.365-.282,2.233,2.233,0,0,1-.429-.279,6.433,6.433,0,0,0-.688-.49,8.752,8.752,0,0,1-.794-.667,5.181,5.181,0,0,0-.7-.594,11.88,11.88,0,0,1-1.252-1.022c-.218-.184-.444-.375-.676-.544a21.164,21.164,0,0,1-1.679-1.435c-.864-.775-1.574-1.734-2.471-2.482a9.016,9.016,0,0,1-1.379-1.378,10.857,10.857,0,0,1-.981-1.488,2.694,2.694,0,0,1-.379-.7,1.047,1.047,0,0,1,.567-1.247.877.877,0,0,1,.881.025,4.609,4.609,0,0,1,.459.451c.792.835,1.693,1.549,2.509,2.363.568.565,1.233,1.062,1.8,1.594.587.56,1.213,1.123,1.814,1.642,1.385,1.2,2.544,2.37,3.836,3.668.71.717,1.395,1.176,2.145,1.856a3.836,3.836,0,0,1,.963,1.027c.253.588-.221.612,1,1.51" transform="translate(-32.484 -13.362)" fill="#fff"></path>
      <path d="M176.378,102.836a19.117,19.117,0,0,1-2.194-1.135,3.586,3.586,0,0,1-.91-.635,12.275,12.275,0,0,0-1.7-1.582c-.218-.176-.409-.389-.637-.571a16.134,16.134,0,0,1-1.541-1.544,7.934,7.934,0,0,1-.821-1.26,5.009,5.009,0,0,1-1-3.052,3.086,3.086,0,0,1,.693-1.346c.059-.084.049-.186.1-.266a1.922,1.922,0,0,1,.713-.6,1.13,1.13,0,0,1,.623-.085c.312,0,.333-.044.363-.353a2.827,2.827,0,0,0,.028-.7c-.111-.508-.731-.664-.824-1.223a2.538,2.538,0,0,1,.248-1.6,3.811,3.811,0,0,1,.352-.638c.65-.83,1.888-1.169,2.791-1.647.306-.162.6-.343.911-.5.719-.356,1.447-.711,2.2-1,.537-.209,1.061-.538,1.609-.709a4.832,4.832,0,0,0,.977-.341,5.512,5.512,0,0,1,1.091-.341,13.473,13.473,0,0,1,1.326-.314c.141-.032.338-.117.487-.155.3-.083.62-.093.915-.169.37-.1.723-.271,1.079-.4.294-.1.6-.163.885-.257.319-.107.7-.331,1.028-.2a.651.651,0,0,1,.363.852,4.259,4.259,0,0,1-.989,1.549c-.188.142-.436.218-.565.418-.2.311.052.492.228.717a2.059,2.059,0,0,1,.441,1.292,5.673,5.673,0,0,1-.293,1.29,7.587,7.587,0,0,0-.162,1.249,1.1,1.1,0,0,1-.155.7c-.159.177-.425.307-.6.5-.283.312-1.515,1.458-1.812,1.763-1.174,1.2-1.115,1.057-1.115,1.057A22.336,22.336,0,0,1,177.3,93.84a26.267,26.267,0,0,1-3.634.978c-.549.1-.7.387-.36.752a13,13,0,0,0,2.371,1.454c.842.446,1.759.893,1.759.893s1.509.336,3.045.642a3.461,3.461,0,0,0,1.762-.671,6.848,6.848,0,0,0,1.87-2.261,4.4,4.4,0,0,0,.339-1.311c0-.2-.225-.422-.419-.2a20.047,20.047,0,0,1-1.623,1.821c-.669.611-1.088.888-1.4,1.17s-.366.216-.946.306c-1.09.165-1.176.03-1.453-.419a3.59,3.59,0,0,1,.252-2.651c.418-.615.768-.872,1.728-1.986.535-.613,2.094-2.095,2.907-2.848a15.453,15.453,0,0,0,2.348-2.572,4.245,4.245,0,0,0,.2-1.564c0-.892.418-1.228.92-.558a8.835,8.835,0,0,0,.7.9,4.908,4.908,0,0,1,1.563,2.206,11.079,11.079,0,0,1,.864,3.468,13.434,13.434,0,0,1-.471,4.3c-.2.56-.363.392-.474.975a3.515,3.515,0,0,1-.982,1.819,13.4,13.4,0,0,1-3.576,3.267,8.536,8.536,0,0,1-4.717,1.565,6.5,6.5,0,0,1-3.493-.473" transform="translate(-49.146 -23.517)" fill="#fff"></path>
      <path d="M169.488,53.242c-.159-1.225-.079-.409-.221-1.492-1.956-14.556-4.081-27.334-4.628-31.859-.35-2.858-.485-4.366-.519-5.273a8.262,8.262,0,0,0-.329-2.307c-.535-1.979-.965-2.167-1.346-.967a36.547,36.547,0,0,0-.626,4.786,69.229,69.229,0,0,0,.062,7.471c.059,1.665.148,2.966.238,3.5a5.787,5.787,0,0,1,.025,2.163c-.589-1.039-.2-1.071-.735-2.847-.39-1.274-.413-2.453-.865-4.449-.5-2.221-.29-3.616-1.006-3.616-.148,0-.148.567-.237,1.9-.123,1.827-.017,3.694-.006,5.525.006,1.224.011,2.452.018,3.673,0,.424.037.857.01,1.282-.039.765-.6,1.029-1.177,1.412-.139.09-.481.39-.65.3-.128-.071-.114-.392-.122-.521-.013-.23-.037-.459-.052-.685-.051-.671-.093-1.336-.13-2.012a107.1,107.1,0,0,1-.056-11.667c.416-7.652.71-15,.353-16.72s-1.066-.594-1.243,1.6c0,0-.651,0-.357,2.133s.063,3.26-.65,6.463c-.652,2.939-.745,6.41-1.247,8.542-.654,2.784-1.066,6.7-1.184,7.4s-.532.951-1.184,1.248a5.527,5.527,0,0,1,0-2.961,6.718,6.718,0,0,0,.119-3.085,2.45,2.45,0,0,0-2.554-1.96c-1.541.181-2.721.949-2.784,2.432a11.952,11.952,0,0,0,.474,3.971,18.014,18.014,0,0,1,.478,1.9s-.775-.117-1.721-1.718-3.609-7.27-4.689-9.665c-1.3-2.905-2.842-5.334-3.2-7.644-.238-1.543-.36-2.787-.474-3.208s-.307-.115-.42.236c-.416-1.246-2.316-2.536-1.794-.4s1.336,5.155,2.406,9.7a89.551,89.551,0,0,0,6.5,17.58.8.8,0,0,1-.326,1.182c-.3.189-.693.461-1.083.69a.947.947,0,0,1-1.154-.294c-.394-.461-3.866-4.289-4.609-5.256a13.887,13.887,0,0,0-1.856-2.407c-1.9-1.819-3.4-4.073-4.427-5.1s-4.273-4.468-4.942-5.258A20.886,20.886,0,0,0,123.8,14.47c-1.025-1.025-1.778-1.226-2.214-.985s.476,3.439,1.5,5.334a84.894,84.894,0,0,0,8.185,12.369c4.711,5.956,8.913,11.118,10.827,13.674.238.318.039.674-.318.318-2.6-2.61-4.357-4.685-5.369-5.652a93.068,93.068,0,0,1-7.552-7.668c-1.927-2.4-4.981-5.569-5.967-6.873-1.343-1.782-2.454-2.334-3.559-3.6s-2.765-3.119-3.873-3.319-1.7-.276-1.3,1.106,2.333,5.1,6.361,10.041,4.51,5.333,5.1,6.243a47.43,47.43,0,0,0,3.87,4.7c1.307,1.3,3.2,2.256,3.913,3.081,1.029,1.191,1.068,1.518-.079,1.429a3.709,3.709,0,0,1-.907-.085,7.874,7.874,0,0,1-1.307-.948c-1.461-1.027-2.531-1.7-3.358-2.333s-1.62-.591-1.461.478c.1.664.946,1.343,2.41,2.8s2.606,2.453,3.835,3.677,2.277,2.444,2.856,3.081,1.689,1.464,2.837,2.772,2.8,3.16,4.344,4.861c1.512,1.66,2.1,2.29,2.056,2.684-.118,1.147-.316,1.941.554,2.768,1.006.965,1.89-.1,2.893-.463.423-.155.541-.416.736-.8.247-.495.247-1.4.772-1.711.4-.24.765.191,1.135.385a2.273,2.273,0,0,0,2.011.263c.938-.513.184-2.028.112-2.842-.088-.948.509-.6,1.037-1.086a2.381,2.381,0,0,0,.461-.936c.211-.586.314-1.261,1.069-1.265.5,0,.828.348,1.24.572a2.1,2.1,0,0,0,.706.177,3.456,3.456,0,0,1,.759.4,2.589,2.589,0,0,0,1.452.232c1.336-.249.451-2,.211-2.721a9.783,9.783,0,0,1-.29-1.885,18.063,18.063,0,0,0-.394-1.836c-.23-1.091-.412-2.131-.593-3.243a11.624,11.624,0,0,1-.307-1.377,9.093,9.093,0,0,0-.152-1.441c-.143-.694-.6-2.3.459-2.51.419-.083.627.688.633.712,1.069,3.045,3.16,8.932,3.877,10.117s.868,1.385,1.576,1.463.989.475,1.664.4.91-.189,1.659-.278c.987-.119,1.74-.277,1.581-1.5M144.54,44.128c-.485.069-.728-.492-.9-.848-.26-.544-.729-.939-1.025-1.464-.175-.312-.647-.772-.182-1.08.29-.187.432-.023.62.171.208.228.485.38.691.615.419.48.859.989,1.233,1.495.124.174.373.289.408.527.047.348-.577.543-.848.584m1.129-4.237c-.426-.542.806-1.358,1.294-.706a2.846,2.846,0,0,1,.235.488c.167.356.355.693.53,1.042.086.172.169.355.242.538.1.254.174.531-.192.576-.257.042-.482-.273-.637-.441-.25-.261-.465-.552-.7-.825-.218-.26-.571-.416-.772-.673m5.015,11.317c-.042.157-.03.514-.248.519-.247.012-.579-.549-.731-.7-.311-.321-.693-.536-.994-.865a14.333,14.333,0,0,1-.953-1.083c-.2-.277-.442-.5-.625-.782-.2-.305-.118-.358.172-.537.385-.236,1.052-.554,1.512-.332a5.89,5.89,0,0,1,1.374,1.437,3.648,3.648,0,0,1,.218.664,3.622,3.622,0,0,1,.326,1.408,1.133,1.133,0,0,1-.052.272" transform="translate(-33.447 0)" fill="#fff"></path>
    </g>
  </g>
</svg>
