<?xml version="1.0" encoding="UTF-8"?>
<svg xmlns="http://www.w3.org/2000/svg" xmlns:xlink="http://www.w3.org/1999/xlink" width="134" height="134" viewBox="0 0 134 134">
  <defs>
    <clipPath id="a">
      <rect width="134" height="134" fill="none"></rect>
    </clipPath>
  </defs>
  <g clip-path="url(#a)">
    <path d="M67.313,134.626A67.313,67.313,0,1,0,0,67.313a67.313,67.313,0,0,0,67.313,67.313" fill="#fff"></path>
    <path d="M70.2,133.993c-.722.023-1.446.035-2.165.035a65.862,65.862,0,1,1,2.165-.035" transform="translate(-0.862 -0.886)" fill="#3137fd"></path>
    <path d="M65.944,122.52a46.653,46.653,0,0,0,14.65,2.346c.514,0,1.028-.008,1.545-.023a47.005,47.005,0,0,0,6.782-93.233l-1.433-1.652-2.864-3.3-1.96,2.858-.941,1.373c-.359-.008-.719-.014-1.08-.014-.519,0-1.036.008-1.557.025A46.97,46.97,0,0,0,47.28,110.966a13.964,13.964,0,0,0-.348,1.625,10.52,10.52,0,0,0,10.64,12.432,15.2,15.2,0,0,0,6.623-1.626c.214-.1.429-.213.641-.326l1.107-.551ZM97.281,43.686,86.189,54.354l-2.114,2.034-34.42,33.1-.685.659-.046-.087a8.994,8.994,0,0,1-.583-1.363l-.014-.042.031-.032.694-.733,45.13-47.781.605-.644,3.13,3.61-.634.61h0ZM47.9,85.2v-.023l.015-.02.9-1.115L89.026,34.171l.56-.7,3.131,3.61-.044.047-.548.615L48.785,86.531l-.763.859L48,87.237a9.97,9.97,0,0,1-.1-2.041m36.8-57.35,2.827,3.247-.037.049-.507.669-37.19,48.9L48.47,82.448l-.129-.066a15.269,15.269,0,0,1,2.18-4.542ZM57.58,124.322a10.018,10.018,0,0,1-7.745-3.41c-3.3-3.807-3.091-9.6.545-14.748L59.8,92.589l-1.439.844-1.187.7-1.284.752-.025-.005a9.916,9.916,0,0,1-1.909-.469l-.139-.05.126-.081.836-.544,6.172-4.027,1.56-1.017,2.314-3.333-1.652,1.15L53.5,93.241l-.844.588-.039-.022a9.341,9.341,0,0,1-1.2-.794l-.075-.059.075-.057.665-.512L67.163,80.764,69,79.352l3.681-5.3L70.7,75.673,51.22,91.649l-.7.572-.047-.047c-.153-.16-.278-.3-.394-.429-.176-.2-.327-.392-.465-.579l-.039-.052.047-.044.624-.564L77.572,65.762l2.3-2.081,5.994-8.634,1.557,1.8.52-.47,11.4-10.318.653-.591,3.132,3.61-.06.049-.62.51L90.553,59.385l-.542.445,1.729,1.995L92.3,61.4,104.49,52l.7-.536.046.052,3.086,3.557-.724.5L94.909,64.413l-.578.4,1.728,1.993.593-.387,12.993-8.478.74-.483,3.13,3.61-.076.046-.693.407L99.263,69.436l-.614.362,1.735,2,.627-.346L114.8,63.886l.787-.433,2.774,3.211-.085.042-15.011,7.336-.651.32,17.654,20.347L64.52,122.463a14.766,14.766,0,0,1-6.936,1.87v-.005Z" transform="translate(-13.413 -10.636)" fill="#00ff1a"></path>
    <path d="M79.2,141.294a3.791,3.791,0,0,1,.936-5.28l39.93-23.388-8.02-9.247-32.4,33a3.792,3.792,0,1,1-4.97-5.728l37.245-27.417-8.03-9.257L75.1,130.207a3.788,3.788,0,0,1-6.485-3.328l-5.271,7.594c-3.581,5.074-2.618,9.444-.707,11.647,2.587,2.983,7.142,3.36,11.6.959l.035-.017,8.362-4.162a3.785,3.785,0,0,1-3.432-1.6Z" transform="translate(-24.311 -37.497)" fill="#00ff1a"></path>
    <path d="M136.342,125.243,101.4,154.065l41.865-20.841-6.925-7.981Z" transform="translate(-40.459 -49.971)" fill="#00ff1a"></path>
    <path d="M103.322,80.722,76.826,118.9l33.283-30.351Z" transform="translate(-30.653 -32.207)" fill="#00ff1a"></path>
    <path d="M13.932,75.569l-.814,2.24,6.915-.379,3.884,1.416.725-1.988-3.884-1.416L15.706,70.7l-.785,2.157,3.31,2.772-.008.029-4.29-.091Z" transform="translate(-5.234 -28.211)" fill="#fff"></path>
    <path d="M30.385,66.649c1.515-2.792-.288-4.221-3.094-5.741s-4.987-2.25-6.5.544.288,4.221,3.1,5.741,4.987,2.25,6.5-.544h0Zm-8.226-4.456c.6-1.1,1.652-.763,4.12.575S29.608,64.8,29.014,65.9s-1.638.77-4.121-.576-3.328-2.035-2.735-3.137Z" transform="translate(-8.076 -23.764)" fill="#fff"></path>
    <path d="M30.922,44.822l5.626,4.483-.02.024-7.22-2.483-1.522,1.911L36,55.3l1.209-1.518L31.458,49.2l.017-.023,7.367,2.56,1.5-1.888L32.131,43.3,30.922,44.82Z" transform="translate(-11.086 -17.277)" fill="#fff"></path>
    <path d="M51.068,39.8l-1.161-1.29-2.9,2.606-1.887-2.1,2.625-2.363-1.161-1.29-2.625,2.36-1.652-1.838L45.1,33.375l-1.162-1.29-4.364,3.924L46.6,43.818,51.068,39.8Z" transform="translate(-15.789 -12.802)" fill="#fff"></path>
    <path d="M51.008,26.145,55.852,29.2l.682,5.88,1.953-1.262-.673-3.8L61.02,32.18l2-1.3L57.94,27.845l-.77-5.687-1.938,1.255.719,3.581-2.981-2.12-1.964,1.269Z" transform="translate(-20.351 -8.841)" fill="#fff"></path>
    <path d="M77.942,14.245l.605,10.846,2.1-.683-.226-2.262,2.657-.863,1.15,1.961,2.1-.683-5.894-9.128-2.489.809Zm2.29,6.137-.5-4.8.029-.008,2.426,4.175Z" transform="translate(-31.097 -5.36)" fill="#fff"></path>
    <path d="M99.066,20.234,98.8,18.519l-3.708.572-1.338-8.664-2.094.325,1.6,10.379Z" transform="translate(-36.572 -4.16)" fill="#fff"></path>
    <path d="M106.812,19.6l5.868-.032-.008-1.735-3.75.02-.051-8.767-2.117.014.059,10.5Z" transform="translate(-42.593 -3.626)" fill="#fff"></path>
    <path d="M126.868,20.976l5.858,1.378.4-1.691-3.793-.892.646-2.75,3.437.809.4-1.691-3.437-.807.564-2.405,3.652.859.395-1.691-5.714-1.343Z" transform="translate(-50.619 -4.29)" fill="#fff"></path>
    <path d="M143.519,14.819l-4.052,9.689,1.794.748,2.836-6.785.028.01-.45,7.785,2.226.932,4.051-9.692-1.792-.749-2.775,6.637-.028-.012.414-7.624-2.253-.941Z" transform="translate(-55.646 -5.912)" fill="#fff"></path>
    <path d="M163.674,29.352c1.155-1.794,1.009-3.306-.945-4.562-2.275-1.466-3.947-.392-5.859,2.576-1.969,3.056-2.588,4.964-.4,6.377a2.358,2.358,0,0,0,2.491.206l.025.015-.527.816,1.312.845,3.068-4.761-2.881-1.856-.844,1.311,1.175.757-.582.9a1.543,1.543,0,0,1-2.009.7c-1.026-.661-.363-2.123,1.005-4.25,1.418-2.2,2.338-2.869,3.2-2.309.717.461.481,1.481.059,2.137l1.706,1.1Z" transform="translate(-61.879 -9.631)" fill="#fff"></path>
    <path d="M172.628,32.477l-7.032,7.8,4.36,3.931,1.161-1.289L168.331,40.4l5.873-6.51-1.575-1.419Z" transform="translate(-66.071 -12.957)" fill="#fff"></path>
    <path d="M175.405,51.862l2.035-1.013,1.751,2.179L177.765,54.8l1.382,1.719,6.441-8.75-1.641-2.04-9.927,4.416,1.382,1.719h0Zm7.933-3.983.02.022-3.042,3.752-1.29-1.6,4.315-2.169h0Z" transform="translate(-69.432 -18.245)" fill="#fff"></path>
    <path d="M192.479,56.376l-9.146,5.162.953,1.691,6.4-3.614.015.025-5.134,5.871,1.189,2.1,9.144-5.164-.953-1.691-6.266,3.537-.015-.023,5.007-5.765-1.2-2.126Z" transform="translate(-73.148 -22.494)" fill="#fff"></path>
    <path d="M197.965,81.013c2.918-1.015,4.646-2.179,3.681-4.956l-1.141-3.279-9.919,3.451,1.1,3.154c.923,2.653,2.767,2.853,6.284,1.63h0Zm1.763-5.723.3.846c.531,1.529-.558,2.111-2.812,2.894-2.694.937-3.666.964-4.151-.424l-.308-.888Z" transform="translate(-76.042 -29.038)" fill="#fff"></path>
    <path d="M15.763,139.974c1.6-.473,2.685-1,2.229-2.557s-1.653-1.417-3.257-.944-2.686,1-2.226,2.557,1.653,1.417,3.257.948h0Zm-.724-2.465c1.411-.415,1.989-.474,2.167.139s-.337.875-1.748,1.289-1.989.475-2.17-.138.331-.87,1.75-1.289Z" transform="translate(-4.949 -54.323)" fill="#fff"></path>
    <path d="M15.465,147.582l2.035-.822.217.537a1.516,1.516,0,0,0,2.173.96,1.447,1.447,0,0,0,.978-1.982l-.709-1.757-5.1,2.057.406,1h0Zm4.344-1.751.168.417c.2.5,0,.814-.5,1.012a.7.7,0,0,1-1.034-.358l-.18-.446,1.552-.625Z" transform="translate(-6.007 -57.661)" fill="#fff"></path>
    <path d="M22.372,156.733l.807-.415-.828-1.6,1.153-.593.876,1.7.807-.418-1.372-2.662-4.89,2.515,1.406,2.732.807-.416-.911-1.772,1.314-.674.828,1.6Z" transform="translate(-7.552 -60.945)" fill="#fff"></path>
    <path d="M25.283,166.168l4.631-2.968-.534-.833L26.206,164.4l-.007-.013,2.467-3.132-.673-1.051-4.63,2.968L23.9,164l3.244-2.078.008.014-2.531,3.191.665,1.037Z" transform="translate(-9.321 -63.92)" fill="#fff"></path>
    <path d="M36.563,177.743a1.159,1.159,0,0,0,.3-1.579l.01-.01a1.148,1.148,0,0,0,1.438-.195,1.292,1.292,0,0,0,.022-2.068l-1.206-1.348-4.1,3.666,1.216,1.36a1.475,1.475,0,0,0,2.316.176Zm.679-3.851.261.291c.355.4.376.711-.014,1.061s-.722.28-1.117-.162l-.2-.23,1.073-.96Zm-2.6,2.892-.279-.314,1.234-1.1.311.346a.723.723,0,0,1-.063,1.165.743.743,0,0,1-1.2-.094Z" transform="translate(-13.179 -68.843)" fill="#fff"></path>
    <path d="M42.677,186.488l2.667-5.017-.987-.9-4.759,3.1.831.758.966-.691,1.053.963-.6,1.025.831.758Zm-.529-3.292,2.052-1.476.011.01L42.926,183.9l-.777-.711Z" transform="translate(-15.799 -72.045)" fill="#fff"></path>
    <path d="M52.577,186.692l-1.423-1.056-3.282,4.414,1.366,1.017c1.152.855,2,.394,3.163-1.172.965-1.3,1.379-2.306.173-3.2h0Zm-1.058,2.583c-.89,1.2-1.3,1.5-1.9,1.052l-.387-.287,2.308-3.1.368.274c.665.492.361,1.066-.385,2.067Z" transform="translate(-19.1 -74.067)" fill="#fff"></path>
    <path d="M59.216,191.183l-2.762,4.755.858.5,2.2-3.8.014.007-1.38,4.279.729.423,3.03-3.318.014.007-2.208,3.8.858.5,2.765-4.755-1.385-.805-2.619,2.968-.01-.007,1.289-3.743-1.392-.808Z" transform="translate(-22.525 -76.279)" fill="#fff"></path>
    <path d="M70.8,197.261l-.981-.453L67.5,201.8l.981.458,2.314-4.993Z" transform="translate(-26.934 -78.524)" fill="#fff"></path>
    <path d="M75.228,199.107l-1.9,5.162.929.343L75.589,201H75.6l-.09,4.074,1.155.426,1.9-5.162-.929-.343-1.3,3.538-.015-.007.076-3.986Z" transform="translate(-29.257 -79.442)" fill="#fff"></path>
    <path d="M85.718,208.007l1.17-4.437,1.132.3.229-.88-3.312-.873-.232.879,1.132.3-1.17,4.437,1.048.276Z" transform="translate(-33.782 -80.641)" fill="#fff"></path>
    <path d="M96.363,207.623c.271-1.649.264-2.853-1.336-3.116s-2,.873-2.267,2.524-.266,2.854,1.336,3.116,1.994-.873,2.265-2.524Zm-2.535-.421c.241-1.451.436-2,1.065-1.892s.641.685.4,2.135-.436,2-1.064,1.892-.641-.674-.4-2.135Z" transform="translate(-36.957 -81.581)" fill="#fff"></path>
    <path d="M105.156,209.514h-.015l-1.066-3.845-1.245-.076-.346,5.49.989.061.241-3.845h.017l1.076,3.931,1.23.076.346-5.49-.989-.064-.236,3.762Z" transform="translate(-40.89 -82.03)" fill="#fff"></path>
    <path d="M120.514,211.021c1.412-.135,1.6-1.185,1.485-2.365l-1.076.1c.114,1.181-.149,1.416-.538,1.454-.463.044-.715-.231-.876-1.89-.149-1.551-.075-2.122.469-2.174.485-.046.677.282.753,1.081l1.076-.1c-.076-.8-.3-1.944-1.841-1.8-1.614.155-1.7,1.356-1.542,3.018s.477,2.828,2.091,2.671Z" transform="translate(-47.228 -81.92)" fill="#fff"></path>
    <path d="M131.154,209.132l1.061-.219-1.1-5.39-1.061.215.422,2.061-1.238.252-.417-2.061-1.061.215,1.1,5.392,1.061-.215-.488-2.393,1.236-.254.485,2.4Z" transform="translate(-50.977 -81.203)" fill="#fff"></path>
    <path d="M142.243,206.444l1.073-.34-3.011-4.819-1.275.4.3,5.674,1.073-.341-.114-1.184,1.36-.431.588,1.037Zm-2.043-1.529-.251-2.513.015-.005,1.239,2.2-1,.318h0Z" transform="translate(-55.472 -80.311)" fill="#fff"></path>
    <path d="M152.418,201.51l.9-.409-2.257-5.014-1.458.654.888,3.858-.014.007-2.294-3.227-1.465.66,2.257,5.015.905-.407-1.8-4.005.014-.007,2.672,3.613.768-.346-.931-4.393.012-.008,1.8,4.006Z" transform="translate(-58.541 -78.237)" fill="#fff"></path>
    <path d="M161.37,192.982a1.446,1.446,0,0,0-2.108-.667l-1.628.964,2.808,4.732.929-.551-1.119-1.888.5-.3a1.516,1.516,0,0,0,.621-2.293m-1.123,1.642-.414.245-.853-1.438.386-.23c.466-.275.8-.118,1.078.346a.7.7,0,0,1-.2,1.078h0Z" transform="translate(-62.895 -76.637)" fill="#fff"></path>
    <path d="M166.6,187.966l-.882.627,3.188,4.483.883-.627-3.187-4.483Z" transform="translate(-66.119 -74.997)" fill="#fff"></path>
    <path d="M175.936,187.43c1.236-1.051.624-2.086-.457-3.361s-2.006-2.047-3.242-1-.626,2.084.457,3.36,2,2.047,3.242,1Zm-3.172-3.738c.488-.413.936-.045,1.887,1.076s1.241,1.625.754,2.035-.932.053-1.887-1.076-1.239-1.623-.754-2.036" transform="translate(-68.447 -72.848)" fill="#fff"></path>
    <path d="M183.589,179.238l.851-.892-3.988-3.792-.683.718,2.73,2.6-.012.012-3.629-1.652-.859.9,3.985,3.792.683-.718-2.791-2.655.012-.014Z" transform="translate(-71.019 -69.645)" fill="#fff"></path>
    <path d="M190.407,172.266a1.586,1.586,0,0,0-.2-2.505,1.405,1.405,0,0,0-1.777-.079l-.8.436a.717.717,0,0,1-.933-.015.564.564,0,0,1-.13-.88c.251-.328.6-.282,1,.036l.633-.823-.123-.091a1.422,1.422,0,0,0-2.185.411,1.487,1.487,0,0,0,.271,2.3c.726.561,1.321.459,2.177-.1.636-.409.934-.492,1.329-.187a.624.624,0,0,1,.144.926c-.347.453-.7.363-1.107.05l-.127-.1-.661.858.177.135a1.448,1.448,0,0,0,2.309-.373h0Z" transform="translate(-74.001 -67.026)" fill="#fff"></path>
    <path d="M196.256,162.777l.568-.919-4.681-2.891-.568.921,1.789,1.1-.663,1.074-1.789-1.1-.568.919,4.681,2.888.566-.919-2.075-1.284.663-1.074,2.079,1.284Z" transform="translate(-75.945 -63.426)" fill="#fff"></path>
    <rect width="1.083" height="5.501" transform="matrix(0.451, -0.893, 0.893, 0.451, 117.418, 93.259)" fill="#fff"></rect>
    <path d="M203.533,148.952l-2.036-.824.217-.535a1.518,1.518,0,0,0-.9-2.2,1.447,1.447,0,0,0-2.08.746l-.71,1.755,5.1,2.064.407-1h0Zm-2.611-1.578-.18.446-1.551-.628.168-.418c.2-.5.566-.579,1.067-.378.52.209.655.579.492.978h0Z" transform="translate(-79.01 -57.941)" fill="#fff"></path>
    <path d="M205.691,138.824l-.156-.044-.3,1.039.214.061c.978.282,1.673-.02,2.009-1.2.324-1.127.011-1.934-1.108-2.255a1.4,1.4,0,0,0-1.682.578l-.587.7c-.319.383-.548.421-.873.328a.563.563,0,0,1-.444-.77c.114-.4.451-.481.948-.336l.287-1-.15-.043c-1.016-.29-1.614.262-1.88,1.188a1.491,1.491,0,0,0,1.1,2.044c.882.253,1.4-.059,1.989-.89.443-.615.687-.8,1.17-.662a.627.627,0,0,1,.475.807c-.158.549-.517.6-1.012.453h0Z" transform="translate(-80.546 -54.187)" fill="#fff"></path>
  </g>
</svg>
