<?xml version="1.0" encoding="UTF-8"?>
<svg xmlns="http://www.w3.org/2000/svg" width="79.847" height="65.016" viewBox="0 0 79.847 65.016">
  <g transform="translate(0.5 0.5)">
    <path d="M78.833,63.823h0c-1.11-.3-2.239-.631-3.331-.951l-.083-.024c-.546-.161-1.165-.343-1.769-.516l-.473-.137-.488-.141-.073-.021c-1.013-.292-2.061-.594-3.089-.9-1.782-.509-3.5-1.011-4.8-1.391-.9-.251-1.852-.53-2.615-.755l-.031-.009c-.846-.248-1.721-.5-2.584-.746-.624-.181-1.271-.37-1.827-.534-.976-.287-2.081-.612-3.172-.916-1.332-.4-2.688-.788-3.886-1.134l-.11-.032c-1.134-.328-2.306-.667-3.457-1.008-1.058-.29-2.146-.611-3.105-.9s-2.039-.6-3.105-.9c-.458-.133-.937-.275-1.359-.4l-.011,0c-.888-.263-1.806-.535-2.713-.782-.459-.132-.924-.27-1.375-.4l-.054-.016-.01,0c-.85-.252-1.729-.512-2.6-.749-1.373-.4-2.775-.811-4.013-1.169l-.029-.008c-1.417-.411-2.881-.834-4.319-1.26l-.247-.071-.028-.008c-1.179-.337-2.4-.686-3.594-1.043-.99-.269-1.991-.564-2.959-.851l-.028-.008c-.912-.27-1.854-.548-2.787-.8-.527-.152-1.077-.314-1.562-.458h0c-.916-.27-1.863-.549-2.8-.808A18.606,18.606,0,0,1,7.29,42.894,13.611,13.611,0,0,1,4.1,40.864l-.082-.073a10.079,10.079,0,0,1-1.179-1.167A11.329,11.329,0,0,1,0,32.709V31.6a12.258,12.258,0,0,1,.384-2.412A10.669,10.669,0,0,1,1.721,26.2a12.172,12.172,0,0,1,2.148-2.421,15.73,15.73,0,0,1,2.944-1.972,21.071,21.071,0,0,1,2.9-1.2c.528-.171,1.06-.329,1.651-.5.528-.155,1-.295,1.473-.444.942-.266,1.9-.557,2.739-.813l.318-.1c1.059-.3,2.132-.627,3.169-.941l.045-.013.131-.04c.67-.2,1.364-.412,2.045-.612s1.379-.4,1.946-.576l.07-.021c.682-.207,1.387-.42,2.086-.613.735-.226,1.507-.456,2.126-.641.553-.165,1.18-.352,1.8-.54.8-.225,1.632-.477,2.364-.7.462-.141.954-.29,1.437-.433.908-.258,1.847-.542,2.674-.792.872-.264,1.859-.562,2.81-.831.474-.146.958-.291,1.427-.431l.061-.018c.444-.132.915-.273,1.369-.413,1.608-.473,3.241-.961,4.82-1.432s2.909-.868,4.237-1.26c.382-.127.778-.24,1.127-.34l.038-.011c.245-.07.5-.142.745-.218,1.013-.314,2.048-.619,3.049-.914l.026-.008c.913-.269,1.948-.574,2.961-.887,1.471-.429,2.978-.878,4.477-1.334.892-.258,1.8-.529,2.671-.791l.047-.014c.979-.294,1.862-.558,2.751-.815.515-.151,1.037-.311,1.542-.464l.063-.02c.781-.237,1.667-.506,2.519-.745l1.492-.448.371-.112L75.819.9c.312-.1.643-.193.935-.274s.6-.167.905-.264c.1-.033.206-.063.306-.093l.013,0A4.941,4.941,0,0,0,78.72,0h.11c.007,7.427.008,14.981.008,22.287v.224q0,6.612,0,13.223,0,6.939,0,13.878,0,6.976,0,13.947l0,.089v.036c0,.046,0,.092-.008.137ZM43.94,34.853h0c-.006.371.025.745.054,1.107v.01c.014.163.029.348.04.528.041.436.076.881.11,1.311l0,.061,0,.054c.029.361.059.736.091,1.1a3.913,3.913,0,0,0,.462.022h.251c.609,0,1.22,0,1.829,0h1.125l1.489,0a4.938,4.938,0,0,0,2.654-.792,5.412,5.412,0,0,0,2.02-2.425c.729-1.6,1.466-3.243,2.179-4.829l.1-.232.048-.107c.632-1.406,1.285-2.859,1.93-4.283a6.227,6.227,0,0,1-.113.656c-.165.7-.313,1.417-.458,2.11v.008l-.075.361c-.339,1.635-.7,3.3-.979,4.563-.288,1.419-.6,2.9-.989,4.653a.92.92,0,0,0-.025.316c.477,0,.974,0,1.478,0,.59,0,1.17,0,1.724-.005a4.469,4.469,0,0,0,2.781-.951,3.766,3.766,0,0,0,1.241-1.964c.066-.276.125-.56.182-.834l.006-.03c.053-.251.106-.511.166-.767.037-.153.068-.311.1-.463v-.006a7.108,7.108,0,0,1,.187-.778,4.716,4.716,0,0,1,.531-.025H64.3c.1,0,.195,0,.293,0H65.93q1,0,2,0a4.449,4.449,0,0,0,2.02-.468,3.292,3.292,0,0,0,1.517-1.736,3.94,3.94,0,0,0,.207-1.069c-.14-.013-.292-.02-.49-.02l-.247,0h-.3q-1.192,0-2.387,0-1.988,0-3.974,0a4.723,4.723,0,0,1,.148-.847v0l0-.013c.029-.122.059-.247.083-.37.058-.251.11-.507.164-.769v-.008c.084-.414.171-.842.288-1.255.688-.006,1.4-.006,2.007-.006h.67q.8,0,1.607,0h.187a5.237,5.237,0,0,0,2.1-.355,3.113,3.113,0,0,0,1.7-1.76,4.774,4.774,0,0,0,.236-1.176c-.176-.015-.344-.017-.486-.017H62.514c-2.1,0-4.025,0-5.9,0a4.618,4.618,0,0,0-2.452.626,3.282,3.282,0,0,0-1.311,1.477c-.587,1.361-1.172,2.748-1.738,4.088-.376.891-.8,1.9-1.217,2.873-.025.059-.048.117-.071.175a3.246,3.246,0,0,1-.287.593,6.12,6.12,0,0,1-.1-.831v-.005l0-.066c-.025-.378-.061-.764-.093-1.1-.062-.65-.125-1.323-.125-1.99-.007.042-.015.083-.021.125l0,.024c-.008.05-.017.1-.025.149,0-.533-.048-1.075-.1-1.6-.033-.345-.062-.655-.079-.966s-.049-.6-.078-.913V26c-.052-.56-.1-1.138-.109-1.708l-.012.079c-.012.069-.025.143-.04.223a6.645,6.645,0,0,0-.067-1.207,2.792,2.792,0,0,0-.321-.031c-.764,0-1.61,0-2.514,0H43.5a3.635,3.635,0,0,0-2.543,1.095,4.223,4.223,0,0,0-.841,1.166c-.369.732-.757,1.485-1.1,2.15-.37.718-.732,1.421-1.087,2.125-.1.217-.218.432-.329.64l-.016.029,0,.009c-.112.208-.228.424-.332.643-.116.238-.24.478-.36.708l0,.006h0c-.129.25-.263.507-.387.766l-.022.046-.011.023a1.2,1.2,0,0,1-.273.412c-.011-.2-.01-.4-.009-.623,0-.1,0-.191,0-.287q0-1.975-.005-3.949v-.974l0-2.986c0-.07,0-.139,0-.208v-.069c0-.231,0-.47-.015-.708-.342-.012-.711-.018-1.194-.018l-.638,0H34.3c-.24,0-.48,0-.719,0l-.417,0-.276,0a4.7,4.7,0,0,0-1.764.275,2.121,2.121,0,0,0-1.032.851,2.187,2.187,0,0,0-.245.64c-.012.044-.023.085-.034.126-.054-.065-.105-.131-.155-.2a3.4,3.4,0,0,0-.336-.392,3.727,3.727,0,0,0-1.362-.793A9.247,9.247,0,0,0,25.29,23.4a10.071,10.071,0,0,0-1.083-.045H15.788a4.2,4.2,0,0,0-1.265.2,2.357,2.357,0,0,0-1.574,1.735q-.326,1.495-.652,2.993c-.538,2.467-1.063,4.877-1.584,7.247-.11.561-.243,1.148-.351,1.619-.139.615-.282,1.247-.4,1.873a4.613,4.613,0,0,0,.51.022h.349q2.492,0,4.983,0,2.989,0,5.98,0h.057a15.35,15.35,0,0,0,3.422-.259,5.745,5.745,0,0,0,2.272-1.117,4.824,4.824,0,0,0,1.194-1.634,4.352,4.352,0,0,0,.315-2.767,2.613,2.613,0,0,0-1.332-1.584,5.783,5.783,0,0,0-2.077-.556l-.11-.016c.2-.078.412-.137.615-.193.186-.052.413-.115.621-.195a5.381,5.381,0,0,0,2.493-1.67,3.852,3.852,0,0,0,.425-.689l.01-.019c.053-.1.107-.2.166-.307.007.227.008.457.008.674a12.4,12.4,0,0,0,.047,1.271c.015.525.018,1.06.02,1.578v.018c0,.818.008,1.664.06,2.494l.007.7.008.688q.01.939.02,1.879a9.361,9.361,0,0,0,.025-1c0-.247-.006-.526.009-.8.007.458.007.922.006,1.371v.031c0,.687,0,1.4.026,2.093a4.336,4.336,0,0,0,.5.023H35.8a4.383,4.383,0,0,0,1.793-.4,5.051,5.051,0,0,0,1.83-1.507,6.263,6.263,0,0,0,.661-1.124L40.094,36c.067-.134.137-.273.209-.41q.576-1.121,1.174-2.3c.468-.923,1.052-2.072,1.614-3.158l.03-.061,0-.007a4.52,4.52,0,0,1,.313-.572,5.034,5.034,0,0,1,.107.908c.011.18.021.366.044.556.016.208.035.419.054.623l0,.045v.006c.058.642.117,1.306.112,1.958.007-.071.014-.143.021-.213s.013-.134.02-.2c0,.311.028.632.05.915v.008a10.555,10.555,0,0,1,.046,1.157c.007-.061.013-.123.02-.185S43.933,34.923,43.94,34.853Z" transform="translate(0)" fill="#fff"></path>
    <path d="M79.333,64.515l-.646-.214c-1.116-.3-2.24-.632-3.327-.95l-.081-.024c-.516-.152-1.156-.34-1.767-.515l-1.23-.355c-.95-.274-1.933-.558-2.9-.845-1.767-.5-3.491-1.008-4.8-1.39-.885-.247-1.815-.519-2.618-.756l-.071-.021c-.831-.244-1.691-.5-2.537-.732-.7-.2-1.381-.4-1.834-.536-.969-.285-2.068-.609-3.164-.913l-.008,0c-1.334-.4-2.688-.788-3.882-1.133l-.11-.032c-1.115-.322-2.3-.666-3.455-1.007-1.07-.294-2.154-.614-3.11-.9s-2.032-.6-3.1-.892l-.007,0c-.437-.127-.892-.262-1.3-.382l-.077-.023c-.88-.261-1.789-.53-2.7-.778l-.007,0c-.471-.136-.953-.278-1.378-.4l-.065-.019c-.922-.273-1.753-.518-2.586-.745l-.01,0c-1.395-.411-2.81-.821-4.01-1.168l-.365-.106c-1.308-.379-2.66-.771-3.986-1.164l-.29-.083c-1.172-.335-2.384-.682-3.574-1.038-1.01-.275-2.048-.581-2.964-.852l-.027-.008c-.812-.24-1.82-.539-2.779-.8l-.006,0q-.761-.22-1.564-.458l-.092-.027c-.886-.261-1.8-.53-2.7-.78a19.062,19.062,0,0,1-3.13-1.106,14.114,14.114,0,0,1-3.307-2.1l-.01-.009-.082-.073a10.492,10.492,0,0,1-1.229-1.218A11.827,11.827,0,0,1-.5,32.745V31.562a12.746,12.746,0,0,1,.4-2.505,11.168,11.168,0,0,1,1.4-3.12l.008-.012A12.674,12.674,0,0,1,3.542,23.4a16.182,16.182,0,0,1,3.033-2.033l.01-.005a21.569,21.569,0,0,1,2.969-1.231l.005,0c.541-.176,1.1-.339,1.665-.506.524-.154,1-.293,1.462-.441l.016,0c.916-.258,1.848-.542,2.672-.793l.383-.116c1.079-.309,2.186-.644,3.163-.939l.321-.1c.624-.188,1.269-.383,1.9-.57l.006,0c.652-.184,1.34-.392,1.892-.56l.113-.035c.644-.2,1.372-.416,2.092-.615.7-.214,1.432-.434,2.123-.64.487-.145,1.154-.344,1.794-.539l.01,0c.777-.218,1.589-.464,2.354-.7.42-.128.943-.287,1.441-.434l.005,0c.905-.257,1.84-.54,2.665-.79.873-.264,1.86-.563,2.813-.832.428-.132.865-.263,1.288-.389l.2-.06c.4-.118.893-.266,1.362-.41l.006,0c1.49-.438,3.005-.89,4.471-1.328l.348-.1c1.733-.518,3-.895,4.231-1.258.386-.128.781-.241,1.13-.341l.05-.014c.228-.065.488-.139.733-.215,1.006-.312,2.032-.614,3.024-.906l.09-.027c.9-.266,1.924-.567,2.922-.875l.008,0c1.457-.424,2.961-.873,4.471-1.333l.007,0c.853-.247,1.72-.506,2.558-.757l.156-.047c1.072-.322,1.907-.571,2.756-.816.454-.133.919-.275,1.369-.411l.247-.075c.777-.236,1.658-.5,2.509-.742L73.874.959l.371-.112L75.67.418c.315-.1.644-.193.934-.274l.016,0c.246-.068.583-.161.886-.259.1-.033.206-.064.305-.093l.027-.008a4.554,4.554,0,0,0,.668-.232l.1-.048h.721V0c.007,7.371.008,14.748.008,22.288v.224q0,6.611,0,13.222,0,6.939,0,13.878,0,6.976,0,13.947v.025l-.009.182c0,.025,0,.049,0,.073ZM54.636,56.3c1.1.306,2.2.63,3.175.916.452.133,1.135.334,1.825.534.848.236,1.711.489,2.545.734l.075.022c.8.235,1.726.507,2.605.752l.006,0c1.305.382,3.03.886,4.8,1.39l.006,0c.96.286,1.941.57,2.89.843l1.229.355c.614.176,1.256.365,1.771.516l.081.023c.887.26,1.8.527,2.707.78q0-6.779,0-13.559,0-6.94,0-13.879,0-6.611,0-13.223v-.224c0-7.308,0-14.465-.008-21.61l-.209.062-.029.009C78,.775,77.9.8,77.814.832c-.325.1-.673.2-.927.271l-.015,0c-.282.079-.6.167-.9.264l-.01,0-1.43.431-.371.112-1.493.449-.009,0c-.841.236-1.718.5-2.492.737l-.247.075c-.452.137-.919.279-1.379.414-.847.245-1.679.493-2.749.814l-.157.047c-.84.251-1.708.511-2.563.759-1.511.46-3.017.909-4.475,1.334-1,.31-2.027.611-2.93.878l-.09.027c-.989.291-2.012.593-3.012.9-.256.079-.521.155-.755.221l-.048.014c-.341.1-.728.208-1.1.33l-.017.005c-1.233.364-2.5.741-4.236,1.26l-.348.1c-1.466.437-2.981.89-4.472,1.328-.471.145-.969.293-1.37.413l-.2.059c-.423.126-.86.257-1.285.389l-.012,0c-.945.267-1.93.565-2.8.828-.83.251-1.768.536-2.681.795-.493.146-1.012.3-1.43.431-.768.234-1.584.481-2.369.7-.641.195-1.307.394-1.794.539-.691.206-1.427.426-2.122.639l-.014,0c-.71.2-1.435.416-2.074.61l-.114.035c-.556.169-1.248.379-1.908.565-.63.186-1.273.379-1.895.567l-.324.1c-.975.295-2.084.63-3.169.941l-.371.113c-.825.251-1.761.536-2.684.8-.473.15-.948.29-1.475.445-.561.164-1.108.325-1.635.5a20.594,20.594,0,0,0-2.824,1.169,15.252,15.252,0,0,0-2.848,1.9,11.683,11.683,0,0,0-2.06,2.319A10.166,10.166,0,0,0,.868,29.312l0,.007a11.74,11.74,0,0,0-.366,2.3v1.076A10.828,10.828,0,0,0,3.213,39.3l.011.013a9.686,9.686,0,0,0,1.12,1.106l.08.072A13.109,13.109,0,0,0,7.5,42.438l.009,0a18.15,18.15,0,0,0,2.974,1.048c.909.251,1.829.522,2.719.784l.095.028c.53.156,1.049.309,1.553.455.967.266,1.98.566,2.794.807l.027.008c.914.27,1.949.576,2.95.848l.012,0c1.186.355,2.4.7,3.569,1.036l.295.085c1.327.393,2.678.785,3.985,1.163l.364.105c1.2.347,2.616.758,4.011,1.168.841.229,1.677.475,2.6.75l.064.019c.422.125.9.267,1.367.4.92.25,1.835.522,2.72.784l.072.022c.405.12.857.254,1.291.38,1.072.295,2.155.614,3.111.9s2.034.6,3.1.892l.01,0c1.153.341,2.338.685,3.453,1.007l.11.032C51.945,55.513,53.3,55.9,54.636,56.3ZM44.709,39.548a4.387,4.387,0,0,1-.522-.026l-.4-.048-.035-.4c-.032-.36-.061-.725-.089-1.078l-.012-.144c-.031-.4-.068-.857-.109-1.3v-.016c-.01-.169-.025-.346-.038-.5l0-.039c-.02-.245-.04-.5-.05-.752l-.049,0a10.119,10.119,0,0,0-.045-1.1v-.013c-.013-.169-.027-.35-.037-.536l-.055,0c0-.628-.054-1.279-.11-1.91l0-.054q-.02-.216-.038-.428c-.433.843-.854,1.673-1.183,2.322-.375.741-.777,1.533-1.175,2.307l0,.006c-.068.128-.134.26-.2.394l-.01.021a6.74,6.74,0,0,1-.715,1.209l0,.006A5.528,5.528,0,0,1,37.8,39.1a4.852,4.852,0,0,1-2.075.443H30.6a4.8,4.8,0,0,1-.559-.026l-.425-.05-.017-.428c-.022-.568-.026-1.141-.026-1.7l-.041,0q-.01-.939-.02-1.879l0-.173a6.624,6.624,0,0,1-.313.937l-.005.013a5.33,5.33,0,0,1-1.32,1.8l-.02.016a6.25,6.25,0,0,1-2.472,1.213,15.717,15.717,0,0,1-3.533.272h-.057q-5.483.005-10.963,0h-.35a5.1,5.1,0,0,1-.565-.026l-.534-.06.1-.529c.117-.631.261-1.266.4-1.88l0-.011c.112-.492.241-1.062.348-1.605l0-.011c.537-2.441,1.093-4.994,1.584-7.246q.25-1.15.5-2.3l.151-.693a2.859,2.859,0,0,1,1.9-2.1l.006,0a4.709,4.709,0,0,1,1.417-.225h8.169a12.211,12.211,0,0,1,1.37.046,9.706,9.706,0,0,1,2.8.49l0,0a4.259,4.259,0,0,1,1.506.872l.03-.05a2.617,2.617,0,0,1,1.268-1.05,5.164,5.164,0,0,1,1.952-.312l.284,0c.32,0,.651,0,.979,0h.179l.638,0c.482,0,.856.006,1.212.018l.444.016.036.443c.022.265.019.534.017.751v.067c0,.07,0,.137,0,.2l.005,3.963q0,1.457,0,2.914c.04-.078.079-.157.116-.234.108-.227.227-.447.341-.66l.02-.038c.1-.192.219-.409.319-.619l.005-.01c.359-.713.72-1.414,1.089-2.129l.1-.2c.31-.6.661-1.286.991-1.942a4.714,4.714,0,0,1,.936-1.3A4.129,4.129,0,0,1,43.5,22.856H45.85c.906,0,1.751,0,2.512,0h.011a3.124,3.124,0,0,1,.366.033l.377.051.062.362a5.872,5.872,0,0,1,.075.982l.051,0c0,.552.057,1.118.107,1.665l0,.026c.029.314.057.611.077.913v.006c.017.3.044.591.078.947.04.417.084.879.1,1.343l.055,0c0,.655.065,1.339.123,1.943v.016l.01.1c.254-.6.5-1.194.736-1.74l.068-.162c.532-1.26,1.135-2.689,1.74-4.092a3.78,3.78,0,0,1,1.5-1.7,5.112,5.112,0,0,1,2.718-.7c1.873,0,3.8,0,5.9,0q4.96,0,9.923,0h.551c.14,0,.327,0,.527.019l.489.041-.031.489a5.276,5.276,0,0,1-.26,1.3l-.005.015a3.622,3.622,0,0,1-1.973,2.048,5.712,5.712,0,0,1-2.3.4h-.3c-.5,0-.995,0-1.493,0h-.669c-.5,0-1.058,0-1.62,0-.067.279-.125.563-.182.841l0,.025c-.049.24-.1.511-.165.775-.026.128-.056.254-.085.376l-.01.043c-.017.07-.033.141-.049.211,1.927,0,3.858,0,5.782,0h.3l.251,0c.212,0,.377.007.537.022l.473.045-.02.475a4.44,4.44,0,0,1-.232,1.205l0,.013a3.79,3.79,0,0,1-1.744,2l-.016.008a4.943,4.943,0,0,1-2.244.523c-.893,0-1.789,0-2.67,0H64.6c-.1,0-.205,0-.306,0h-.34c-.031.131-.057.264-.082.387l-.01.052c-.03.147-.06.3-.1.45-.05.214-.1.44-.143.658l-.029.142c-.057.272-.115.553-.182.83A4.27,4.27,0,0,1,62,38.473a4.962,4.962,0,0,1-3.092,1.068H58.9c-1.094.007-2.194.006-3.207,0l-.442,0L55.2,39.1a1.4,1.4,0,0,1,.034-.484c.388-1.761.7-3.237.987-4.644l0-.008c.186-.849.44-2.011.7-3.238l-.318.707c-.678,1.508-1.379,3.067-2.072,4.591a5.917,5.917,0,0,1-2.2,2.644,5.444,5.444,0,0,1-2.925.873q-1.31,0-2.618,0c-.607,0-1.218,0-1.826,0Zm0-1h.246c.993,0,1.979,0,2.961,0l1.487,0a4.432,4.432,0,0,0,2.382-.71,4.907,4.907,0,0,0,1.832-2.2l.007-.015c.693-1.524,1.395-3.085,2.073-4.595l.4-.9c.584-1.3,1.188-2.643,1.784-3.958l1.05-2.316-2.316,0a4.123,4.123,0,0,0-2.177.544l-.011.007a2.786,2.786,0,0,0-1.115,1.251c-.6,1.4-1.2,2.825-1.736,4.084l-.068.162c-.356.842-.759,1.8-1.149,2.713-.023.055-.045.11-.067.164l0,.005a3.678,3.678,0,0,1-.332.678l-.655.995-.251-1.165a6.473,6.473,0,0,1-.11-.895l-.006-.075c-.024-.37-.06-.747-.091-1.079v-.015c-.051-.536-.108-1.134-.123-1.737l-.055-.005c0-.515-.049-1.064-.1-1.549-.035-.366-.063-.67-.08-.982-.02-.289-.047-.579-.075-.885l0-.032c-.044-.471-.088-.955-.1-1.444l-.058-.005c0-.266,0-.5-.014-.733-.729,0-1.531,0-2.388,0H43.509a3.137,3.137,0,0,0-2.191.945,3.739,3.739,0,0,0-.747,1.032l0,.008c-.333.661-.686,1.347-1,1.953l-.1.2c-.367.712-.726,1.409-1.082,2.116-.109.23-.231.456-.337.656l-.019.035c-.111.206-.223.416-.323.624h.007l-.185.358c-.064.125-.128.248-.19.368l-.014.026c-.124.239-.252.487-.369.731l-.035.073a1.651,1.651,0,0,1-.392.568l-.772.679L35.7,33.2c-.012-.221-.011-.441-.01-.654,0-.095,0-.188,0-.281v-.09q0-1.931-.005-3.862l-.005-3.96c0-.069,0-.141,0-.212v-.071c0-.069,0-.141,0-.215-.213,0-.445-.006-.711-.006l-.634,0H34.16c-.334,0-.667,0-1,0l-.271,0a4.247,4.247,0,0,0-1.575.238,1.626,1.626,0,0,0-.793.647l0,.007a1.765,1.765,0,0,0-.184.5c-.012.045-.024.088-.035.13l-.254.927-.614-.74c-.063-.076-.119-.149-.167-.211a2.97,2.97,0,0,0-.285-.334,3.247,3.247,0,0,0-1.184-.683,8.772,8.772,0,0,0-2.529-.435l-.03,0a9.639,9.639,0,0,0-1.03-.042H15.788a3.7,3.7,0,0,0-1.109.176,1.855,1.855,0,0,0-1.24,1.361V25.4l-.151.695q-.25,1.148-.5,2.3c-.491,2.252-1.047,4.8-1.583,7.243-.109.555-.239,1.131-.353,1.628l0,.01c-.095.418-.191.846-.28,1.273h.255q5.481-.006,10.963,0h.057a14.956,14.956,0,0,0,3.313-.247,5.24,5.24,0,0,0,2.06-1.012,4.325,4.325,0,0,0,1.057-1.45,3.864,3.864,0,0,0,.294-2.431A2.122,2.122,0,0,0,27.48,32.12a5.327,5.327,0,0,0-1.909-.5l-2.013-.286,1.791-.691c.228-.088.458-.152.66-.209l.008,0c.18-.05.385-.107.568-.178l.006,0a4.9,4.9,0,0,0,2.27-1.507l.009-.011a3.421,3.421,0,0,0,.368-.6l.011-.021c.049-.093.11-.209.175-.323l.88-1.533.053,1.767c.007.23.008.466.009.688a11.964,11.964,0,0,0,.045,1.22l0,.038c.015.528.018,1.063.02,1.58v.06c0,.8.009,1.629.058,2.433v.026l.015,1.383v.071h.054c.007.463.007.929.006,1.38v.03c0,.531,0,1.076.012,1.616H35.8a3.88,3.88,0,0,0,1.587-.354,4.571,4.571,0,0,0,1.645-1.363,5.873,5.873,0,0,0,.6-1.03l.011-.022c.071-.141.14-.279.214-.418.4-.771.8-1.561,1.171-2.3.438-.863,1.038-2.045,1.613-3.156l.031-.064a4.955,4.955,0,0,1,.348-.632l.639-.943.262,1.108a5.483,5.483,0,0,1,.12,1v.015c.01.167.02.34.041.51l0,.021c.016.2.034.406.053.616l0,.055c.046.516.094,1.046.109,1.579l.046,0c0,.294.027.605.048.88v.014c.007.1.015.2.022.3h.078l-.008.508c-.005.342.024.7.052,1.045l0,.036c.013.159.028.34.039.518.042.452.079.913.11,1.31l.012.143C44.673,38.122,44.69,38.335,44.708,38.548Zm11.569,0c.845,0,1.732,0,2.618,0a3.976,3.976,0,0,0,2.467-.834,3.261,3.261,0,0,0,1.077-1.7c.062-.26.119-.535.175-.8l.029-.143c.047-.223.1-.454.149-.684.033-.138.062-.28.09-.417l.01-.05a7.384,7.384,0,0,1,.2-.82l.1-.307.321-.036a5.188,5.188,0,0,1,.588-.029l.215,0c.1,0,.191,0,.286,0,.442,0,.889,0,1.336,0,.663,0,1.33,0,2,0a3.955,3.955,0,0,0,1.786-.41,2.791,2.791,0,0,0,1.279-1.459,3.9,3.9,0,0,0,.115-.424l-.164,0h-.02l-.291,0c-2.12-.005-4.242,0-6.362,0h-.524l.025-.523a5.147,5.147,0,0,1,.16-.933l.007-.03c.028-.117.056-.235.078-.346l0-.015c.058-.251.112-.515.159-.75l.006-.032c.085-.417.173-.849.293-1.273l.1-.361.375,0c.69-.006,1.4-.006,2.012-.006h.67q.8,0,1.607,0h.187a4.78,4.78,0,0,0,1.9-.31l.011,0a2.607,2.607,0,0,0,1.425-1.463,4.741,4.741,0,0,0,.14-.529h-.469q-4.964,0-9.923,0H59.154l-.319,2.583a6.714,6.714,0,0,1-.123.709c-.161.682-.306,1.383-.447,2.06l-.084.407c-.35,1.687-.726,3.413-.979,4.565C56.932,35.51,56.636,36.905,56.277,38.546ZM27.417,31a4.1,4.1,0,0,1,.538.244,3.151,3.151,0,0,1,1.492,1.64c-.009-.427-.011-.852-.013-1.27v-.06c0-.505,0-1.027-.019-1.537-.012-.115-.021-.231-.027-.346A5.794,5.794,0,0,1,27.417,31Z" transform="translate(0)" fill="rgba(0,0,0,0)"></path>
    <path d="M-176.081,615.958a.982.982,0,0,1,.293-.022c.738.015,1.477-.012,2.215.017a2.257,2.257,0,0,1,1.458.514,1.073,1.073,0,0,1,.195.828,1.969,1.969,0,0,1-.944,1.667,4.774,4.774,0,0,1-2.433.432c-.5-.013-1.012.028-1.513-.023.008-.094.015-.189.031-.28.2-.959.414-1.914.617-2.871a.944.944,0,0,1,.081-.262Z" transform="translate(195.418 -589.678)" fill="#fff"></path>
    <path d="M-175.8,615.436h.018c.161,0,.336,0,.551,0l.76,0c.25,0,.581,0,.914.015l.029,0a2.71,2.71,0,0,1,1.768.664l.011.012a1.481,1.481,0,0,1,.326,1.122v.059a2.455,2.455,0,0,1-1.191,2.082,5.172,5.172,0,0,1-2.691.5h-.007c-.18,0-.361,0-.543,0-.113,0-.225,0-.338,0a6.543,6.543,0,0,1-.67-.029l-.492-.05.047-.532c.007-.085.016-.18.032-.278l0-.02c.116-.558.239-1.123.358-1.67q.131-.6.26-1.2l0-.021c0-.016.007-.032.011-.048a1.083,1.083,0,0,1,.129-.352l.089-.143.158-.06a.932.932,0,0,1,.34-.055h.124Zm.569,1.005c-.178,0-.331,0-.47,0q-.117.548-.237,1.095c-.1.448-.2.908-.294,1.365.117,0,.241,0,.362,0,.193,0,.386-.005.579,0h.2a4.054,4.054,0,0,0,1.964-.363l.008,0a1.463,1.463,0,0,0,.693-1.247v-.049c.006-.267,0-.354-.062-.424a1.857,1.857,0,0,0-1.128-.357c-.311-.012-.622-.013-.86-.013Z" transform="translate(195.418 -589.678)" fill="rgba(0,0,0,0)"></path>
    <path d="M-196.682,705.864c.59-.024,1.184,0,1.775-.009a6.4,6.4,0,0,1,1.9.168,1.531,1.531,0,0,1,.906.613,1.448,1.448,0,0,1,.129.962,2.158,2.158,0,0,1-.749,1.383,3.623,3.623,0,0,1-1.925.622c-.755.037-1.513.011-2.269.022a2.131,2.131,0,0,1-.59-.04c.223-.98.429-1.965.642-2.948a5.947,5.947,0,0,1,.186-.773Z" transform="translate(214.682 -673.356)" fill="#fff"></path>
    <path d="M-196.037,705.353l.423,0c.233,0,.467,0,.7,0h.294a5.76,5.76,0,0,1,1.757.189l.008,0a2.005,2.005,0,0,1,1.181.832,1.916,1.916,0,0,1,.2,1.281l0,.021a2.648,2.648,0,0,1-.936,1.693,4.1,4.1,0,0,1-2.186.725h-.021c-.384.019-.761.022-1.079.022l-.748,0c-.177,0-.323,0-.459,0h-.041l-.2,0a1.765,1.765,0,0,1-.5-.06l-.455-.13.1-.461c.165-.724.323-1.465.477-2.181q.082-.381.164-.762l0-.01c.017-.073.032-.15.048-.231a3.562,3.562,0,0,1,.158-.606l.118-.306.328-.013C-196.508,705.356-196.3,705.353-196.037,705.353Zm.838,1-.423,0-.415,0-.263,0c-.009.042-.017.085-.026.128-.017.086-.034.175-.055.265q-.082.378-.163.756c-.114.532-.231,1.077-.351,1.621.132,0,.273,0,.441,0l.748,0c.3,0,.66,0,1.019-.02a3.187,3.187,0,0,0,1.653-.517,1.648,1.648,0,0,0,.563-1.063.962.962,0,0,0-.063-.63l0,0a1.046,1.046,0,0,0-.626-.389,4.858,4.858,0,0,0-1.46-.144h-.285Z" transform="translate(214.682 -673.356)" fill="rgba(0,0,0,0)"></path>
  </g>
</svg>
