<svg xmlns="http://www.w3.org/2000/svg" fill="none" viewBox="0 0 351 196" height="196" width="351">
<path fill="black" d="M345.914 37.2226C344.189 40.5837 341.125 42.8373 337.044 43.2449C331.03 43.8449 327.426 39.6761 328.851 32.3385C330.106 25.3239 330.699 25.0624 340.177 24.1164C344.251 23.7087 344.543 14.2252 341.794 14.4944L336.497 15.0251C334.564 15.2174 334.695 13.456 335.896 10.0487C338.414 3.31874 336.774 0.296005 333.009 0.672885C330.46 0.926702 328.312 2.06503 326.456 8.21049C325.393 12.0177 322.537 16.4172 316.631 17.0018C314.29 17.2325 315.168 25.0624 321.081 24.4779C320.567 26.507 320.069 28.4526 319.591 30.3182L319.582 30.3534L319.579 30.3652L319.574 30.3814L319.574 30.3822C318.705 33.7744 317.903 36.9014 317.201 39.7838C317.124 39.8838 317.047 39.9838 316.985 40.1068C313.096 47.5906 305.196 51.9747 298.266 52.6592C292.46 53.2361 287.486 51.8824 287.132 48.3213C287.001 46.9984 287.987 46.5907 288.741 46.9291C291.221 48.0213 294 48.0521 296.857 47.7675C306.844 46.7753 312.434 37.784 311.695 30.3541C311.025 23.6318 306.236 17.9401 296.757 18.8862C283.159 20.2399 275.151 32.1462 273.357 44.2218C273.287 44.2987 273.218 44.3756 273.164 44.4679C270.638 49.0366 267.22 54.0052 264.163 54.3052C261.822 54.536 259.804 52.89 260.69 47.3522C262.151 41.0419 263.773 36.5855 264.992 33.2366C266.233 29.8259 267.056 27.564 266.865 25.6623C266.642 23.4241 265.572 21.9858 262.923 22.2473C260.315 22.507 259.029 23.7927 257.857 24.9647C256.876 25.9454 255.975 26.8465 254.445 27.0006C253.484 27.0956 252.874 26.6412 252.098 26.0625C250.736 25.0468 248.86 23.6481 243.665 24.1625C226.132 25.9085 219.503 48.1598 221.004 63.2196C221.766 70.8572 226.941 76.3027 233.971 75.6028C239.168 75.0875 244.543 70.1265 246.591 62.835C247.307 60.7045 249.14 60.5276 249.309 62.2582C250.203 71.2187 242.849 82.1251 233.486 83.1635C226.648 83.7403 222.136 80.7945 221.12 75.7566C220.711 73.7415 213.92 78.9409 214.959 89.3243C215.937 99.1001 222.644 104.492 233.447 103.423C245.067 102.269 251.812 93.5777 256.255 72.057C257.21 73.403 258.519 74.0953 260.043 73.9414C267.066 73.2415 270.816 66.2808 274.073 57.6356C276.429 65.7885 282.566 71.6955 292.761 70.6803C301.346 69.8265 308.923 64.4118 315.237 54.8129C315.838 62.6504 319.803 67.9883 327.719 67.2037C340.831 65.8981 346.936 49.5326 349.857 41.704C350.205 40.7702 350.508 39.9578 350.773 39.3069C351.597 37.2687 347.331 34.7151 345.929 37.2149L345.914 37.2226ZM294.077 30.3541C297.234 30.0388 298.959 31.8232 299.182 34.0614C299.437 36.6072 297.404 39.9992 293.431 40.3914C290.166 40.7145 288.449 38.93 288.225 36.6918C287.948 33.946 290.104 30.7464 294.077 30.3541ZM241.217 54.5283C237.343 54.9128 235.665 52.5131 235.372 49.5596C234.926 45.0832 237.79 39.7607 242.787 39.2608C246.761 38.8685 248.639 41.1452 248.932 44.0987C249.356 48.3751 246.322 54.0206 241.224 54.5283H241.217ZM159.719 37.2378C167.466 36.4687 174.172 27.3697 173.064 16.271C172.386 9.44866 168.128 5.96445 163.439 6.43362C158.749 6.9028 155.261 11.1562 155.731 15.8325C156.201 20.5166 160.251 22.9933 163.308 22.6856C164.688 22.5482 165.359 21.9686 165.825 21.5662C166.219 21.2256 166.467 21.012 166.873 21.3012C168.544 22.5779 165.31 28.3465 156.301 27.8004C153.813 27.6389 152.397 29.9386 152.651 32.4845C152.997 35.9456 156.147 37.5839 159.712 37.2301L159.719 37.2378ZM59.7653 93.8624C66.2718 93.2164 71.1382 89.6091 77.6448 75.8876C79.7161 84.6866 85.9531 91.255 96.6561 90.1859C105.242 89.3322 112.819 83.9174 119.133 74.3185C119.733 82.1561 123.699 87.4939 131.614 86.7017C144.726 85.3961 150.832 69.0307 153.752 61.202C154.101 60.2682 154.404 59.4558 154.668 58.8049C155.492 56.7667 151.226 54.2131 149.825 56.7128C148.1 60.074 145.035 62.3276 140.954 62.7352C134.941 63.3352 131.337 59.1664 132.762 51.8288C134.017 44.8142 134.61 44.5527 144.088 43.6066C148.162 43.199 148.454 33.7155 145.705 33.9847L140.408 34.5154C138.475 34.7077 138.606 32.9463 139.807 29.539C142.325 22.809 140.685 19.7863 136.92 20.1632C134.371 20.417 132.223 21.5553 130.367 27.7008C129.304 31.508 126.448 35.9075 120.542 36.4921C118.201 36.7228 119.079 44.5527 124.992 43.9681C124.472 46.0206 123.968 47.9877 123.485 49.8729L123.485 49.875L123.484 49.8757L123.484 49.8778C122.615 53.268 121.814 56.3932 121.111 59.2741C121.034 59.3741 120.957 59.4741 120.896 59.5971C117.007 67.0809 109.107 71.465 102.177 72.1495C96.3713 72.7264 91.397 71.3727 91.0428 67.8116C90.9119 66.4886 91.8975 66.081 92.6521 66.4194C95.1315 67.5116 97.9113 67.5424 100.76 67.2578C110.747 66.2656 116.337 57.2743 115.598 49.8444C114.928 43.1221 110.139 37.4304 100.66 38.3765C87.0773 39.7302 79.077 51.6134 77.2675 63.6659L77.2345 63.7094C77.1764 63.7858 77.1191 63.8611 77.0673 63.9582C73.6022 70.4728 65.0783 73.7878 58.1483 74.48C52.1345 75.08 47.2373 73.4032 42.4941 71.3112C43.4643 68.6422 44.4114 65.7733 45.3431 62.6968L46.4673 62.5814C69.9062 60.2509 79.7084 43.9528 78.307 29.9082C77.3599 20.4401 71.0766 16.2329 61.9059 17.1481C49.4703 18.3865 43.0793 29.6082 36.6113 51.4365C33.5313 49.4829 31.3676 46.3063 30.9517 42.1299C30.3511 36.1229 33.9856 32.2695 38.8751 31.7772C39.8915 31.6772 40.4228 30.8004 40.2303 28.8699C39.7298 23.8781 34.8942 20.7631 28.1643 21.4323C17.3612 22.5091 10.9702 30.6466 12.0944 41.9453C13.1724 52.7364 21.2112 60.0586 33.3619 62.243C32.7921 63.7428 32.2223 65.2349 31.6294 66.5271C27.7947 65.2657 23.5982 64.4504 18.7087 64.935C5.75723 66.2348 0.113104 75.7337 0.960108 84.1866C1.81481 92.7395 8.12114 100.231 19.2246 99.1311C27.6792 98.2927 33.2002 92.701 37.6277 83.4175C43.2487 89.2322 50.0863 94.8239 59.7653 93.8624ZM97.9883 49.8598C101.145 49.5444 102.87 51.3288 103.093 53.567C103.347 56.1129 101.315 59.4971 97.3415 59.8971C94.0766 60.2201 92.3595 58.4357 92.1362 56.1975C91.859 53.4517 94.015 50.252 97.9883 49.8598ZM48.5309 52.4133C53.2819 37.1382 56.8239 35.446 58.7566 35.2538C61.0974 35.023 62.1985 36.7613 62.4064 38.7995C62.9223 43.9912 58.0713 52.0826 48.2306 53.5747C48.2922 53.1594 48.3615 52.844 48.5309 52.4133ZM22.7666 76.8721C20.626 77.0874 19.3709 75.8722 19.2246 74.3493C19.0783 72.8264 20.164 71.3804 22.5048 71.142C24.3374 70.9574 26.17 71.8034 27.9641 73.2725C26.3317 75.4876 24.5992 76.6952 22.7666 76.8721ZM176.552 82.1406C158.618 83.925 154.722 66.527 159.82 55.736L159.812 55.7283L160.158 55.0745C161.632 52.6041 163.077 49.8344 164.539 47.0319C169.285 37.9328 174.211 28.4883 180.91 27.8238C187.232 27.1931 190.65 30.5542 190.874 33.8231C191.078 35.3671 189.516 36.414 187.861 37.5227C186.029 38.7502 184.084 40.0535 184.298 42.1914C184.379 43.0082 185.53 44.8319 186.98 47.1311L186.98 47.1313L186.981 47.1314L186.981 47.1316L186.981 47.1318C188.972 50.2879 191.529 54.3397 192.66 57.9126C195.709 57.505 197.627 55.0514 199.359 51.798C200.753 49.1983 204.926 51.8672 204.203 53.89C204.105 54.157 204 54.45 203.886 54.7665L203.885 54.7682C201.36 61.7907 194.69 80.3376 176.552 82.1406ZM174.072 45.8832C173.225 44.6372 172.409 44.7141 171.624 46.1294C169.445 50.1443 166.703 54.6361 164.655 57.8203C164.902 60.2662 167.427 61.8583 170.792 61.5276C175.274 61.0815 177.499 57.5742 177.083 53.3978C176.844 50.9519 175.774 48.4906 174.072 45.8832ZM276.283 140.911C279.339 140.611 282.751 135.642 285.284 131.074L285.322 131.081C286.377 129.235 291.051 130.72 290.166 133.173C289.626 134.676 289.103 136.184 288.586 137.677C284.621 149.114 280.954 159.692 272.209 160.563C270.685 160.716 269.376 160.024 268.421 158.678C263.993 180.299 257.741 188.836 246.43 189.959C235.626 191.028 228.92 185.637 227.942 175.861C226.902 165.477 233.694 160.278 234.102 162.293C235.118 167.331 239.245 170.523 245.552 169.792C254.507 168.8 261.214 159.701 261.352 149.718C261.337 147.456 259.242 147.149 258.48 149.795C256.409 156.886 251.827 161.555 245.205 162.216C239.931 162.747 235.187 159.993 234.125 152.948C231.168 159.832 227.557 165 221.558 165.6C220.034 165.754 218.725 165.062 217.77 163.716C213.327 185.237 206.582 193.928 194.962 195.082C184.159 196.151 177.453 190.759 176.475 180.983C175.435 170.6 182.227 165.4 182.635 167.416C183.651 172.453 188.163 175.399 195.001 174.822C204.364 173.784 211.718 162.878 210.825 153.917C210.655 152.187 208.823 152.363 208.106 154.494C206.058 161.793 200.684 166.746 195.486 167.262C188.949 167.916 184.021 163.247 182.75 156.448C179.408 163.362 174.442 170.277 166.634 171.054C160.212 171.692 157.486 167.031 156.917 161.332C156.468 156.868 157.477 152.569 158.332 148.928C158.959 146.257 159.503 143.94 159.327 142.172C159.096 139.834 157.44 138.765 155.099 138.996C149.186 139.588 144.935 148.541 145.836 157.601L146.291 162.185C146.806 167.377 146.036 173.107 139.006 173.807C134.217 174.284 131.252 171.392 130.829 167.116C130.744 166.246 130.683 165.293 130.652 164.262C127.649 170.323 123.676 175.33 117.608 175.938C110.57 176.638 106.982 170.515 107.359 161.947L106.951 161.985C103.694 170.638 98.2424 177.861 91.0043 178.584C84.6364 179.214 80.5862 174.23 79.2695 166.393C75.6196 173.476 70.0602 180.668 61.5517 181.514C50.1402 182.645 46.9216 171.046 50.2095 157.555C51.1108 153.682 52.2373 149.285 53.5063 144.331C53.9612 142.555 54.4343 140.708 54.922 138.788C49.0083 139.373 48.1305 131.543 50.4713 131.312C56.3773 130.727 59.234 126.328 60.2966 122.521C62.1523 116.375 64.3006 115.237 66.8493 114.983C70.6146 114.606 72.2547 117.629 69.7368 124.359C68.5356 127.766 68.4047 129.528 70.3374 129.335L75.635 128.805C78.384 128.535 78.0914 138.019 74.018 138.427C64.5393 139.373 63.9464 139.634 62.6913 146.649C61.2668 153.986 64.8704 158.155 70.8841 157.555C74.8573 157.163 77.8604 155.002 79.6083 151.787C81.8567 139.719 88.8483 127.389 101.715 126.113C106.909 125.598 108.786 126.997 110.148 128.013C110.924 128.591 111.534 129.046 112.495 128.951C114.024 128.797 114.926 127.895 115.907 126.915C117.079 125.743 118.365 124.457 120.973 124.197C123.622 123.936 124.692 125.374 124.915 127.612C125.158 130.055 124.318 132.316 123.249 135.194C122.625 136.875 121.922 138.766 121.312 141.026C118.586 148.802 120.118 152.763 124.6 152.317C128.065 151.971 130.413 149.787 132.13 146.326C134.302 134.081 138.29 122.482 142.063 122.105C144.812 121.828 145.613 123.598 145.813 125.636C146.206 129.605 148.37 130.627 151.303 127.043C154.707 123.005 158.572 120.459 163.054 120.013C169.267 119.398 172.648 123.374 173.156 128.466C173.425 131.198 172.805 133.466 172.193 135.702C171.598 137.877 171.011 140.022 171.262 142.534C171.608 145.987 173.295 147.472 176.66 147.133C179.716 146.833 181.441 144.503 183.174 141.249C185.515 129.028 192.483 117.083 205.142 115.821C210.337 115.302 212.213 116.7 213.576 117.715C214.351 118.293 214.961 118.747 215.922 118.652C217.451 118.498 218.353 117.597 219.334 116.616C220.506 115.444 221.792 114.158 224.4 113.899C227.049 113.637 228.119 115.075 228.342 117.314C228.533 119.215 227.709 121.477 226.468 124.888C225.25 128.237 223.628 132.693 222.167 139.003C221.281 144.541 223.299 146.187 225.639 145.956C228.696 145.657 232.115 140.688 234.641 136.119C237.844 120.79 241.725 112.183 247.431 111.614C249.671 111.391 250.734 112.73 250.996 115.375C251.335 118.763 250.474 122.323 249.635 125.798C248.835 129.109 248.054 132.342 248.347 135.273C248.632 138.119 249.717 139.765 253.082 139.426C257.564 138.98 259.835 135.973 260.99 131.027C263.839 117.275 267.297 109.63 272.494 109.115C275.451 108.822 277.207 109.876 277.53 113.137C277.791 115.765 276.89 118.861 275.59 123.332C274.778 126.126 273.81 129.455 272.871 133.543C271.809 139.403 273.942 141.142 276.283 140.911ZM93.4067 151.494C93.7532 154.955 95.8938 156.801 99.0509 156.486H99.0431C104.348 155.955 107.382 150.31 106.959 146.033C106.628 142.672 104.387 140.842 101.122 141.165C95.8245 141.695 92.9601 147.018 93.4067 151.494ZM196.857 141.203C197.149 144.157 198.828 146.556 202.701 146.172H202.709C207.806 145.664 210.84 140.019 210.416 135.742C210.124 132.789 208.245 130.512 204.272 130.904C199.275 131.404 196.41 136.727 196.857 141.203ZM295.941 141.941C291.251 142.41 287.763 146.664 288.233 151.348C288.703 156.032 292.961 159.516 297.642 159.047C302.324 158.578 305.82 154.324 305.35 149.64C304.881 144.956 300.622 141.472 295.933 141.941H295.941ZM298.289 129.366C296.649 112.975 301.8 79.979 311.279 79.033V79.0253C315.26 78.633 317.532 80.7712 317.955 85.0477C319.102 96.554 306.59 133.165 301.7 133.65C299.56 133.865 298.574 132.219 298.289 129.366Z" clip-rule="evenodd" fill-rule="evenodd"></path>
</svg>
