<svg width="41" height="40" viewBox="0 0 41 40" fill="none" xmlns="http://www.w3.org/2000/svg">
<path d="M39.8379 27.737L39.8368 27.7393C39.4928 28.496 38.7841 28.7693 37.2881 29.157C37.228 29.1726 37.1669 29.1883 37.1049 29.2043C35.7537 29.5521 33.9802 30.0087 32.5143 31.4725C30.9881 32.9783 30.5112 34.8546 30.1541 36.2596C30.1428 36.3042 30.1316 36.3484 30.1205 36.392C29.9289 37.1431 29.7775 37.7015 29.5582 38.1316C29.3608 38.5187 29.1442 38.729 28.8402 38.8469C27.956 39.1619 27.1128 38.8205 25.7653 38.0661C25.6622 38.0084 25.5564 37.9483 25.4477 37.8867C24.2617 37.2137 22.7429 36.3517 20.9375 36.3517C19.0983 36.3517 17.511 37.2525 16.2935 37.9434C16.2075 37.9922 16.1233 38.04 16.0411 38.0863C15.3725 38.4627 14.8347 38.7474 14.3434 38.8963C13.882 39.0362 13.5403 39.0312 13.2288 38.9016C12.4155 38.5513 12.1344 37.8242 11.75 36.3119C11.7325 36.2433 11.7149 36.1734 11.697 36.1023C11.3519 34.7324 10.8986 32.9327 9.39622 31.47C7.92516 30.0026 6.07558 29.5387 4.69156 29.1916C4.64916 29.181 4.60721 29.1704 4.56572 29.16C3.82395 28.9734 3.26833 28.8256 2.83885 28.6133C2.44823 28.4202 2.24634 28.2138 2.13508 27.9406C1.83326 27.1415 2.1436 26.3556 2.89045 24.9819C2.93582 24.8984 2.98256 24.8132 3.03028 24.7261C3.69893 23.5064 4.5613 21.9334 4.5613 20.019C4.5613 18.0707 3.6435 16.4272 2.94608 15.1783C2.9079 15.1099 2.87037 15.0427 2.8337 14.9768C2.45698 14.2989 2.17642 13.7678 2.03256 13.2898C1.89802 12.8428 1.91235 12.5356 2.03713 12.263L1.12787 11.8468L2.03819 12.2607C2.38151 11.5056 3.09625 11.2317 4.60036 10.8432C4.65953 10.8279 4.71963 10.8125 4.78059 10.7969C6.13461 10.4494 7.91289 9.99305 9.36336 8.52484C10.8875 7.01951 11.364 5.14461 11.7209 3.74037C11.7322 3.69577 11.7434 3.65165 11.7545 3.60803C11.9461 2.85688 12.0975 2.29849 12.3168 1.86838C12.5142 1.48131 12.7308 1.27102 13.0348 1.1531C13.919 0.83805 14.7622 1.17954 16.1097 1.93389C16.2128 1.99158 16.3186 2.05166 16.4273 2.11332C17.6133 2.78634 19.1322 3.64826 20.9375 3.64826C22.7767 3.64826 24.364 2.74749 25.5815 2.05659C25.6675 2.00779 25.7517 1.96003 25.8339 1.91371C26.5025 1.53732 27.0403 1.25259 27.5316 1.1037C27.993 0.963832 28.3347 0.968804 28.6462 1.09839C29.4595 1.44871 29.7406 2.17582 30.125 3.68809C30.1425 3.75674 30.1601 3.82665 30.178 3.89771C30.5231 5.26757 30.9764 7.06732 32.4788 8.52996C33.9498 9.99738 35.7994 10.4613 37.1835 10.8084C37.2258 10.8191 37.2678 10.8296 37.3093 10.84C38.051 11.0266 38.6067 11.1744 39.0362 11.3867C39.4268 11.5798 39.6287 11.7862 39.7399 12.0595C40.0417 12.8585 39.7314 13.6444 38.9846 15.0181C38.9392 15.1016 38.8925 15.1868 38.8447 15.2739C38.1761 16.4936 37.3137 18.0666 37.3137 19.981C37.3137 21.9293 38.2315 23.5728 38.9289 24.8217C38.9671 24.8901 39.0046 24.9573 39.0413 25.0233C39.418 25.7011 39.6986 26.2322 39.8424 26.7102C39.977 27.1572 39.9627 27.4644 39.8379 27.737Z" fill="#F8ECE2" stroke="black" stroke-width="2"/>
</svg>
