<svg width="30" height="28" viewBox="0 0 30 28" fill="none" xmlns="http://www.w3.org/2000/svg">
<path fill-rule="evenodd" clip-rule="evenodd" d="M29.0588 14.844V14.6383L29.0196 14.6579C29.0196 11.8569 28.2263 9.24202 26.8454 7.03846C26.6593 6.63692 26.4047 6.27456 26.1011 5.95137C23.4666 2.48443 19.2946 0.241699 14.6034 0.241699C12.0473 0.241699 9.64785 0.907664 7.56181 2.0731C7.4247 2.15145 7.28759 2.2298 7.15048 2.31794C6.72936 2.56278 6.31803 2.8468 5.92628 3.14061C5.133 3.73802 4.40827 4.42357 3.74231 5.16788C3.52685 5.42252 3.32118 5.66736 3.11552 5.94158C2.81191 6.26477 2.56707 6.62713 2.3712 7.02867C1.0001 9.23223 0.197021 11.8471 0.197021 14.6481L0.197021 14.8538C0.197021 16.3228 0.931542 17.6156 2.0676 18.3697L2.48873 18.6635L2.50831 18.6635C2.51811 18.0269 2.57687 17.4099 2.6748 16.7929C3.19386 13.6002 4.92733 10.809 7.55202 8.91884C9.62826 7.43021 12.0669 6.63692 14.6034 6.63692C15.2694 6.63692 15.9256 6.69569 16.5817 6.80342C22.4677 7.76319 26.7083 12.8363 26.7377 18.6733C26.7475 18.6537 26.7671 18.6537 26.7671 18.6537L27.1686 18.3795C27.3939 18.2326 27.5897 18.0759 27.7758 17.8898C28.5593 17.1259 29.0588 16.0388 29.0588 14.844ZM24.7531 18.7531C24.7531 18.9392 24.7531 19.1154 24.7336 19.3015C24.7336 19.3879 24.7245 19.4697 24.7157 19.5501L24.7157 19.5502C24.7115 19.5883 24.7073 19.6261 24.7042 19.6639C24.7042 19.7324 24.7042 19.801 24.6944 19.8597C24.6748 20.0458 24.5769 20.2025 24.43 20.3102L24.0578 20.5747C24.0283 20.5983 23.988 20.6255 23.9457 20.6541L23.9457 20.6541C23.9179 20.6729 23.8891 20.6924 23.8619 20.7118C23.7738 20.7705 23.6758 20.8391 23.5779 20.9175C23.5687 20.9244 23.5584 20.9318 23.5475 20.9397L23.5474 20.9398C23.5121 20.9653 23.4707 20.9953 23.4408 21.0252C23.4066 21.0496 23.3718 21.074 23.3371 21.0984L23.3367 21.0986L23.3367 21.0987C23.232 21.1721 23.1274 21.2456 23.0393 21.319C22.5888 19.0763 21.2568 17.0588 19.3177 15.7954C17.9172 14.8748 16.3111 14.3949 14.6461 14.3949C11.7374 14.3949 9.06379 15.8346 7.47722 18.2536C6.87981 19.184 6.46848 20.1829 6.26282 21.2406C5.96901 21.035 5.5185 20.7216 5.17573 20.4963C5.08083 20.4252 4.99233 20.3668 4.91536 20.316L4.86233 20.2809C4.70563 20.1731 4.5979 20.0066 4.58811 19.8108L4.58811 19.6737L4.58808 19.6731C4.57829 19.5166 4.56851 19.3601 4.55873 19.2134C4.51956 18.518 4.55873 17.8325 4.68605 17.1273C5.11697 14.4537 6.56642 12.113 8.76019 10.5558C9.2009 10.2424 9.64161 9.9682 10.1117 9.73315C10.5818 9.48831 11.0617 9.29244 11.5612 9.12595C11.8158 9.0476 12.0606 8.97905 12.3153 8.92028L12.3681 8.90849L12.3682 8.90848C12.525 8.87343 12.6748 8.83996 12.8245 8.82235L13.1379 8.76359C13.2457 8.744 13.3534 8.7342 13.4611 8.7342C13.6962 8.68524 13.9312 8.66565 14.1663 8.66565L14.3915 8.66565H14.7539L14.7539 8.66565C14.9302 8.66565 15.1065 8.66565 15.2827 8.68524C15.4076 8.68524 15.5325 8.70176 15.6573 8.71829C15.699 8.7238 15.7406 8.72931 15.7822 8.7342L15.8298 8.73978L15.8298 8.73979C15.9821 8.7576 16.1408 8.77617 16.2915 8.80276C21.2372 9.61563 24.7629 13.915 24.7629 18.7727L24.7531 18.7531ZM21.0991 22.7936C21.1241 22.7387 21.1492 22.6839 21.1492 22.629L21.1394 22.6486C21.159 22.5801 21.159 22.5311 21.159 22.4724V22.4723C21.0121 20.4451 19.9446 18.5843 18.2209 17.458C17.1143 16.7333 15.8803 16.3905 14.6463 16.3905C12.5015 16.3905 10.4056 17.4286 9.15205 19.3482C8.57423 20.2296 8.23145 21.2188 8.11393 22.2471L8.11393 22.3156C8.11393 22.3341 8.1183 22.3548 8.12291 22.3766C8.12806 22.401 8.13352 22.4269 8.13352 22.4527C8.14331 22.4821 8.1531 22.5507 8.1531 22.5507C8.15816 22.5608 8.16257 22.5703 8.16683 22.5794C8.17906 22.6057 8.19007 22.6294 8.21187 22.6584C8.24125 22.727 8.30001 22.7857 8.35877 22.8445C8.74072 23.1579 9.11288 23.4909 9.48504 23.8336C9.77884 23.2656 10.1804 22.7466 10.6799 22.296C10.6994 22.2765 10.7484 22.2373 10.7484 22.2373C11.0618 21.9729 11.4046 21.7378 11.7572 21.5419C12.619 21.0718 13.569 20.8368 14.5875 20.8368C17.1338 20.8368 19.0436 22.443 19.8467 24.0197C19.8973 23.9691 19.9566 23.9142 20.0194 23.8559C20.0903 23.7902 20.1657 23.7203 20.2384 23.6476C20.2923 23.6035 20.3437 23.557 20.3951 23.5105C20.4465 23.4639 20.4979 23.4174 20.5518 23.3733C20.6987 23.2362 20.826 23.1187 20.9436 23.011C20.9927 22.9701 21.0281 22.9155 21.0613 22.8643L21.0807 22.8347L21.0868 22.8207L21.0991 22.7936ZM18.1644 25.2362C18.1644 25.2852 18.1644 25.3342 18.135 25.3734L18.135 25.3734C18.1154 25.4223 18.0958 25.4713 18.0665 25.5105C18.0469 25.5398 18.0175 25.5692 17.9979 25.579L17.9098 25.6476L17.332 26.1373L16.2938 27.0089C16.1077 27.1558 15.9217 27.2831 15.7062 27.3615C15.6768 27.381 15.6377 27.4006 15.5887 27.4006C15.576 27.4133 15.5552 27.4218 15.5315 27.4316L15.5315 27.4316C15.5185 27.437 15.5046 27.4427 15.4908 27.4496C15.4516 27.4692 15.4026 27.479 15.3536 27.4888C15.3341 27.4888 15.3047 27.4986 15.2851 27.5084C15.0696 27.5769 14.8444 27.5965 14.6191 27.5965H14.433L14.4037 27.5965C14.3525 27.5965 14.3068 27.5856 14.2666 27.576L14.2666 27.576C14.2529 27.5727 14.2398 27.5696 14.2274 27.5671H14.1784C13.7475 27.4986 13.3557 27.3223 12.9934 27.0383C12.9738 27.0383 12.964 27.0187 12.964 27.0187L12.8954 26.9599L12.0042 26.1275L11.2599 25.4223C11.2599 25.4223 11.2305 25.3831 11.2109 25.3636C11.2055 25.3526 11.1992 25.3416 11.1928 25.3304C11.1764 25.3017 11.1592 25.2715 11.1522 25.2362C11.1424 25.1971 11.1326 25.1481 11.1326 25.0991C11.1326 25.0404 11.1326 24.9914 11.162 24.9326C11.3285 24.5311 11.6223 24.1296 12.0042 23.7868C12.0106 23.7741 12.021 23.7656 12.0328 23.7558C12.0393 23.7505 12.0463 23.7448 12.0532 23.7378C12.2491 23.5713 12.4645 23.4146 12.7094 23.2873C13.2382 23.0131 13.865 22.827 14.5897 22.827C16.333 22.827 17.6845 24.0022 18.135 25.0698C18.1644 25.1187 18.1742 25.1873 18.1742 25.246L18.1644 25.2362ZM7.77159 27.5368L9.22104 27.1646L9.20145 27.1646C9.38753 27.1156 9.45609 26.8904 9.31898 26.7533L8.80971 26.244C8.17312 25.5878 7.50716 24.9904 6.81181 24.4126C6.77264 24.3734 6.71388 24.3538 6.66491 24.3538C6.56697 24.3538 6.46904 24.4224 6.42986 24.5301L6.09688 25.5193C5.86183 26.1069 6.03812 26.7141 6.42986 27.1156C6.49842 27.1842 6.57677 27.243 6.66491 27.3017C6.67831 27.3098 6.69171 27.3185 6.70531 27.3274C6.74141 27.3511 6.77892 27.3756 6.82161 27.3899C6.84378 27.3954 6.86595 27.4072 6.8899 27.42L6.88991 27.42C6.90827 27.4298 6.92768 27.4401 6.94892 27.4486C7.00769 27.4682 7.07624 27.4878 7.12521 27.4976L7.13507 27.5012C7.14037 27.5033 7.14571 27.5056 7.15115 27.5079C7.17255 27.5171 7.19539 27.527 7.22314 27.527C7.28191 27.5564 7.35046 27.5564 7.40922 27.5564H7.46798C7.56592 27.5662 7.66386 27.5564 7.77159 27.5368ZM21.4861 27.5161C21.5743 27.5455 21.6624 27.5455 21.7506 27.5455L21.7408 27.5259C22.7593 27.5259 23.5134 26.4878 23.1315 25.479L22.8572 24.6564C22.8549 24.6518 22.8526 24.6466 22.8502 24.6411C22.8423 24.6235 22.833 24.6028 22.8181 24.5878C22.7887 24.5584 22.7593 24.5389 22.7299 24.5193L22.7299 24.5193C22.6908 24.4899 22.6516 24.4899 22.6222 24.4899C22.5634 24.4899 22.5145 24.5095 22.4557 24.5584C22.3955 24.6126 22.3345 24.6667 22.2727 24.7214C22.1335 24.8449 21.991 24.9712 21.8485 25.1069L20.0563 26.762C19.9094 26.8991 19.9681 27.1244 20.164 27.1733L21.4861 27.5161Z" fill="black"/>
</svg>
