<svg width="12" height="12" viewBox="0 0 12 12" fill="none" xmlns="http://www.w3.org/2000/svg">
<path d="M0.552351 3.94139C0.866036 3.25151 1.91165 3.55464 2.62267 2.83339C3.36505 2.10169 3.07228 0.993689 3.73102 0.74282C4.48386 0.471046 5.09032 1.4118 6 1.4118C6.90968 1.4118 7.57888 0.460593 8.22716 0.732367C8.95909 1.04595 8.62449 2.11214 9.36688 2.83339C10.0779 3.54419 11.1758 3.27241 11.4267 3.89958C11.6986 4.61038 10.7785 5.21664 10.7785 6.17831C10.7785 7.13997 11.73 7.80895 11.4476 8.42567C11.134 9.11556 10.0988 8.81243 9.37733 9.53367C8.63495 10.2654 8.92772 11.3734 8.26898 11.6242C7.51614 11.896 6.90968 10.9553 6 10.9553C5.09032 10.9553 4.42112 11.9065 3.77284 11.6347C3.04091 11.3211 3.37551 10.2549 2.63312 9.53367C1.92211 8.82288 0.82421 9.09465 0.573263 8.46748C0.301403 7.75669 1.22154 7.15042 1.22154 6.18876C1.22154 5.2271 0.270036 4.55811 0.552351 3.94139V3.94139Z" fill="#FF6444"/>
</svg>
