<svg width="239" height="239" viewBox="0 0 239 239" fill="none" xmlns="http://www.w3.org/2000/svg" preserveAspectRatio="none">
<g clip-path="url(#clip0_531_8722)">
<path d="M93.6804 14.6065C105.906 -1.78776 130.524 -2.01581 143.14 14.4015C150.632 24.1502 162.796 29.1299 174.983 27.3852C195.327 24.4726 212.943 41.8485 210.308 62.3033C208.735 74.5155 213.864 86.6232 223.701 93.9948C240.268 106.41 240.379 131.093 224.172 143.566C214.399 151.087 209.479 163.297 211.254 175.48C214.227 195.872 196.98 213.352 176.625 210.66C164.422 209.046 152.292 214.15 144.918 224.037C132.693 240.431 108.075 240.659 95.4584 224.242C87.9664 214.493 75.8023 209.514 63.6157 211.258C43.272 214.171 25.6558 196.795 28.2908 176.34C29.864 164.128 24.7349 152.02 14.898 144.649C-1.66896 132.234 -1.77995 107.551 14.4271 95.0777C24.1992 87.5569 29.1199 75.3462 27.3443 63.1636C24.3722 42.7713 41.619 25.2916 61.9736 27.9838C74.1766 29.5978 86.3072 24.4939 93.6804 14.6065Z" fill="#9EDCF0" stroke="black" stroke-width="3"/>
</g>
<defs>
<clipPath id="clip0_531_8722">
<rect width="239" height="239" fill="white"/>
</clipPath>
</defs>
</svg>
