<svg width="74" height="70" viewBox="0 0 74 70" fill="none" xmlns="http://www.w3.org/2000/svg">
<path d="M66.1424 37.6675C68.3196 38.644 69.6002 42.0297 68.4636 45.0313C67.3591 47.9928 63.6291 49.4816 62.1804 49.9538C61.532 50.1299 61.5641 50.8583 61.46 51.3946C61.0358 51.6427 60.5315 51.7948 59.9872 51.8508C56.2813 52.235 50.2382 48.6572 48.8455 46.7602C50.8145 45.7437 52.5354 44.551 53.68 42.9102C58.5385 44.535 64.5016 43.1343 66.1504 37.6835L66.1424 37.6675Z" fill="#FF6444"/>
<path d="M64.6699 35.9706C65.0541 36.9471 63.9495 38.9721 63.2611 39.7005C60.5317 42.5259 56.9059 42.1898 54.5126 41.5094C56.0254 38.4598 55.8173 34.914 53.7922 32.3927C56.1455 32.2566 58.9389 32.889 61.2921 33.6333C63.4132 34.2897 64.4137 35.2342 64.6779 35.9786L64.6699 35.9706Z" fill="#FF6444"/>
<path d="M60.1955 53.3636C60.3316 53.3636 60.4677 53.3396 60.6037 53.3156C57.8503 57.2056 50.0303 57.7739 47.0847 57.0055C46.2283 56.8455 45.8601 57.814 45.1477 58.1821C43.0266 57.91 41.6659 56.6213 40.8335 55.3327C45.2838 56.9895 49.2138 53.1155 48.4454 48.6172C51.1829 51.0825 56.1694 53.8199 60.1955 53.3636V53.3636Z" fill="#FF6444"/>
<path d="M59.0509 11.3579C59.7312 13.511 59.235 15.7842 57.5621 18.3135C55.5931 21.291 51.8392 27.5183 49.4859 30.3357C49.2858 30.2957 49.0857 30.2877 48.9016 30.2637C49.1257 26.5097 47.3648 21.8753 44.3633 20.6587C44.6274 19.4661 44.8996 18.3775 45.1797 17.353C46.0121 17.8012 46.6765 18.4816 47.0527 19.21C47.2528 19.6342 47.7811 19.7943 48.1813 19.5781C49.7421 18.5776 46.8286 16.1924 45.668 15.7121C47.3568 10.4294 49.55 7.45986 52.4955 6.1792C55.393 6.27525 58.2105 8.46839 59.0509 11.3579V11.3579Z" fill="#FF6444"/>
<path d="M49.2138 6.41131C47.1407 8.23626 45.4999 11.0857 44.1792 15.2079C43.2988 15.1118 40.9295 14.7836 41.1296 16.2964C41.4658 17.465 42.8665 16.5926 43.683 16.8567C43.3868 17.8732 43.1227 18.9618 42.8665 20.1304C40.4973 19.5861 37.6718 20.7387 36.4472 22.7078C35.991 20.1304 35.5908 16.2724 36.6313 11.7901C36.9275 10.5254 37.3357 9.21276 37.8799 7.87607C38.032 7.87607 38.1681 7.89208 38.3042 7.90008C38.5763 7.91609 38.8484 7.94811 39.1126 7.98813C39.4488 8.03615 39.7609 7.90008 39.977 7.64395C42.1061 5.13065 46.5484 5.01859 49.2058 6.41932L49.2138 6.41131Z" fill="#FF6444"/>
<path d="M38.112 53.0194C38.3842 54.036 39.6488 57.902 43.1947 59.3027C38.08 61.6719 29.5796 62.1282 25.1133 59.0786C25.2734 59.0546 25.4334 59.0146 25.5935 58.9825C30.7482 57.7659 33.0294 52.091 33.6857 50.0739C34.9264 50.0339 36.175 49.9378 37.4157 49.7858C37.4637 49.9699 37.5117 50.154 37.5517 50.3461C37.6478 50.9144 37.7038 51.4987 37.8479 52.091C37.9199 52.3631 38.072 52.8754 38.112 53.0194V53.0194Z" fill="#FF6444"/>
<path d="M35.4305 25.5732C35.3905 25.8614 35.3585 26.1335 35.3345 26.4297C34.0218 24.6687 32.2769 23.5802 30.3799 23.3401C29.0512 20.7627 27.2423 18.1214 25.5454 16.8567C26.4259 11.686 31.2204 8.38031 36.1749 7.92407C35.7267 9.1407 35.3825 10.3173 35.1184 11.4299C33.5816 17.8652 34.7982 22.5957 35.4305 25.5732V25.5732Z" fill="#FF6444"/>
<path d="M21.1352 45.0874C22.1917 48.8013 28.0348 50.146 32.0288 50.082C31.0763 53.1556 28.499 56.6374 25.2974 57.4538C24.713 57.6059 24.1287 57.6619 23.5284 57.6299L23.3764 57.4458C22.9922 56.8855 22.672 56.1171 21.8636 56.4053C19.3983 57.2377 15.9245 56.2932 16.2287 51.6428C16.4127 48.5852 19.3183 46.1279 21.1352 45.0874V45.0874Z" fill="#FF6444"/>
<path d="M24.1929 17.8652C25.4975 18.5376 27.2024 20.9148 28.5711 23.3801C24.369 24.1645 22.6 28.3587 23.5365 33.0731C19.9186 30.5918 16.717 29.7034 14.9961 29.3832C15.4763 23.7083 19.0462 19.9783 23.3204 18.2094C23.6086 18.0894 23.9047 17.9773 24.1849 17.8732L24.1929 17.8652ZM23.6086 23.4521C24.6091 23.0199 23.9767 21.4591 22.9522 21.8913C20.4149 22.9559 19.4784 25.7973 19.6785 28.1506C19.7185 28.5988 20.0867 28.935 20.519 28.935C21.0152 28.935 21.4074 28.5027 21.3594 28.0145C21.2233 26.3176 21.8556 24.1725 23.6006 23.4521H23.6086Z" fill="#FF6444"/>
<path d="M24.3208 35.6105C24.3608 35.6985 24.3849 35.7706 24.4169 35.8426C22.744 36.699 20.751 39.3724 20.775 42.1018C19.4383 42.5501 18.5418 42.8062 18.2857 42.8062C15.012 43.0543 11.9624 38.572 12.3626 35.1622C12.5147 33.8256 13.2031 32.745 14.4197 32.1127C14.8679 31.9046 15.004 31.4323 14.94 30.9761C16.8129 31.3603 20.4068 32.4648 24.3208 35.6105Z" fill="#FF6444"/>
<path d="M73.3778 21.5711C73.4658 23.6682 72.1611 26.3896 68.3191 25.4371C66.11 24.8929 64.4771 24.7328 62.212 25.5012C61.2435 25.8213 59.7547 26.6057 59.0183 27.11C58.5701 27.4062 58.0178 26.9499 58.2099 26.4377C59.1544 23.9964 60.9713 22.2275 61.7797 21.395C63.3566 19.7942 65.6217 18.1374 68.6793 18.0253C71.4648 17.9293 73.2737 19.4981 73.3778 21.5711V21.5711Z" fill="black"/>
<path d="M69.56 28.5109C70.3685 29.5994 70.0163 31.1282 68.7676 31.5124C67.527 31.8966 66.4464 31.3603 65.4939 30.2878C64.6775 29.3673 63.3648 29.0391 62.3963 29.1192C61.2037 28.711 63.8371 27.5103 64.7415 27.3583C66.7106 26.9341 68.7676 27.4223 69.56 28.5109V28.5109Z" fill="black"/>
<path d="M44.7552 53.9561C42.9462 54.7485 40.8812 54.3643 39.7366 52.9395C39.0882 52.1631 39.0322 50.9865 38.8721 50.0981C38.8561 49.922 38.8241 49.7379 38.7681 49.5778C38.4719 48.5933 37.7595 47.3366 36.1827 46.3041C35.8385 46.064 36.4869 45.5037 36.743 45.2956C37.3433 44.7833 38.1838 44.5432 39.0002 44.7193C41.1133 45.1995 42.0738 46.7283 42.3779 48.4172C42.53 48.8094 43.2984 48.7133 43.4505 48.3291C43.7306 46.8804 42.418 44.9514 40.8651 44.4471C43.4985 43.2625 45.9958 45.3516 46.9643 48.129C47.0443 48.3692 47.0764 48.6013 47.1324 48.8574C47.4125 50.7944 46.5961 53.1877 44.7632 53.9641L44.7552 53.9561Z" fill="#F8ECE2"/>
<path d="M26.7698 45.4475C25.5372 46.5681 24.0164 43.1263 24.0804 42.1498C23.9364 41.2054 24.6567 38.4199 25.9534 39.2603C26.2175 39.5165 26.2496 39.9487 25.9934 40.2288C24.9129 41.4615 25.4812 43.5266 26.6818 44.4951C26.9779 44.7352 27.01 45.1674 26.7698 45.4475Z" fill="#F8ECE2"/>
<path d="M45.1394 43.5828C43.4105 42.3341 41.0493 42.6783 39.6965 43.5027C37.9036 42.9424 36.0627 43.5667 35.0061 45.2316C34.814 44.9114 34.2297 43.9429 33.3733 42.9904C32.901 42.4542 32.4448 42.166 32.0606 41.9979C31.5884 42.5182 31.8685 43.7909 30.94 43.8469C29.6113 43.6708 30.6118 41.7978 31.004 41.1815C31.3963 40.4691 33.6374 38.5161 34.2377 39.8528C34.4778 40.7093 33.3973 40.7413 32.925 41.1175C35.1182 43.1905 38.584 42.7983 40.7851 42.2541C42.9622 41.7178 43.9468 40.4691 44.8912 40.277C46.5081 40.0609 45.5556 42.9424 45.1314 43.5747L45.1394 43.5828Z" fill="#F8ECE2"/>
<path d="M31.2923 25.3173C30.3878 24.9571 29.3793 24.885 28.4668 25.1412C28.2507 25.1892 28.0426 25.2692 27.8585 25.3573C23.08 27.2783 24.8169 36.8352 29.4113 39.2925C29.4993 39.3325 29.5634 39.3725 29.6114 39.3966C31.1882 37.8918 33.3093 37.0273 35.4304 36.8192C35.6945 36.8032 36.0947 36.7792 36.3109 36.7952C36.591 32.6891 35.4544 27.1502 31.2923 25.3173V25.3173ZM34.1577 33.2013C34.0697 36.8032 29.0591 37.9638 27.8265 34.6501C27.3142 33.3614 27.6824 31.9527 28.1946 30.9522C28.2747 30.8081 28.4268 30.688 28.5148 31.0162C28.883 32.1208 30.2197 32.0007 30.5879 31.2483C31.2282 30.1998 30.2917 28.8151 29.3873 28.1667C29.0591 27.9106 29.1952 27.6305 29.7074 27.6865C32.3168 28.0547 34.1497 30.4479 34.1497 33.0733V33.2013H34.1577Z" fill="#F8ECE2"/>
<path d="M44.595 22.7959C41.6815 20.3147 37.2472 22.2837 37.0631 26.0936C36.783 29.3914 37.7275 32.9612 39.3283 35.8427C41.4014 34.49 44.1068 34.1698 46.452 34.8582C47.6206 31.0642 47.8367 25.7014 44.595 22.7959V22.7959ZM44.4029 32.7051C42.634 34.1858 40.4409 33.5935 39.5204 31.9767C38.9441 31.0242 39.0081 29.8476 39.2562 29.0232C39.3843 28.5989 39.7925 27.1982 40.0086 27.9426C40.777 29.6395 42.674 28.4389 42.2498 26.8941C42.1377 26.2217 41.4094 25.4933 40.8971 25.0851C40.0727 24.1166 42.4899 24.853 42.7541 25.0611C45.3634 26.4618 46.8922 30.4479 44.3949 32.7051H44.4029Z" fill="#F8ECE2"/>
<path d="M44.4031 32.705C42.6342 34.1857 40.4411 33.5934 39.5206 31.9766C38.9443 31.0241 39.0083 29.8475 39.2565 29.0231C39.3845 28.5988 39.7927 27.1981 40.0089 27.9425C40.7772 29.6394 42.6742 28.4388 42.25 26.894C42.138 26.2216 41.4096 25.4932 40.8973 25.085C40.0729 24.1165 42.4901 24.8529 42.7543 25.061C45.3636 26.4617 46.8924 30.4478 44.3951 32.705H44.4031Z" fill="black"/>
<path d="M67.1589 35.3383C65.6061 31.0481 59.2508 30.3837 54.9525 30.1116C54.0001 30.0476 53.4478 29.015 53.984 28.1986C55.745 25.5893 57.77 22.5957 59.675 19.6902C66.7987 9.15675 54.8725 0.216112 44.227 0C44.0269 0 43.9628 0.296153 44.179 0.360187C46.8924 1.13659 49.0215 2.28118 50.078 3.20166C50.2781 3.37775 50.5022 3.56985 50.5022 3.84199C50.5022 4.13814 50.1581 4.37827 49.7899 4.17016C42.9463 -0.736382 33.4694 -0.904469 27.3062 1.98503C27.1381 2.06507 27.2022 2.32921 27.3943 2.3132C31.4043 2.27318 35.7666 2.80946 38.44 4.57037C39.4245 5.09064 39.0883 5.77899 38.424 5.77899C38.2719 5.77899 38.0958 5.73897 37.9117 5.63492C34.4939 3.72193 27.4263 2.98555 23.9525 3.63388C20.5507 4.99459 17.4771 8.26828 16.4126 11.0377C16.3325 11.2378 16.4366 11.4219 16.6287 11.4699C18.7818 12.0302 21.1991 13.3669 23.1681 14.6716C23.8564 15.0958 23.4882 15.8962 22.9279 15.8962C22.7999 15.8962 22.6478 15.8562 22.5197 15.7522C20.3666 14.3514 17.6692 12.7426 15.3 12.5185C9.83316 15.6241 9.76913 24.1005 12.8027 29.8315C13.0348 30.3677 12.6026 30.888 12.0903 30.6719C10.7296 30.2157 9.8972 25.3812 9.64106 23.244C9.61705 23.076 9.34491 23.068 9.28088 23.204C7.0157 29.7514 9.06477 42.9423 16.0684 45.0553C16.6047 45.2234 16.7808 45.8558 16.3966 46.264C10.0013 51.9469 16.0524 63.5609 22.968 64.8096C23.1361 64.8496 23.2321 64.6415 23.1601 64.5054C22.0155 62.7365 21.4312 60.9916 21.159 59.6229C21.007 59.0626 21.2391 58.6304 21.5913 58.6304C21.9194 58.6304 22.3597 59.0626 22.6078 60.2472C23.3602 62.6164 24.3927 65.1297 27.3382 67.1868C31.1082 69.7321 39.6326 69.8602 43.0104 67.1068C45.7398 64.9056 46.5002 61.72 46.8924 59.911C46.9084 59.831 46.9404 59.743 46.9804 59.6789C47.2125 59.2707 47.8609 59.2707 48.061 59.7029C48.165 59.895 48.165 60.0311 48.125 60.2792C47.7808 61.856 47.0284 64.2253 45.3316 66.4824C45.2195 66.6345 45.2915 66.8746 45.4836 66.9067C50.2701 67.547 57.802 65.682 60.6835 61.2637C62.1323 59.0866 62.8366 55.6929 63.0367 53.8759C63.0848 53.1395 63.1408 52.6273 63.1408 52.2351C63.1408 51.8429 63.3569 51.6107 63.597 51.5627C63.8932 51.4987 64.2213 51.7068 64.2614 52.147C64.4054 54.084 64.1573 55.6368 63.2448 58.5263C63.1968 58.6544 63.3089 58.8225 63.4369 58.7905C71.257 56.8535 75.9954 39.8687 67.1429 35.3223L67.1589 35.3383ZM61.2838 33.6174C63.3969 34.2818 64.4054 35.2263 64.6696 35.9626C65.0538 36.9471 63.9412 38.9722 63.2528 39.6926C60.5234 42.518 56.8975 42.1899 54.5043 41.5015C56.0171 38.4599 55.801 34.9141 53.7919 32.3768C56.1372 32.2327 58.9226 32.873 61.2838 33.6094V33.6174ZM50.134 7.724C50.2781 7.59594 50.4142 7.46787 50.5663 7.35581C50.6703 7.26777 50.7664 7.18772 50.8704 7.11569C51.0705 6.97161 51.2626 6.85155 51.4707 6.72348C51.4867 6.70748 51.5108 6.69947 51.5188 6.69947C51.5428 6.68346 51.5668 6.65945 51.5988 6.65145C51.7029 6.58741 51.7909 6.52338 51.903 6.47536C52.0951 6.3713 52.2872 6.28326 52.4873 6.19521C55.3928 6.29926 58.2102 8.4844 59.0507 11.3659C59.739 13.535 59.2428 15.8002 57.5619 18.3215C55.6009 21.299 51.8389 27.5343 49.4857 30.3517C49.2936 30.3117 49.0935 30.3037 48.9014 30.2717C49.1335 26.5097 47.3726 21.8753 44.3631 20.6667C44.6272 19.4821 44.8993 18.3855 45.1875 17.353C46.0119 17.8012 46.6763 18.4896 47.0444 19.21C47.2445 19.6342 47.7808 19.7943 48.181 19.5781C48.3491 19.4741 48.4452 19.362 48.5252 19.234C48.5652 19.1699 48.5892 19.1059 48.6053 19.0419C48.6453 18.8898 48.6453 18.7377 48.5892 18.5616C48.5732 18.5136 48.5652 18.4736 48.5492 18.4175C48.5252 18.3295 48.4852 18.2415 48.4372 18.1534C48.3571 18.0013 48.2611 17.8492 48.141 17.6972L48.125 17.6812C48.0129 17.5291 47.8689 17.377 47.7328 17.2249C47.6528 17.1449 47.5807 17.0568 47.4927 16.9928C47.3406 16.8407 47.1885 16.6967 47.0204 16.5686C46.8764 16.4645 46.7403 16.3525 46.5962 16.2644C46.5482 16.2164 46.4922 16.1844 46.4281 16.1524C46.3801 16.1123 46.3241 16.0883 46.276 16.0483C46.252 16.0243 46.228 16.0083 46.196 16.0003C46.196 16.0003 46.18 16.0003 46.18 15.9843C46.0759 15.9363 46.0039 15.8802 45.9159 15.8402C45.8278 15.7922 45.7398 15.7522 45.6597 15.7121H45.6437C45.7478 15.384 45.8598 15.0638 45.9719 14.7436C46.0759 14.4395 46.188 14.1353 46.3001 13.8392C46.5322 13.2549 46.7563 12.6946 47.0124 12.1823C47.7408 10.6135 48.5572 9.35685 49.4617 8.35633C49.6618 8.12421 49.8859 7.9081 50.11 7.716L50.134 7.724ZM26.6819 44.4951C26.978 44.7352 27.0101 45.1674 26.7699 45.4475C25.5373 46.5681 24.0165 43.1263 24.0805 42.1498C23.9365 41.2054 24.6568 38.4199 25.9535 39.2603C26.2177 39.5165 26.2497 39.9487 25.9935 40.2288C24.913 41.4615 25.4813 43.5266 26.6819 44.4951ZM27.8505 25.3571C28.0426 25.2691 28.2427 25.1891 28.4588 25.141C29.3793 24.8849 30.3798 24.9649 31.2843 25.3171C35.4464 27.1501 36.583 32.6969 36.3029 36.7951C36.0868 36.7791 35.6946 36.8111 35.4224 36.8191C33.2933 37.0192 31.1802 37.8916 29.6034 39.3964C29.5554 39.3724 29.4914 39.3324 29.4033 39.2924C24.8009 36.8351 23.072 27.2781 27.8505 25.3571V25.3571ZM31.0121 41.1893C31.4043 40.477 33.6455 38.524 34.2458 39.8607C34.4859 40.7171 33.4054 40.7491 32.9331 41.1253C35.1263 43.1984 38.5921 42.8062 40.7932 42.2619C42.9703 41.7256 43.9548 40.477 44.8993 40.2849C46.5162 40.0688 45.5637 42.9503 45.1395 43.5826C43.4106 42.3339 41.0493 42.6781 39.6966 43.5025C37.9037 42.9422 36.0628 43.5666 35.0062 45.2314C34.8141 44.9113 34.2298 43.9428 33.3734 42.9903C32.9011 42.454 32.4449 42.1658 32.0607 41.9978C31.5884 42.518 31.8686 43.7907 30.9401 43.8467C29.6114 43.6706 30.6119 41.7977 31.0041 41.1813L31.0121 41.1893ZM36.7431 45.2955C37.3434 44.7832 38.1839 44.5431 39.0003 44.7192C41.1134 45.1994 42.0739 46.7282 42.378 48.4171C42.5301 48.8093 43.2985 48.7132 43.4506 48.329C43.7307 46.8803 42.418 44.9513 40.8652 44.447C43.4986 43.2624 45.9959 45.3515 46.9644 48.1289C47.0444 48.3691 47.0765 48.6012 47.1325 48.8573C47.4126 50.7943 46.5962 53.1876 44.7633 53.964C42.9543 54.7564 40.8893 54.3722 39.7447 52.9474C39.0963 52.171 39.0403 50.9944 38.8802 50.106C38.8642 49.9299 38.8322 49.7458 38.7762 49.5857C38.48 48.6012 37.7676 47.3445 36.1908 46.312C35.8466 46.0719 36.495 45.5116 36.7511 45.3035L36.7431 45.2955ZM46.4521 34.8581C44.1069 34.1697 41.4095 34.4899 39.3284 35.8426C37.7196 32.9611 36.7831 29.3992 37.0633 26.0935C37.2394 22.2835 41.6737 20.3065 44.5952 22.7958C47.8449 25.7013 47.6287 31.0641 46.4521 34.8581ZM37.8957 7.87608C38.0398 7.87608 38.1759 7.89209 38.3199 7.90009C38.5841 7.9161 38.8642 7.94812 39.1203 7.98814C39.4485 8.03616 39.7687 7.90009 39.9848 7.64396C42.1139 5.12265 46.5562 5.0106 49.2216 6.41132C47.1485 8.23627 45.4996 11.0857 44.187 15.2159C43.7788 15.1679 43.0504 15.0718 42.402 15.1358C42.29 15.1519 42.1859 15.1599 42.0979 15.1839C41.9698 15.1999 41.8578 15.2319 41.7537 15.2879C41.6496 15.3279 41.5536 15.376 41.4575 15.44C41.3775 15.488 41.3295 15.5521 41.2815 15.6161C41.2334 15.6801 41.1934 15.7602 41.1694 15.8482C41.1214 15.9763 41.1054 16.1284 41.1294 16.3044C41.1454 16.3685 41.1694 16.4165 41.2094 16.4725C41.2094 16.4965 41.2254 16.5126 41.2334 16.5366L41.2494 16.5526C41.2895 16.6326 41.3375 16.6806 41.3935 16.7287C41.9378 17.2089 43.0264 16.6406 43.6987 16.8567C43.4026 17.8733 43.1384 18.9698 42.8823 20.1304C40.5131 19.5861 37.6876 20.7387 36.463 22.7078C36.0067 20.1304 35.6065 16.2884 36.6391 11.8061C36.9432 10.5335 37.3514 9.22078 37.9037 7.88409L37.8957 7.87608ZM36.1748 7.92411C35.7266 9.13273 35.3824 10.3173 35.1263 11.4299C33.5815 17.8653 34.7981 22.6037 35.4304 25.5733C35.3904 25.8694 35.3504 26.1335 35.3264 26.4297C34.0137 24.6688 32.2688 23.5882 30.3718 23.3481C29.0431 20.7708 27.2342 18.1374 25.5453 16.8647C26.4258 11.7021 31.2122 8.39635 36.1668 7.93211L36.1748 7.92411ZM23.3362 18.1934C23.6163 18.0814 23.9125 17.9613 24.2006 17.8653C25.4973 18.5376 27.2102 20.9068 28.5709 23.3801C24.3687 24.1565 22.5998 28.3587 23.5363 33.0731C19.9184 30.5919 16.7167 29.6954 15.0038 29.3752C15.4841 23.6923 19.0539 19.9703 23.3362 18.1934V18.1934ZM12.3705 35.1622C12.5226 33.8255 13.2109 32.745 14.4195 32.1206C14.8678 31.9045 15.0038 31.4323 14.9398 30.9761C16.8128 31.3603 20.4066 32.4648 24.3287 35.6105C24.3527 35.6985 24.3767 35.7785 24.4167 35.8506C22.7439 36.707 20.7508 39.3804 20.7748 42.1098C19.4381 42.5581 18.5417 42.8142 18.2935 42.8142C15.0199 43.0703 11.9783 38.588 12.3705 35.1702V35.1622ZM23.3922 57.4458C23 56.8855 22.6798 56.1171 21.8794 56.3972C19.4061 57.2216 15.9403 56.2932 16.2365 51.6428C16.4286 48.5692 19.3341 46.1279 21.151 45.0794C22.1996 48.8013 28.0426 50.138 32.0447 50.0739C31.0922 53.1475 28.5068 56.6373 25.3052 57.4538C24.7289 57.6058 24.1446 57.6539 23.5363 57.6299C23.4882 57.5658 23.4482 57.5018 23.3922 57.4378V57.4458ZM25.1211 59.0786C25.2732 59.0546 25.4413 59.0306 25.6013 58.9906C30.748 57.7659 33.0292 52.099 33.6935 50.0739C34.9262 50.0339 36.1748 49.9459 37.4235 49.7938C37.4715 49.9699 37.5115 50.162 37.5515 50.3541C37.6556 50.9144 37.7036 51.4987 37.8557 52.099C37.9357 52.3631 38.0718 52.8754 38.1118 53.0275C38.392 54.036 39.6566 57.91 43.1945 59.3107C38.0718 61.68 29.5714 62.1362 25.1131 59.0786H25.1211ZM47.0845 57.0135C46.228 56.8455 45.8598 57.814 45.1635 58.1821C43.0344 57.918 41.6737 56.6293 40.8412 55.3407C45.2835 56.9975 49.2216 53.1075 48.4452 48.6172C51.1826 51.0905 56.1692 53.8279 60.2033 53.3717C60.3313 53.3717 60.4674 53.3476 60.6115 53.3236C57.8581 57.2056 50.038 57.7819 47.0845 57.0215V57.0135ZM68.4635 45.0233C67.367 47.9929 63.637 49.4816 62.1803 49.9379C61.54 50.114 61.572 50.8423 61.4679 51.3786C61.0437 51.6348 60.5394 51.7708 59.9871 51.8349C56.2812 52.2191 50.2301 48.6332 48.8534 46.7522C50.8144 45.7357 52.5353 44.5351 53.6799 42.8942C58.5304 44.5111 64.4935 43.1263 66.1423 37.6675C68.3355 38.636 69.6081 42.0218 68.4635 45.0153V45.0233Z" fill="black"/>
<path d="M34.1577 33.0731V33.2012C34.0697 36.803 29.0591 37.9636 27.8264 34.6499C27.3142 33.3612 27.6824 31.9525 28.1946 30.952C28.2747 30.8079 28.4267 30.6879 28.5148 31.016C28.883 32.1206 30.2197 32.0005 30.5879 31.2482C31.2282 30.1996 30.2917 28.8149 29.3872 28.1666C29.0591 27.9104 29.1951 27.6303 29.7074 27.6863C32.3168 28.0545 34.1497 30.4477 34.1497 33.0731H34.1577Z" fill="black"/>
<path d="M22.9521 21.8914C23.9847 21.4592 24.609 23.02 23.6085 23.4522C21.8636 24.1726 21.2312 26.3177 21.3673 28.0146C21.4153 28.4948 21.0231 28.9351 20.5269 28.9351C20.0946 28.9351 19.7185 28.5989 19.6864 28.1507C19.4863 25.7974 20.4148 22.956 22.9601 21.8914H22.9521Z" fill="black"/>
<path d="M13.0189 45.7117C13.3791 45.8318 13.315 46.3601 12.9468 46.4161C9.393 46.8963 1.18875 44.287 0.108193 38.9402C-0.700226 34.7861 3.22181 33.7855 5.22284 35.4344C6.99176 36.8751 6.71962 39.7326 8.92876 42.6862C10.3055 44.5191 11.9543 45.3355 13.0189 45.7117V45.7117Z" fill="black"/>
<path d="M12.0582 48.225C12.3463 48.0009 12.7305 48.313 12.6025 48.6492C11.9541 50.3701 10.6815 52.8514 8.56036 53.4837C6.04706 54.2121 4.53428 52.8514 4.17409 51.4747C3.8139 50.0979 4.9585 48.3771 6.76743 48.3771C8.59238 48.4411 10.5374 49.4896 12.0582 48.225V48.225Z" fill="black"/>
</svg>
