<svg width="1221" height="523" viewBox="0 0 1221 523" fill="none" xmlns="http://www.w3.org/2000/svg">
<path fill-rule="evenodd" clip-rule="evenodd" d="M175.601 134.621L175.688 134.63L175.599 134.575L175.601 134.621ZM124.159 128.248C144.741 131.325 155.047 132.536 175.601 134.621C175.824 141.21 176.047 147.681 176.263 153.978C177.602 192.828 178.711 225.01 178.176 236.794C177.021 262.156 161.739 274.92 140.595 276.68C131.444 277.506 121.138 276.185 110.477 272.994C99.1048 269.583 93.4188 267.713 82.1356 263.587C59.8359 255.499 42.6891 243.286 29.8956 227.221V227.111C9.72811 201.584 0.84375 166.429 0.84375 122.857C0.84375 40.7737 33.1828 0.0622276 106.479 0.117243C143.882 0.117243 170.268 19.0426 174.711 50.1814C176.559 63.077 176.075 82.9089 175.808 93.875C175.741 96.6166 175.688 98.8041 175.688 100.19C155.076 98.5951 144.77 97.6048 124.159 95.2941C124.159 67.8964 116.074 56.6182 99.9043 55.2978C79.1149 53.5923 69.5198 68.8316 69.5198 103.877C69.5198 138.921 74.5839 159.882 99.3713 165.384C119.095 169.73 124.692 156.912 124.159 128.248ZM918.687 58.8176C917.976 38.957 918.598 19.7015 922.152 1.87649H798.481C797.504 9.46864 795.461 20.8569 789.863 34.8858C787.909 40.6625 784.533 48.1996 780.801 53.9212C778.225 58.0474 774.76 60.8532 770.673 61.4583C766.142 62.1185 762.677 60.413 760.101 56.782C756.281 51.4455 752.993 44.4035 750.95 38.7369C745.886 24.5429 743.398 11.5592 742.332 1.82148H618.484C622.038 33.1803 623.193 64.4842 622.571 93.6974L622.519 96.0357C621.734 131.454 620.814 172.927 613.687 215.612C645.937 205.269 666.193 198.777 701.997 188.434C694.89 158.451 687.782 105.471 687.782 85.3901C687.782 78.4581 689.115 71.5812 691.336 67.455C693.024 64.2091 696.4 62.1185 700.931 61.4583C704.929 60.8532 708.127 62.0635 710.526 64.5392C714.08 68.3353 717.101 75.5423 719.144 80.9889C725.63 99.6391 733.448 151.409 735.847 178.696L779.469 166.153C779.469 166.153 790.397 162.852 805.145 159.221C807.721 132.043 815.273 82.0341 821.669 64.7043C823.713 58.7076 826.201 53.151 830.287 49.4099C832.775 46.9892 835.796 45.6139 840.415 45.5588C844.947 45.4488 847.79 46.4941 850.011 48.6947C852.587 51.3355 852.942 56.727 853.031 62.6137C853.298 77.5229 846.102 121.59 839.527 152.234C839.527 152.344 839.527 152.454 839.438 152.509L840.308 152.38C844.37 151.776 847.892 151.252 853.12 150.584C865.114 148.933 876.664 148.108 887.503 148.108C901.984 147.778 916.643 148.493 929.437 149.483C922.063 115.539 919.486 83.2445 918.687 58.7076V58.8176ZM869.379 349.465C869.379 329.99 852.055 321.407 815.895 315.245C814.639 315.031 813.402 314.82 812.183 314.612C763.773 306.361 745.176 303.192 745.176 263.641C745.176 223.094 784 185.684 843.881 176.221C851.255 175.066 854.987 174.516 862.361 173.525C915.222 166.373 950.227 179.852 950.227 220.729C950.227 234.207 950.227 249.282 949.605 264.631C925.706 264.411 913.712 264.796 889.724 266.282C890.346 234.923 878.264 229.916 856.586 232.667C838.106 234.978 827.889 245.651 827.889 256.984C827.889 271.913 850.83 277.272 878.299 283.69C882.211 284.604 886.215 285.54 890.257 286.527C932.28 296.815 964.797 317.391 964.797 410.642C964.797 503.894 916.999 522.929 865.381 522.929H834.819C782.579 522.929 746.331 507.525 746.331 457.296V349.025C769.253 343.964 780.713 341.543 803.635 337.087C802.391 366.63 813.23 376.368 836.774 375.322C859.695 374.332 869.29 366.41 869.29 349.41L869.379 349.465ZM728.897 520.542V520.541C720.845 457.974 712.481 392.974 712.481 330.209L712.392 330.154C712.392 294.394 718.167 252.693 727.051 207.47C681.652 220.508 651.268 229.861 605.958 244.385C621.594 282.731 629.59 352.106 629.59 385.885C629.59 419.665 623.993 456.69 611.91 521.388H729.006L728.897 520.542ZM279.724 416.804C279.724 448.163 283.455 492.12 291.096 521.389C272.983 521.366 258.607 521.399 244.897 521.431C225.252 521.476 206.972 521.518 181.019 521.389C175.333 496.907 158.719 454.765 144.06 425.827C136.419 410.422 130.022 399.309 117.94 396.558C104.524 393.477 104.524 406.626 104.524 416.199C104.524 434.739 115.985 493.716 126.824 521.389H8.48437C20.5671 456.305 23.7655 393.918 23.7655 356.727C23.7655 324.818 19.3233 292.304 11.0608 249.612C54.5942 275.084 76.3609 284.162 119.983 296.98C127.002 320.032 139.706 346.109 151.167 364.429C159.43 377.633 174.711 394.358 185.55 395.788C197.815 397.435 197.08 386.21 196.455 376.67C196.432 376.328 196.41 375.989 196.389 375.652C195.643 364.54 192.823 356.036 188.617 343.353L188.617 343.353C185.805 334.876 182.375 324.532 178.531 310.294C225.885 317.996 249.606 318.601 296.96 316.071L296.759 316.844C286.651 355.759 279.724 382.427 279.724 416.804ZM561.358 398.759C561.761 400.131 562.167 401.519 562.578 402.922L562.578 402.923L562.58 402.929C572.696 437.45 585.411 480.842 600.094 521.388H478.556C482.998 494.651 484.331 473.36 483.709 442.276C483.176 433.914 482.909 429.678 482.465 421.095C459.544 425.991 448.083 428.302 425.161 432.648C424.539 439.03 424.006 445.632 423.917 452.124C423.295 479.577 424.539 495.806 428.359 521.443H303.09C317.749 497.457 332.675 466.318 342.359 437.27C357.906 390.561 362.704 370.371 372.921 307.873C434.578 298.262 466.603 288.448 525.804 270.305L525.86 270.288L526.61 270.059L529.743 269.098L533.373 267.987L533.656 269.841C541.099 318.568 544.601 341.495 561.447 398.814L561.358 398.759ZM477.668 385.5C475.713 374.717 473.314 365.199 469.405 356.067C465.141 345.944 461.765 342.973 453.502 345.119C444.618 347.429 441.508 352.106 437.599 364.099C433.957 375.047 431.202 385.94 428.715 397.053C448.349 392.707 458.122 390.396 477.756 385.5H477.668ZM1079.03 306.35C1075.78 306.001 1072.94 305.695 1069.54 305.068H1069.37C1070.7 254.288 1083.4 247.301 1117.16 257.699C1148.35 267.327 1160.43 283.391 1163.01 315.41C1177.84 320.747 1185.22 323.663 1199.97 330.1C1201.03 313.696 1202.44 297.488 1203.82 281.637L1203.82 281.635L1203.82 281.617C1204.97 268.395 1206.1 255.422 1206.98 242.79C1114.59 191.02 1057.99 177.486 973.414 174.021C983.631 219.573 991.805 292.744 991.805 337.307C991.733 386.339 986.079 437.518 980.578 487.323V487.324V487.324L980.577 487.326C979.313 498.767 978.058 510.135 976.879 521.389H1209.03C1207.77 496.319 1206.34 470.467 1204.89 444.438L1204.89 444.412L1204.89 444.39C1203.47 418.797 1202.04 393.034 1200.77 367.675C1185.48 362.119 1177.84 359.588 1162.56 355.022C1161.94 391.387 1148.53 398.979 1117.34 393.588C1084.82 387.976 1071.41 376.643 1069.54 327.624C1075.32 328.559 1079.14 329.219 1084.2 330.65C1099.48 335.381 1107.12 348.695 1112.9 371.966C1121.87 373.672 1126.31 374.552 1135.2 376.533C1130.13 340.773 1132.62 311.339 1135.2 283.226C1126.49 280.421 1122.14 279.1 1113.52 276.625C1107.75 296.485 1101.44 309.029 1084.2 306.938C1082.3 306.703 1080.62 306.521 1079.03 306.35ZM352.042 136.335C340.137 136.61 334.185 136.665 322.191 136.775C323.257 179.412 315.616 189.755 294.916 189.7C274.215 189.645 269.596 178.036 269.596 129.238C269.596 90.4516 274.127 53.2611 283.189 1.93161H191.769C200.831 50.6204 203.851 86.2705 203.851 125.662C203.851 167.969 200.298 232.227 191.769 286.747C252.804 294.834 286.387 295.715 341.914 288.453C346.356 287.847 358.173 285.922 358.173 285.922C356.591 256.397 355.785 233.978 354.904 209.473L354.904 209.469L354.904 209.468L354.904 209.465L354.904 209.46C354.152 188.534 353.345 166.085 351.954 136.39L352.042 136.335ZM573.174 125.717C580.814 155.48 590.32 190.69 601.781 220.123C601.781 220.123 576.905 228.486 567.932 231.346C552.917 236.133 507.518 249.832 507.518 249.832C507.341 249.887 507.141 249.942 506.941 249.997L506.939 249.997C506.74 250.052 506.541 250.107 506.363 250.162C509.473 220.123 510.45 197.787 509.917 166.043C509.473 157.075 509.295 152.564 508.94 143.377C490.816 147.173 481.665 148.988 463.452 152.509C463.008 160.046 462.563 167.969 462.475 175.891C461.941 208.57 462.919 229.366 465.673 262.43C432.712 272.058 410.057 277.945 370.166 284.216C380.413 249.632 388.112 210.057 395.021 174.542C395.959 169.719 396.883 164.972 397.796 160.321C410.146 97.3285 414.321 65.7496 422.406 1.87655H549.275C555.316 48.4747 559.669 73.5618 573.174 125.717ZM471.803 76.5877C468.96 87.7558 466.739 99.3641 464.784 111.578V111.633L467.379 111.229L467.38 111.228L467.384 111.228C481.254 109.069 489.041 107.857 503.698 105.471C502.188 94.0276 500.233 83.8497 497.124 73.7269C493.659 62.5037 491.082 58.7626 484.508 59.3678C477.4 59.973 475.001 64.2642 471.803 76.5877ZM1118.23 0.721241C1052.57 0.61121 1016.68 19.4265 1016.68 76.2576C1016.68 133.089 1045.47 157.791 1109.61 176.771C1115.44 178.474 1118.62 179.499 1124.2 181.299L1125.34 181.667C1190.55 203.288 1220.84 195.531 1220.84 115.319C1220.84 35.106 1184.95 0.886288 1118.23 0.721241ZM1118.23 106.461C1097 101.895 1086.87 90.0665 1086.87 71.8563C1086.87 43.0832 1097.97 32.9604 1118.23 34.6108C1139.46 36.3163 1150.57 50.2903 1150.57 82.4193C1150.57 102.61 1140.44 111.302 1118.23 106.461ZM1003.98 66.2997C1003.71 69.5457 1003.53 72.8466 1003.53 76.3126V76.3676C1003.53 81.8141 1003.8 87.0956 1004.33 92.102C982.655 90.5616 956.002 90.0114 933.702 89.6263C932.991 81.264 932.369 72.7366 932.014 64.0991C954.58 64.4842 981.855 64.9794 1003.98 66.2997Z" fill="#F8ECE2"/>
</svg>
