<svg xmlns="http://www.w3.org/2000/svg" fill="none" viewBox="0 0 548 83" height="83" width="548">
<path fill="black" d="M32.2263 82.7614C43.1594 82.7614 53.4555 77.4541 60.6735 69.1747C63.221 66.0965 60.0366 62.169 56.9584 65.2473C51.1203 71.4038 42.9471 75.3312 34.3492 75.3312C16.8351 75.3312 4.52215 62.2752 6.32663 45.9287C8.13112 29.3699 22.3547 15.8893 37.7459 15.8893C51.2265 15.8893 64.6009 23.638 63.4333 37.1185C62.9025 43.9119 58.4444 48.6885 53.2432 48.6885C48.4667 48.6885 46.556 44.5488 49.7404 37.6493C51.8633 33.1911 53.5617 30.5375 53.5617 27.4592C53.5617 25.7609 52.8187 24.5933 50.8019 24.5933C47.0868 24.5933 46.4499 27.5654 43.9024 27.5654C41.7795 27.5654 42.0979 24.5933 35.7291 24.5933C22.0363 24.5933 15.2429 41.2582 15.2429 52.2974C15.2429 59.4092 18.0027 64.292 23.4162 64.292C29.0419 64.292 33.8185 59.1969 37.0029 52.722H37.3213C36.366 59.4092 38.7012 64.292 44.2208 64.292C56.9584 64.292 67.6791 52.2974 68.8467 38.2861C70.3328 19.6044 55.26 8.45906 39.8688 8.45906C20.6564 8.45906 3.35454 24.9117 1.01932 45.2918C-1.31589 65.8841 12.8015 82.7614 32.2263 82.7614ZM31.3771 47.8393C28.9358 47.8393 27.3436 46.2471 27.3436 43.5935C27.3436 40.0906 29.9972 36.1632 34.1369 36.1632C36.6844 36.1632 38.2766 37.7554 38.2766 40.4091C38.2766 43.6996 35.5168 47.8393 31.3771 47.8393Z"></path>
<path fill="black" d="M90.3583 76.7205C102.777 76.7205 114.135 67.5919 123.476 50.2901C124.644 48.2733 120.398 45.0889 118.699 47.6364C108.722 62.0723 87.8108 61.2231 87.8108 46.9995C87.8108 41.6922 90.5706 36.7034 95.3472 36.7034C98.5316 36.7034 99.6992 38.5079 99.6992 40.4185C99.6992 44.2397 97.2578 44.6643 97.2578 46.4688C97.2578 47.8487 99.0623 49.4409 102.777 49.4409C107.342 49.4409 113.604 45.8319 113.604 36.7034C113.604 29.8039 109.146 23.6474 98.9561 23.6474C82.1851 23.6474 71.995 41.1615 71.995 56.022C71.995 67.0612 77.6208 76.7205 90.3583 76.7205Z"></path>
<path fill="black" d="M124.211 76.7205C138.54 76.7205 145.758 56.1281 149.155 50.2901C150.323 48.2733 146.077 45.0889 144.378 47.6364C142.149 51.0331 139.496 53.0499 135.781 53.0499C129.412 53.0499 130.261 46.9995 132.065 40.8431C134.507 31.9268 138.647 22.1613 144.485 10.3791C147.775 3.6919 146.289 0.401367 141.937 0.401367C133.339 0.401367 128.456 16.6417 117.736 47.6364C115.613 53.6868 114.127 60.374 114.127 65.7874C114.127 72.05 116.674 76.7205 124.211 76.7205Z"></path>
<path fill="black" d="M152.122 76.7205C159.658 76.7205 166.027 69.821 170.273 61.2231H170.698C169.424 70.0333 172.502 76.7205 179.826 76.7205C191.608 76.7205 197.447 60.1617 202.648 50.2901C203.709 48.2733 199.463 45.0889 197.871 47.6364C195.748 51.0331 193.095 53.0499 189.486 53.0499C184.815 53.0499 183.648 48.804 187.257 41.0554C189.592 34.8989 192.352 31.6083 192.352 27.5748C192.352 25.2396 191.396 23.6474 188.636 23.6474C183.648 23.6474 182.905 27.6809 179.402 27.6809C176.642 27.6809 177.066 23.6474 168.575 23.6474C150.318 23.6474 141.189 45.9381 141.189 60.6924C141.189 70.1394 144.904 76.7205 152.122 76.7205ZM162.737 54.7482C159.446 54.7482 157.429 52.6253 157.429 49.0163C157.429 44.3459 160.932 39.1447 166.452 39.1447C169.849 39.1447 171.971 41.2676 171.971 44.7705C171.971 49.2286 168.256 54.7482 162.737 54.7482Z"></path>
<path fill="black" d="M201.021 76.7205C208.557 76.7205 209.937 70.8824 209.937 65.469V60.6924C209.937 51.2454 215.244 42.4353 221.401 42.4353C223.842 42.4353 225.434 43.709 225.434 46.575C225.434 51.9884 220.127 59.2064 220.127 67.2735C220.127 74.2791 223.736 76.5082 228.619 76.5082C236.58 76.5082 238.066 70.6702 238.066 66.212C238.066 63.1338 237.323 62.0723 237.323 58.9941C237.323 51.0331 242.63 42.223 248.786 42.223C251.228 42.223 252.82 43.4967 252.82 45.9381C252.82 50.2901 248.362 57.4019 248.362 65.469C248.362 71.5193 250.697 76.7205 257.49 76.7205C271.82 76.7205 279.038 56.1281 282.435 50.2901C283.602 48.2733 279.357 45.0889 277.658 47.6364C275.535 50.8208 273.519 53.0499 270.334 53.0499C266.725 53.0499 265.133 51.2454 265.133 47.5303C265.133 42.223 268.53 38.8263 268.53 33.2005C268.53 27.8932 265.451 23.4351 257.172 23.4351C252.077 23.4351 247.513 25.8765 243.479 30.3346C241.887 32.1391 241.144 31.7145 240.825 30.3346C239.764 26.5133 236.792 23.6474 231.591 23.6474C226.92 23.6474 222.674 25.8765 218.747 29.6977C215.35 33.0944 213.015 31.2899 213.015 27.6809C213.015 25.558 212.166 23.6474 209.725 23.6474C205.479 23.6474 201.127 34.5804 196.775 47.6364C193.803 56.3404 193.272 63.9829 193.272 68.9718C193.272 73.4299 196.032 76.7205 201.021 76.7205Z"></path>
<path fill="black" d="M327.092 47.6364C324.545 51.3515 321.679 52.8376 318.601 52.8376H317.858C318.919 49.3348 319.45 45.6196 319.45 41.9045C319.45 28.5301 312.657 23.6474 303.953 23.6474C287.075 23.6474 274.762 42.966 274.762 58.8879C274.762 69.9271 281.662 76.7205 291.215 76.7205C299.176 76.7205 306.712 72.05 312.02 64.8321H313.293C323.59 64.8321 328.791 56.765 331.869 50.2901C333.037 47.8487 328.366 45.8319 327.092 47.6364ZM297.265 54.7482C293.232 54.7482 291.746 52.0946 291.746 49.0163C291.746 44.3459 295.249 39.1447 300.45 39.1447C304.589 39.1447 306.288 41.6922 306.288 44.7705C306.288 49.2286 302.573 54.7482 297.265 54.7482Z"></path>
<path fill="black" d="M330.233 76.7205C337.557 76.7205 338.937 70.8824 338.937 65.469V60.6924C338.937 51.2454 344.244 42.4353 350.401 42.4353C352.842 42.4353 354.434 43.709 354.434 46.1504C354.434 50.5024 349.976 57.6142 349.976 65.6813C349.976 71.6255 352.311 76.7205 358.999 76.7205C373.328 76.7205 380.546 56.1281 383.943 50.2901C385.11 48.2733 380.865 45.0889 379.166 47.6364C377.043 50.8208 375.027 53.0499 371.842 53.0499C368.339 53.0499 366.747 51.3515 366.747 47.7426C366.747 42.4353 370.144 39.0386 370.144 33.4128C370.144 28.1055 367.066 23.6474 360.591 23.6474C355.92 23.6474 351.674 25.8765 347.747 29.6977C344.35 33.0944 342.227 31.8206 342.227 27.6809C342.227 25.558 341.591 23.6474 338.725 23.6474C334.797 23.6474 329.49 35.2173 325.987 47.6364C323.546 56.3404 322.484 63.9829 322.484 68.9718C322.484 73.4299 325.244 76.7205 330.233 76.7205Z"></path>
<path fill="black" d="M386.912 76.7205C394.449 76.7205 400.818 69.821 405.063 61.2231H405.488C404.214 70.0333 407.293 76.7205 414.617 76.7205C426.399 76.7205 432.237 60.1617 437.438 50.2901C438.5 48.2733 434.254 45.0889 432.662 47.6364C430.539 51.0331 427.885 53.0499 424.276 53.0499C419.605 53.0499 418.438 48.804 422.047 41.0554C424.382 34.8989 427.142 31.6083 427.142 27.5748C427.142 25.2396 426.187 23.6474 423.427 23.6474C418.438 23.6474 417.695 27.6809 414.192 27.6809C411.432 27.6809 411.857 23.6474 403.365 23.6474C385.108 23.6474 375.979 45.9381 375.979 60.6924C375.979 70.1394 379.695 76.7205 386.912 76.7205ZM397.527 54.7482C394.237 54.7482 392.22 52.6253 392.22 49.0163C392.22 44.3459 395.723 39.1447 401.242 39.1447C404.639 39.1447 406.762 41.2676 406.762 44.7705C406.762 49.2286 403.047 54.7482 397.527 54.7482Z"></path>
<path fill="black" d="M450.459 19.2954C455.979 19.2954 460.331 17.1725 460.968 10.5914C461.498 4.01034 457.146 1.99356 451.733 1.99356C445.895 1.99356 441.118 4.22263 441.118 11.759C441.118 17.3848 445.364 19.2954 450.459 19.2954ZM438.677 76.7205C452.37 76.7205 459.163 55.9158 462.56 50.1839C463.621 48.2733 459.482 45.0889 457.783 47.6364C455.66 50.8208 453.644 52.9437 450.459 52.9437C447.593 52.9437 445.683 51.1392 445.683 47.6364C445.683 41.9045 450.459 34.8989 450.459 28.424C450.459 25.0273 449.079 23.6474 446.85 23.6474C440.8 23.6474 436.448 32.2452 431.565 47.6364C429.973 52.7314 428.912 58.4633 428.912 63.4522C428.912 70.8824 431.565 76.7205 438.677 76.7205Z"></path>
<path fill="black" d="M497.81 47.6364C495.687 50.8208 493.458 53.156 490.274 53.2622C488.894 46.6811 483.268 38.1894 483.268 36.1726C483.268 31.9268 491.017 31.6083 490.911 28.2117C491.017 24.815 487.833 20.9937 481.252 20.9937C472.123 20.9937 464.587 36.8095 457.05 46.9995L456.626 47.6364C450.257 58.251 452.486 76.6143 471.168 76.6143C490.911 76.6143 499.615 56.4466 502.587 50.2901C503.542 48.2733 499.509 45.0889 497.81 47.6364ZM467.346 54.7482C463.844 54.7482 461.402 52.8376 461.402 50.2901C463.844 47.2118 467.134 42.8598 469.788 38.9324C470.743 37.5525 471.592 37.5525 472.335 38.9324C473.821 41.7984 474.67 44.452 474.67 46.9995C474.67 51.3515 472.017 54.7482 467.346 54.7482Z"></path>
<path fill="black" d="M514.127 76.7205C526.44 76.7205 537.691 67.5919 547.032 50.2901C548.2 48.2733 543.954 45.0889 542.256 47.6364C537.479 54.9605 528.881 58.6756 521.663 58.6756C515.613 58.6756 510.624 56.765 510.624 53.0499C510.624 51.67 511.686 51.3515 512.429 51.7761C514.87 53.156 517.736 53.4745 520.708 53.4745C531.11 53.4745 537.798 44.7705 537.798 37.0218C537.798 30.0162 533.446 23.6474 523.574 23.6474C493.11 23.6474 484.3 76.7205 514.127 76.7205ZM517.948 45.5135C514.552 45.5135 512.959 43.4967 512.959 41.1615C512.959 38.2956 515.507 35.2173 519.647 35.2173C522.937 35.2173 524.529 37.2341 524.529 39.5693C524.529 42.223 522.088 45.5135 517.948 45.5135Z"></path>
</svg>
