<svg xmlns="http://www.w3.org/2000/svg" fill="none" viewBox="0 0 352 101" height="101" width="352">
<path fill="#F8ECE2" d="M180.204 53.8802C174.637 53.807 171.8 53.7707 166.208 53.9465C167.324 42.6354 167.942 29.941 167.778 22.8055C167.6 16.7335 166.907 10.5296 165.221 1.43424C170.77 1.25687 173.543 1.23075 179.025 1.30278C190.954 1.45956 197.411 10.6802 195.636 32.9331C194.322 49.4978 188.199 54.0478 180.204 53.8802ZM180.676 32.6739C184.158 32.7197 187.6 30.9503 187.956 23.5087C188.31 16.1922 185.293 10.1455 180.135 10.0151C176.009 9.96089 175.391 12.7686 175.415 20.7783C175.412 30.7901 176.743 32.5597 180.741 32.6122L180.676 32.6739ZM150.903 55.4349C159.556 54.61 162.744 47.5811 161.775 28.1079C160.804 8.69733 154.839 1.29781 144.248 2.34753C133.721 3.39809 129.421 11.6013 132.521 30.9773C135.621 50.2282 140.053 56.5438 148.578 55.6547C149.046 55.596 149.393 55.5693 149.753 55.5416C150.089 55.5158 150.436 55.4891 150.903 55.4349ZM153.385 23.6175C153.819 29.818 152.094 33.4872 147.574 33.9284C143.182 34.3713 140.708 31.2101 139.888 24.9419C138.774 16.4173 140.898 11.8773 145.225 11.4336C149.681 10.9915 152.722 15.1614 153.385 23.6175ZM99.6214 31.4836C97.8336 25.2027 94.7014 18.1533 91.6141 12.6062C99.9646 10.2756 104.17 9.2671 112.641 7.56379C117.621 6.56547 124.916 5.97304 126.417 14.5028C127.296 19.6711 123.948 23.0342 121.618 25.3747L121.618 25.3749C121.092 25.9027 120.619 26.3786 120.257 26.8114C119.341 27.8006 119.397 28.4271 120.283 29.6902C120.557 30.0787 120.936 30.5908 121.401 31.2187L121.403 31.2214L121.403 31.2216C124.49 35.3923 131.352 44.6638 136.181 56.7432C130.429 57.6062 127.585 58.132 121.894 59.3087C120.469 49.9039 116.654 35.9624 114.301 33.4285C113.92 32.923 113.471 32.7293 112.889 32.9094C111.789 33.1452 110.098 34.2493 108.795 35.2334C110.907 41.3934 114.716 50.8921 118.724 60.0179C113.29 61.2606 110.637 61.914 105.264 63.4703C103.636 49.8704 101.603 37.767 99.7512 31.4227L99.6214 31.4836ZM111.912 28.7041C115.625 25.8745 117.732 22.6484 117.125 19.762C116.517 16.9382 114.332 16.3463 110.84 17.0513C108.253 17.5805 106.818 18.8131 106.282 20.3078C105.679 22.052 106.204 26.2513 107.431 31.0856C107.429 31.2107 107.428 31.2733 107.555 31.4627C109.115 30.5446 110.936 29.3796 111.912 28.7041ZM92.0162 32.2177C92.2865 32.1397 92.5779 32.0555 92.9076 31.9585C91.2636 24.5532 90.4738 20.8509 88.9595 13.3848C75.6885 17.1525 69.1444 19.4443 56.3042 24.7821C58.1107 27.8987 59.8357 31.0341 61.5593 34.167L61.5596 34.1675L61.5597 34.1677L61.5598 34.1678L61.5603 34.1687L61.5604 34.169L61.5605 34.1693L61.5607 34.1695L61.5608 34.1698L61.561 34.1701C62.9054 36.6138 64.249 39.056 65.6299 41.4866C66.5271 41.1089 67.1138 40.8768 67.8408 40.5891L67.8432 40.5882C68.1666 40.4602 68.5179 40.3212 68.9367 40.1535C67.5029 36.3802 66.3196 33.1734 66.8626 31.1156C67.1313 30.3057 67.5909 29.686 68.6275 29.3242C70.3777 28.6589 72.1154 28.932 74.0503 33.8382L75.2989 36.9833C78.355 44.9077 81.356 57.0239 83.8859 70.6356C89.5257 68.4571 92.3116 67.4925 98.0109 65.6902C91.1359 53.8986 85.6647 43.2517 82.5556 34.4505C82.2896 33.6418 82.0928 33.0925 81.8803 32.4991L81.88 32.4984C81.7458 32.1236 81.6052 31.7311 81.4369 31.2446C79.7591 26.4043 80.8097 24.979 82.5582 24.4388C83.5296 24.1387 84.3017 24.274 85.0045 24.7838C86.7299 25.9954 88.1042 29.3924 89.4107 33.0389C90.4565 32.6679 91.119 32.4766 92.0162 32.2177ZM61.0852 48.6855C65.35 57.8773 71.3354 68.6561 74.6799 74.2691C69.8156 76.3327 67.4141 77.49 62.6102 79.8673C57.9445 71.7339 50.7224 61.8149 45.3144 56.1748C42.3884 53.0702 39.7081 50.9075 37.7596 51.9456C35.5947 53.0828 37.432 56.3178 38.7523 58.6423L38.8307 58.7803C41.732 63.7617 51.1309 74.8982 57.6757 82.3679C52.7404 84.9312 50.3364 86.2762 45.526 89.1539C40.3292 77.2592 33.6575 64.7194 29.4887 58.0318C26.3311 52.9218 22.2641 48.3005 17.8062 43.9869C23.3962 40.6813 26.1904 39.0911 31.9044 36.1627C33.8077 38.5655 38.011 42.6255 41.7092 45.8653C44.3871 48.2157 48.9929 51.0921 50.8753 50.1782C52.7293 49.2801 51.3209 46.6392 50.1037 44.3566C49.9998 44.1619 49.8974 43.9698 49.7985 43.7816C47.4081 39.1823 43.6463 35.879 39.4364 32.3195C45.6027 29.3345 48.6523 27.9353 54.9426 25.3273C55.1266 30.9614 56.693 39.3669 61.0199 48.7472L61.0852 48.6855ZM23.5774 65.0828C23.5774 65.0828 33.6604 83.0927 41.8678 91.648C37.1218 94.5266 34.7798 96.0601 30.1595 99.1907L29.8364 98.5056L29.8363 98.5053C24.8853 88.0089 19.0831 75.7079 15.3021 70.4532C11.4385 65.0837 6.64821 58.7327 1.15603 54.5933C5.18264 51.8263 8.06422 50.0819 11.6056 47.9382L11.6056 47.9381L11.6064 47.9377L11.6093 47.9359L11.6107 47.9351L11.6135 47.9334L11.6151 47.9324L11.6159 47.9319C12.7079 47.2709 13.8628 46.5717 15.1334 45.7929C17.113 52.2014 23.5774 65.0828 23.5774 65.0828ZM227.292 35.2987L227.293 35.298C227.651 31.8814 227.994 28.6137 228.487 26.2314C229.936 19.0545 232.993 12.2115 236.022 7.43318C229.847 6.16313 226.759 5.62195 220.579 4.72728C221.531 10.8094 221.725 20.5735 220.469 27.8155C219.349 34.4962 217.267 35.908 213.598 35.3592C209.992 34.8738 208.342 32.8498 209.203 26.2283C210.205 18.67 213.293 9.51227 215.879 4.10235C209.698 3.27024 206.607 2.91675 200.358 2.39661C201.77 7.79651 202.771 15.1308 202.029 22.5047C201.782 24.9388 201.162 28.1445 200.515 31.4893L200.514 31.4897L200.514 31.4901L200.514 31.4902C199.799 35.1866 199.051 39.0527 198.738 42.2348C197.836 51.9844 201.463 55.7239 208.738 56.6956C209.382 56.7979 209.865 56.8668 210.348 56.9357C210.83 57.0047 211.313 57.0736 211.957 57.1759C219.295 58.2735 223.843 55.7052 225.84 46.0951C226.488 42.9632 226.9 39.0417 227.292 35.2987ZM253.048 56.5896C250.575 63.1899 245.784 64.5661 241.478 63.3832C240.74 63.1858 240.193 63.0379 239.647 62.8899L239.647 62.8899C239.101 62.7419 238.554 62.5939 237.815 62.3965C229.716 60.3502 229.317 51.397 233.155 34.2396C237.057 17.0206 244.394 8.41923 256.09 11.5765C261.681 13.0892 264.924 16.6359 263.96 21.3163C263.547 23.4443 262.269 27.1978 261.527 29.3784L261.526 29.381L261.526 29.3817C261.398 29.758 261.286 30.0872 261.197 30.3531C260.675 30.1951 260.208 30.0529 259.773 29.9202L259.77 29.9191C258.226 29.4482 257.076 29.0974 255.222 28.5851C256.772 23.537 255.387 20.9533 252.045 20.0334C247.546 18.8479 244.471 22.1239 242.771 28.7969C241.004 35.7194 241.197 40.6653 245.759 41.9141C249.037 42.7707 251.577 40.9268 253.33 35.1305L253.331 35.1308L253.331 35.1309C255.644 35.7868 256.8 36.1148 259.112 36.8334C258.47 38.9526 257.831 41.0885 257.217 43.1439L257.208 43.1718L257.208 43.1723L257.208 43.173L257.207 43.1752C255.44 49.0865 253.873 54.3281 252.983 56.5887L253.048 56.5896ZM265.826 70.7114C268.104 59.2904 271.959 45.7 274.361 39.5993L274.426 39.5376C276.828 33.437 281.17 26.9863 285.303 21.6593C279.463 19.4551 276.51 18.4151 270.602 16.4602C270.32 23.2145 269.381 30.8361 267.172 37.0019C264.898 43.1668 258.732 55.9134 252.987 66.1626C258.188 67.8578 260.756 68.7676 265.826 70.7114ZM310.281 59.5318C305.2 68.2879 299.83 79.3555 297.172 85.3276C292.497 82.7633 290.128 81.4806 285.321 79.1648C289.302 70.7071 293.259 59.183 294.712 51.6307C295.541 47.5117 295.778 44.1358 293.791 43.2337C291.547 42.203 289.888 45.7479 288.825 48.1117C286.435 53.3365 282.768 67.3048 280.45 76.8481C275.45 74.5298 272.884 73.4949 267.815 71.4885C274.54 60.3762 280.962 47.6955 284.024 40.4772C286.353 35.0013 287.785 29.0757 288.767 23.0815C294.67 25.4117 297.62 26.7019 303.454 29.3441C302.577 32.2736 301.729 37.9566 301.214 42.7681C300.846 46.2673 301.228 51.5286 303.086 52.4916C304.941 53.4221 306.209 50.8594 307.365 48.5211L307.366 48.5205C307.487 48.2755 307.607 48.0328 307.726 47.797C310.109 43.1978 310.624 38.3238 311.018 32.8851C317.105 35.9061 320.18 37.5108 326.134 40.8429C321.574 44.3497 315.494 50.5271 310.282 59.4693L310.281 59.5318ZM343.713 74.2733C343.727 74.2616 343.74 74.25 343.754 74.2385L343.753 74.3011C343.74 74.2918 343.726 74.2825 343.713 74.2733ZM332.295 87.3535C337.647 80.3297 341.236 76.3771 343.713 74.2733C342.469 73.4125 340.995 72.4316 339.407 71.3747C337 69.7722 334.33 67.995 331.799 66.1971L330.485 68.057C333.798 71.1667 334.224 73.1121 332.121 76.088C330.085 78.8145 327.25 78.6521 324.82 77.0558C320.983 74.565 320.578 70.993 325.646 63.2379C329.925 56.6613 333.879 55.1489 338.163 57.9584C341.425 60.0662 342.167 62.5164 339.666 66.3005C341.903 67.8314 342.989 68.5966 345.162 70.1264L345.163 70.1271C347.132 67.5249 349.303 64.2371 350.17 62.0584C351.903 57.7636 349.108 54.5356 344.313 51.3439C333.763 44.3847 324.214 49.578 313.535 67.0834C302.397 85.2086 305.615 90.6322 312.266 94.9746C312.718 95.226 312.973 95.3978 313.339 95.645C313.44 95.713 313.549 95.7866 313.673 95.8691C317.317 98.2948 321.176 99.159 323.688 99.3797C325.073 97.0827 329.539 90.9466 332.295 87.3535Z" clip-rule="evenodd" fill-rule="evenodd"></path>
<path fill="black" d="M166.208 53.9465L165.396 53.8665C165.373 54.0999 165.452 54.332 165.612 54.5033C165.773 54.6746 165.999 54.7686 166.233 54.7613L166.208 53.9465ZM180.204 53.8802L180.221 53.0652L180.215 53.0651L180.204 53.8802ZM167.778 22.8055L168.593 22.7867L168.593 22.7816L167.778 22.8055ZM165.221 1.43424L165.195 0.619542C164.957 0.627134 164.735 0.738005 164.586 0.923125C164.437 1.10824 164.376 1.34918 164.419 1.58284L165.221 1.43424ZM195.636 32.9331L194.823 32.8682L194.823 32.8686L195.636 32.9331ZM187.956 23.5087L187.141 23.4693L187.141 23.4697L187.956 23.5087ZM180.676 32.6739L180.116 32.0814C179.875 32.3094 179.796 32.6609 179.917 32.9702C180.037 33.2794 180.334 33.4846 180.665 33.489L180.676 32.6739ZM180.135 10.0151L180.156 9.20021L180.146 9.20008L180.135 10.0151ZM175.415 20.7783L176.23 20.7785L176.23 20.7759L175.415 20.7783ZM180.741 32.6122L181.301 33.2047C181.543 32.9767 181.621 32.6252 181.501 32.316C181.38 32.0067 181.084 31.8015 180.752 31.7972L180.741 32.6122ZM161.775 28.1079L162.589 28.0674L162.589 28.0672L161.775 28.1079ZM150.903 55.4349L150.825 54.6235C150.82 54.624 150.814 54.6246 150.809 54.6252L150.903 55.4349ZM144.248 2.34753L144.168 1.53638L144.167 1.53644L144.248 2.34753ZM132.521 30.9773L131.716 31.1061L131.716 31.1069L132.521 30.9773ZM148.578 55.6547L148.663 56.4654C148.668 56.4648 148.674 56.4642 148.679 56.4635L148.578 55.6547ZM149.753 55.5416L149.816 56.3543L149.753 55.5416ZM147.574 33.9284L147.494 33.1171L147.492 33.1174L147.574 33.9284ZM153.385 23.6175L154.198 23.5605L154.197 23.5538L153.385 23.6175ZM139.888 24.9419L139.08 25.0475L139.08 25.0477L139.888 24.9419ZM145.225 11.4336L145.145 10.6224L145.142 10.6227L145.225 11.4336ZM91.6141 12.6062L91.395 11.8211C91.1545 11.8882 90.958 12.0619 90.8619 12.2923C90.7657 12.5227 90.7804 12.7845 90.9019 13.0026L91.6141 12.6062ZM99.6214 31.4836L98.8374 31.7067C98.9029 31.9366 99.0659 32.1262 99.2835 32.2253C99.501 32.3244 99.7511 32.3231 99.9675 32.2216L99.6214 31.4836ZM112.641 7.56379L112.481 6.76458L112.481 6.76467L112.641 7.56379ZM126.417 14.5028L127.22 14.3661L127.219 14.3616L126.417 14.5028ZM121.618 25.3747L121.04 24.7996L121.037 24.8025L121.618 25.3747ZM121.618 25.3749L122.195 25.9499L122.198 25.947L121.618 25.3749ZM120.257 26.8114L120.855 27.3652C120.864 27.3551 120.873 27.3448 120.882 27.3342L120.257 26.8114ZM120.283 29.6902L119.616 30.1584L119.617 30.1593L120.283 29.6902ZM121.401 31.2187L122.056 30.7345L122.056 30.7338L121.401 31.2187ZM121.403 31.2214L120.747 31.7057C120.753 31.7144 120.76 31.7229 120.767 31.7313L121.403 31.2214ZM121.403 31.2216L122.058 30.7367C122.052 30.7283 122.045 30.72 122.039 30.7118L121.403 31.2216ZM136.181 56.7432L136.302 57.5493C136.548 57.5124 136.764 57.3648 136.888 57.1488C137.012 56.9328 137.03 56.6719 136.938 56.4407L136.181 56.7432ZM121.894 59.3087L121.088 59.4308C121.121 59.652 121.244 59.8497 121.428 59.9776C121.611 60.1055 121.839 60.1522 122.059 60.1069L121.894 59.3087ZM114.301 33.4285L113.649 33.9185C113.666 33.941 113.684 33.9626 113.703 33.9832L114.301 33.4285ZM112.889 32.9094L113.06 33.7064C113.083 33.7014 113.106 33.6953 113.129 33.6882L112.889 32.9094ZM108.795 35.2334L108.304 34.583C108.022 34.7954 107.91 35.1644 108.024 35.4978L108.795 35.2334ZM118.724 60.0179L118.906 60.8125C119.143 60.7584 119.343 60.6013 119.452 60.3842C119.561 60.1672 119.568 59.9127 119.47 59.6902L118.724 60.0179ZM105.264 63.4703L104.454 63.5672C104.483 63.8047 104.614 64.0178 104.814 64.1499C105.013 64.282 105.26 64.3198 105.49 64.2533L105.264 63.4703ZM99.7512 31.4227L100.534 31.1943C100.467 30.9658 100.304 30.7778 100.087 30.6798C99.8696 30.5818 99.6206 30.5836 99.4051 30.6847L99.7512 31.4227ZM117.125 19.762L117.922 19.5943L117.921 19.5905L117.125 19.762ZM111.912 28.7041L112.376 29.3744C112.386 29.3674 112.396 29.36 112.406 29.3525L111.912 28.7041ZM110.84 17.0513L110.678 16.2523L110.676 16.2527L110.84 17.0513ZM106.282 20.3078L105.515 20.0329L105.512 20.0413L106.282 20.3078ZM107.431 31.0856L108.246 31.0963C108.247 31.0251 108.238 30.9542 108.221 30.8852L107.431 31.0856ZM107.555 31.4627L106.877 31.9154C107.117 32.2748 107.596 32.3844 107.968 32.1652L107.555 31.4627ZM92.9076 31.9585L93.1378 32.7404C93.5491 32.6194 93.7963 32.2004 93.7033 31.7818L92.9076 31.9585ZM92.0162 32.2177L91.7902 31.4345L92.0162 32.2177ZM88.9595 13.3848L89.7584 13.2228C89.7132 13.0003 89.5774 12.8067 89.3835 12.6886C89.1896 12.5705 88.9553 12.5387 88.7369 12.6007L88.9595 13.3848ZM56.3042 24.7821L55.9913 24.0294C55.7745 24.1195 55.6071 24.2988 55.5319 24.5212C55.4568 24.7436 55.4812 24.9877 55.599 25.1908L56.3042 24.7821ZM61.5593 34.167L60.8451 34.5599L60.8493 34.5674L61.5593 34.167ZM61.5596 34.1675L60.8495 34.5679L60.8552 34.5776L61.5596 34.1675ZM61.5597 34.1677L62.2717 33.771C62.2692 33.7665 62.2667 33.762 62.2641 33.7575L61.5597 34.1677ZM61.5598 34.1678L62.2749 33.7767L62.2718 33.7711L61.5598 34.1678ZM61.5603 34.1687L60.8451 34.5599L60.8454 34.5605L61.5603 34.1687ZM61.5604 34.169L62.2752 33.7773L61.5604 34.169ZM61.5605 34.1693L60.8457 34.561L61.5605 34.1693ZM61.5608 34.1698L60.846 34.5615L61.5608 34.1698ZM61.561 34.1701L60.8462 34.5618L60.8468 34.563L61.561 34.1701ZM65.6299 41.4866L64.9212 41.8893C65.1252 42.2484 65.5656 42.3982 65.9462 42.2379L65.6299 41.4866ZM67.8408 40.5891L68.1407 41.347L68.1413 41.3468L67.8408 40.5891ZM67.8432 40.5882L67.5433 39.8302L67.5428 39.8304L67.8432 40.5882ZM68.9367 40.1535L69.2397 40.9102C69.6524 40.7449 69.8566 40.2795 69.6987 39.8639L68.9367 40.1535ZM66.8626 31.1156L66.089 30.859C66.0836 30.8751 66.0788 30.8913 66.0745 30.9076L66.8626 31.1156ZM68.6275 29.3242L68.8961 30.0938C68.9032 30.0913 68.9102 30.0887 68.9172 30.0861L68.6275 29.3242ZM74.0503 33.8382L73.292 34.1372L73.2927 34.1389L74.0503 33.8382ZM75.2989 36.9833L76.0594 36.6899L76.0565 36.6825L75.2989 36.9833ZM83.8859 70.6356L83.0846 70.7846C83.1289 71.0229 83.2769 71.2292 83.4886 71.3473C83.7003 71.4655 83.9535 71.4833 84.1797 71.396L83.8859 70.6356ZM98.0109 65.6902L98.2567 66.4674C98.4928 66.3927 98.6822 66.2148 98.7713 65.9837C98.8605 65.7527 98.8398 65.4936 98.7151 65.2797L98.0109 65.6902ZM82.5556 34.4505L81.7813 34.7052C81.7832 34.7109 81.7851 34.7165 81.7871 34.722L82.5556 34.4505ZM81.8803 32.4991L82.6477 32.2242L82.6461 32.22L81.8803 32.4991ZM81.88 32.4984L81.1127 32.7733L81.1142 32.7775L81.88 32.4984ZM81.4369 31.2446L82.2072 30.9781L82.207 30.9776L81.4369 31.2446ZM82.5582 24.4388L82.3176 23.66L82.3176 23.66L82.5582 24.4388ZM85.0045 24.7838L84.5258 25.4436L84.5361 25.4509L85.0045 24.7838ZM89.4107 33.0389L88.6433 33.3138C88.7948 33.7366 89.2599 33.9572 89.6832 33.8071L89.4107 33.0389ZM74.6799 74.2691L74.9982 75.0195C75.215 74.9275 75.3814 74.7463 75.4546 74.5225C75.5278 74.2987 75.5007 74.0541 75.3801 73.8518L74.6799 74.2691ZM61.0852 48.6855L61.8246 48.3424C61.7142 48.1046 61.4962 47.9344 61.2388 47.885C60.9813 47.8356 60.7158 47.913 60.5253 48.0931L61.0852 48.6855ZM62.6102 79.8673L61.9032 80.2729C62.1175 80.6465 62.5857 80.7889 62.9718 80.5978L62.6102 79.8673ZM45.3144 56.1748L44.7212 56.7339L44.7261 56.7389L45.3144 56.1748ZM37.7596 51.9456L38.1386 52.6673L38.1428 52.665L37.7596 51.9456ZM38.7523 58.6423L39.4611 58.2398L39.4611 58.2397L38.7523 58.6423ZM38.8307 58.7803L38.1218 59.1828L38.1263 59.1905L38.8307 58.7803ZM57.6757 82.3679L58.0514 83.0913C58.2736 82.9759 58.4304 82.7648 58.4768 82.5188C58.5231 82.2727 58.4538 82.0191 58.2888 81.8308L57.6757 82.3679ZM45.526 89.1539L44.779 89.4803C44.8728 89.6949 45.0543 89.8588 45.2774 89.9302C45.5004 90.0016 45.7434 89.9737 45.9444 89.8534L45.526 89.1539ZM29.4887 58.0318L28.7953 58.4602L28.797 58.4629L29.4887 58.0318ZM17.8062 43.9869L17.3913 43.2852C17.1724 43.4147 17.0265 43.6388 16.9967 43.8913C16.9669 44.1439 17.0566 44.3958 17.2394 44.5726L17.8062 43.9869ZM31.9044 36.1627L32.5434 35.6566C32.3019 35.3517 31.8788 35.2599 31.5327 35.4373L31.9044 36.1627ZM41.7092 45.8653L42.2469 45.2527L42.2463 45.2522L41.7092 45.8653ZM50.8753 50.1782L50.52 49.4447L50.5193 49.445L50.8753 50.1782ZM50.1037 44.3566L50.8229 43.9731L50.8229 43.973L50.1037 44.3566ZM49.7985 43.7816L49.0752 44.1575L49.0769 44.1608L49.7985 43.7816ZM39.4364 32.3195L39.0812 31.5859C38.8329 31.7061 38.6622 31.9438 38.6277 32.2175C38.5931 32.4912 38.6994 32.7639 38.9101 32.942L39.4364 32.3195ZM54.9426 25.3273L55.7573 25.3007C55.7486 25.0333 55.6091 24.7872 55.3842 24.6422C55.1593 24.4973 54.8776 24.4719 54.6304 24.5744L54.9426 25.3273ZM61.0199 48.7472L60.2797 49.0886C60.3896 49.327 60.6076 49.4978 60.8653 49.5475C61.1231 49.5973 61.389 49.5199 61.5797 49.3396L61.0199 48.7472ZM41.8678 91.648L42.2905 92.3449C42.502 92.2166 42.6438 91.9993 42.676 91.754C42.7082 91.5088 42.6272 91.2622 42.456 91.0837L41.8678 91.648ZM23.5774 65.0828L22.8489 65.4484C22.8544 65.4594 22.8602 65.4703 22.8662 65.481L23.5774 65.0828ZM30.1595 99.1907L29.4223 99.5384C29.5239 99.7538 29.7146 99.9139 29.9443 99.9768C30.1739 100.04 30.4196 99.999 30.6168 99.8655L30.1595 99.1907ZM29.8364 98.5056L30.5736 98.1578L30.5702 98.1506L29.8364 98.5056ZM29.8363 98.5053L29.099 98.8531L29.1025 98.8603L29.8363 98.5053ZM15.3021 70.4532L14.6405 70.9293L15.3021 70.4532ZM1.15603 54.5933L0.694393 53.9215C0.478317 54.07 0.34685 54.3133 0.341108 54.5754C0.335367 54.8375 0.456052 55.0864 0.665419 55.2442L1.15603 54.5933ZM11.6056 47.9382L12.0277 48.6355C12.041 48.6274 12.0541 48.619 12.0669 48.6102L11.6056 47.9382ZM11.6056 47.9381L11.1876 47.2384C11.1729 47.2472 11.1585 47.2564 11.1444 47.2661L11.6056 47.9381ZM11.6064 47.9377L12.0245 48.6374L12.0291 48.6347L11.6064 47.9377ZM11.6093 47.9359L11.1874 47.2385L11.1866 47.239L11.6093 47.9359ZM11.6107 47.9351L11.1891 47.2375L11.1888 47.2376L11.6107 47.9351ZM11.6135 47.9334L12.0351 48.631L12.037 48.6298L11.6135 47.9334ZM11.6151 47.9324L11.1927 47.2353L11.1915 47.236L11.6151 47.9324ZM11.6159 47.9319L11.1938 47.2346L11.1935 47.2348L11.6159 47.9319ZM15.1334 45.7929L15.9122 45.5523C15.8379 45.3117 15.6566 45.119 15.421 45.0302C15.1854 44.9414 14.922 44.9664 14.7074 45.0979L15.1334 45.7929ZM227.293 35.298L228.101 35.4052C228.102 35.3978 228.102 35.3905 228.103 35.383L227.293 35.298ZM227.292 35.2987L226.484 35.1914C226.483 35.1988 226.483 35.2062 226.482 35.2136L227.292 35.2987ZM228.487 26.2314L229.285 26.3966L229.286 26.3927L228.487 26.2314ZM236.022 7.43318L236.711 7.86965C236.854 7.64344 236.877 7.36122 236.772 7.11468C236.668 6.86813 236.449 6.68874 236.186 6.63478L236.022 7.43318ZM220.579 4.72728L220.696 3.92057C220.44 3.8835 220.181 3.97021 219.999 4.15422C219.817 4.33824 219.734 4.59769 219.774 4.85333L220.579 4.72728ZM220.469 27.8155L219.666 27.6762L219.665 27.6808L220.469 27.8155ZM213.598 35.3592L213.718 34.553L213.707 34.5514L213.598 35.3592ZM209.203 26.2283L208.395 26.1211L208.395 26.1232L209.203 26.2283ZM215.879 4.10235L216.614 4.45393C216.727 4.21879 216.72 3.94407 216.596 3.71478C216.472 3.4855 216.246 3.3293 215.988 3.29452L215.879 4.10235ZM200.358 2.39661L200.426 1.5843C200.162 1.56236 199.904 1.66966 199.734 1.87211C199.564 2.07457 199.503 2.347 199.569 2.60287L200.358 2.39661ZM202.029 22.5047L202.84 22.5868L202.84 22.5863L202.029 22.5047ZM200.515 31.4893L201.307 31.6813C201.31 31.669 201.312 31.6566 201.315 31.6442L200.515 31.4893ZM200.514 31.4897L199.722 31.2976L199.722 31.3L200.514 31.4897ZM200.514 31.4901L199.722 31.3005C199.708 31.3591 199.7 31.4191 199.699 31.4794L200.514 31.4901ZM200.514 31.4902L201.315 31.6451C201.324 31.5976 201.329 31.5493 201.329 31.5009L200.514 31.4902ZM198.738 42.2348L197.927 42.1551L197.926 42.1597L198.738 42.2348ZM208.738 56.6956L208.866 55.8906C208.86 55.8895 208.853 55.8885 208.846 55.8876L208.738 56.6956ZM210.348 56.9357L210.463 56.1288L210.348 56.9357ZM211.957 57.1759L211.829 57.9809L211.836 57.982L211.957 57.1759ZM225.84 46.0951L226.638 46.2609L226.638 46.2602L225.84 46.0951ZM241.478 63.3832L241.694 62.5972L241.689 62.5957L241.478 63.3832ZM253.048 56.5896L253.811 56.8756C253.904 56.627 253.871 56.3487 253.721 56.1296C253.571 55.9105 253.324 55.778 253.059 55.7745L253.048 56.5896ZM239.647 62.8899L239.86 62.1031L239.855 62.1018L239.647 62.8899ZM239.647 62.8899L239.434 63.6767L239.439 63.678L239.647 62.8899ZM237.815 62.3965L238.026 61.6089L238.015 61.6062L237.815 62.3965ZM233.155 34.2396L232.36 34.0595L232.359 34.0617L233.155 34.2396ZM256.09 11.5765L256.303 10.7897L256.303 10.7895L256.09 11.5765ZM263.96 21.3163L263.161 21.1517L263.159 21.161L263.96 21.3163ZM261.527 29.3784L260.755 29.1157L260.753 29.1223L261.527 29.3784ZM261.526 29.381L262.283 29.6832C262.289 29.668 262.295 29.6527 262.3 29.6372L261.526 29.381ZM261.526 29.3817L260.769 29.0796C260.763 29.0926 260.759 29.1057 260.754 29.119L261.526 29.3817ZM261.197 30.3531L260.96 31.1333C261.383 31.2611 261.83 31.0299 261.97 30.6117L261.197 30.3531ZM259.773 29.9202L259.535 30.6997L259.536 30.6999L259.773 29.9202ZM259.77 29.9191L260.008 29.1396L260.007 29.1394L259.77 29.9191ZM255.222 28.5851L254.443 28.3459C254.378 28.5564 254.401 28.7841 254.507 28.9771C254.613 29.1702 254.792 29.3122 255.005 29.3708L255.222 28.5851ZM252.045 20.0334L252.261 19.2474L252.253 19.2451L252.045 20.0334ZM242.771 28.7969L243.561 28.9986L243.561 28.9982L242.771 28.7969ZM245.759 41.9141L245.544 42.7004L245.553 42.7028L245.759 41.9141ZM253.33 35.1305L253.553 34.3466C253.125 34.2246 252.679 34.4685 252.55 34.8945L253.33 35.1305ZM253.331 35.1308L253.108 35.9147C253.113 35.9162 253.118 35.9176 253.123 35.9189L253.331 35.1308ZM253.331 35.1309L253.554 34.3467C253.549 34.3453 253.544 34.344 253.539 34.3428L253.331 35.1309ZM259.112 36.8334L259.892 37.0699C260.022 36.6412 259.782 36.188 259.354 36.055L259.112 36.8334ZM257.217 43.1439L256.436 42.9105L256.436 42.9106L257.217 43.1439ZM257.208 43.1718L256.427 42.9385L256.426 42.9424L257.208 43.1718ZM257.208 43.1723L256.426 42.9429L256.426 42.9441L257.208 43.1723ZM257.208 43.173L257.988 43.4082L257.99 43.4012L257.208 43.173ZM257.207 43.1752L256.427 42.9399L256.426 42.9417L257.207 43.1752ZM252.983 56.5887L252.225 56.2901C252.127 56.5393 252.157 56.8208 252.307 57.0431C252.456 57.2654 252.705 57.4003 252.973 57.4038L252.983 56.5887ZM274.361 39.5993L273.801 39.0069C273.714 39.0891 273.646 39.1894 273.603 39.3007L274.361 39.5993ZM265.826 70.7114L265.534 71.4725C265.758 71.5585 266.009 71.5412 266.219 71.4253C266.43 71.3093 266.578 71.1065 266.625 70.8709L265.826 70.7114ZM274.426 39.5376L274.986 40.13C275.073 40.0478 275.141 39.9475 275.185 39.8362L274.426 39.5376ZM285.303 21.6593L285.947 22.159C286.106 21.9546 286.158 21.687 286.088 21.438C286.017 21.189 285.833 20.9881 285.591 20.8967L285.303 21.6593ZM270.602 16.4602L270.858 15.6864C270.615 15.606 270.349 15.6443 270.138 15.7897C269.928 15.935 269.798 16.1707 269.788 16.4262L270.602 16.4602ZM267.172 37.0019L267.937 37.284L267.939 37.2769L267.172 37.0019ZM252.987 66.1626L252.275 65.764C252.156 65.9768 252.138 66.2319 252.227 66.4591C252.316 66.6864 252.502 66.8619 252.734 66.9375L252.987 66.1626ZM297.172 85.3276L296.78 86.0423C296.98 86.1519 297.216 86.1729 297.432 86.1001C297.648 86.0273 297.824 85.8673 297.917 85.6591L297.172 85.3276ZM310.281 59.5318L310.986 59.9409C311.056 59.8198 311.094 59.6826 311.096 59.5425L310.281 59.5318ZM285.321 79.1648L284.584 78.8177C284.393 79.2224 284.565 79.705 284.968 79.8992L285.321 79.1648ZM294.712 51.6307L293.913 51.47L293.912 51.4766L294.712 51.6307ZM293.791 43.2337L293.451 43.9744L293.454 43.9759L293.791 43.2337ZM288.825 48.1117L289.566 48.4509L289.569 48.446L288.825 48.1117ZM280.45 76.8481L280.107 77.5876C280.329 77.6903 280.584 77.6884 280.804 77.5824C281.024 77.4765 281.185 77.2777 281.242 77.0406L280.45 76.8481ZM267.815 71.4885L267.118 71.0665C266.993 71.2717 266.966 71.5213 267.043 71.7486C267.119 71.976 267.292 72.1581 267.515 72.2464L267.815 71.4885ZM284.024 40.4772L283.274 40.1582L283.274 40.1589L284.024 40.4772ZM288.767 23.0815L289.066 22.3233C288.837 22.2328 288.579 22.2509 288.365 22.3726C288.15 22.4943 288.003 22.7065 287.963 22.9497L288.767 23.0815ZM303.454 29.3441L304.235 29.5779C304.352 29.1871 304.162 28.7699 303.79 28.6016L303.454 29.3441ZM301.214 42.7681L300.403 42.6814L300.403 42.6827L301.214 42.7681ZM303.086 52.4916L302.71 53.2153L302.72 53.2202L303.086 52.4916ZM307.365 48.5211L306.635 48.1587L306.635 48.1597L307.365 48.5211ZM307.366 48.5205L308.096 48.8829L308.096 48.882L307.366 48.5205ZM307.726 47.797L307.003 47.422L306.999 47.4289L307.726 47.797ZM311.018 32.8851L311.38 32.155C311.137 32.0342 310.85 32.0426 310.614 32.1773C310.378 32.312 310.225 32.5553 310.205 32.8262L311.018 32.8851ZM326.134 40.8429L326.631 41.4891C326.849 41.3221 326.967 41.057 326.947 40.7837C326.927 40.5104 326.772 40.2654 326.532 40.1316L326.134 40.8429ZM310.282 59.4693L309.578 59.0588C309.507 59.1802 309.469 59.318 309.467 59.4585L310.282 59.4693ZM343.754 74.2385L344.569 74.2492C344.573 73.93 344.391 73.6378 344.102 73.5014C343.813 73.3651 343.472 73.4098 343.228 73.6159L343.754 74.2385ZM343.753 74.3011L343.289 74.9712C343.537 75.1427 343.859 75.1636 344.127 75.0256C344.395 74.8875 344.564 74.613 344.568 74.3118L343.753 74.3011ZM332.295 87.3535L332.942 87.8496L332.943 87.8476L332.295 87.3535ZM339.407 71.3747L338.956 72.0533L339.407 71.3747ZM331.799 66.1971L332.271 65.5326C332.095 65.4072 331.876 65.3572 331.662 65.3936C331.449 65.43 331.258 65.5499 331.133 65.7267L331.799 66.1971ZM330.485 68.057L329.819 67.5866C329.584 67.9187 329.63 68.373 329.927 68.6514L330.485 68.057ZM332.121 76.088L332.774 76.5756C332.778 76.5699 332.782 76.5642 332.786 76.5584L332.121 76.088ZM324.82 77.0558L325.268 76.3745L325.264 76.3721L324.82 77.0558ZM325.646 63.2379L326.329 63.6838L326.33 63.6824L325.646 63.2379ZM338.163 57.9584L337.716 58.6401L337.721 58.643L338.163 57.9584ZM339.666 66.3005L338.986 65.8511C338.741 66.2224 338.839 66.7218 339.206 66.9732L339.666 66.3005ZM345.162 70.1264L344.692 70.7929L344.693 70.7938L345.162 70.1264ZM345.163 70.1271L344.694 70.7945C345.054 71.0464 345.548 70.9688 345.813 70.619L345.163 70.1271ZM350.17 62.0584L349.414 61.7533L349.413 61.757L350.17 62.0584ZM344.313 51.3439L344.765 50.6653L344.762 50.6634L344.313 51.3439ZM313.535 67.0834L314.23 67.5102L314.231 67.5079L313.535 67.0834ZM312.266 94.9746L311.82 95.6571C311.836 95.6677 311.853 95.6776 311.87 95.687L312.266 94.9746ZM313.339 95.645L312.883 96.3208L312.883 96.3208L313.339 95.645ZM313.673 95.8691L314.125 95.1906L314.125 95.1906L313.673 95.8691ZM323.688 99.3797L323.617 100.192C323.927 100.219 324.226 100.067 324.386 99.8005L323.688 99.3797ZM166.233 54.7613C171.806 54.586 174.629 54.6221 180.193 54.6952L180.215 53.0651C174.644 52.9919 171.793 52.9554 166.182 53.1318L166.233 54.7613ZM166.963 22.8242C167.126 29.9149 166.511 42.5736 165.396 53.8665L167.019 54.0266C168.137 42.6971 168.758 29.9672 168.593 22.7867L166.963 22.8242ZM164.419 1.58284C166.1 10.6496 166.786 16.8103 166.963 22.8294L168.593 22.7816C168.413 16.6566 167.714 10.4096 166.022 1.28565L164.419 1.58284ZM179.035 0.487735C173.542 0.41554 170.756 0.441783 165.195 0.619542L165.247 2.24894C170.784 2.07196 173.545 2.04596 179.014 2.11783L179.035 0.487735ZM196.448 32.9979C197.341 21.8153 196.183 13.7494 193.179 8.43108C190.133 3.03583 185.246 0.569356 179.035 0.487735L179.014 2.11783C184.733 2.19298 189.039 4.41521 191.76 9.23269C194.524 14.1271 195.707 21.798 194.823 32.8682L196.448 32.9979ZM180.187 54.6951C184.358 54.7826 188.153 53.6313 191.048 50.2075C193.904 46.8292 195.786 41.3478 196.448 32.9975L194.823 32.8686C194.171 41.0831 192.335 46.1591 189.803 49.1551C187.308 52.1056 184.045 53.1454 180.221 53.0653L180.187 54.6951ZM187.141 23.4697C186.969 27.0834 186.053 29.1589 184.906 30.3284C183.772 31.4849 182.289 31.8799 180.687 31.8589L180.665 33.489C182.545 33.5137 184.524 33.0469 186.07 31.4697C187.604 29.9055 188.587 27.3756 188.77 23.5476L187.141 23.4697ZM180.115 10.83C182.329 10.8859 184.144 12.1982 185.4 14.4624C186.663 16.7397 187.313 19.9204 187.141 23.4693L188.77 23.5481C188.952 19.7805 188.272 16.2796 186.825 13.6718C185.372 11.051 183.1 9.27467 180.156 9.20027L180.115 10.83ZM176.23 20.7759C176.224 18.7793 176.258 17.1312 176.374 15.7795C176.491 14.4213 176.686 13.4118 176.977 12.6711C177.262 11.9469 177.624 11.5143 178.071 11.2475C178.533 10.9722 179.177 10.8177 180.125 10.8302L180.146 9.20008C179.03 9.18541 178.05 9.36155 177.236 9.84772C176.407 10.3425 175.843 11.1022 175.46 12.0744C175.084 13.03 174.872 14.2209 174.75 15.6402C174.628 17.066 174.594 18.7725 174.6 20.7808L176.23 20.7759ZM180.752 31.7972C179.798 31.7846 179.105 31.6683 178.575 31.414C178.073 31.1734 177.656 30.7787 177.31 30.0717C176.952 29.3403 176.675 28.2828 176.493 26.7476C176.312 25.2194 176.229 23.2681 176.23 20.7785L174.6 20.7781C174.599 23.2944 174.682 25.3188 174.874 26.9398C175.066 28.5539 175.372 29.8192 175.846 30.7883C176.332 31.7817 176.997 32.465 177.869 32.8838C178.714 33.2889 179.686 33.4135 180.731 33.4272L180.752 31.7972ZM181.236 33.2664L181.301 33.2047L180.182 32.0197L180.116 32.0814L181.236 33.2664ZM160.96 28.1485C161.445 37.8739 160.877 44.341 159.193 48.4558C158.36 50.4914 157.265 51.9209 155.912 52.8938C154.557 53.8684 152.884 54.4272 150.825 54.6235L150.98 56.2464C153.248 56.0302 155.218 55.4011 156.864 54.2172C158.513 53.0317 159.777 51.3321 160.702 49.0733C162.533 44.5991 163.074 37.8151 162.589 28.0674L160.96 28.1485ZM144.328 3.15867C146.876 2.90618 149.095 3.16655 151.008 3.9539C152.915 4.73884 154.566 6.06683 155.954 8.02631C158.753 11.9776 160.477 18.4872 160.96 28.1486L162.589 28.0672C162.101 18.318 160.358 11.4227 157.284 7.08391C155.736 4.8984 153.849 3.36017 151.628 2.44635C149.414 1.53495 146.916 1.26402 144.168 1.53638L144.328 3.15867ZM133.325 30.8486C131.782 21.2007 132.115 14.4992 134.022 10.1156C134.967 7.94339 136.298 6.34276 137.99 5.21825C139.688 4.08957 141.795 3.41153 144.329 3.15861L144.167 1.53644C141.438 1.8088 139.059 2.55013 137.088 3.86052C135.11 5.17509 133.585 7.03324 132.527 9.46515C130.428 14.2898 130.16 21.378 131.716 31.1061L133.325 30.8486ZM148.493 54.844C146.47 55.055 144.749 54.833 143.25 54.1411C141.753 53.4498 140.411 52.2583 139.195 50.419C136.738 46.7022 134.874 40.4639 133.325 30.8477L131.716 31.1069C133.268 40.7416 135.17 47.2866 137.835 51.318C139.18 53.3528 140.738 54.7767 142.567 55.6211C144.394 56.4649 146.424 56.6989 148.663 56.4654L148.493 54.844ZM149.691 54.7289C149.33 54.7567 148.966 54.7846 148.477 54.8459L148.679 56.4635C149.127 56.4074 149.457 56.382 149.816 56.3543L149.691 54.7289ZM150.809 54.6252C150.358 54.6775 150.025 54.7032 149.691 54.7289L149.816 56.3543C150.152 56.3284 150.513 56.3008 150.997 56.2446L150.809 54.6252ZM147.653 34.7397C150.158 34.4952 151.972 33.3275 153.055 31.3195C154.104 29.3725 154.419 26.722 154.198 23.5605L152.572 23.6745C152.785 26.7136 152.454 28.9979 151.62 30.5459C150.818 32.0329 149.51 32.9204 147.494 33.1171L147.653 34.7397ZM139.08 25.0477C139.498 28.2446 140.351 30.7827 141.766 32.4747C143.225 34.2184 145.215 34.9855 147.655 34.7394L147.492 33.1174C145.541 33.3141 144.099 32.7221 143.017 31.4289C141.892 30.084 141.098 27.9073 140.696 24.8361L139.08 25.0477ZM145.142 10.6227C142.648 10.8784 140.797 12.3437 139.763 14.846C138.752 17.2921 138.515 20.7232 139.08 25.0475L140.696 24.8364C140.147 20.636 140.416 17.5348 141.27 15.4688C142.1 13.459 143.475 12.4324 145.308 12.2444L145.142 10.6227ZM154.197 23.5538C153.861 19.261 152.915 15.9409 151.4 13.7281C149.852 11.468 147.703 10.3686 145.145 10.6224L145.305 12.2447C147.203 12.0564 148.803 12.821 150.055 14.6493C151.339 16.525 152.246 19.5179 152.572 23.6812L154.197 23.5538ZM90.9019 13.0026C93.9661 18.5082 97.0705 25.4993 98.8374 31.7067L100.405 31.2604C98.5966 24.9061 95.4368 17.7983 92.3263 12.2098L90.9019 13.0026ZM112.481 6.76467C103.99 8.47194 99.7647 9.4851 91.395 11.8211L91.8332 13.3913C100.164 11.0661 104.35 10.0623 112.802 8.36291L112.481 6.76467ZM127.219 14.3616C126.824 12.1154 126.036 10.4087 124.949 9.14746C123.859 7.88389 122.51 7.11386 121.069 6.67978C118.226 5.82365 114.983 6.26299 112.481 6.76458L112.802 8.363C115.279 7.86627 118.173 7.51024 120.598 8.24075C121.791 8.59999 122.858 9.21878 123.714 10.2119C124.572 11.2074 125.259 12.6253 125.614 14.644L127.219 14.3616ZM122.196 25.9498C124.492 23.643 128.178 19.9958 127.22 14.3661L125.613 14.6395C126.414 19.3464 123.404 22.4253 121.04 24.7996L122.196 25.9498ZM122.198 25.947L122.198 25.9469L121.037 24.8025L121.037 24.8027L122.198 25.947ZM120.882 27.3342C121.216 26.9343 121.662 26.4859 122.195 25.9499L121.04 24.7998C120.523 25.3196 120.021 25.8229 119.631 26.2887L120.882 27.3342ZM120.951 29.222C120.513 28.5983 120.413 28.3022 120.409 28.1288C120.406 28.0098 120.446 27.8064 120.855 27.3652L119.659 26.2576C119.151 26.8056 118.761 27.41 118.779 28.1673C118.796 28.8703 119.167 29.5189 119.616 30.1584L120.951 29.222ZM122.056 30.7338C121.589 30.1026 121.217 29.5997 120.95 29.221L119.617 30.1593C119.897 30.5577 120.283 31.0791 120.745 31.7036L122.056 30.7338ZM122.058 30.7372L122.056 30.7345L120.745 31.703L120.747 31.7057L122.058 30.7372ZM122.039 30.7118L122.039 30.7116L120.767 31.7313L120.767 31.7315L122.039 30.7118ZM136.938 56.4407C132.067 44.2568 125.15 34.9138 122.058 30.7367L120.748 31.7066C123.83 35.8707 130.637 45.0708 135.424 57.0458L136.938 56.4407ZM122.059 60.1069C127.737 58.9328 130.567 58.4098 136.302 57.5493L136.06 55.9371C130.291 56.8027 127.432 57.3312 121.728 58.5105L122.059 60.1069ZM113.703 33.9832C114.173 34.4892 114.806 35.6962 115.521 37.5167C116.219 39.2946 116.953 41.5422 117.662 44.0165C119.08 48.9656 120.381 54.7677 121.088 59.4308L122.699 59.1867C121.981 54.4449 120.663 48.5739 119.229 43.5675C118.512 41.0642 117.762 38.7635 117.038 36.9208C116.331 35.1207 115.605 33.6349 114.898 32.8739L113.703 33.9832ZM113.129 33.6882C113.278 33.6423 113.345 33.6601 113.379 33.6731C113.425 33.6908 113.519 33.7449 113.649 33.9185L114.952 32.9385C114.702 32.6066 114.381 32.3111 113.962 32.1507C113.531 31.9855 113.082 31.9964 112.648 32.1306L113.129 33.6882ZM109.286 35.8838C109.922 35.4037 110.644 34.9004 111.334 34.4921C112.041 34.0727 112.645 33.7953 113.06 33.7064L112.718 32.1124C112.033 32.2593 111.241 32.6519 110.502 33.0896C109.745 33.5382 108.971 34.079 108.304 34.583L109.286 35.8838ZM119.47 59.6902C115.467 50.5751 111.668 41.0992 109.566 34.9691L108.024 35.4978C110.146 41.6875 113.965 51.2091 117.978 60.3457L119.47 59.6902ZM105.49 64.2533C110.845 62.7024 113.482 62.0527 118.906 60.8125L118.542 59.2233C113.098 60.4684 110.429 61.1257 105.037 62.6874L105.49 64.2533ZM98.9687 31.6511C100.8 37.9252 102.827 49.9701 104.454 63.5672L106.073 63.3735C104.445 49.7708 102.406 37.6088 100.534 31.1943L98.9687 31.6511ZM99.9675 32.2216L100.097 32.1607L99.4051 30.6847L99.2753 30.7456L99.9675 32.2216ZM116.327 19.9298C116.576 21.1129 116.284 22.4305 115.44 23.8342C114.594 25.2403 113.222 26.6813 111.418 28.0558L112.406 29.3525C114.316 27.8974 115.853 26.3105 116.837 24.6745C117.822 23.0361 118.281 21.2975 117.922 19.5943L116.327 19.9298ZM111.001 17.8503C112.703 17.5068 113.931 17.5168 114.768 17.8428C115.524 18.1379 116.07 18.7361 116.328 19.9335L117.921 19.5905C117.571 17.9642 116.72 16.8545 115.36 16.3239C114.078 15.8243 112.469 15.8909 110.678 16.2523L111.001 17.8503ZM107.05 20.5828C107.461 19.4345 108.603 18.3409 111.003 17.8499L110.676 16.2527C107.903 16.82 106.175 18.1917 105.515 20.0329L107.05 20.5828ZM108.221 30.8852C107.614 28.4921 107.184 26.2718 106.98 24.4474C106.772 22.5796 106.816 21.2574 107.053 20.5743L105.512 20.0413C105.145 21.1024 105.15 22.7519 105.36 24.6284C105.575 26.5483 106.021 28.8449 106.64 31.286L108.221 30.8852ZM108.232 31.0099C108.211 30.9786 108.206 30.9671 108.207 30.9692C108.209 30.9733 108.22 30.995 108.229 31.0301C108.234 31.0472 108.238 31.0645 108.241 31.0813C108.243 31.0977 108.244 31.1109 108.245 31.1193C108.245 31.127 108.245 31.1304 108.245 31.1261C108.245 31.1206 108.245 31.1135 108.246 31.0963L106.615 31.0749C106.615 31.1248 106.608 31.2857 106.66 31.47C106.709 31.6473 106.796 31.7942 106.877 31.9154L108.232 31.0099ZM111.448 28.0338C110.491 28.6963 108.687 29.8506 107.141 30.7602L107.968 32.1652C109.542 31.2386 111.381 30.0629 112.376 29.3744L111.448 28.0338ZM92.6774 31.1765C92.3501 31.2729 92.0605 31.3565 91.7902 31.4345L92.2423 33.0008C92.5124 32.9228 92.8058 32.8382 93.1378 32.7404L92.6774 31.1765ZM88.1607 13.5468C89.676 21.0182 90.4668 24.7253 92.1119 32.1351L93.7033 31.7818C92.0603 24.3811 91.2716 20.6837 89.7584 13.2228L88.1607 13.5468ZM56.6171 25.5347C69.4285 20.2089 75.9425 17.9277 89.1821 14.1689L88.7369 12.6007C75.4345 16.3773 68.8602 18.6797 55.9913 24.0294L56.6171 25.5347ZM62.2735 33.7741C60.5506 30.6425 58.8213 27.4991 57.0094 24.3733L55.599 25.1908C57.4002 28.2983 59.1208 31.4257 60.8451 34.5599L62.2735 33.7741ZM62.2696 33.7671L62.2693 33.7666L60.8493 34.5674L60.8496 34.5679L62.2696 33.7671ZM62.2641 33.7575L62.264 33.7573L60.8552 34.5776L60.8553 34.5778L62.2641 33.7575ZM62.2718 33.7711L62.2717 33.771L60.8476 34.5644L60.8477 34.5646L62.2718 33.7711ZM62.2754 33.7776L62.2749 33.7767L60.8446 34.559L60.8451 34.5599L62.2754 33.7776ZM62.2752 33.7773L62.2751 33.777L60.8454 34.5605L60.8456 34.5607L62.2752 33.7773ZM62.2754 33.7776L62.2752 33.7773L60.8456 34.5607L60.8457 34.561L62.2754 33.7776ZM62.2755 33.7778L62.2754 33.7776L60.8457 34.561L60.8459 34.5613L62.2755 33.7778ZM62.2757 33.7781L62.2755 33.7778L60.8459 34.5613L60.846 34.5615L62.2757 33.7781ZM62.2758 33.7783L62.2757 33.7781L60.846 34.5615L60.8462 34.5618L62.2758 33.7783ZM66.3387 41.084C64.9609 38.659 63.62 36.2217 62.2752 33.7772L60.8468 34.563C62.1908 37.0059 63.5371 39.453 64.9212 41.8893L66.3387 41.084ZM67.5409 39.8312C66.813 40.1192 66.2194 40.354 65.3136 40.7354L65.9462 42.2379C66.8348 41.8638 67.4146 41.6344 68.1407 41.347L67.5409 39.8312ZM67.5428 39.8304L67.5404 39.8314L68.1413 41.3468L68.1436 41.3459L67.5428 39.8304ZM68.6337 39.3968C68.2166 39.5638 67.8667 39.7022 67.5433 39.8302L68.1431 41.3461C68.4665 41.2181 68.8192 41.0786 69.2397 40.9102L68.6337 39.3968ZM66.0745 30.9076C65.7461 32.152 65.9562 33.6427 66.3706 35.2008C66.7906 36.7795 67.4611 38.5649 68.1747 40.443L69.6987 39.8639C68.9785 37.9688 68.3405 36.2642 67.9461 34.7817C67.5462 33.2786 67.4361 32.137 67.6508 31.3236L66.0745 30.9076ZM68.3589 28.5546C67.7346 28.7725 67.2403 29.0847 66.858 29.4991C66.4786 29.9104 66.2475 30.3811 66.089 30.859L67.6363 31.3722C67.7464 31.0402 67.8794 30.7961 68.0562 30.6046C68.23 30.4162 68.4838 30.2377 68.8961 30.0938L68.3589 28.5546ZM74.8086 33.5391C73.8277 31.0519 72.8339 29.5571 71.7227 28.8142C70.5222 28.0117 69.3436 28.1799 68.3379 28.5623L68.9172 30.0861C69.6616 29.8031 70.2269 29.7753 70.8166 30.1695C71.4956 30.6234 72.3381 31.7183 73.292 34.1372L74.8086 33.5391ZM76.0565 36.6825L74.8079 33.5374L73.2927 34.1389L74.5413 37.284L76.0565 36.6825ZM84.6873 70.4867C82.1547 56.8602 79.1429 44.6853 76.0594 36.69L74.5384 37.2766C77.5671 45.1301 80.5574 57.1876 83.0846 70.7846L84.6873 70.4867ZM97.7651 64.913C92.051 66.72 89.249 67.6901 83.5922 69.8753L84.1797 71.396C89.8023 69.224 92.5722 68.265 98.2567 66.4674L97.7651 64.913ZM81.7871 34.722C84.9223 43.5972 90.4248 54.2972 97.3067 66.1008L98.7151 65.2797C91.847 53.4999 86.4072 42.9062 83.3242 34.179L81.7871 34.722ZM81.1129 32.7739C81.3251 33.3663 81.5188 33.9073 81.7813 34.7052L83.3299 34.1958C83.0604 33.3764 82.8606 32.8187 82.6476 32.2242L81.1129 32.7739ZM81.1142 32.7775L81.1144 32.7781L82.6461 32.22L82.6459 32.2194L81.1142 32.7775ZM80.6665 31.5111C80.8365 32.0022 80.9784 32.3984 81.1127 32.7733L82.6474 32.2235C82.5131 31.8487 82.3739 31.46 82.2072 30.9781L80.6665 31.5111ZM82.3176 23.66C81.2701 23.9836 80.2901 24.6359 79.9246 26.0212C79.5885 27.2948 79.8157 29.0564 80.6667 31.5115L82.207 30.9776C81.3803 28.5925 81.2939 27.2213 81.5008 26.4371C81.6783 25.7646 82.0979 25.4341 82.7988 25.2176L82.3176 23.66ZM85.4831 24.124C84.5574 23.4524 83.5154 23.2899 82.3176 23.66L82.7988 25.2176C83.5438 24.9874 84.0461 25.0955 84.5258 25.4436L85.4831 24.124ZM90.178 32.7639C89.5239 30.9382 88.8403 29.1385 88.0949 27.636C87.3625 26.1597 86.513 24.847 85.4729 24.1167L84.5361 25.4509C85.2215 25.9321 85.9218 26.9238 86.6345 28.3605C87.3342 29.771 87.991 31.4931 88.6433 33.3138L90.178 32.7639ZM91.7902 31.4345C90.8902 31.6943 90.2082 31.8911 89.1382 32.2706L89.6832 33.8071C90.7048 33.4447 91.3477 33.259 92.2423 33.0008L91.7902 31.4345ZM75.3801 73.8518C72.0451 68.2547 66.0743 57.5015 61.8246 48.3424L60.3458 49.0286C64.6258 58.2531 70.6257 69.0574 73.9797 74.6863L75.3801 73.8518ZM62.9718 80.5978C67.7683 78.2242 70.1543 77.0744 74.9982 75.0195L74.3616 73.5187C69.477 75.5909 67.0599 76.7558 62.2487 79.1367L62.9718 80.5978ZM44.7261 56.7389C50.0793 62.3219 57.2633 72.1846 61.9032 80.2729L63.3173 79.4617C58.6256 71.2832 51.3655 61.3079 45.9028 55.6107L44.7261 56.7389ZM38.1428 52.665C38.7176 52.3588 39.5293 52.4428 40.7387 53.1981C41.9239 53.9383 43.2659 55.1897 44.7212 56.7339L45.9076 55.6157C44.437 54.0554 42.9757 52.6731 41.6022 51.8153C40.2527 50.9726 38.7501 50.4943 37.3763 51.2263L38.1428 52.665ZM39.4611 58.2397C38.787 57.0529 38.0544 55.7536 37.7329 54.6253C37.5731 54.0645 37.542 53.6326 37.6112 53.3225C37.6707 53.0561 37.8099 52.8399 38.1386 52.6673L37.3805 51.224C36.6268 51.6199 36.1838 52.2346 36.0202 52.9672C35.8663 53.6562 35.9711 54.3915 36.1651 55.0721C36.5511 56.4267 37.3974 57.9072 38.0436 59.0449L39.4611 58.2397ZM39.5395 58.3778L39.4611 58.2398L38.0435 59.0448L38.1218 59.1827L39.5395 58.3778ZM58.2888 81.8308C55.0203 78.1003 51.0413 73.4568 47.5192 69.1266C43.9841 64.7804 40.949 60.7978 39.535 58.37L38.1263 59.1905C39.6136 61.7442 42.7287 65.8205 46.2545 70.1553C49.7934 74.5062 53.7864 79.1658 57.0627 82.9051L58.2888 81.8308ZM45.9444 89.8534C50.7413 86.9838 53.131 85.6468 58.0514 83.0913L57.3 81.6445C52.3498 84.2155 49.9316 85.5685 45.1075 88.4544L45.9444 89.8534ZM28.797 58.4629C32.942 65.1125 39.5958 77.6166 44.779 89.4803L46.2729 88.8276C41.0626 76.9018 34.373 64.3262 30.1804 57.6006L28.797 58.4629ZM17.2394 44.5726C21.6687 48.8585 25.6853 53.4273 28.7953 58.4602L30.1821 57.6033C26.9769 52.4162 22.8596 47.7424 18.373 43.4011L17.2394 44.5726ZM31.5327 35.4373C25.7999 38.3753 22.9908 39.9741 17.3913 43.2852L18.2211 44.6885C23.8016 41.3886 26.5809 39.8069 32.2762 36.8881L31.5327 35.4373ZM42.2463 45.2522C38.5526 42.0162 34.3975 37.9973 32.5434 35.6566L31.2655 36.6688C33.218 39.1337 37.4695 43.2347 41.172 46.4784L42.2463 45.2522ZM50.5193 49.445C50.3035 49.5497 49.8907 49.5904 49.2165 49.428C48.567 49.2715 47.7966 48.956 46.9678 48.5233C45.3129 47.6594 43.5451 46.3922 42.2469 45.2527L41.1715 46.4779C42.5512 47.6889 44.4253 49.0351 46.2134 49.9685C47.106 50.4345 48.0074 50.8136 48.8347 51.0129C49.6372 51.2062 50.5059 51.2637 51.2313 50.9115L50.5193 49.445ZM49.3844 44.7402C50.0083 45.9101 50.6089 47.0467 50.8519 47.9899C50.9721 48.4567 50.9784 48.7842 50.9207 48.9999C50.8747 49.1718 50.7788 49.3193 50.52 49.4447L51.2307 50.9118C51.8988 50.5881 52.3222 50.0687 52.4955 49.4215C52.657 48.8181 52.5828 48.1743 52.4306 47.5832C52.1286 46.4109 51.4163 45.0857 50.8229 43.9731L49.3844 44.7402ZM49.0769 44.1608C49.1772 44.3515 49.2808 44.5458 49.3845 44.7402L50.8229 43.973C50.7189 43.7779 50.6176 43.588 50.52 43.4023L49.0769 44.1608ZM38.9101 32.942C43.1312 36.5109 46.769 39.7201 49.0752 44.1575L50.5217 43.4057C48.0472 38.6444 44.1614 35.2471 39.9627 31.6971L38.9101 32.942ZM54.6304 24.5744C48.323 27.1895 45.2588 28.5953 39.0812 31.5859L39.7916 33.0532C45.9465 30.0736 48.9816 28.6812 55.2548 26.0803L54.6304 24.5744ZM61.76 48.4058C57.4772 39.121 55.9376 30.8223 55.7573 25.3007L54.1279 25.3539C54.3155 31.1005 55.9087 39.6127 60.2797 49.0886L61.76 48.4058ZM60.5253 48.0931L60.46 48.1548L61.5797 49.3396L61.645 49.2779L60.5253 48.0931ZM42.456 91.0837C38.4126 86.8689 33.8766 80.2873 30.3325 74.7195C28.5653 71.9432 27.0534 69.4329 25.9834 67.6168C25.4485 66.7088 25.0242 65.9748 24.734 65.4682C24.5888 65.2149 24.4772 65.0184 24.402 64.8856C24.3644 64.8192 24.336 64.7687 24.3169 64.7349C24.3074 64.718 24.3003 64.7053 24.2956 64.6969C24.2932 64.6927 24.2914 64.6896 24.2903 64.6875C24.2897 64.6865 24.2893 64.6857 24.289 64.6853C24.2889 64.685 24.2888 64.6849 24.2887 64.6847C24.2887 64.6846 24.2887 64.6846 23.5774 65.0828C22.8662 65.481 22.8663 65.4811 22.8664 65.4813C22.8665 65.4815 22.8666 65.4817 22.8668 65.482C22.8671 65.4827 22.8676 65.4835 22.8683 65.4847C22.8696 65.487 22.8715 65.4904 22.874 65.4949C22.879 65.5039 22.8865 65.5171 22.8963 65.5346C22.9159 65.5695 22.9451 65.6211 22.9833 65.6887C23.0599 65.8239 23.1729 66.0228 23.3195 66.2786C23.6127 66.7903 24.0403 67.5301 24.5788 68.4443C25.6559 70.2724 27.1777 72.7992 28.9572 75.5948C32.5064 81.1707 37.1155 87.8717 41.2796 92.2123L42.456 91.0837ZM30.6168 99.8655C35.2288 96.7405 37.559 95.2147 42.2905 92.3449L41.4451 90.951C36.6846 93.8384 34.3309 95.3797 29.7023 98.5159L30.6168 99.8655ZM29.0992 98.8533L29.4223 99.5384L30.8968 98.8429L30.5736 98.1578L29.0992 98.8533ZM29.1025 98.8603L29.1026 98.8605L30.5702 98.1506L30.5701 98.1504L29.1025 98.8603ZM14.6405 70.9293C16.489 73.4984 18.8593 77.8339 21.4025 82.8805C23.9389 87.9133 26.6225 93.6026 29.0991 98.8531L30.5735 98.1576C28.099 92.9116 25.4061 87.2022 22.8584 82.1468C20.3176 77.1051 17.8962 72.6628 15.9638 69.9771L14.6405 70.9293ZM0.665419 55.2442C6.04568 59.2993 10.771 65.5516 14.6405 70.9293L15.9638 69.9771C12.1059 64.6157 7.25075 58.1662 1.64664 53.9423L0.665419 55.2442ZM11.1835 47.2409C7.64083 49.3854 4.74189 51.1402 0.694393 53.9215L1.61767 55.2651C5.62339 52.5125 8.48761 50.7785 12.0277 48.6355L11.1835 47.2409ZM11.1444 47.2661L11.1443 47.2661L12.0669 48.6102L12.0669 48.6102L11.1444 47.2661ZM11.1884 47.2379L11.1876 47.2384L12.0237 48.6379L12.0245 48.6374L11.1884 47.2379ZM11.1866 47.239L11.1838 47.2407L12.0291 48.6347L12.0319 48.6329L11.1866 47.239ZM11.1888 47.2376L11.1874 47.2385L12.0311 48.6334L12.0325 48.6326L11.1888 47.2376ZM11.1919 47.2358L11.1891 47.2375L12.0323 48.6327L12.0351 48.631L11.1919 47.2358ZM11.1915 47.236L11.1899 47.237L12.037 48.6298L12.0387 48.6288L11.1915 47.236ZM11.1935 47.2348L11.1927 47.2353L12.0375 48.6295L12.0384 48.629L11.1935 47.2348ZM14.7074 45.0979C13.439 45.8755 12.2859 46.5735 11.1938 47.2346L12.038 48.6292C13.1299 47.9683 14.2866 47.268 15.5594 46.4878L14.7074 45.0979ZM23.5774 65.0828C24.306 64.7172 24.306 64.7172 24.3059 64.7171C24.3059 64.717 24.3058 64.7169 24.3057 64.7167C24.3056 64.7164 24.3053 64.7158 24.3049 64.7151C24.3042 64.7136 24.303 64.7113 24.3015 64.7083C24.2985 64.7022 24.2939 64.6931 24.2878 64.681C24.2757 64.6567 24.2576 64.6205 24.2338 64.5728C24.1863 64.4776 24.1162 64.3367 24.0263 64.1551C23.8463 63.7917 23.5869 63.2651 23.2693 62.613C22.6339 61.3086 21.7664 59.5031 20.8373 57.4983C18.9721 53.4733 16.8837 48.6972 15.9122 45.5523L14.3546 46.0335C15.3627 49.2971 17.4963 54.166 19.3582 58.1838C20.2927 60.2004 21.165 62.0158 21.8036 63.3269C22.123 63.9826 22.384 64.5124 22.5654 64.8785C22.656 65.0616 22.7268 65.2038 22.7749 65.3004C22.799 65.3486 22.8174 65.3855 22.8299 65.4104C22.8361 65.4228 22.8408 65.4323 22.844 65.4386C22.8456 65.4418 22.8468 65.4442 22.8476 65.4459C22.848 65.4467 22.8484 65.4473 22.8486 65.4477C22.8487 65.4479 22.8488 65.4481 22.8488 65.4482C22.8489 65.4483 22.8489 65.4484 23.5774 65.0828ZM226.485 35.1907L226.484 35.1914L228.101 35.406L228.101 35.4052L226.485 35.1907ZM227.689 26.0662C227.186 28.4975 226.839 31.8122 226.482 35.2129L228.103 35.383C228.464 31.9506 228.803 28.73 229.285 26.3966L227.689 26.0662ZM235.334 6.99672C232.257 11.8501 229.159 18.7853 227.688 26.0701L229.286 26.3927C230.713 19.3236 233.729 12.573 236.711 7.86965L235.334 6.99672ZM220.462 5.53399C226.626 6.42634 229.699 6.96474 235.858 8.23159L236.186 6.63478C229.996 5.36152 226.892 4.81757 220.696 3.92057L220.462 5.53399ZM221.272 27.9548C222.545 20.6137 222.348 10.7592 221.384 4.60123L219.774 4.85333C220.714 10.8597 220.905 20.5333 219.666 27.6762L221.272 27.9548ZM213.477 36.1654C215.431 36.4576 217.184 36.2564 218.566 34.8747C219.877 33.5633 220.709 31.3166 221.273 27.9503L219.665 27.6808C219.11 30.9951 218.34 32.7947 217.413 33.7221C216.556 34.5794 215.434 34.8096 213.718 34.5531L213.477 36.1654ZM208.395 26.1232C207.96 29.4673 208.124 31.8505 209.009 33.4832C209.939 35.1989 211.554 35.9066 213.489 36.1671L213.707 34.5514C212.036 34.3265 211.024 33.7795 210.442 32.7064C209.816 31.5504 209.585 29.6108 210.011 26.3334L208.395 26.1232ZM215.144 3.75077C212.527 9.22377 209.411 18.4639 208.395 26.1211L210.011 26.3354C211 18.8762 214.058 9.80077 216.614 4.45393L215.144 3.75077ZM200.29 3.20891C206.524 3.72776 209.601 4.07965 215.77 4.91018L215.988 3.29452C209.795 2.46083 206.69 2.10574 200.426 1.5843L200.29 3.20891ZM202.84 22.5863C203.593 15.0958 202.578 7.66245 201.147 2.19034L199.569 2.60287C200.963 7.93056 201.948 15.1657 201.218 22.4231L202.84 22.5863ZM201.315 31.6442C201.959 28.3133 202.589 25.0659 202.84 22.5868L201.218 22.4226C200.976 24.8117 200.364 27.9757 199.714 31.3344L201.315 31.6442ZM201.307 31.6817L201.307 31.6813L199.722 31.2972L199.722 31.2976L201.307 31.6817ZM201.307 31.6797L201.307 31.6793L199.722 31.3L199.722 31.3005L201.307 31.6797ZM201.329 31.5009L201.329 31.5008L199.699 31.4794L199.699 31.4795L201.329 31.5009ZM199.549 42.3145C199.857 39.1781 200.597 35.353 201.315 31.6451L199.714 31.3353C199.001 35.0202 198.244 38.9272 197.927 42.1551L199.549 42.3145ZM208.846 55.8876C205.313 55.4157 202.841 54.2941 201.324 52.2684C199.797 50.2284 199.107 47.0989 199.55 42.3099L197.926 42.1597C197.467 47.1203 198.14 50.7353 200.019 53.2455C201.909 55.7698 204.889 57.0038 208.63 57.5035L208.846 55.8876ZM210.463 56.1288C209.98 56.0599 209.503 55.9918 208.866 55.8906L208.61 57.5006C209.261 57.604 209.749 57.6737 210.232 57.7427L210.463 56.1288ZM212.085 56.3709C211.434 56.2675 210.946 56.1978 210.463 56.1288L210.232 57.7427C210.715 57.8115 211.192 57.8797 211.829 57.9809L212.085 56.3709ZM225.042 45.9293C224.061 50.6502 222.486 53.4627 220.416 54.9958C218.36 56.5188 215.644 56.9032 212.077 56.3697L211.836 57.982C215.607 58.5461 218.835 58.1952 221.386 56.3059C223.924 54.4268 225.622 51.15 226.638 46.2609L225.042 45.9293ZM226.482 35.2136C226.088 38.9691 225.68 42.8461 225.042 45.9299L226.638 46.2602C227.296 43.0804 227.712 39.1143 228.103 35.3838L226.482 35.2136ZM241.263 64.1692C243.565 64.8018 246.053 64.7639 248.315 63.6344C250.583 62.5017 252.519 60.3237 253.811 56.8756L252.285 56.3036C251.103 59.4558 249.408 61.266 247.586 62.1759C245.758 63.0888 243.697 63.1475 241.694 62.5972L241.263 64.1692ZM239.434 63.6767C239.98 63.8247 240.528 63.9729 241.268 64.1707L241.689 62.5957C240.951 62.3987 240.406 62.2511 239.86 62.1032L239.434 63.6767ZM239.439 63.678L239.439 63.678L239.855 62.1018L239.855 62.1018L239.439 63.678ZM237.605 63.184C238.343 63.381 238.888 63.5287 239.434 63.6767L239.86 62.1031C239.314 61.9551 238.766 61.8068 238.026 61.609L237.605 63.184ZM232.359 34.0617C230.44 42.6424 229.547 49.2974 230.201 54.0948C230.53 56.5091 231.258 58.5108 232.494 60.0557C233.738 61.611 235.447 62.6388 237.616 63.1868L238.015 61.6062C236.134 61.131 234.755 60.2723 233.767 59.0372C232.77 57.7917 232.12 56.0991 231.816 53.8746C231.206 49.3945 232.032 42.9942 233.95 34.4175L232.359 34.0617ZM256.303 10.7895C253.266 9.96987 250.468 9.90215 247.913 10.5761C245.357 11.2504 243.095 12.6542 241.114 14.6999C237.175 18.7686 234.322 25.3993 232.36 34.0595L233.95 34.4198C235.889 25.8609 238.657 19.5814 242.285 15.8339C244.088 13.9716 246.098 12.7409 248.329 12.1524C250.561 11.5634 253.066 11.6045 255.878 12.3634L256.303 10.7895ZM264.758 21.4808C265.29 18.8966 264.657 16.5868 263.109 14.7356C261.58 12.9084 259.204 11.5745 256.303 10.7897L255.877 12.3633C258.568 13.0912 260.608 14.287 261.858 15.7814C263.088 17.2518 263.593 19.0555 263.161 21.1517L264.758 21.4808ZM262.298 29.6411C263.032 27.486 264.334 23.668 264.76 21.4715L263.159 21.161C262.76 23.2206 261.506 26.9096 260.755 29.1158L262.298 29.6411ZM262.3 29.6372L262.301 29.6346L260.753 29.1223L260.752 29.1249L262.3 29.6372ZM262.283 29.6839L262.283 29.6832L260.769 29.0788L260.769 29.0796L262.283 29.6839ZM261.97 30.6117C262.058 30.3483 262.169 30.0214 262.297 29.6445L260.754 29.119C260.626 29.4945 260.513 29.8262 260.424 30.0946L261.97 30.6117ZM259.536 30.6999C259.97 30.8325 260.437 30.975 260.96 31.1333L261.433 29.573C260.912 29.4152 260.446 29.2733 260.011 29.1406L259.536 30.6999ZM259.531 30.6985L259.535 30.6997L260.012 29.1408L260.008 29.1396L259.531 30.6985ZM255.005 29.3708C256.848 29.88 257.989 30.2283 259.532 30.6987L260.007 29.1394C258.463 28.6682 257.304 28.3147 255.439 27.7994L255.005 29.3708ZM251.829 20.8192C253.332 21.2331 254.265 21.9762 254.713 23.0702C255.18 24.2098 255.193 25.9005 254.443 28.3459L256.001 28.8243C256.8 26.2217 256.895 24.0964 256.222 22.4522C255.53 20.7622 254.1 19.7536 252.261 19.2475L251.829 20.8192ZM243.561 28.9982C244.396 25.7202 245.541 23.4035 246.928 22.0518C248.262 20.751 249.859 20.3002 251.837 20.8216L252.253 19.2451C249.732 18.581 247.542 19.1756 245.789 20.8846C244.089 22.5428 242.846 25.2006 241.982 28.5957L243.561 28.9982ZM245.974 41.1279C244.971 40.8533 244.254 40.3906 243.741 39.7848C243.224 39.1736 242.875 38.3666 242.694 37.3418C242.328 35.2627 242.683 32.4368 243.561 28.9986L241.982 28.5953C241.092 32.0796 240.66 35.1878 241.089 37.6245C241.306 38.8575 241.749 39.9538 242.497 40.8375C243.248 41.7267 244.266 42.3505 245.544 42.7003L245.974 41.1279ZM252.55 34.8945C251.69 37.7367 250.675 39.4688 249.587 40.3971C248.554 41.2785 247.384 41.4963 245.965 41.1255L245.553 42.7028C247.412 43.1885 249.151 42.9126 250.646 41.6372C252.085 40.4086 253.217 38.3206 254.11 35.3665L252.55 34.8945ZM253.554 34.3469L253.553 34.3466L253.106 35.9144L253.108 35.9147L253.554 34.3469ZM253.539 34.3428L253.539 34.3427L253.123 35.9189L253.123 35.919L253.539 34.3428ZM259.354 36.055C257.032 35.3333 255.867 35.003 253.554 34.3467L253.109 35.915C255.42 36.5705 256.568 36.8963 258.87 37.6118L259.354 36.055ZM257.998 43.3774C258.612 41.3217 259.25 39.1873 259.892 37.0699L258.332 36.5969C257.689 38.7179 257.05 40.8553 256.436 42.9105L257.998 43.3774ZM257.989 43.4052L257.998 43.3773L256.436 42.9106L256.427 42.9385L257.989 43.4052ZM257.99 43.4017L257.99 43.4012L256.426 42.9424L256.426 42.9429L257.99 43.4017ZM257.99 43.4012L257.991 43.4005L256.426 42.9441L256.425 42.9447L257.99 43.4012ZM257.988 43.4105L257.988 43.4082L256.428 42.9377L256.427 42.9399L257.988 43.4105ZM253.742 56.8874C254.648 54.5853 256.228 49.2964 257.988 43.4086L256.426 42.9417C254.652 48.8766 253.099 54.071 252.225 56.2901L253.742 56.8874ZM253.059 55.7745L252.994 55.7737L252.973 57.4038L253.037 57.4046L253.059 55.7745ZM273.603 39.3007C271.177 45.4609 267.311 59.1016 265.026 70.552L266.625 70.8709C268.898 59.4792 272.741 45.9391 275.119 39.8979L273.603 39.3007ZM273.866 38.9452L273.801 39.0069L274.921 40.1917L274.986 40.13L273.866 38.9452ZM284.659 21.1596C280.51 26.5067 276.113 33.03 273.668 39.239L275.185 39.8362C277.544 33.8439 281.829 27.466 285.947 22.159L284.659 21.1596ZM270.346 17.2341C276.244 19.1856 279.186 20.2218 285.015 22.4219L285.591 20.8967C279.74 18.6883 276.776 17.6446 270.858 15.6864L270.346 17.2341ZM267.939 37.2769C270.189 30.9984 271.133 23.2824 271.416 16.4943L269.788 16.4262C269.507 23.1466 268.573 30.6739 266.404 36.7269L267.939 37.2769ZM253.698 66.5612C259.452 56.296 265.641 43.5069 267.936 37.284L266.407 36.7198C264.155 42.8267 258.012 55.5308 252.275 65.764L253.698 66.5612ZM266.118 69.9504C261.035 68.0015 258.454 67.0871 253.239 65.3876L252.734 66.9375C257.923 68.6286 260.477 69.5337 265.534 71.4725L266.118 69.9504ZM297.917 85.6591C300.567 79.7054 305.923 68.6652 310.986 59.9409L309.576 59.1227C304.476 67.9106 299.094 79.0056 296.427 84.9962L297.917 85.6591ZM284.968 79.8992C289.755 82.2059 292.111 83.4807 296.78 86.0423L297.564 84.613C292.884 82.0458 290.501 80.7554 285.675 78.4305L284.968 79.8992ZM293.912 51.4766C292.474 58.9477 288.543 70.4065 284.584 78.8177L286.059 79.512C290.062 71.0077 294.044 59.4182 295.513 51.7847L293.912 51.4766ZM293.454 43.9759C294.018 44.232 294.413 44.8861 294.494 46.2731C294.573 47.6326 294.326 49.4183 293.913 51.47L295.512 51.7913C295.927 49.724 296.213 47.7623 296.121 46.1786C296.031 44.6224 295.551 43.1375 294.128 42.4914L293.454 43.9759ZM289.569 48.446C290.107 47.2476 290.75 45.8647 291.506 44.9037C291.883 44.4247 292.238 44.1167 292.559 43.9692C292.842 43.8387 293.117 43.8213 293.451 43.9744L294.131 42.493C293.342 42.1307 292.569 42.1699 291.877 42.4881C291.223 42.7893 290.676 43.322 290.225 43.8958C289.324 45.0405 288.606 46.612 288.082 47.7774L289.569 48.446ZM281.242 77.0406C282.4 72.2746 283.894 66.407 285.395 61.0817C286.902 55.7368 288.401 50.9975 289.566 48.4509L288.084 47.7726C286.859 50.4507 285.329 55.308 283.826 60.6393C282.317 65.9902 280.819 71.8784 279.658 76.6557L281.242 77.0406ZM267.515 72.2464C272.578 74.2504 275.128 75.2787 280.107 77.5876L280.793 76.1087C275.772 73.7808 273.19 72.7394 268.115 70.7306L267.515 72.2464ZM283.274 40.1589C280.229 47.3364 273.825 59.9823 267.118 71.0665L268.512 71.9105C275.254 60.77 281.695 48.0547 284.774 40.7955L283.274 40.1589ZM287.963 22.9497C286.987 28.9073 285.569 34.7636 283.274 40.1582L284.774 40.7963C287.138 35.2391 288.584 29.2441 289.572 23.2132L287.963 22.9497ZM303.79 28.6016C297.948 25.9558 294.986 24.6599 289.066 22.3233L288.468 23.8397C294.355 26.1635 297.292 27.4481 303.118 30.0867L303.79 28.6016ZM302.024 42.8548C302.539 38.0428 303.382 32.4275 304.235 29.5779L302.673 29.1104C301.773 32.1197 300.918 37.8705 300.403 42.6814L302.024 42.8548ZM303.461 51.7679C303.245 51.6561 302.97 51.3555 302.707 50.7384C302.453 50.1419 302.256 49.3586 302.121 48.4597C301.851 46.6645 301.847 44.5446 302.025 42.8534L300.403 42.6827C300.213 44.4908 300.215 46.7511 300.509 48.7022C300.655 49.6763 300.879 50.6077 301.208 51.3778C301.527 52.1274 301.997 52.8455 302.71 53.2152L303.461 51.7679ZM306.635 48.1597C306.041 49.3594 305.481 50.4808 304.866 51.2046C304.564 51.5605 304.305 51.7498 304.094 51.8273C303.919 51.8916 303.725 51.9004 303.451 51.7629L302.72 53.2202C303.374 53.5481 304.035 53.5855 304.655 53.3578C305.24 53.1435 305.718 52.7205 306.109 52.2598C306.881 51.3502 307.533 50.0212 308.096 48.8825L306.635 48.1597ZM306.636 48.1582L306.635 48.1587L308.096 48.8835L308.096 48.8829L306.636 48.1582ZM306.999 47.4289C306.878 47.6687 306.756 47.9146 306.635 48.1591L308.096 48.882C308.218 48.6363 308.336 48.397 308.454 48.165L306.999 47.4289ZM310.205 32.8262C309.811 38.2681 309.3 42.9875 307.003 47.4221L308.45 48.1719C310.918 43.4082 311.437 38.3796 311.831 32.944L310.205 32.8262ZM326.532 40.1316C320.565 36.7922 317.478 35.1812 311.38 32.155L310.656 33.6153C316.733 36.631 319.795 38.2295 325.736 41.5542L326.532 40.1316ZM310.986 59.8798C316.144 51.0313 322.152 44.9332 326.631 41.4891L325.638 40.1967C320.995 43.7662 314.845 50.023 309.578 59.0588L310.986 59.8798ZM311.096 59.5425L311.097 59.48L309.467 59.4585L309.466 59.5211L311.096 59.5425ZM343.228 73.6159C343.214 73.6279 343.2 73.6399 343.185 73.652L344.241 74.8945C344.254 74.8833 344.267 74.8722 344.28 74.8611L343.228 73.6159ZM344.568 74.3118L344.569 74.2492L342.939 74.2278L342.938 74.2904L344.568 74.3118ZM343.249 74.9437C343.263 74.9529 343.276 74.9621 343.289 74.9712L344.217 73.6309C344.204 73.6216 344.19 73.6122 344.177 73.6028L343.249 74.9437ZM343.185 73.652C340.638 75.8153 337.006 79.8263 331.647 86.8595L332.943 87.8476C338.288 80.8331 341.834 76.9389 344.241 74.8945L343.185 73.652ZM338.956 72.0533C340.545 73.1113 342.012 74.0878 343.249 74.9436L344.177 73.6029C342.925 72.7371 341.445 71.7518 339.859 70.6962L338.956 72.0533ZM331.327 66.8616C333.869 68.6679 336.55 70.4519 338.956 72.0533L339.859 70.6962C337.45 69.0925 334.79 67.3221 332.271 65.5326L331.327 66.8616ZM331.15 68.5274L332.465 66.6675L331.133 65.7267L329.819 67.5866L331.15 68.5274ZM332.786 76.5584C333.893 74.9923 334.456 73.5271 334.132 71.9577C333.82 70.4472 332.718 69.0351 331.043 67.4627L329.927 68.6514C331.565 70.1886 332.332 71.3041 332.535 72.2876C332.726 73.2123 332.451 74.2077 331.455 75.6176L332.786 76.5584ZM324.372 77.737C325.689 78.6022 327.184 79.1246 328.683 79.0055C330.21 78.8842 331.632 78.1048 332.774 76.5756L331.467 75.6004C330.574 76.7977 329.561 77.3003 328.554 77.3804C327.518 77.4626 326.38 77.1057 325.268 76.3745L324.372 77.737ZM324.964 62.7919C322.416 66.6905 321.138 69.6858 321.079 72.1012C321.049 73.3354 321.337 74.4154 321.924 75.365C322.505 76.3043 323.351 77.0741 324.376 77.7395L325.264 76.3721C324.37 75.7921 323.727 75.1813 323.311 74.508C322.901 73.845 322.686 73.0802 322.709 72.1407C322.756 70.2086 323.809 67.5403 326.329 63.6838L324.964 62.7919ZM338.61 57.2768C336.296 55.759 333.953 55.3512 331.592 56.3248C329.304 57.2684 327.133 59.4585 324.963 62.7933L326.33 63.6824C328.439 60.4406 330.384 58.5862 332.214 57.8319C333.97 57.1075 335.747 57.3484 337.716 58.6401L338.61 57.2768ZM340.346 66.7499C341.649 64.7787 342.218 62.9921 341.874 61.3349C341.529 59.6753 340.315 58.3785 338.606 57.2738L337.721 58.643C339.273 59.6462 340.062 60.6283 340.278 61.6668C340.494 62.7076 340.184 64.0382 338.986 65.8511L340.346 66.7499ZM345.631 69.46C343.458 67.9297 342.368 67.162 340.127 65.6278L339.206 66.9732C341.438 68.5009 342.521 69.2635 344.692 70.7929L345.631 69.46ZM345.631 69.4598L345.63 69.4591L344.693 70.7938L344.694 70.7945L345.631 69.4598ZM349.413 61.757C348.589 63.8258 346.477 67.0391 344.513 69.6353L345.813 70.619C347.786 68.0108 350.017 64.6483 350.927 62.3598L349.413 61.757ZM343.861 52.0224C346.235 53.6023 348.011 55.1281 348.997 56.7173C349.949 58.251 350.179 59.8595 349.414 61.7533L350.926 62.3634C351.895 59.9624 351.594 57.8095 350.382 55.8576C349.205 53.9612 347.186 52.2771 344.765 50.6653L343.861 52.0224ZM314.231 67.5079C319.551 58.7868 324.512 53.2732 329.348 50.7629C331.747 49.5172 334.11 49.0141 336.485 49.2177C338.866 49.4218 341.312 50.341 343.864 52.0243L344.762 50.6634C342.039 48.8672 339.335 47.8258 336.624 47.5934C333.908 47.3605 331.238 47.945 328.597 49.3159C323.351 52.0388 318.198 57.8746 312.84 66.6589L314.231 67.5079ZM312.712 94.2921C309.462 92.1704 307.265 89.9252 307.044 86.1499C306.816 82.2547 308.672 76.5549 314.23 67.5102L312.841 66.6567C307.261 75.7371 305.157 81.8117 305.416 86.2451C305.683 90.7985 308.419 93.4364 311.82 95.6571L312.712 94.2921ZM313.795 94.9693C313.425 94.7195 313.146 94.5314 312.662 94.2622L311.87 95.687C312.29 95.9206 312.521 96.0761 312.883 96.3208L313.795 94.9693ZM314.125 95.1906C314.003 95.1096 313.896 95.0373 313.795 94.9693L312.883 96.3208C312.984 96.3886 313.095 96.4636 313.221 96.5477L314.125 95.1906ZM323.759 98.5677C321.345 98.3556 317.627 97.522 314.125 95.1906L313.221 96.5477C317.007 99.0676 321.006 99.9624 323.617 100.192L323.759 98.5677ZM331.648 86.8574C328.895 90.4476 324.401 96.6175 322.99 98.9589L324.386 99.8005C325.744 97.5479 330.184 91.4456 332.942 87.8496L331.648 86.8574Z"></path>
</svg>
