<svg width="32" height="25" viewBox="0 0 32 25" fill="none" xmlns="http://www.w3.org/2000/svg">
<path fill-rule="evenodd" clip-rule="evenodd" d="M29.8293 4.55225C30.37 5.20752 31.0767 5.15077 31.3754 4.66468L31.3743 4.66575C31.5703 4.34668 31.5232 3.93447 31.2919 3.6411C28.0371 -0.495717 26.5906 1.05871 25.0436 2.72109C24.0686 3.7689 23.0536 4.85959 21.5208 4.59508C20.5144 4.42839 19.8082 3.63084 19.1039 2.83535C18.2384 1.85781 17.3756 0.883373 15.9618 1.08644C14.8118 1.18938 14.1005 2.01493 13.3864 2.84374C12.7117 3.62692 12.0344 4.41302 10.982 4.59508C9.50005 4.91896 8.6075 3.91921 7.70074 2.90353C7.00379 2.12286 6.29844 1.33279 5.31059 1.12712C3.59984 0.722411 2.42016 2.17331 1.4081 3.41806C1.31169 3.53662 1.21681 3.65332 1.12313 3.76637C1.0439 3.86166 1 3.98051 1 4.10578V4.11327C1 4.47945 1.19701 4.82956 1.52892 4.98481C1.92293 5.16897 2.26234 4.96768 2.75164 4.48052C5.02529 2.66448 6.25312 3.98218 7.52227 5.34423C8.51885 6.41375 9.5409 7.51061 11.1148 7.13904C12.0443 6.95097 12.7141 6.18834 13.3862 5.42317C14.1758 4.52427 14.9684 3.62184 16.1888 3.64324C17.4625 3.5515 18.2899 4.4869 19.1144 5.41905C19.7911 6.18404 20.4658 6.94685 21.3838 7.13797C22.9439 7.55848 23.8674 6.52667 24.806 5.47793C25.533 4.66552 26.2692 3.84295 27.3175 3.6775C28.2394 3.51904 29.1719 3.90556 29.8293 4.55225ZM31.3754 13.3115C31.0767 13.7976 30.37 13.8544 29.8293 13.1991C29.1719 12.5524 28.2394 12.1659 27.3175 12.3244C26.2692 12.4898 25.533 13.3124 24.806 14.1248C23.8674 15.1735 22.9439 16.2053 21.3838 15.7848C20.4658 15.5937 19.7911 14.8309 19.1144 14.0659C18.2899 13.1337 17.4625 12.1984 16.1888 12.2901C14.9684 12.2687 14.1758 13.1711 13.3862 14.07C12.7141 14.8352 12.0443 15.5978 11.1148 15.7859C9.5409 16.1575 8.51885 15.0606 7.52227 13.9911C6.25312 12.629 5.02529 11.3113 2.75164 13.1274C2.26234 13.6145 1.92293 13.8158 1.52892 13.6317C1.19701 13.4764 1 13.1263 1 12.7601V12.7526C1 12.6274 1.0439 12.5085 1.12313 12.4132C1.21745 12.2995 1.31298 12.1821 1.41003 12.0628C2.42238 10.8187 3.6008 9.37046 5.31059 9.77397C6.29844 9.97964 7.00379 10.7697 7.70074 11.5504C8.6075 12.5661 9.50005 13.5658 10.982 13.2419C12.0344 13.0599 12.7117 12.2738 13.3864 11.4906C14.1005 10.6618 14.8118 9.83623 15.9618 9.73329C17.3756 9.53022 18.2384 10.5047 19.1039 11.4822C19.8082 12.2777 20.5144 13.0752 21.5208 13.2419C23.0536 13.5064 24.0686 12.4157 25.0436 11.3679C26.5906 9.70556 28.0371 8.15113 31.2919 12.2879C31.5232 12.5813 31.5703 12.9935 31.3743 13.3126L31.3754 13.3115ZM31.3754 21.9584C31.0767 22.4445 30.37 22.5012 29.8293 21.846C29.1719 21.1993 28.2394 20.8128 27.3175 20.9712C26.2692 21.1367 25.533 21.9593 24.806 22.7717C23.8674 23.8204 22.9439 24.8522 21.3838 24.4317C20.4658 24.2406 19.7911 23.4778 19.1144 22.7128C18.2899 21.7806 17.4625 20.8452 16.1888 20.937C14.9684 20.9156 14.1758 21.818 13.3862 22.7169C12.7141 23.4821 12.0443 24.2447 11.1148 24.4328C9.5409 24.8043 8.51885 23.7075 7.52227 22.638C6.25312 21.2759 5.02529 19.9582 2.75164 21.7743C2.26234 22.2614 1.92293 22.4627 1.52892 22.2785C1.19701 22.1233 1 21.7732 1 21.407V21.3995C1 21.2742 1.0439 21.1554 1.12313 21.0601C1.21741 20.9464 1.31289 20.8291 1.4099 20.7099L1.41003 20.7097C2.42238 19.4656 3.6008 18.0174 5.31059 18.4209C6.29844 18.6265 7.00379 19.4166 7.70074 20.1973C8.6075 21.2129 9.50005 22.2127 10.982 21.8888C12.0344 21.7068 12.7117 20.9207 13.3864 20.1375C14.1005 19.3087 14.8118 18.4831 15.9618 18.3802C17.3756 18.1771 18.2384 19.1515 19.1039 20.1291C19.8082 20.9246 20.5144 21.7221 21.5208 21.8888C23.0536 22.1533 24.0686 21.0626 25.0436 20.0148C26.5906 18.3524 28.0371 16.798 31.2919 20.9348C31.5232 21.2282 31.5703 21.6404 31.3743 21.9595L31.3754 21.9584Z" fill="black"/>
<path d="M31.3754 4.66468L31.4819 4.73012L31.2871 4.57625L31.3754 4.66468ZM29.8293 4.55225L29.9263 4.47227L29.917 4.46314L29.8293 4.55225ZM31.3743 4.66575L31.2678 4.60034L31.4627 4.75418L31.3743 4.66575ZM31.2919 3.6411L31.1937 3.71839L31.1937 3.71849L31.2919 3.6411ZM25.0436 2.72109L25.1352 2.80625L25.0436 2.72109ZM21.5208 4.59508L21.5421 4.4719L21.5412 4.47176L21.5208 4.59508ZM19.1039 2.83535L19.0103 2.91821V2.91821L19.1039 2.83535ZM15.9618 1.08644L15.9729 1.21112L15.9796 1.21017L15.9618 1.08644ZM13.3864 2.84374L13.4811 2.92533L13.3864 2.84374ZM10.982 4.59508L10.9607 4.47179L10.9553 4.47296L10.982 4.59508ZM7.70074 2.90353L7.79399 2.82028L7.70074 2.90353ZM5.31059 1.12712L5.2818 1.24881L5.28511 1.2495L5.31059 1.12712ZM1.4081 3.41806L1.50508 3.49691H1.50508L1.4081 3.41806ZM1.12313 3.76637L1.21925 3.84629L1.21938 3.84613L1.12313 3.76637ZM1.52892 4.98481L1.47596 5.09804L1.47599 5.09805L1.52892 4.98481ZM2.75164 4.48052L2.67317 4.38226L2.66345 4.39194L2.75164 4.48052ZM7.52227 5.34423L7.61372 5.25901L7.52227 5.34423ZM11.1148 7.13904L11.09 7.01646L11.0861 7.01738L11.1148 7.13904ZM13.3862 5.42317L13.2923 5.34067L13.3862 5.42317ZM16.1888 3.64324L16.1866 3.76872L16.1978 3.76792L16.1888 3.64324ZM19.1144 5.41905L19.0208 5.50187V5.50187L19.1144 5.41905ZM21.3838 7.13797L21.4163 7.01707L21.4092 7.01559L21.3838 7.13797ZM24.806 5.47793L24.7128 5.39457L24.806 5.47793ZM27.3175 3.6775L27.337 3.80099L27.3387 3.8007L27.3175 3.6775ZM29.8293 13.1991L29.9263 13.1191L29.917 13.11L29.8293 13.1991ZM31.3754 13.3115L31.4819 13.377L31.2871 13.2231L31.3754 13.3115ZM27.3175 12.3244L27.337 12.4478L27.3387 12.4475L27.3175 12.3244ZM24.806 14.1248L24.8991 14.2081L24.806 14.1248ZM21.3838 15.7848L21.4163 15.6639L21.4092 15.6624L21.3838 15.7848ZM19.1144 14.0659L19.0208 14.1487L19.1144 14.0659ZM16.1888 12.2901L16.1866 12.4156L16.1978 12.4148L16.1888 12.2901ZM13.3862 14.07L13.2923 13.9875L13.3862 14.07ZM11.1148 15.7859L11.09 15.6633L11.0861 15.6642L11.1148 15.7859ZM7.52227 13.9911L7.61372 13.9059L7.52227 13.9911ZM2.75164 13.1274L2.67317 13.0291L2.66345 13.0388L2.75164 13.1274ZM1.52892 13.6317L1.47596 13.7449L1.47599 13.7449L1.52892 13.6317ZM1.12313 12.4132L1.21925 12.4931L1.21934 12.493L1.12313 12.4132ZM1.41003 12.0628L1.31307 11.9839L1.31307 11.9839L1.41003 12.0628ZM5.31059 9.77397L5.28187 9.89567L5.28511 9.89635L5.31059 9.77397ZM7.70074 11.5504L7.6075 11.6336L7.70074 11.5504ZM10.982 13.2419L10.9607 13.1186L10.9553 13.1198L10.982 13.2419ZM13.3864 11.4906L13.4811 11.5722L13.3864 11.4906ZM15.9618 9.73329L15.9729 9.85797L15.9796 9.85702L15.9618 9.73329ZM19.1039 11.4822L19.0103 11.5651L19.1039 11.4822ZM21.5208 13.2419L21.5421 13.1187L21.5412 13.1186L21.5208 13.2419ZM25.0436 11.3679L25.1352 11.4531L25.0436 11.3679ZM31.2919 12.2879L31.1937 12.3652L31.1937 12.3653L31.2919 12.2879ZM31.3743 13.3126L31.2678 13.2472L31.4627 13.401L31.3743 13.3126ZM29.8293 21.846L29.9263 21.766L29.917 21.7569L29.8293 21.846ZM31.3754 21.9584L31.4819 22.0239L31.2871 21.8699L31.3754 21.9584ZM27.3175 20.9712L27.337 21.0947L27.3387 21.0944L27.3175 20.9712ZM24.806 22.7717L24.7128 22.6883L24.806 22.7717ZM21.3838 24.4317L21.4163 24.3108L21.4092 24.3093L21.3838 24.4317ZM19.1144 22.7128L19.0208 22.7956L19.1144 22.7128ZM16.1888 20.937L16.1866 21.0625L16.1978 21.0617L16.1888 20.937ZM13.3862 22.7169L13.2923 22.6344L13.3862 22.7169ZM11.1148 24.4328L11.09 24.3102L11.0861 24.3111L11.1148 24.4328ZM7.52227 22.638L7.43082 22.7232L7.52227 22.638ZM2.75164 21.7743L2.67317 21.676L2.66345 21.6857L2.75164 21.7743ZM1.52892 22.2785L1.47596 22.3918L1.47599 22.3918L1.52892 22.2785ZM1.12313 21.0601L1.21925 21.14L1.21934 21.1399L1.12313 21.0601ZM1.4099 20.7099L1.31341 20.6304L1.31294 20.631L1.4099 20.7099ZM1.41003 20.7097L1.50652 20.7892L1.50699 20.7886L1.41003 20.7097ZM5.31059 18.4209L5.28187 18.5426L5.28511 18.5432L5.31059 18.4209ZM7.70074 20.1973L7.79399 20.114L7.70074 20.1973ZM10.982 21.8888L10.9607 21.7655L10.9553 21.7667L10.982 21.8888ZM13.3864 20.1375L13.4811 20.2191L13.3864 20.1375ZM15.9618 18.3802L15.9729 18.5049L15.9796 18.5039L15.9618 18.3802ZM19.1039 20.1291L19.0103 20.2119L19.1039 20.1291ZM21.5208 21.8888L21.5421 21.7656L21.5412 21.7655L21.5208 21.8888ZM25.0436 20.0148L25.1352 20.1L25.0436 20.0148ZM31.2919 20.9348L31.1937 21.0121L31.1937 21.0122L31.2919 20.9348ZM31.3743 21.9595L31.2678 21.8941L31.4626 22.048L31.3743 21.9595ZM31.2689 4.59923C31.1428 4.80439 30.9332 4.91737 30.6962 4.91151C30.4581 4.90563 30.1781 4.77854 29.9258 4.4727L29.7329 4.63181C30.0212 4.98123 30.3649 5.1534 30.69 5.16144C31.0162 5.1695 31.3093 5.01105 31.4819 4.73012L31.2689 4.59923ZM31.4627 4.75418L31.4638 4.7531L31.2871 4.57625L31.286 4.57732L31.4627 4.75418ZM31.1937 3.71849C31.3966 3.97585 31.4331 4.33125 31.2678 4.60034L31.4809 4.73116C31.7075 4.36212 31.6497 3.89309 31.3901 3.56371L31.1937 3.71849ZM25.1352 2.80625C25.5235 2.38892 25.897 1.98795 26.2917 1.68038C26.6851 1.3738 27.0899 1.16789 27.5376 1.13097C28.4301 1.05739 29.5685 1.65279 31.1937 3.71839L31.3901 3.56381C29.7605 1.49259 28.5482 0.796802 27.517 0.881819C27.0029 0.924207 26.5526 1.16005 26.138 1.48319C25.7246 1.80535 25.3373 2.22208 24.9521 2.63594L25.1352 2.80625ZM21.4995 4.71826C23.1098 4.99613 24.1713 3.84197 25.1352 2.80625L24.9521 2.63594C23.9658 3.69583 22.9975 4.72306 21.5421 4.4719L21.4995 4.71826ZM19.0103 2.91821C19.7072 3.70526 20.4423 4.54315 21.5004 4.7184L21.5412 4.47176C20.5865 4.31363 19.9093 3.55643 19.1975 2.75248L19.0103 2.91821ZM15.9796 1.21017C17.3166 1.01813 18.1352 1.92983 19.0103 2.91821L19.1975 2.75248C18.3415 1.78579 17.4346 0.748619 15.944 0.962709L15.9796 1.21017ZM13.4811 2.92533C14.2017 2.08904 14.8813 1.30866 15.9729 1.21094L15.9506 0.961937C14.7423 1.07011 13.9994 1.94081 13.2917 2.76215L13.4811 2.92533ZM11.0033 4.71825C12.107 4.5273 12.8122 3.70171 13.4811 2.92533L13.2917 2.76215C12.6111 3.55213 11.9617 4.29873 10.9607 4.47191L11.0033 4.71825ZM7.6075 2.98678C8.05817 3.49159 8.51931 4.00938 9.05794 4.35669C9.60333 4.70836 10.2306 4.88726 11.0087 4.7172L10.9553 4.47296C10.2515 4.62678 9.69149 4.46774 9.19342 4.14659C8.68859 3.82107 8.25007 3.33115 7.79399 2.82028L7.6075 2.98678ZM5.28511 1.2495C6.22533 1.44525 6.90372 2.19847 7.6075 2.98678L7.79399 2.82028C7.10385 2.04726 6.37155 1.22033 5.33607 1.00475L5.28511 1.2495ZM1.50508 3.49691C2.01339 2.87174 2.55137 2.21125 3.17145 1.7547C3.78681 1.30163 4.47236 1.05727 5.28181 1.24877L5.33937 1.00548C4.43807 0.792262 3.67841 1.07099 3.02323 1.55338C2.37277 2.03229 1.81487 2.71962 1.31111 3.3392L1.50508 3.49691ZM1.21938 3.84613C1.31349 3.73255 1.40875 3.6154 1.50508 3.49691L1.31111 3.3392C1.21463 3.45785 1.12012 3.57409 1.02688 3.68661L1.21938 3.84613ZM1.125 4.10578C1.125 4.01018 1.15837 3.9195 1.21925 3.84629L1.02701 3.68645C0.929425 3.80382 0.875 3.95084 0.875 4.10578H1.125ZM1.125 4.11327V4.10578H0.875V4.11327H1.125ZM1.58188 4.87159C1.29925 4.73939 1.125 4.43709 1.125 4.11327H0.875C0.875 4.52181 1.09477 4.91974 1.47596 5.09804L1.58188 4.87159ZM2.66345 4.39194C2.42012 4.6342 2.22639 4.79222 2.05309 4.87049C1.88891 4.94465 1.74375 4.94724 1.58185 4.87157L1.47599 5.09805C1.7081 5.20654 1.92965 5.20057 2.156 5.09833C2.37324 5.00021 2.59387 4.814 2.83984 4.5691L2.66345 4.39194ZM7.61372 5.25901C6.98527 4.58456 6.3401 3.88814 5.55636 3.60312C4.7529 3.31093 3.8324 3.45731 2.67363 4.38285L2.82966 4.57819C3.94453 3.6877 4.77476 3.5849 5.47092 3.83807C6.1868 4.0984 6.79012 4.74185 7.43082 5.42944L7.61372 5.25901ZM11.0861 7.01738C10.3376 7.19407 9.72259 7.02339 9.16841 6.67612C8.60808 6.32499 8.11462 5.79658 7.61372 5.25901L7.43082 5.42944C7.92649 5.9614 8.44236 6.51617 9.03566 6.88796C9.63513 7.26361 10.3181 7.45557 11.1435 7.26069L11.0861 7.01738ZM13.2923 5.34067C12.6127 6.11437 11.9705 6.83837 11.09 7.01652L11.1396 7.26155C12.1181 7.06356 12.8155 6.26231 13.4802 5.50566L13.2923 5.34067ZM16.191 3.51826C14.9029 3.49567 14.0725 4.45242 13.2923 5.34067L13.4802 5.50566C14.2791 4.59611 15.0339 3.74801 16.1866 3.76822L16.191 3.51826ZM19.2081 5.33624C18.3939 4.41572 17.5256 3.42164 16.1798 3.51856L16.1978 3.76792C17.3995 3.68137 18.186 4.55807 19.0208 5.50187L19.2081 5.33624ZM21.4092 7.01559C20.5397 6.83455 19.8924 6.10988 19.2081 5.33624L19.0208 5.50187C19.6898 6.2582 20.392 7.05915 21.3583 7.26034L21.4092 7.01559ZM24.7128 5.39457C24.2406 5.92221 23.7871 6.42745 23.2621 6.75265C22.745 7.07301 22.1594 7.21756 21.4163 7.01727L21.3512 7.25866C22.1683 7.47888 22.8245 7.31779 23.3938 6.96518C23.9552 6.61743 24.4327 6.08239 24.8991 5.56129L24.7128 5.39457ZM27.298 3.55403C26.1979 3.72766 25.4325 4.59043 24.7128 5.39457L24.8991 5.56129C25.6336 4.74061 26.3405 3.95824 27.337 3.80097L27.298 3.55403ZM29.917 4.46314C29.2376 3.79477 28.2662 3.38759 27.2963 3.55431L27.3387 3.8007C28.2125 3.65049 29.1063 4.01635 29.7417 4.64137L29.917 4.46314ZM29.7329 13.2787C30.0212 13.6281 30.3649 13.8003 30.69 13.8083C31.0162 13.8163 31.3093 13.6579 31.4819 13.377L31.2689 13.2461C31.1428 13.4512 30.9332 13.5642 30.6962 13.5584C30.4581 13.5525 30.1781 13.4254 29.9258 13.1195L29.7329 13.2787ZM27.3387 12.4475C28.2125 12.2973 29.1063 12.6632 29.7417 13.2882L29.917 13.11C29.2376 12.4416 28.2662 12.0344 27.2963 12.2012L27.3387 12.4475ZM24.8991 14.2081C25.6336 13.3875 26.3405 12.6051 27.337 12.4478L27.298 12.2009C26.1979 12.3745 25.4325 13.2373 24.7128 14.0414L24.8991 14.2081ZM21.3512 15.9055C22.1683 16.1257 22.8245 15.9646 23.3938 15.612C23.9552 15.2643 24.4327 14.7292 24.8991 14.2081L24.7128 14.0414C24.2406 14.5691 23.7871 15.0743 23.2621 15.3995C22.745 15.7199 22.1594 15.8644 21.4163 15.6641L21.3512 15.9055ZM19.0208 14.1487C19.6898 14.9051 20.392 15.706 21.3583 15.9072L21.4092 15.6624C20.5397 15.4814 19.8924 14.7567 19.2081 13.9831L19.0208 14.1487ZM16.1978 12.4148C17.3995 12.3282 18.186 13.2049 19.0208 14.1487L19.2081 13.9831C18.3939 13.0626 17.5256 12.0685 16.1798 12.1654L16.1978 12.4148ZM13.4802 14.1525C14.2791 13.243 15.0339 12.3949 16.1866 12.4151L16.191 12.1651C14.9029 12.1425 14.0725 13.0993 13.2923 13.9875L13.4802 14.1525ZM11.1396 15.9084C12.1181 15.7104 12.8155 14.9092 13.4802 14.1525L13.2923 13.9875C12.6127 14.7612 11.9705 15.4852 11.09 15.6634L11.1396 15.9084ZM7.43082 14.0763C7.92649 14.6082 8.44236 15.163 9.03566 15.5348C9.63513 15.9105 10.3181 16.1024 11.1435 15.9075L11.0861 15.6642C10.3376 15.8409 9.72259 15.6702 9.16841 15.323C8.60808 14.9718 8.11462 14.4434 7.61372 13.9059L7.43082 14.0763ZM2.82966 13.225C3.94453 12.3345 4.77476 12.2318 5.47092 12.4849C6.1868 12.7453 6.79012 13.3887 7.43082 14.0763L7.61372 13.9059C6.98527 13.2314 6.3401 12.535 5.55636 12.25C4.7529 11.9578 3.8324 12.1042 2.67363 13.0297L2.82966 13.225ZM1.47599 13.7449C1.7081 13.8534 1.92965 13.8474 2.156 13.7452C2.37324 13.6471 2.59387 13.4608 2.83984 13.216L2.66345 13.0388C2.42012 13.2811 2.22639 13.4391 2.05309 13.5173C1.88891 13.5915 1.74375 13.5941 1.58185 13.5184L1.47599 13.7449ZM0.875 12.7601C0.875 13.1687 1.09477 13.5666 1.47596 13.7449L1.58188 13.5184C1.29925 13.3862 1.125 13.0839 1.125 12.7601H0.875ZM0.875 12.7526V12.7601H1.125V12.7526H0.875ZM1.02701 12.3333C0.929425 12.4507 0.875 12.5977 0.875 12.7526H1.125C1.125 12.657 1.15837 12.5663 1.21925 12.4931L1.02701 12.3333ZM1.31307 11.9839C1.21595 12.1033 1.1208 12.2202 1.02692 12.3334L1.21934 12.493C1.3141 12.3788 1.41001 12.2609 1.50699 12.1417L1.31307 11.9839ZM5.3393 9.65232C4.43855 9.43974 3.67948 9.71806 3.02469 10.1999C2.37463 10.6782 1.81697 11.3647 1.31307 11.9839L1.50699 12.1417C2.01544 11.5169 2.55317 10.8572 3.17285 10.4012C3.78781 9.94874 4.47284 9.7047 5.28188 9.89563L5.3393 9.65232ZM7.79399 11.4671C7.10385 10.6941 6.37155 9.86718 5.33607 9.6516L5.28511 9.89635C6.22533 10.0921 6.90372 10.8453 7.6075 11.6336L7.79399 11.4671ZM10.9553 13.1198C10.2515 13.2736 9.69149 13.1146 9.19342 12.7934C8.68859 12.4679 8.25007 11.978 7.79399 11.4671L7.6075 11.6336C8.05817 12.1384 8.51931 12.6562 9.05794 13.0035C9.60333 13.3552 10.2306 13.5341 11.0087 13.364L10.9553 13.1198ZM13.2917 11.409C12.6111 12.199 11.9617 12.9456 10.9607 13.1188L11.0033 13.3651C12.107 13.1742 12.8122 12.3486 13.4811 11.5722L13.2917 11.409ZM15.9506 9.60879C14.7423 9.71696 13.9994 10.5877 13.2917 11.409L13.4811 11.5722C14.2017 10.7359 14.8813 9.95551 15.9729 9.85779L15.9506 9.60879ZM19.1975 11.3993C18.3415 10.4326 17.4346 9.39547 15.944 9.60956L15.9796 9.85702C17.3166 9.66498 18.1352 10.5767 19.0103 11.5651L19.1975 11.3993ZM21.5412 13.1186C20.5865 12.9605 19.9093 12.2033 19.1975 11.3993L19.0103 11.5651C19.7072 12.3521 20.4423 13.19 21.5004 13.3653L21.5412 13.1186ZM24.9521 11.2828C23.9658 12.3427 22.9975 13.3699 21.5421 13.1188L21.4995 13.3651C23.1098 13.643 24.1713 12.4888 25.1352 11.4531L24.9521 11.2828ZM31.3901 12.2107C29.7605 10.1394 28.5482 9.44365 27.517 9.52867C27.0029 9.57106 26.5526 9.8069 26.138 10.13C25.7246 10.4522 25.3373 10.8689 24.9521 11.2828L25.1352 11.4531C25.5235 11.0358 25.897 10.6348 26.2917 10.3272C26.6851 10.0206 27.0899 9.81474 27.5376 9.77782C28.4301 9.70424 29.5685 10.2996 31.1937 12.3652L31.3901 12.2107ZM31.4809 13.378C31.7075 13.009 31.6497 12.5399 31.3901 12.2106L31.1937 12.3653C31.3966 12.6227 31.4331 12.9781 31.2678 13.2472L31.4809 13.378ZM31.2871 13.2231L31.286 13.2242L31.4627 13.401L31.4638 13.4L31.2871 13.2231ZM29.7329 21.9255C30.0212 22.275 30.3649 22.4471 30.69 22.4552C31.0162 22.4632 31.3093 22.3048 31.4819 22.0239L31.2689 21.893C31.1428 22.0981 30.9332 22.2111 30.6962 22.2052C30.4581 22.1994 30.1781 22.0723 29.9258 21.7664L29.7329 21.9255ZM27.3387 21.0944C28.2125 20.9442 29.1063 21.3101 29.7417 21.9351L29.917 21.7569C29.2376 21.0885 28.2662 20.6813 27.2963 20.848L27.3387 21.0944ZM24.8991 22.855C25.6336 22.0343 26.3405 21.252 27.337 21.0947L27.298 20.8478C26.1979 21.0214 25.4325 21.8842 24.7128 22.6883L24.8991 22.855ZM21.3512 24.5524C22.1683 24.7726 22.8245 24.6115 23.3938 24.2589C23.9552 23.9112 24.4327 23.3761 24.8991 22.855L24.7128 22.6883C24.2406 23.2159 23.7871 23.7212 23.2621 24.0464C22.745 24.3667 22.1594 24.5113 21.4163 24.311L21.3512 24.5524ZM19.0208 22.7956C19.6898 23.5519 20.392 24.3529 21.3583 24.5541L21.4092 24.3093C20.5397 24.1283 19.8924 23.4036 19.2081 22.63L19.0208 22.7956ZM16.1978 21.0617C17.3995 20.9751 18.186 21.8518 19.0208 22.7956L19.2081 22.63C18.3939 21.7095 17.5256 20.7154 16.1798 20.8123L16.1978 21.0617ZM13.4802 22.7994C14.2791 21.8898 15.0339 21.0417 16.1866 21.062L16.191 20.812C14.9029 20.7894 14.0725 21.7462 13.2923 22.6344L13.4802 22.7994ZM11.1396 24.5553C12.1181 24.3573 12.8155 23.556 13.4802 22.7994L13.2923 22.6344C12.6127 23.4081 11.9705 24.1321 11.09 24.3103L11.1396 24.5553ZM7.43082 22.7232C7.92649 23.2551 8.44236 23.8099 9.03566 24.1817C9.63513 24.5573 10.3181 24.7493 11.1435 24.5544L11.0861 24.3111C10.3376 24.4878 9.72259 24.3171 9.16841 23.9699C8.60808 23.6187 8.11462 23.0903 7.61372 22.5527L7.43082 22.7232ZM2.82966 21.8719C3.94453 20.9814 4.77476 20.8786 5.47092 21.1318C6.1868 21.3921 6.79012 22.0356 7.43082 22.7232L7.61372 22.5527C6.98527 21.8783 6.3401 21.1819 5.55636 20.8969C4.7529 20.6047 3.8324 20.751 2.67363 21.6766L2.82966 21.8719ZM1.47599 22.3918C1.7081 22.5003 1.92965 22.4943 2.156 22.3921C2.37324 22.2939 2.59387 22.1077 2.83984 21.8628L2.66345 21.6857C2.42012 21.9279 2.22639 22.086 2.05309 22.1642C1.88891 22.2384 1.74375 22.241 1.58185 22.1653L1.47599 22.3918ZM0.875 21.407C0.875 21.8155 1.09477 22.2135 1.47596 22.3918L1.58188 22.1653C1.29925 22.0331 1.125 21.7308 1.125 21.407H0.875ZM0.875 21.3995V21.407H1.125V21.3995H0.875ZM1.02701 20.9802C0.929425 21.0976 0.875 21.2446 0.875 21.3995H1.125C1.125 21.3039 1.15837 21.2132 1.21925 21.14L1.02701 20.9802ZM1.31294 20.631C1.21587 20.7503 1.12076 20.8672 1.02692 20.9803L1.21934 21.1399C1.31406 21.0257 1.40992 20.9079 1.50686 20.7888L1.31294 20.631ZM1.31355 20.6302L1.31342 20.6304L1.50639 20.7894L1.50652 20.7892L1.31355 20.6302ZM5.3393 18.2992C4.43855 18.0866 3.67948 18.365 3.02469 18.8467C2.37463 19.3251 1.81697 20.0116 1.31308 20.6308L1.50699 20.7886C2.01544 20.1637 2.55317 19.5041 3.17285 19.0481C3.78781 18.5956 4.47284 18.3516 5.28188 18.5425L5.3393 18.2992ZM7.79399 20.114C7.10385 19.341 6.37155 18.5141 5.33607 18.2985L5.28511 18.5432C6.22533 18.739 6.90372 19.4922 7.6075 20.2805L7.79399 20.114ZM10.9553 21.7667C10.2515 21.9205 9.69149 21.7615 9.19342 21.4403C8.68859 21.1148 8.25007 20.6249 7.79399 20.114L7.6075 20.2805C8.05817 20.7853 8.51931 21.3031 9.05794 21.6504C9.60333 22.0021 10.2306 22.181 11.0087 22.0109L10.9553 21.7667ZM13.2917 20.0559C12.6111 20.8459 11.9617 21.5925 10.9607 21.7656L11.0033 22.012C12.107 21.821 12.8122 20.9954 13.4811 20.2191L13.2917 20.0559ZM15.9506 18.2557C14.7423 18.3638 13.9994 19.2345 13.2917 20.0559L13.4811 20.2191C14.2017 19.3828 14.8813 18.6024 15.9729 18.5047L15.9506 18.2557ZM19.1975 20.0462C18.3415 19.0795 17.4346 18.0424 15.944 18.2564L15.9796 18.5039C17.3166 18.3119 18.1352 19.2236 19.0103 20.2119L19.1975 20.0462ZM21.5412 21.7655C20.5865 21.6074 19.9093 20.8502 19.1975 20.0462L19.0103 20.2119C19.7072 20.999 20.4423 21.8369 21.5004 22.0121L21.5412 21.7655ZM24.9521 19.9297C23.9658 20.9896 22.9975 22.0168 21.5421 21.7656L21.4995 22.012C23.1098 22.2899 24.1713 21.1357 25.1352 20.1L24.9521 19.9297ZM31.3901 20.8575C29.7605 18.7863 28.5482 18.0905 27.517 18.1756C27.0029 18.2179 26.5526 18.4538 26.138 18.7769C25.7246 19.0991 25.3373 19.5158 24.9521 19.9297L25.1352 20.1C25.5235 19.6827 25.897 19.2817 26.2917 18.9741C26.6851 18.6675 27.0899 18.4616 27.5376 18.4247C28.4301 18.3511 29.5685 18.9465 31.1937 21.0121L31.3901 20.8575ZM31.4809 22.0249C31.7075 21.6559 31.6497 21.1868 31.3901 20.8575L31.1937 21.0122C31.3966 21.2696 31.4331 21.625 31.2678 21.8941L31.4809 22.0249ZM31.2871 21.8699L31.286 21.871L31.4626 22.048L31.4637 22.0469L31.2871 21.8699Z" fill="black"/>
</svg>
