<svg width="1352" height="457" viewBox="0 0 1352 457" fill="none" xmlns="http://www.w3.org/2000/svg" preserveAspectRatio="none">
	<g filter="url(#filter0_di_542_8719)">
		<path d="M1352 0H0V261.78C1.40136 268.655 1.17721 281.565 0.908229 297.057C0.237435 335.848 -0.712306 390.815 22.8718 407.679C64.124 437.178 108.333 398.502 121.549 338.737C134.766 278.973 126.964 205.353 96.9808 156.685C55.3868 89.1709 152.91 71.1079 152.91 132.443C152.91 204.359 245.169 241.841 310.079 193.722C330.212 178.797 347.714 155.637 359.017 122.715C383.501 51.3958 492.744 46.0893 539.013 108.299C605.417 197.577 781.778 191.836 839.707 108.299C868.037 67.4454 963.374 36.43 1007.68 132.443C1027.2 174.745 1081.82 170.253 1108.71 137.817C1140.76 99.1571 1211.84 154.172 1173.25 208.494C1097.98 314.449 1219.08 325.79 1219.08 261.78C1219.08 197.769 1291.24 222.721 1270.98 268.342C1251.99 311.123 1243.24 320.282 1243.24 372.241C1243.24 439.277 1299.06 462.661 1352 431.166V0Z" fill="#F8ECE2"/>
	</g>
	<defs>
		<filter id="filter0_di_542_8719" x="-4" y="-4" width="1360" height="457" filterUnits="userSpaceOnUse" color-interpolation-filters="sRGB">
			<feFlood flood-opacity="0" result="BackgroundImageFix"/>
			<feColorMatrix in="SourceAlpha" type="matrix" values="0 0 0 0 0 0 0 0 0 0 0 0 0 0 0 0 0 0 127 0" result="hardAlpha"/>
			<feOffset dy="4"/>
			<feGaussianBlur stdDeviation="2"/>
			<feComposite in2="hardAlpha" operator="out"/>
			<feColorMatrix type="matrix" values="0 0 0 0 0 0 0 0 0 0 0 0 0 0 0 0 0 0 0.25 0"/>
			<feBlend mode="normal" in2="BackgroundImageFix" result="effect1_dropShadow_542_8719"/>
			<feBlend mode="normal" in="SourceGraphic" in2="effect1_dropShadow_542_8719" result="shape"/>
			<feColorMatrix in="SourceAlpha" type="matrix" values="0 0 0 0 0 0 0 0 0 0 0 0 0 0 0 0 0 0 127 0" result="hardAlpha"/>
			<feOffset dy="-4"/>
			<feGaussianBlur stdDeviation="2"/>
			<feComposite in2="hardAlpha" operator="arithmetic" k2="-1" k3="1"/>
			<feColorMatrix type="matrix" values="0 0 0 0 0 0 0 0 0 0 0 0 0 0 0 0 0 0 0.25 0"/>
			<feBlend mode="normal" in2="shape" result="effect2_innerShadow_542_8719"/>
		</filter>
	</defs>
</svg>
