<svg width="24" height="29" viewBox="0 0 24 29" fill="none" xmlns="http://www.w3.org/2000/svg">
<path d="M12.9745 6.5955C15.74 11.0057 16.0084 16.9433 14.9439 21.6723C14.9439 22.0671 15.1779 22.2541 15.4971 22.2541C15.7737 22.2541 16.0929 22.0256 16.2419 21.5477C16.9015 19.5738 18.0141 18.1599 20.6526 18.1599C22.2059 18.1599 23.4188 19.3028 23.4188 21.1728C23.4188 21.5477 23.1635 21.9415 22.6954 22.087C19.9504 22.9389 16.2054 25.2033 15.0138 27.5928C14.7798 28.0706 14.4606 28.1953 14.0989 28.1953C13.7371 28.1953 13.4392 28.0706 13.1839 27.5928C11.9072 25.2033 8.26855 22.8765 5.50234 22.087C5.07678 21.9623 4.77888 21.6922 4.77888 21.1728C4.77888 19.3028 5.97047 18.1599 7.54508 18.1599C10.2049 18.1599 11.2962 19.5738 11.9559 21.5477C12.1048 22.0256 12.424 22.2541 12.7006 22.2541C13.041 22.2541 13.2538 22.0879 13.2538 21.6723C13.9722 17.1694 12.9398 14.6104 10.5359 11.9203C8.13202 9.23024 2.31703 6.53575 1.50554 5.49601C0.0226127 3.59598 1.50909 0.113355 4.17824 0.196785C6.8474 0.280215 10.8106 3.14466 12.9745 6.5955Z" fill="black"/>
</svg>
