<svg width="35" height="35" viewBox="0 0 35 35" fill="none" xmlns="http://www.w3.org/2000/svg">
<path d="M3.39853 9.56712C4.5809 9.26389 6.16703 8.85711 7.46103 7.54761C8.81939 6.20566 9.24368 4.53541 9.55513 3.3094C9.56555 3.2684 9.57584 3.22789 9.58603 3.18791C9.75439 2.52763 9.88386 2.05328 10.0683 1.69161C10.2306 1.37325 10.3994 1.21549 10.6287 1.12613C11.3419 0.87281 12.031 1.13858 13.2146 1.80123C13.3048 1.8517 13.3978 1.90451 13.4935 1.95889C14.528 2.54635 15.8854 3.31722 17.5 3.31722C19.1438 3.31722 20.5603 2.51295 21.6217 1.91027C21.6982 1.86681 21.7729 1.8244 21.8457 1.78342C22.4319 1.45336 22.8913 1.21109 23.3061 1.08536C23.6909 0.968699 23.9585 0.977442 24.1964 1.07621C24.8434 1.35523 25.0793 1.92584 25.4179 3.25788C25.4335 3.31914 25.4493 3.38166 25.4653 3.44535C25.7664 4.64164 26.1707 6.24764 27.5109 7.55275C28.8228 8.86112 30.4707 9.27425 31.6787 9.57708C31.7179 9.58691 31.7566 9.59661 31.7948 9.60623C32.4469 9.77027 32.9193 9.89666 33.2809 10.0754C33.6034 10.2348 33.753 10.3955 33.8358 10.5977C34.0758 11.2353 33.8388 11.8718 33.1814 13.0812C33.1413 13.1548 33.0999 13.2303 33.0575 13.3075C32.4737 14.3719 31.7042 15.7749 31.7042 17.4834C31.7042 19.2218 32.5223 20.6862 33.1309 21.7755C33.1652 21.8369 33.1988 21.8971 33.2316 21.9561C33.5622 22.5511 33.8008 23.0042 33.9221 23.4074C34.0342 23.7797 34.0169 24.0154 33.9242 24.2178L33.9231 24.2202C33.6503 24.8201 33.0949 25.0494 31.7754 25.3914C31.7215 25.4054 31.6666 25.4195 31.6108 25.4338C30.4306 25.7375 28.849 26.1444 27.5417 27.4497C26.1812 28.7921 25.7565 30.4638 25.4449 31.6906C25.4345 31.7316 25.4242 31.7721 25.414 31.8121C25.2456 32.4724 25.1161 32.9467 24.9317 33.3084C24.7694 33.6268 24.6006 33.7845 24.3712 33.8739C23.6581 34.1272 22.969 33.8614 21.7854 33.1988C21.6952 33.1483 21.6022 33.0955 21.5065 33.0411C20.472 32.4537 19.1146 31.6828 17.5 31.6828C15.8562 31.6828 14.4397 32.487 13.3783 33.0897C13.3018 33.1332 13.2271 33.1756 13.1543 33.2166C12.5681 33.5466 12.1087 33.7889 11.6939 33.9146C11.3091 34.0313 11.0415 34.0226 10.8036 33.9238C10.1566 33.6448 9.92067 33.0742 9.58205 31.7421C9.56648 31.6809 9.55074 31.6183 9.53471 31.5546C9.23359 30.3584 8.82934 28.7524 7.48914 27.4473C6.17717 26.1389 4.52928 25.7258 3.32133 25.4229C3.28214 25.4131 3.24342 25.4034 3.20519 25.3938C2.55313 25.2297 2.08068 25.1033 1.71908 24.9246C1.39666 24.7652 1.24697 24.6045 1.16425 24.4023C0.924183 23.7648 1.16119 23.1282 1.81865 21.9188C1.8587 21.8452 1.90009 21.7697 1.94246 21.6925C2.52627 20.6281 3.29582 19.2251 3.29582 17.5166C3.29582 15.7782 2.4777 14.3138 1.86913 13.2245C1.83484 13.1631 1.80121 13.1029 1.76844 13.0439C1.43776 12.4489 1.19924 11.9958 1.07787 11.5926C0.965839 11.2203 0.98314 10.9846 1.07583 10.7822L0.166731 10.366L1.07689 10.7798C1.34892 10.1816 1.9092 9.95162 3.23626 9.60883C3.28943 9.59509 3.34354 9.58122 3.39853 9.56712Z" fill="#F8ECE2" stroke="black" stroke-width="2"/>
</svg>
