<svg width="27" height="36" viewBox="0 0 27 36" fill="none" xmlns="http://www.w3.org/2000/svg">
<path d="M17.1228 4.74756C17.1228 9.72625 14.3145 19.6817 14.3145 26.3296C14.3145 26.8764 14.6387 27.1354 15.0808 27.1354C15.4639 27.1354 15.906 26.8188 16.1123 26.1569C17.0259 23.4229 18.5669 21.4647 22.2215 21.4647C24.3729 21.4647 26.0528 23.0476 26.0528 25.6376C26.0528 26.1569 25.6992 26.7024 25.0508 26.9039C21.2489 28.0838 16.0618 31.2202 14.4114 34.5297C14.0872 35.1916 13.6451 35.3643 13.1441 35.3643C12.6431 35.3643 12.2305 35.1916 11.8768 34.5297C10.1085 31.2202 5.06876 27.9975 1.2374 26.9039C0.64796 26.7312 0.235352 26.3571 0.235352 25.6376C0.235352 23.0476 1.88578 21.4647 4.06671 21.4647C7.75071 21.4647 9.26227 23.4229 10.1759 26.1569C10.3822 26.8188 10.8243 27.1354 11.2074 27.1354C11.679 27.1354 11.9737 26.9051 11.9737 26.3296C11.9737 19.7105 9.16537 9.72625 9.16537 4.74756C9.16537 1.40925 11.14 0.776123 13.1146 0.776123C15.0892 0.776123 17.0639 1.40925 17.0639 4.74756H17.1228Z" fill="black"/>
</svg>
