<svg width="245" height="304" viewBox="0 0 245 304" fill="none" xmlns="http://www.w3.org/2000/svg" preserveAspectRatio="none">
<path d="M5.89702 159.876C0.127968 157.284 0.0242684 149.514 5.65511 146.808C12.5768 143.481 13.5791 134.29 7.50433 129.594L5.49193 128.038C0.949749 124.527 2.62147 117.487 8.42346 116.359C15.6985 114.945 18.9102 106.506 14.1406 100.824L10.9133 96.9794C7.57887 93.0071 10.6535 86.9412 16.1967 87.3416C23.3373 87.8573 28.4582 80.5345 24.9822 74.2236L21.8643 68.5628C19.5696 64.3966 23.7175 59.367 28.6852 61.0755C35.2759 63.3422 41.9526 57.3617 39.705 50.6599L37.5745 44.3074C36.8397 42.1162 37.7125 40.1082 39.3461 38.9235C40.9864 37.7341 43.3018 37.4534 45.3526 38.7809C51.1175 42.5127 58.9862 37.983 57.9161 31.0602L57.0277 25.3128C56.6838 23.0881 57.8927 21.3069 59.7042 20.465C61.5218 19.6202 63.7924 19.8029 65.4435 21.4916C70.2384 26.3958 78.9673 23.3456 79.0562 16.3483L79.1077 12.2972C79.1365 10.0367 80.6556 8.47202 82.6123 7.95361C84.5733 7.43402 86.7673 8.02777 88.0349 9.99419C91.7938 15.8256 101.104 14.2547 102.365 7.33114L102.672 5.64141C103.508 1.04914 110.254 0.292897 112.093 4.79343C114.775 11.3585 124.427 11.286 126.899 4.60423C128.551 0.135707 135.333 0.611887 136.346 5.25862L136.713 6.94035L138.179 6.62073L136.713 6.94036C138.204 13.7771 147.546 15.2018 151.127 9.23639C153.563 5.17935 159.918 6.83451 160.135 11.3545L160.328 15.4026C160.66 22.3518 169.46 25.2448 174.11 20.1979C175.691 18.4818 177.948 18.2383 179.803 19.0436C181.654 19.8469 182.928 21.6091 182.662 23.8412L181.975 29.6073C181.152 36.5272 189.143 40.8878 194.794 37.0078C196.788 35.639 199.112 35.8572 200.804 37.0143C202.49 38.1676 203.43 40.1627 202.773 42.3653L200.867 48.7656C198.857 55.5122 205.722 61.3232 212.232 58.9006C217.143 57.0732 221.474 62.0218 219.329 66.2355L216.411 71.9678C213.152 78.3693 218.532 85.5437 225.634 84.8607C231.19 84.3264 234.451 90.3497 231.274 94.3771L228.183 98.2966C223.599 104.11 227.131 112.446 234.422 113.682C240.306 114.68 242.17 121.701 237.786 125.291L235.829 126.894C229.895 131.754 231.259 140.908 238.261 144.054C244.03 146.646 244.133 154.416 238.503 157.122C231.581 160.449 230.579 169.639 236.653 174.336L238.666 175.891C243.208 179.403 241.536 186.443 235.734 187.571C228.459 188.985 225.247 197.424 230.017 203.106L233.244 206.95C236.579 210.923 233.504 216.989 227.961 216.588C220.82 216.073 215.699 223.395 219.175 229.706L222.293 235.367C224.588 239.533 220.44 244.563 215.472 242.854C208.882 240.588 202.205 246.568 204.453 253.27L206.583 259.622C207.318 261.814 206.445 263.822 204.812 265.006C203.171 266.196 200.856 266.476 198.805 265.149C193.04 261.417 185.171 265.947 186.242 272.87L187.13 278.617C187.474 280.842 186.265 282.623 184.453 283.465C182.636 284.31 180.365 284.127 178.714 282.438C173.919 277.534 165.19 280.584 165.101 287.582L165.05 291.633C165.021 293.893 163.502 295.458 161.545 295.976C159.584 296.496 157.39 295.902 156.123 293.936C152.364 288.104 143.054 289.675 141.793 296.599L141.485 298.289C140.649 302.881 133.903 303.637 132.065 299.136C129.383 292.571 119.73 292.644 117.259 299.326C115.606 303.794 108.825 303.318 107.811 298.671L107.445 296.99C105.954 290.153 96.6116 288.728 93.0303 294.694C90.5946 298.751 84.2392 297.095 84.0231 292.575L83.8295 288.527C83.4973 281.578 74.6977 278.685 70.0481 283.732C68.467 285.448 66.2097 285.692 64.3544 284.886C62.5033 284.083 61.23 282.321 61.4957 280.089L62.1822 274.323C63.0061 267.403 55.0143 263.042 49.3634 266.922C47.3698 268.291 45.0453 268.073 43.3538 266.916C41.6678 265.762 40.728 263.767 41.3842 261.565L43.291 255.164C45.3009 248.418 38.4358 242.607 31.9256 245.029C27.0146 246.857 22.6836 241.908 24.8287 237.694L27.7468 231.962C31.0055 225.561 25.626 218.386 18.5238 219.069C12.9675 219.604 9.70705 213.58 12.8833 209.553L15.9744 205.633C20.5591 199.82 17.0266 191.484 9.73553 190.248C3.85188 189.25 1.9879 182.229 6.37115 178.639L8.32816 177.036C14.2627 172.176 12.8989 163.022 5.89702 159.876Z" fill="#FFD679" stroke="black" stroke-width="3"/>
</svg>
